<svg width="32" height="32" viewBox="0 0 32 32" fill="none" xmlns="http://www.w3.org/2000/svg">
<circle cx="16.0001" cy="16.0002" r="14.8571" fill="#EDEEFF"/>
<path d="M11.0587 25.3553L6.26229 24.3963C6.03227 24.3504 5.87368 24.1474 5.87538 23.9212V18.1512C5.87538 17.8404 6.16615 17.6127 6.46551 17.6824L11.2619 18.6416C11.492 18.6875 11.6506 18.8906 11.6487 19.1169V24.8865C11.6487 25.1972 11.3579 25.4249 11.0586 25.3552L11.0587 25.3553ZM6.83781 23.5302L10.6867 24.2999V19.5078L6.83781 18.7381V23.5302Z" fill="#575DC2"/>
<path d="M11.6489 24.2995L15.4975 23.5298V18.7377L11.6489 19.5074V24.2995ZM16.0423 24.402L11.2769 25.3551C10.9775 25.4249 10.6868 25.1972 10.6868 24.8863V19.1167C10.6848 18.8709 10.8558 18.6847 11.0917 18.6381L15.8698 17.6824C16.1691 17.6127 16.4598 17.8403 16.4598 18.1512V23.9212C16.4619 24.1784 16.2839 24.3543 16.0423 24.4022V24.402Z" fill="#575DC2"/>
<path d="M6.26295 17.6794C6.00248 17.7313 5.83335 17.9846 5.8852 18.2451C5.93705 18.5055 6.19035 18.6747 6.45083 18.6228L11.2621 17.6607C11.5225 17.6088 11.6917 17.3555 11.6398 17.0951C11.588 16.8346 11.3347 16.6655 11.0742 16.7173L6.26295 17.6794Z" fill="#575DC2"/>
<path d="M15.8847 18.6231C16.1452 18.6749 16.3985 18.5058 16.4504 18.2453C16.5023 17.9849 16.3331 17.7316 16.0726 17.6797L11.2618 16.7176C11.0013 16.6657 10.748 16.8349 10.6961 17.0954C10.6442 17.3558 10.8134 17.6091 11.0739 17.661L15.8847 18.6231Z" fill="#575DC2"/>
<path d="M20.6808 25.3553L15.8844 24.3963C15.6543 24.3504 15.4958 24.1474 15.4974 23.9212V18.1512C15.4974 17.8404 15.7882 17.6127 16.0876 17.6824L20.884 18.6416C21.114 18.6875 21.2726 18.8906 21.2708 19.1169V24.8865C21.2708 25.1972 20.98 25.4249 20.6807 25.3552L20.6808 25.3553ZM16.4599 23.5302L20.3088 24.2999V19.5078L16.4599 18.7381V23.5302Z" fill="#575DC2"/>
<path d="M21.2711 24.2994L25.1196 23.5298V18.7377L21.2711 19.5074V24.2994ZM20.899 25.3549C20.5996 25.4247 20.3089 25.1971 20.3089 24.8861V19.1166C20.3066 18.832 20.5029 18.6799 20.7554 18.6294L25.4916 17.6821C25.7909 17.6124 26.0817 17.84 26.0817 18.1509V23.9209C26.0835 24.1471 25.925 24.3502 25.6949 24.396L20.8988 25.355L20.899 25.3549Z" fill="#575DC2"/>
<path d="M15.8849 17.6794C15.6244 17.7313 15.4553 17.9846 15.5071 18.2451C15.559 18.5055 15.8123 18.6747 16.0728 18.6228L20.884 17.6607C21.1445 17.6088 21.3136 17.3555 21.2618 17.0951C21.2099 16.8346 20.9566 16.6655 20.6961 16.7173L15.8849 17.6794Z" fill="#575DC2"/>
<path d="M25.5063 18.6231C25.7668 18.6749 26.0202 18.5058 26.0721 18.2453C26.124 17.9849 25.9548 17.7316 25.6943 17.6797L20.8838 16.7176C20.6234 16.6657 20.3701 16.8349 20.3182 17.0954C20.2663 17.3558 20.4355 17.6091 20.6959 17.661L25.5065 18.6231H25.5063Z" fill="#575DC2"/>
<path d="M15.8695 18.6197L11.0767 17.6613C10.8488 17.6158 10.6847 17.419 10.6865 17.1856V11.4156C10.6865 11.1048 10.9773 10.8772 11.2767 10.9468L16.0691 11.9053C16.2949 11.9447 16.4615 12.1533 16.4597 12.381V18.1509C16.4597 18.4617 16.1689 18.6893 15.8697 18.6197H15.8695ZM11.6486 16.7946L15.4971 17.5643V12.7722L11.6486 12.0025V16.7946Z" fill="#575DC2"/>
<path d="M16.46 17.5642L20.3089 16.7945V12.0024L16.46 12.7721V17.5642ZM20.8797 17.6614L16.088 18.6197C15.7886 18.6895 15.4978 18.4619 15.4978 18.151V12.381C15.4954 12.0835 15.7005 11.9425 15.9576 11.8915L20.6811 10.9469C20.9805 10.8771 21.2713 11.1047 21.2713 11.4157V17.1856C21.2731 17.4158 21.1065 17.6199 20.8798 17.6615L20.8797 17.6614Z" fill="#575DC2"/>
<path d="M11.0739 10.9444C10.8134 10.9963 10.6443 11.2496 10.6961 11.5101C10.748 11.7705 11.0013 11.9396 11.2617 11.8878L16.0726 10.9254C16.3331 10.8735 16.5022 10.6203 16.4504 10.3598C16.3985 10.0993 16.1452 9.93018 15.8847 9.98203L11.0739 10.9444Z" fill="#575DC2"/>
<path d="M20.6961 11.8878C20.9566 11.9397 21.2099 11.7705 21.2618 11.5101C21.3137 11.2496 21.1445 10.9963 20.884 10.9444L16.0728 9.98204C15.8123 9.93017 15.559 10.0993 15.5072 10.3598C15.4553 10.6203 15.6244 10.8735 15.8849 10.9254L20.6961 11.8878Z" fill="#575DC2"/>
<path d="M23.1952 7.08563C23.1952 6.81995 22.9796 6.60458 22.7141 6.60458C22.4484 6.60458 22.2329 6.82009 22.2329 7.08563V13.8211C22.2329 14.0868 22.4484 14.3022 22.7141 14.3022C22.9798 14.3022 23.1952 14.0867 23.1952 13.8211V7.08563Z" fill="#575DC2"/>
<path d="M24.6383 12.3779C24.6383 12.1122 24.4228 11.8967 24.1571 11.8967C23.8915 11.8967 23.676 12.1122 23.676 12.3779V15.7457C23.676 16.0113 23.8915 16.2269 24.1571 16.2269C24.4228 16.2269 24.6383 16.0113 24.6383 15.7457V12.3779Z" fill="#575DC2"/>
<path d="M9.72421 7.08563C9.72421 6.81995 9.5087 6.60458 9.24316 6.60458C8.97747 6.60458 8.76196 6.82009 8.76196 7.08563V13.8211C8.76196 14.0868 8.97747 14.3022 9.24316 14.3022C9.5087 14.3022 9.72421 14.0867 9.72421 13.8211V7.08563Z" fill="#575DC2"/>
<path d="M8.28109 12.3779C8.28109 12.1122 8.06558 11.8967 7.7999 11.8967C7.53421 11.8967 7.31885 12.1122 7.31885 12.3779V15.7457C7.31885 16.0113 7.53436 16.2269 7.7999 16.2269C8.06558 16.2269 8.28109 16.0113 8.28109 15.7457V12.3779Z" fill="#575DC2"/>
</svg>
