<svg width="32" height="32" viewBox="0 0 32 32" fill="none" xmlns="http://www.w3.org/2000/svg">
<circle cx="16.0001" cy="15.9998" r="14.8571" fill="#EDEEFF"/>
<path fill-rule="evenodd" clip-rule="evenodd" d="M23.582 13.2334L23.5819 13.1823C23.5819 8.98023 20.1791 5.57718 15.9768 5.57718C11.7746 5.57718 8.37176 8.98 8.37176 13.1823V13.2334H8.32059C6.97998 13.2334 5.89722 14.3162 5.89722 15.6568V19.1887C5.89722 20.5293 6.97998 21.612 8.32059 21.612H10.2283V21.6121C10.6666 21.6121 11.0018 21.277 11.0018 20.8387V14.0069C11.0018 13.5686 10.6666 13.2334 10.2283 13.2334H9.91854V13.1823C9.91854 9.83065 12.6255 7.12373 15.9771 7.12373C19.3287 7.12373 22.0356 9.83087 22.0356 13.1823V13.2334H21.7261C21.2878 13.2334 20.9526 13.5686 20.9526 14.0069V20.8387C20.9526 21.2771 21.2878 21.6122 21.7261 21.6122H22.4187C22.1188 22.3097 21.4257 22.7976 20.6179 22.7976H19.1983C18.8653 21.632 17.7768 20.7617 16.4929 20.7617C14.9462 20.7617 13.6829 22.0249 13.6829 23.5717C13.6829 25.1184 14.9462 26.3817 16.5187 26.3817V26.3817C17.2922 26.3817 18.0397 26.0724 18.5554 25.5053C18.8782 25.1823 19.1 24.7785 19.2144 24.3444H20.6179C22.2981 24.3444 23.7055 23.157 24.0457 21.5773C25.1894 21.3823 26.0572 20.3888 26.0572 19.1886V15.6568C26.0572 14.3162 24.9744 13.2334 23.6338 13.2334H23.582ZM15.2297 23.5717C15.2297 22.8755 15.7968 22.3084 16.4929 22.3084L16.4929 22.3085C17.1889 22.3085 17.7561 22.8756 17.756 23.5719V23.5976C17.7819 23.9326 17.6529 24.2161 17.4467 24.4482C17.2148 24.7061 16.8796 24.8349 16.5186 24.8349C15.8227 24.8349 15.2297 24.2678 15.2297 23.5717Z" fill="#575DC2"/>
</svg>
