<svg width="32" height="32" viewBox="0 0 32 32" fill="none" xmlns="http://www.w3.org/2000/svg">
<circle cx="16.0001" cy="16.0002" r="14.8571" fill="#EDEEFF"/>
<path fill-rule="evenodd" clip-rule="evenodd" d="M18.1194 13.1901L23.5974 13.2288V13.1901L13.4822 6.29353C13.2112 6.10905 12.8778 6.04027 12.556 6.10268C12.2341 6.1651 11.9506 6.35331 11.7682 6.62568L9.12709 10.5745C9.12512 10.577 9.12304 10.5793 9.12097 10.5816L9.12097 10.5816C9.11767 10.5853 9.1144 10.5889 9.11159 10.5931C9.10804 10.5982 9.10529 10.6037 9.10252 10.6092C9.10098 10.6123 9.09944 10.6154 9.09775 10.6184L8.44108 11.6003L8.43525 11.607L8.43524 11.607C8.43189 11.6107 8.42855 11.6145 8.42558 11.6187C8.42206 11.6238 8.41938 11.6292 8.41668 11.6346C8.41514 11.6377 8.41359 11.6408 8.41188 11.6439L7.75521 12.6258C7.75317 12.6284 7.75101 12.6307 7.74886 12.6331C7.74563 12.6367 7.7424 12.6403 7.73958 12.6444C7.73613 12.6494 7.73343 12.6548 7.73076 12.6601C7.72913 12.6633 7.72751 12.6666 7.72574 12.6697L7.37782 13.1899H9.09043L8.42643 12.7373L8.76771 12.2272L10.18 13.19H11.2805L9.11243 11.7116L9.4537 11.2015L12.37 13.19H13.4705L9.79835 10.6861L11.2543 8.50938L18.1194 13.1901ZM20.4737 22.633C20.9784 22.9776 21.6 23.1055 22.1997 22.9881C22.7994 22.8707 23.3269 22.5178 23.6645 22.0085C24.0057 21.4982 24.1322 20.8739 24.0165 20.2707C23.9008 19.6677 23.5521 19.1347 23.046 18.787C22.5414 18.4424 21.9197 18.3146 21.3201 18.4319C20.7204 18.5493 20.1927 18.9021 19.8553 19.4115C19.5139 19.9218 19.3874 20.5461 19.5032 21.1491C19.6189 21.7522 19.9677 22.2853 20.4737 22.633ZM7.32008 13.8101H24.6801C25.0086 13.811 25.3235 13.9419 25.5558 14.1743C25.7882 14.4067 25.9191 14.7215 25.9201 15.0501V24.6601C25.9191 24.9886 25.7882 25.3035 25.5558 25.5358C25.3235 25.7682 25.0086 25.8991 24.6801 25.9001H7.32008C6.99151 25.8991 6.67667 25.7682 6.44432 25.5358C6.21197 25.3035 6.08105 24.9886 6.08008 24.6601V15.0501C6.08103 14.7215 6.21194 14.4067 6.44432 14.1743C6.6767 13.942 6.99153 13.811 7.32008 13.8101ZM25.1182 25.0982C25.2345 24.982 25.2999 24.8245 25.3001 24.6601L25.3001 16.9101H6.70009V19.5451H14.4501C14.6213 19.5451 14.7601 19.6839 14.7601 19.8551C14.7601 20.0263 14.6213 20.1651 14.4501 20.1651H6.70009V20.7851H14.4501C14.6213 20.7851 14.7601 20.9239 14.7601 21.0951C14.7601 21.2663 14.6213 21.4051 14.4501 21.4051H6.70009V22.0251H19.1001C19.2713 22.0251 19.4101 22.1639 19.4101 22.3351C19.4101 22.5063 19.2713 22.6451 19.1001 22.6451H6.70009V24.6601C6.70023 24.8245 6.7657 24.982 6.88194 25.0982C6.99818 25.2145 7.15568 25.2799 7.32009 25.2801H24.6801C24.8445 25.2799 25.002 25.2145 25.1182 25.0982Z" fill="#575DC2"/>
</svg>
