<svg width="55" height="50" viewBox="0 0 55 50" fill="none" xmlns="http://www.w3.org/2000/svg">
<path d="M46.9228 4.70119C50.5584 7.9796 52.6856 13.212 54.0135 19.7819C55.3285 26.3387 55.8442 34.2594 52.2086 40.0687C48.5859 45.8781 40.799 49.6024 32.664 49.9696C24.5162 50.3367 16.0073 47.3731 9.56125 41.5506C3.11515 35.7412 -1.26819 27.0862 0.330439 20.0573C1.92907 13.0284 9.49679 7.61242 15.9429 4.33401C22.389 1.05559 27.7134 -0.0984138 32.9348 0.00649553C38.1561 0.0982912 43.3001 1.42277 46.9228 4.70119Z" fill="#575DC2" fill-opacity="0.8"/>
<path d="M34 19L22 31" stroke="#FDFBFF" stroke-width="2" stroke-linecap="round" stroke-linejoin="round"/>
<path d="M22 19L34 31" stroke="#FDFBFF" stroke-width="2" stroke-linecap="round" stroke-linejoin="round"/>
</svg>
