<svg width="37" height="37" viewBox="0 0 37 37" fill="none" xmlns="http://www.w3.org/2000/svg">
<circle cx="18.5" cy="18.5" r="18.5" fill="white"/>
<path d="M16.5841 0.142815C13.0891 0.452885 9.42444 2.00323 6.6653 4.32874C4.16085 6.44285 2.57611 8.61333 1.34511 11.6154C-0.975398 17.3093 -0.267927 23.7644 3.26943 29.0074C4.18915 30.3604 6.67945 32.8551 7.9812 33.7007C9.38199 34.6168 10.6554 35.2933 11.7732 35.7162L12.7354 36.0685L12.6222 34.6309C12.127 28.2181 13.2731 22.2845 15.7209 18.6906C16.8387 17.0416 18.8621 15.1671 20.9845 13.7999C21.5081 13.4617 21.9042 13.1657 21.8618 13.1375C21.7769 13.0389 20.4752 13.5321 19.1451 14.1523C15.4662 15.8577 13.075 18.4228 11.6742 22.1295C11.2497 23.257 10.5422 25.7094 10.3159 26.8369C10.1178 27.8094 10.1036 27.8094 9.19805 26.0758C6.50965 20.9033 7.33032 15.8718 11.462 12.0523C13.2589 10.3892 16.2586 9.20528 19.513 8.85293C21.5505 8.62742 25.286 8.76836 26.9697 9.13481C28.1724 9.4026 29.7006 9.93817 29.7006 10.0932C29.7006 10.1355 29.4883 10.5583 29.2337 11.0375C28.2149 12.8979 27.6914 14.7583 27.0829 18.5919C26.6443 21.298 26.4179 22.2564 25.9227 23.553C24.8898 26.2309 21.791 28.655 18.1688 29.5993C17.6311 29.7544 16.5133 29.9094 15.7068 29.9658L14.2352 30.0504L14.3201 31.347C14.4192 32.7705 14.7163 34.3631 15.1408 35.8007L15.4238 36.745L16.9661 36.9142C21.0977 37.3652 25.9934 36.0121 29.4176 33.4893C33.2096 30.6846 35.6151 27.006 36.7187 22.3268C37.0583 20.9033 37.1007 16.506 36.7895 15.0684C35.233 7.68312 29.8704 2.15826 22.6683 0.481071C21.7486 0.269661 19.0461 -0.0263138 18.3103 0.00187683C18.0839 0.0159683 17.3057 0.0723457 16.5841 0.142815Z" fill="#8578E6"/>
</svg>
