<svg width="64" height="64" viewBox="0 0 64 64" fill="none" xmlns="http://www.w3.org/2000/svg">
<circle cx="32" cy="32" r="31.7091" fill="white" stroke="#AE9FBC" stroke-width="0.581818"/>
<g clip-path="url(#clip0_2308_290)">
<path d="M30.4602 51.767C40.5267 51.767 48.6872 43.6064 48.6872 33.5399C48.6872 23.4734 40.5267 15.3129 30.4602 15.3129C20.3937 15.3129 12.2332 23.4734 12.2332 33.5399C12.2332 43.6064 20.3937 51.767 30.4602 51.767Z" fill="#E94444"/>
<path d="M30.4604 46.7568C37.7599 46.7568 43.6772 40.8395 43.6772 33.54C43.6772 26.2406 37.7599 20.3232 30.4604 20.3232C23.161 20.3232 17.2437 26.2406 17.2437 33.54C17.2437 40.8395 23.161 46.7568 30.4604 46.7568Z" fill="#EBEBEB"/>
<path d="M30.4597 41.7468C34.9921 41.7468 38.6663 38.0726 38.6663 33.5403C38.6663 29.0079 34.9921 25.3337 30.4597 25.3337C25.9274 25.3337 22.2532 29.0079 22.2532 33.5403C22.2532 38.0726 25.9274 41.7468 30.4597 41.7468Z" fill="#E94444"/>
<path d="M30.4596 36.7361C32.2249 36.7361 33.6559 35.3051 33.6559 33.5398C33.6559 31.7746 32.2249 30.3436 30.4596 30.3436C28.6944 30.3436 27.2634 31.7746 27.2634 33.5398C27.2634 35.3051 28.6944 36.7361 30.4596 36.7361Z" fill="#5A5A5A"/>
<path d="M30.4597 15.3129C29.928 15.3129 29.402 15.337 28.8818 15.3816C38.2094 16.1816 45.5311 24.0051 45.5311 33.5399C45.5311 43.0747 38.2095 50.8982 28.8818 51.6982C29.402 51.7429 29.928 51.767 30.4597 51.767C40.5263 51.767 48.6867 43.6064 48.6867 33.5399C48.6867 23.4734 40.5263 15.3129 30.4597 15.3129V15.3129Z" fill="#D83131"/>
<path d="M47.3582 12.3161L43.3596 16.3147C43.1878 16.4865 43.098 16.724 43.1132 16.9665L43.3448 20.6559L48.0558 15.9449L47.8394 12.498C47.8242 12.2555 47.53 12.1443 47.3582 12.3161V12.3161Z" fill="#0055A3"/>
<path d="M51.6852 16.6424L47.6867 20.641C47.5148 20.8128 47.2774 20.9026 47.0349 20.8874L43.3455 20.6558L48.0565 15.9448L51.5033 16.1612C51.7459 16.1764 51.8571 16.4706 51.6852 16.6424V16.6424Z" fill="#0055A3"/>
<path d="M47.0866 21.4858C47.4681 21.4858 47.8359 21.3344 48.1073 21.063L52.1059 17.0644C52.6402 16.5301 52.2922 15.6131 51.5394 15.5658L49.4116 15.4323L50.8 14.0438C51.033 13.8108 51.033 13.4331 50.8 13.2002C50.567 12.9672 50.1893 12.9672 49.9563 13.2002L48.5678 14.5886L48.4343 12.4608C48.387 11.7066 47.4691 11.3611 46.9357 11.8943L42.9371 15.8929C42.6443 16.1857 42.4913 16.5907 42.5172 17.0039L42.6547 19.1937C39.3174 16.3482 35.0163 14.7164 30.4602 14.7164C20.0564 14.7164 11.6365 23.1353 11.6365 33.54C11.6365 38.2356 13.3753 42.733 16.5329 46.2036C16.7547 46.4472 17.132 46.465 17.3757 46.2434C17.6194 46.0216 17.6372 45.6443 17.4155 45.4006C14.4583 42.1502 12.8297 37.938 12.8297 33.54C12.8297 23.8185 20.7387 15.9095 30.4602 15.9095C35.0159 15.9095 39.3027 17.6555 42.5093 20.6471L39.7871 23.3692C37.3252 21.1094 34.0474 19.7265 30.4602 19.7265C22.8435 19.7265 16.6468 25.9232 16.6468 33.5399C16.6468 35.732 17.1756 37.9154 18.1763 39.8543C18.1764 39.8544 18.1764 39.8544 18.1764 39.8545C20.4951 44.3473 25.1648 47.3532 30.4602 47.3532C36.9853 47.3532 42.6603 42.7445 43.9866 36.3485C44.0535 36.0258 43.8462 35.71 43.5236 35.6431C43.201 35.5763 42.8852 35.7835 42.8183 36.1062C41.6102 41.9318 36.4129 46.1601 30.4603 46.1601C25.7187 46.1601 21.418 43.5342 19.2368 39.3073C19.2368 39.3072 19.2367 39.3072 19.2367 39.3071C18.31 37.5113 17.8401 35.571 17.8401 33.5399C17.8401 26.5811 23.5014 20.9197 30.4602 20.9197C33.7192 20.9197 36.6988 22.1687 38.9437 24.2126L36.2457 26.9106C34.6974 25.5577 32.673 24.7368 30.4602 24.7368C25.6062 24.7368 21.6572 28.6858 21.6572 33.5398C21.6572 38.3938 25.6062 42.3428 30.4602 42.3428C35.3142 42.3428 39.2633 38.3938 39.2633 33.5398C39.2633 31.327 38.4424 29.3026 37.0895 27.7543L39.7876 25.0562C41.8156 27.283 43.0617 30.2338 43.0802 33.4664C43.082 33.7947 43.3488 34.0596 43.6767 34.0596H43.6802C44.0097 34.0576 44.2752 33.789 44.2733 33.4595C44.253 29.9011 42.8736 26.6546 40.6313 24.2124L43.3536 21.4901C46.3324 24.675 48.0906 28.9364 48.0906 33.5397C48.0906 43.2614 40.1816 51.1705 30.4602 51.1705C26.4329 51.1705 22.4949 49.7773 19.3717 47.2477C19.1155 47.0404 18.7401 47.0798 18.5326 47.3357C18.3252 47.5918 18.3647 47.9675 18.6206 48.1749C21.9556 50.8761 26.1603 52.3636 30.4602 52.3636C40.8639 52.3636 49.2838 43.9447 49.2838 33.54C49.2838 29.4662 48.0036 25.5891 45.5818 22.3279C45.3311 21.9902 45.0699 21.6629 44.8 21.345C47.1387 21.4919 47.0127 21.4858 47.0866 21.4858V21.4858ZM38.0701 33.54C38.0701 37.7361 34.6563 41.1498 30.4602 41.1498C26.2641 41.1498 22.8503 37.7361 22.8503 33.54C22.8503 29.3439 26.2641 25.9301 30.4602 25.9301C32.3439 25.9301 34.0698 26.6184 35.4001 27.7563L32.6852 30.4712C32.0596 30.0164 31.2909 29.7472 30.4602 29.7472C28.3688 29.7472 26.6674 31.4486 26.6674 33.54C26.6674 35.6313 28.3688 37.3328 30.4602 37.3328C32.5516 37.3328 34.253 35.6313 34.253 33.54C34.253 32.7091 33.9838 31.9404 33.529 31.3149L36.2439 28.6C37.3817 29.9304 38.0701 31.6562 38.0701 33.54V33.54ZM30.0382 33.9619C30.2713 34.1949 30.649 34.1949 30.882 33.9619L32.6703 32.1735C32.9169 32.5709 33.0598 33.039 33.0598 33.54C33.0598 34.9735 31.8936 36.1397 30.4601 36.1397C29.0266 36.1397 27.8605 34.9735 27.8605 33.54C27.8605 32.1066 29.0266 30.9404 30.4601 30.9404C30.9611 30.9404 31.4293 31.0833 31.8266 31.3298L30.0382 33.1182C29.8053 33.3511 29.8053 33.7289 30.0382 33.9619V33.9619ZM43.7081 16.9292C43.7036 16.8575 43.7301 16.7873 43.7809 16.7366L47.2871 13.2305L47.4429 15.7136L43.8569 19.2996L43.7081 16.9292ZM44.7006 20.1433L48.2866 16.5572L50.7697 16.713L47.2635 20.2192C47.2129 20.27 47.1421 20.297 47.071 20.292L44.7006 20.1433Z" fill="black"/>
</g>
<defs>
<clipPath id="clip0_2308_290">
<rect width="40.7273" height="40.7273" fill="white" transform="translate(11.6365 11.6364)"/>
</clipPath>
</defs>
</svg>
