<svg width="64" height="64" viewBox="0 0 64 64" fill="none" xmlns="http://www.w3.org/2000/svg">
<circle cx="32" cy="32" r="31.7091" fill="white" stroke="#AE9FBC" stroke-width="0.581818"/>
<g clip-path="url(#clip0_2308_305)">
<path d="M25.4402 25.6357H40.4959V37.6002H25.4402V25.6357Z" fill="#E4E1E5"/>
<path d="M42.6128 20.3108L42.0721 19.1898C41.4079 17.8129 40.0141 16.9376 38.4852 16.9376C36.2859 16.9376 34.5029 18.7205 34.5029 20.92V22.833V27.712L43.6838 23.1636L42.6128 20.3108Z" fill="#D6D1D6"/>
<path d="M29.4973 22.8328V20.9197C29.4973 18.7204 27.7143 16.9374 25.515 16.9374C23.9862 16.9374 22.5923 17.8126 21.9281 19.1896L21.3874 20.3106L19.709 23.8801L29.4973 27.0775V22.8328Z" fill="#D6D1D6"/>
<path d="M24.0552 19.7181C22.8431 19.7181 21.685 20.0648 20.6983 20.6843C19.7115 21.3046 18.8961 22.197 18.3694 23.2884L13.5442 33.2926C13.5442 33.2926 23.6663 40.2311 23.8638 40.2311C24.0614 40.2311 30.3676 37.994 30.3676 37.994V28.6539V26.0306C30.3676 22.5444 27.5414 19.7181 24.0552 19.7181V19.7181Z" fill="#F8F7F8"/>
<path d="M48.8558 29.9744L45.6309 23.2882C45.1042 22.1967 44.2888 21.3043 43.302 20.684C42.3153 20.0645 41.1572 19.7179 39.9451 19.7179C36.4589 19.7179 33.6326 22.5441 33.6326 26.0304V35.0736L33.6326 35.0743L33.6326 37.9938L43.5419 39.5996L50.4561 33.2924L48.8558 29.9744Z" fill="#F8F7F8"/>
<path d="M50.4561 33.2925L48.8558 29.9746L48.3739 28.9755C48.2525 28.899 48.1301 28.824 48.0057 28.7524C46.3984 27.828 44.564 27.3394 42.7008 27.3394C41.17 27.3394 39.7146 27.6651 38.3984 28.2497C37.5665 28.6193 36.6286 28.023 36.6286 27.1127V25.5687C36.6286 22.9459 38.229 20.6963 40.5058 19.743C40.3206 19.7265 40.1333 19.7181 39.9451 19.7181C36.4589 19.7181 33.6326 22.5444 33.6326 26.0306V35.0737L33.6326 35.0744L33.6326 37.994L36.4614 38.4524L43.5419 39.5998L44.4238 38.7953L50.4561 33.2925Z" fill="#EFEDEE"/>
<path d="M50.456 33.2925C51.2889 34.6632 51.7688 36.2726 51.7688 37.9939C51.7688 43.0023 47.7091 47.0628 42.7007 47.0628C37.6923 47.0628 33.6326 43.0023 33.6326 37.9939C33.6326 32.9863 37.6923 28.9258 42.7007 28.9258C45.9878 28.9258 48.8656 30.6748 50.456 33.2925Z" fill="#E4E1E5"/>
<path d="M21.2995 27.3394C21.2939 27.3394 21.2883 27.3394 21.2827 27.3394C20.5472 27.3406 20.0592 26.5808 20.3787 25.9183L21.4272 23.7445C21.9539 22.653 22.7694 21.7606 23.7561 21.1403C24.5724 20.6279 25.5069 20.3026 26.4912 20.2053C25.7417 19.8917 24.9184 19.7181 24.0552 19.7181C22.8431 19.7181 21.685 20.0648 20.6983 20.6843C19.7115 21.3046 18.8961 22.197 18.3694 23.2884L13.5442 33.2926C13.5442 33.2926 13.5587 33.3025 13.5839 33.3198H16.8089L17.9167 31.0228L16.5426 35.3417C19.5443 37.388 23.7374 40.2311 23.8638 40.2311C24.0614 40.2311 30.3676 37.994 30.3676 37.994V32.4065C28.4887 29.3682 25.1268 27.3394 21.2995 27.3394V27.3394Z" fill="#EFEDEE"/>
<path d="M21.2996 28.9258C26.308 28.9258 30.3677 32.9863 30.3677 37.9939C30.3677 43.0023 26.308 47.0628 21.2996 47.0628C16.2912 47.0628 12.2314 43.0023 12.2314 37.9939C12.2314 36.2726 12.7113 34.6632 13.5442 33.2925C15.1346 30.6748 18.0124 28.9258 21.2996 28.9258V28.9258Z" fill="#E4E1E5"/>
<path d="M37.6512 37.9939C37.6512 33.6773 40.6689 30.0639 44.7095 29.1491C44.0635 29.003 43.3909 28.9258 42.7007 28.9258C37.6923 28.9258 33.6326 32.9863 33.6326 37.9939C33.6326 43.0023 37.6923 47.0628 42.7007 47.0628C43.3913 47.0628 44.0629 46.9859 44.7092 46.8396C40.6679 45.9252 37.6512 42.3117 37.6512 37.9939V37.9939Z" fill="#D6D1D6"/>
<path d="M16.2501 37.994C16.2501 36.2727 16.73 34.6632 17.5628 33.2925C18.8193 31.2245 20.8808 29.6994 23.3114 29.1498C22.6646 29.0034 21.9906 28.9258 21.2996 28.9258C18.0124 28.9258 15.1346 30.6748 13.5442 33.2925C12.7113 34.6632 12.2314 36.2726 12.2314 37.9939C12.2314 43.0023 16.2912 47.0628 21.2996 47.0628C21.9901 47.0628 22.6639 46.9853 23.3102 46.8391C19.2689 45.9248 16.2501 42.3118 16.2501 37.994V37.994Z" fill="#D6D1D6"/>
<path d="M27.4129 40.5329C28.8109 37.1601 27.21 33.2927 23.8373 31.8947C20.4645 30.4967 16.5971 32.0975 15.1991 35.4702C13.801 38.843 15.4019 42.7105 18.7746 44.1085C22.1474 45.5065 26.0148 43.9056 27.4129 40.5329Z" fill="#CFEFFC"/>
<path d="M18.5138 43.9873C17.1073 42.3897 16.2501 40.2898 16.2501 37.9939C16.2501 36.2726 16.73 34.6631 17.5629 33.2924C17.8409 32.8349 18.1604 32.4016 18.5123 32.002C16.2584 33.0557 14.6904 35.3463 14.6904 37.9943C14.6904 40.642 16.2602 42.9333 18.5138 43.9873Z" fill="#A9E4F9"/>
<path d="M45.2443 44.0946C48.617 42.6966 50.2179 38.8291 48.8198 35.4564C47.4218 32.0836 43.5544 30.4828 40.1816 31.8808C36.8089 33.2788 35.208 37.1463 36.606 40.519C38.004 43.8918 41.8715 45.4926 45.2443 44.0946Z" fill="#CFEFFC"/>
<path d="M39.9129 43.9865C38.5064 42.389 37.6513 40.2899 37.6513 37.994C37.6513 35.6985 38.5071 33.5994 39.9135 32.002C37.6599 33.0559 36.0916 35.3466 36.0916 37.9944C36.0916 40.6422 37.6593 42.9326 39.9129 43.9865Z" fill="#A9E4F9"/>
<path d="M14.0955 37.9943C14.0955 41.9667 17.3272 45.1984 21.2996 45.1984C25.2719 45.1984 28.5036 41.9667 28.5036 37.9943C28.5036 34.0219 25.2719 30.7902 21.2996 30.7902C17.3272 30.7901 14.0955 34.0218 14.0955 37.9943V37.9943ZM27.3139 37.9943C27.3139 41.3106 24.6159 44.0086 21.2997 44.0086C17.9834 44.0086 15.2853 41.3106 15.2853 37.9943C15.2853 34.678 17.9834 31.98 21.2996 31.98C24.6158 31.98 27.3139 34.6779 27.3139 37.9943V37.9943Z" fill="black"/>
<path d="M50.9961 33.0433C50.9946 33.0402 50.9936 33.037 50.9921 33.0339L46.1665 23.0297C45.4998 21.6473 44.3924 20.5508 43.0636 19.8754L42.6081 18.931C41.8496 17.3584 40.2313 16.3424 38.4854 16.3424C35.9615 16.3424 33.9082 18.3957 33.9082 20.9197V22.6772C33.5071 23.3963 33.2309 24.1939 33.1088 25.0408H30.8915C30.7695 24.1939 30.4933 23.3962 30.0921 22.6771V20.9197C30.0921 18.3958 28.0388 16.3424 25.5149 16.3424C23.769 16.3424 22.1508 17.3585 21.3922 18.9311L20.9367 19.8754C19.6079 20.5508 18.5005 21.6474 17.8338 23.0297L16.9979 24.7624C16.8552 25.0583 16.9794 25.4139 17.2753 25.5567C17.5712 25.6993 17.9268 25.5754 18.0696 25.2793L18.9054 23.5465C19.8528 21.5822 21.8744 20.313 24.0552 20.313C27.208 20.313 29.7729 22.8778 29.7729 26.0306V33.3492C29.2128 32.3281 28.4665 31.4046 27.5562 30.6305C27.3059 30.4176 26.9304 30.448 26.7177 30.6982C26.5048 30.9485 26.5352 31.324 26.7854 31.5368C28.6841 33.1514 29.7729 35.505 29.7729 37.994C29.7729 42.6662 25.9718 46.4673 21.2997 46.4673C16.6275 46.4673 12.8263 42.6663 12.8263 37.9941C12.8263 33.322 16.6274 29.5208 21.2996 29.5208C22.5141 29.5208 23.6863 29.7722 24.7838 30.268C25.0829 30.4031 25.4356 30.2702 25.5709 29.9707C25.7062 29.6712 25.5731 29.3189 25.2737 29.1836C24.0212 28.6179 22.6842 28.331 21.2996 28.331C19.2359 28.331 17.3216 28.9816 15.75 30.088L16.9653 27.5684C17.1081 27.2725 16.9839 26.9169 16.688 26.7741C16.3922 26.6316 16.0365 26.7555 15.8937 27.0515L13.0081 33.0339C13.0066 33.037 13.0056 33.0402 13.0041 33.0433C12.1363 34.4922 11.6365 36.1857 11.6365 37.9941C11.6365 43.3223 15.9713 47.6572 21.2996 47.6572C26.5607 47.6572 30.8528 43.4309 30.9602 38.195H33.0401C33.1475 43.4309 37.4396 47.6572 42.7006 47.6572C48.0289 47.6572 52.3637 43.3223 52.3637 37.9941C52.3637 36.1857 51.864 34.4922 50.9961 33.0433V33.0433ZM45.0949 23.5465L48.2501 30.0878C46.6786 28.9815 44.7643 28.3309 42.7006 28.3309C39.0534 28.3309 35.872 30.3623 34.2274 33.3528V26.0306C34.2274 22.8778 36.7923 20.313 39.9451 20.313C42.1259 20.313 44.1474 21.5823 45.0949 23.5465V23.5465ZM33.0376 37.0052H30.9628V26.2306H33.0376V37.0052ZM38.4854 17.5322C39.719 17.5322 40.865 18.2186 41.4549 19.2934C40.9643 19.1821 40.4584 19.1232 39.9451 19.1232C38.0582 19.1232 36.3459 19.884 35.098 21.1145V20.9197C35.0979 19.0518 36.6176 17.5322 38.4854 17.5322ZM24.0552 19.1231C23.5419 19.1231 23.036 19.1821 22.5454 19.2934C23.1354 18.2185 24.2814 17.5322 25.5149 17.5322C27.3827 17.5322 28.9023 19.0517 28.9023 20.9196V21.1144C27.6544 19.8839 25.9421 19.1231 24.0552 19.1231V19.1231ZM42.7006 46.4674C38.0285 46.4674 34.2274 42.6663 34.2274 37.9941C34.2274 33.322 38.0285 29.5208 42.7006 29.5208C47.3728 29.5208 51.1739 33.322 51.1739 37.9941C51.1739 42.6663 47.3728 46.4674 42.7006 46.4674Z" fill="black"/>
<path d="M45.4034 31.318C45.099 31.1942 44.7519 31.3409 44.6284 31.6453C44.5046 31.9497 44.6512 32.2967 44.9557 32.4203C47.2394 33.3479 48.715 35.5359 48.715 37.9942C48.715 41.3105 46.0169 44.0085 42.7007 44.0085C39.3845 44.0085 36.6865 41.3105 36.6865 37.9942C36.6865 34.6845 39.3791 31.9867 42.6889 31.9802C43.0174 31.9796 43.2832 31.7127 43.2826 31.3841C43.282 31.056 43.0158 30.7904 42.6877 30.7904C42.6873 30.7904 42.6869 30.7904 42.6865 30.7904C38.7221 30.7981 35.4966 34.0298 35.4966 37.9942C35.4966 41.9666 38.7283 45.1983 42.7006 45.1983C46.673 45.1983 49.9047 41.9666 49.9047 37.9942C49.9048 35.0494 48.138 32.4287 45.4034 31.318V31.318Z" fill="black"/>
</g>
<defs>
<clipPath id="clip0_2308_305">
<rect width="40.7273" height="40.7273" fill="white" transform="translate(11.6365 11.6364)"/>
</clipPath>
</defs>
</svg>
