<svg width="141" height="28" viewBox="0 0 141 28" fill="none" xmlns="http://www.w3.org/2000/svg">
<path d="M102.782 0.108078C100.136 0.342724 97.3605 1.51596 95.2712 3.27581C93.3748 4.87567 92.1748 6.5182 91.2427 8.79C89.4855 13.099 90.0212 17.9839 92.6998 21.9515C93.3962 22.9755 95.2819 24.8633 96.2677 25.5032C97.3284 26.1965 98.2927 26.7085 99.1391 27.0284L99.8677 27.2951L99.7819 26.2072C99.4069 21.3543 100.275 16.864 102.128 14.1442C102.975 12.8963 104.507 11.4778 106.114 10.4432C106.511 10.1872 106.811 9.96324 106.778 9.9419C106.714 9.86724 105.728 10.2405 104.721 10.7098C101.936 12.0004 100.125 13.9416 99.0641 16.7467C98.7427 17.5999 98.2069 19.4558 98.0355 20.309C97.8855 21.045 97.8748 21.045 97.1891 19.7331C95.1534 15.8187 95.7748 12.0111 98.9034 9.12064C100.264 7.86208 102.536 6.96616 105 6.69951C106.543 6.52886 109.371 6.63552 110.646 6.91283C111.557 7.11548 112.714 7.52078 112.714 7.6381C112.714 7.6701 112.553 7.99007 112.36 8.35271C111.589 9.76059 111.193 11.1685 110.732 14.0696C110.4 16.1174 110.228 16.8426 109.853 17.8239C109.071 19.8504 106.725 21.6849 103.982 22.3995C103.575 22.5168 102.728 22.6342 102.118 22.6768L101.003 22.7408L101.068 23.7221C101.143 24.7993 101.368 26.0045 101.689 27.0924L101.903 27.807L103.071 27.935C106.2 28.2763 109.907 27.2524 112.5 25.3433C115.371 23.2208 117.193 20.437 118.028 16.896C118.285 15.8187 118.318 12.491 118.082 11.4031C116.903 5.81426 112.843 1.63328 107.389 0.364056C106.693 0.204069 104.646 -0.0199108 104.089 0.00142097C103.918 0.012085 103.328 0.0547485 102.782 0.108078Z" fill="#8578E6"/>
<path d="M121.5 13.6856V26.9751H123.321H125.143L125.164 15.5841L125.196 4.2037L127.982 4.17171C129.514 4.16104 131.143 4.19304 131.604 4.24637C133.65 4.49168 135.139 5.83557 135.686 7.94739C135.9 8.76865 135.9 9.3446 135.696 10.2085C135.407 11.4244 134.796 12.299 133.768 12.9603C132.793 13.5789 132.375 13.6429 129.354 13.6429H126.643V14.5815V15.5201L128.175 17.3333C129.011 18.3358 131.164 20.9169 132.954 23.0608L136.211 26.9751H138.611C139.918 26.9751 141 26.9538 141 26.9324C141 26.9111 139.146 24.6926 136.875 22.0049L132.75 17.1199L133.521 16.928C136.854 16.064 139.05 13.5576 139.511 10.1019C139.779 8.00072 139.114 5.46227 137.829 3.71308C137.25 2.92381 136.05 1.87857 135.236 1.45194C134.839 1.23862 134.079 0.939983 133.554 0.769331L132.589 0.481356L127.05 0.438692L121.5 0.406696V13.6856Z" fill="#8578E6"/>
<path d="M0 13.7496V26.9751H1.875H3.74999V21.2156V15.4561H8.99999H14.25V13.6962V11.9364H8.99999H3.74999V8.04338V4.15038H9.69641H15.6428V2.3372V0.524023H7.82142H0V13.7496Z" fill="#8578E6"/>
<path d="M50.3036 6.39019C49.575 6.48618 48.4607 6.84881 47.9036 7.16879C47.1536 7.59542 45.7607 8.83265 45.75 9.07796C45.75 9.13129 45.7071 9.16328 45.6429 9.16328C45.5786 9.16328 45.5357 8.70466 45.5357 7.99005V6.81682H43.7679H42V16.896V26.9751H43.7679H45.5357V21.2263C45.5357 14.8161 45.5679 14.4535 46.2321 13.0456C46.6929 12.0964 47.7428 10.9551 48.6536 10.4112C49.7357 9.77123 50.6357 9.53658 51.9643 9.54725C52.5857 9.55792 53.2178 9.61125 53.3893 9.67524L53.6786 9.80323V8.21403V6.62483L53.175 6.51818C52.3928 6.34752 51.0214 6.2942 50.3036 6.39019Z" fill="#8578E6"/>
<path d="M25.5429 6.54982C22.1465 7.07244 19.3929 8.93895 17.9251 11.7227C17.0894 13.2906 16.7144 14.8691 16.7144 16.7463C16.7144 22.0258 19.9608 26.0468 25.0179 27.0281C28.5108 27.7 32.2822 26.8574 34.1572 24.9909C34.5322 24.6176 34.8643 24.3083 34.8858 24.3083C34.9072 24.3083 34.9286 24.9056 34.9286 25.6415V26.9747H36.6965H38.4643V16.8423V6.70981H36.6965H34.9286V8.05369V9.39758L34.3072 8.75763C32.4643 6.89112 29.0036 6.00587 25.5429 6.54982ZM29.6358 9.86687C32.4108 10.6561 34.2858 12.6933 34.7679 15.4024C34.9715 16.5756 34.9715 17.1302 34.7679 18.2075C34.5429 19.3914 34.2858 20.0313 33.6215 21.0126C32.3036 22.9964 29.5393 24.255 26.9251 24.0523C24.0429 23.839 21.8143 22.1538 20.7643 19.3914C20.4322 18.5168 20.4215 18.4421 20.4108 16.7889C20.4108 15.2851 20.4429 14.9971 20.6572 14.3358C21.1501 12.8746 21.9001 11.7974 22.9715 10.9974C24.3215 10.0055 25.5643 9.61089 27.4393 9.60023C28.4786 9.58956 28.8536 9.63222 29.6358 9.86687Z" fill="#8578E6"/>
<path d="M56.3569 16.6826V26.9751H58.1676H59.9891L60.0212 20.757C60.0641 13.9202 60.0534 14.0482 60.7605 12.619C61.1034 11.915 61.9391 10.9978 62.5712 10.6138C63.4819 10.0485 64.0712 9.88856 65.3676 9.82456C66.3533 9.79256 66.7283 9.81389 67.1569 9.95255C68.1962 10.3045 69.1498 11.2004 69.6426 12.3097C70.1569 13.4722 70.1783 13.8775 70.1783 20.6183V26.9751H71.9998H73.8212V21.2902C73.8212 15.5201 73.8855 14.1549 74.1855 13.2696C74.764 11.6057 75.8783 10.4858 77.4855 10.0059C78.0962 9.81389 78.4283 9.79256 79.4783 9.82456C80.5712 9.85656 80.7962 9.89922 81.2676 10.1445C82.2426 10.6458 82.8533 11.4244 83.2819 12.683C83.5069 13.3656 83.5176 13.5149 83.5497 20.1703L83.5819 26.9751H85.4033H87.214V20.6503C87.214 15.5307 87.1819 14.1442 87.0533 13.3229C86.4747 9.7179 84.6747 7.51009 81.6533 6.68883C80.539 6.37952 78.1712 6.35819 77.0998 6.64617C75.289 7.12613 73.8962 8.07538 72.9748 9.46193L72.6855 9.89922L72.2355 9.21661C70.9176 7.23278 68.5069 6.25153 65.3891 6.42218C63.3426 6.52884 62.0891 7.06213 60.8355 8.34202L59.9998 9.18462V7.7874V6.39019H58.1784H56.3569V16.6826Z" fill="#8578E6"/>
</svg>
