<svg width="1000" height="198" viewBox="0 0 1000 198" fill="none" xmlns="http://www.w3.org/2000/svg">
<path d="M728.375 0.764252C709.621 2.42355 689.956 10.72 675.15 23.1646C661.71 34.478 653.207 46.093 646.601 62.1579C634.149 92.6284 637.945 127.172 656.927 155.229C661.862 162.469 675.226 175.819 682.211 180.344C689.728 185.247 696.561 188.867 702.56 191.13L707.723 193.015L707.115 185.322C704.458 151.005 710.608 119.252 723.743 100.02C729.742 91.1954 740.599 81.1642 751.988 73.8483C754.798 72.0382 756.924 70.4543 756.696 70.3035C756.24 69.7755 749.255 72.4153 742.118 75.7339C722.377 84.8599 709.545 98.5868 702.028 118.423C699.75 124.457 695.954 137.58 694.739 143.614C693.676 148.818 693.6 148.818 688.741 139.541C674.314 111.861 678.718 84.9354 700.889 64.496C710.532 55.5961 726.629 49.2607 744.092 47.3751C755.025 46.1684 775.07 46.9226 784.106 48.8836C790.56 50.3166 798.76 53.1826 798.76 54.0123C798.76 54.2385 797.621 56.5012 796.254 59.0656C790.787 69.0213 787.978 78.977 784.713 99.4918C782.359 113.973 781.145 119.102 778.487 126.04C772.944 140.371 756.316 153.343 736.879 158.397C733.994 159.226 727.995 160.056 723.667 160.357L715.771 160.81L716.226 167.749C716.758 175.367 718.352 183.889 720.63 191.582L722.149 196.636L730.425 197.541C752.596 199.954 778.867 192.714 797.241 179.213C817.59 164.204 830.498 144.519 836.42 119.479C838.242 111.861 838.47 88.3294 836.8 80.6363C828.448 41.1151 799.671 11.5496 761.024 2.57439C756.088 1.44305 741.586 -0.140808 737.638 0.0100403C736.423 0.0854645 732.247 0.387146 728.375 0.764252Z" fill="#0D8D76"/>
<path d="M861.023 96.7768V190.753H873.931H886.839L886.991 110.202L887.218 29.7265L906.96 29.5002C917.817 29.4248 929.358 29.6511 932.623 30.0282C947.125 31.7629 957.679 41.2661 961.552 56.1997C963.07 62.0072 963.07 66.08 961.628 72.1892C959.578 80.7873 955.25 86.9719 947.961 91.6481C941.051 96.0226 938.09 96.4751 916.678 96.4751H897.469V103.112V109.749L908.326 122.571C914.249 129.661 929.51 147.913 942.19 163.073L965.272 190.753H982.28C991.543 190.753 999.212 190.602 999.212 190.451C999.212 190.3 986.076 174.612 969.98 155.606L940.747 121.063L946.214 119.705C969.828 113.596 985.393 95.8717 988.658 71.4349C990.556 56.5768 985.848 38.6263 976.737 26.2571C972.637 20.6758 964.133 13.2845 958.363 10.2676C955.553 8.75914 950.162 6.64733 946.442 5.44057L939.609 3.40418L900.354 3.10248L861.023 2.87622V96.7768Z" fill="#0D8D76"/>
<path d="M0 97.2293V190.753H13.2873H26.5747V150.025V109.297H63.7792H100.984V96.8522V84.4076H63.7792H26.5747V56.8785V29.3494H68.7145H110.854V16.5276V3.70588H55.4272H0V97.2293Z" fill="#0D8D76"/>
<path d="M356.481 45.188C351.318 45.8668 343.421 48.4312 339.473 50.6939C334.158 53.7107 324.287 62.4597 324.211 64.1944C324.211 64.5715 323.908 64.7978 323.452 64.7978C322.997 64.7978 322.693 61.5546 322.693 56.5014V48.2049H310.165H297.637V119.479V190.753H310.165H322.693V150.1C322.693 104.772 322.921 102.207 327.628 92.2515C330.893 85.5389 338.334 77.4687 344.788 73.6222C352.456 69.0969 358.834 67.4376 368.249 67.513C372.653 67.5884 377.133 67.9655 378.348 68.4181L380.398 69.3231V58.0852V46.8473L376.829 46.0931C371.287 44.8864 361.568 44.5092 356.481 45.188Z" fill="#0D8D76"/>
<path d="M181.01 46.3168C156.941 50.0125 137.427 63.2113 127.025 82.8965C121.103 93.9836 118.445 105.146 118.445 118.42C118.445 155.754 141.451 184.188 177.289 191.127C202.042 195.879 228.768 189.92 242.056 176.722C244.713 174.082 247.067 171.895 247.219 171.895C247.37 171.895 247.522 176.118 247.522 181.322V190.75H260.05H272.578V119.099V47.4481H260.05H247.522V56.9513V66.4545L243.119 61.9292C230.059 48.7303 205.534 42.4702 181.01 46.3168ZM210.014 69.773C229.679 75.3543 242.967 89.7599 246.383 108.917C247.826 117.214 247.826 121.136 246.383 128.753C244.789 137.125 242.967 141.65 238.259 148.589C228.92 162.618 209.331 171.517 190.804 170.084C170.38 168.576 154.587 156.659 147.146 137.125C144.792 130.94 144.716 130.412 144.64 118.722C144.64 108.087 144.868 106.051 146.387 101.375C149.879 91.0421 155.194 83.4245 162.787 77.7678C172.354 70.7535 181.162 67.9629 194.449 67.8875C201.814 67.8121 204.471 68.1138 210.014 69.773Z" fill="#0D8D76"/>
<path d="M399.383 117.97V190.753H412.215H425.122L425.35 146.782C425.654 98.4361 425.578 99.3411 430.589 89.2346C433.019 84.2567 438.941 77.7704 443.421 75.0552C449.875 71.0578 454.051 69.9265 463.238 69.474C470.223 69.2477 472.881 69.3986 475.918 70.379C483.283 72.868 490.04 79.2034 493.533 87.0473C497.178 95.2683 497.329 98.1344 497.329 145.801V190.753H510.237H523.145V150.553C523.145 109.749 523.6 100.095 525.726 93.8353C529.826 82.0695 537.723 74.1502 549.112 70.7562C553.44 69.3986 555.794 69.2477 563.235 69.474C570.979 69.7002 572.574 70.0019 575.915 71.7366C582.824 75.2815 587.152 80.7873 590.189 89.6871C591.783 94.5141 591.859 95.57 592.087 142.633L592.315 190.753H605.223H618.054V146.027C618.054 109.825 617.827 100.02 616.915 94.2124C612.815 68.7198 600.06 53.1074 578.648 47.2999C570.751 45.1126 553.971 44.9618 546.379 46.9982C533.547 50.3922 523.676 57.1048 517.147 66.9096L515.097 70.0019L511.908 65.1749C502.568 51.1464 485.485 44.2076 463.39 45.4143C448.888 46.1685 440.004 49.9397 431.121 58.9903L425.198 64.9487V55.0683V45.1881H412.291H399.383V117.97Z" fill="#0D8D76"/>
</svg>
