<svg width="600" height="120" viewBox="0 0 600 120" fill="none" xmlns="http://www.w3.org/2000/svg">
<path d="M437.37 1.31094C426.109 2.30944 414.3 7.30192 405.41 14.7906C397.34 21.5986 392.233 28.588 388.267 38.2553C380.79 56.5913 383.069 77.3782 394.467 94.2619C397.431 98.619 405.455 106.652 409.65 109.376C414.163 112.326 418.267 114.504 421.869 115.866L424.969 117L424.604 112.371C423.008 91.7203 426.701 72.6127 434.589 61.0392C438.191 55.729 444.71 49.6926 451.549 45.2902C453.236 44.2009 454.513 43.2478 454.376 43.157C454.103 42.8393 449.908 44.4278 445.622 46.4248C433.768 51.9166 426.063 60.1768 421.549 72.1134C420.182 75.7443 417.902 83.6415 417.172 87.2724C416.534 90.4041 416.489 90.4041 413.571 84.8216C404.908 68.1648 407.552 51.9619 420.865 39.6623C426.656 34.3067 436.321 30.4943 446.808 29.3596C453.373 28.6334 465.409 29.0873 470.835 30.2673C474.71 31.1297 479.634 32.8543 479.634 33.3536C479.634 33.4898 478.95 34.8513 478.13 36.3945C474.847 42.3855 473.16 48.3764 471.2 60.7215C469.786 69.4356 469.057 72.5219 467.461 76.6974C464.133 85.3208 454.148 93.1272 442.476 96.1681C440.744 96.6674 437.142 97.1666 434.543 97.3482L429.802 97.6205L430.075 101.796C430.394 106.38 431.352 111.509 432.72 116.138L433.631 119.179L438.601 119.724C451.914 121.176 467.689 116.819 478.723 108.695C490.941 99.6629 498.692 87.817 502.248 72.7488C503.343 68.1648 503.479 54.0043 502.476 49.3749C497.461 25.5926 480.181 7.80117 456.975 2.40021C454.011 1.71941 445.303 0.766304 442.932 0.857077C442.203 0.902463 439.695 1.08401 437.37 1.31094Z" fill="#8578E6"/>
<path d="M517.021 59.0875V115.639H524.772H532.523L532.614 67.1662L532.751 18.7391L544.605 18.603C551.125 18.5576 558.055 18.6937 560.015 18.9207C568.723 19.9646 575.061 25.6832 577.386 34.6697C578.298 38.1644 578.298 40.6153 577.432 44.2916C576.201 49.4656 573.602 53.1873 569.225 56.0012C565.076 58.6336 563.298 58.9059 550.441 58.9059H538.906V62.8999V66.8939L545.426 74.6096C548.982 78.8759 558.146 89.8593 565.76 98.982L579.62 115.639H589.833C595.395 115.639 600 115.548 600 115.457C600 115.366 592.112 105.926 582.447 94.4887L564.894 73.7018L568.176 72.8849C582.356 69.2086 591.702 58.5428 593.663 43.8377C594.802 34.8966 591.976 24.0947 586.505 16.6514C584.043 13.2928 578.936 8.84493 575.471 7.02949C573.784 6.12176 570.547 4.85095 568.313 4.12477L564.21 2.89934L540.638 2.71779L517.021 2.58164V59.0875Z" fill="#8578E6"/>
<path d="M0 59.3598V115.639H7.97871H15.9574V91.1301V66.6216H38.2978H60.6382V59.1329V51.6441H38.2978H15.9574V35.0782V18.5122H41.2613H66.5653V10.7966V3.08091H33.2826H0V59.3598Z" fill="#8578E6"/>
<path d="M214.057 28.0433C210.957 28.4518 206.215 29.9949 203.844 31.3565C200.653 33.172 194.726 38.4368 194.68 39.4806C194.68 39.7076 194.498 39.8437 194.224 39.8437C193.951 39.8437 193.768 37.8921 193.768 34.8512V29.8588H186.246H178.723V72.7487V115.639H186.246H193.768V91.1755C193.768 63.8984 193.905 62.3553 196.732 56.3643C198.692 52.3249 203.161 47.4686 207.036 45.1539C211.641 42.4307 215.471 41.4322 221.124 41.4776C223.768 41.523 226.458 41.7499 227.188 42.0223L228.419 42.5669V35.8044V29.0418L226.276 28.5879C222.948 27.8618 217.112 27.6348 214.057 28.0433Z" fill="#8578E6"/>
<path d="M108.693 28.7223C94.2399 30.9463 82.5226 38.8889 76.2764 50.7347C72.7202 57.4064 71.1244 64.1236 71.1244 72.1116C71.1244 94.5777 84.939 111.688 106.459 115.864C121.322 118.723 137.371 115.138 145.349 107.195C146.945 105.607 148.358 104.29 148.45 104.29C148.541 104.29 148.632 106.832 148.632 109.964V115.637H156.155H163.678V72.52V29.4031H156.155H148.632V35.1218V40.8405L145.988 38.1173C138.146 30.1747 123.419 26.4076 108.693 28.7223ZM126.109 42.8375C137.918 46.196 145.896 54.8648 147.948 66.3929C148.814 71.3854 148.814 73.7455 147.948 78.3295C146.991 83.3673 145.896 86.0905 143.07 90.266C137.462 98.7079 125.699 104.063 114.574 103.201C102.31 102.293 92.8265 95.1224 88.3584 83.3673C86.9451 79.6457 86.8995 79.328 86.8539 72.2931C86.8539 65.8936 86.9907 64.6682 87.9025 61.8543C89.9998 55.6364 93.1913 51.0524 97.7505 47.6484C103.495 43.4275 108.784 41.7482 116.763 41.7028C121.185 41.6574 122.781 41.839 126.109 42.8375Z" fill="#8578E6"/>
<path d="M239.817 71.841V115.639H247.522H255.273L255.409 89.1785C255.592 60.086 255.546 60.6306 258.555 54.5489C260.014 51.5534 263.571 47.6502 266.261 46.0163C270.136 43.6108 272.643 42.93 278.16 42.6577C282.355 42.5215 283.95 42.6123 285.774 43.2023C290.197 44.7001 294.254 48.5125 296.352 53.2327C298.54 58.1798 298.631 59.9044 298.631 88.5885V115.639H306.382H314.133V91.4478C314.133 66.8939 314.406 61.0845 315.683 57.3174C318.145 50.2372 322.887 45.4716 329.725 43.4292C332.324 42.6123 333.738 42.5215 338.206 42.6577C342.856 42.7938 343.814 42.9754 345.82 44.0193C349.969 46.1524 352.567 49.4656 354.391 54.8212C355.349 57.7259 355.394 58.3613 355.531 86.6823L355.668 115.639H363.418H371.124V88.7247C371.124 66.9393 370.987 61.0391 370.44 57.5444C367.978 42.2038 360.318 32.8089 347.461 29.3141C342.719 27.9979 332.643 27.9072 328.084 29.1326C320.379 31.175 314.452 35.2143 310.531 41.1145L309.3 42.9754L307.385 40.0707C301.777 31.6288 291.519 27.4533 278.251 28.1795C269.543 28.6333 264.209 30.9026 258.875 36.349L255.318 39.9345V33.9889V28.0433H247.568H239.817V71.841Z" fill="#8578E6"/>
</svg>
