<svg width="42" height="42" viewBox="0 0 42 42" fill="none" xmlns="http://www.w3.org/2000/svg">
<g clip-path="url(#clip0_2308_293)">
<path d="M19.4602 40.767C29.5267 40.767 37.6872 32.6064 37.6872 22.5399C37.6872 12.4734 29.5267 4.31287 19.4602 4.31287C9.39368 4.31287 1.23315 12.4734 1.23315 22.5399C1.23315 32.6064 9.39368 40.767 19.4602 40.767Z" fill="#E94444"/>
<path d="M19.4604 35.7568C26.7599 35.7568 32.6772 29.8395 32.6772 22.54C32.6772 15.2406 26.7599 9.32324 19.4604 9.32324C12.161 9.32324 6.24365 15.2406 6.24365 22.54C6.24365 29.8395 12.161 35.7568 19.4604 35.7568Z" fill="#EBEBEB"/>
<path d="M19.4597 30.7468C23.9921 30.7468 27.6663 27.0726 27.6663 22.5403C27.6663 18.0079 23.9921 14.3337 19.4597 14.3337C14.9274 14.3337 11.2532 18.0079 11.2532 22.5403C11.2532 27.0726 14.9274 30.7468 19.4597 30.7468Z" fill="#E94444"/>
<path d="M19.4596 25.7361C21.2249 25.7361 22.6559 24.3051 22.6559 22.5398C22.6559 20.7746 21.2249 19.3436 19.4596 19.3436C17.6944 19.3436 16.2634 20.7746 16.2634 22.5398C16.2634 24.3051 17.6944 25.7361 19.4596 25.7361Z" fill="#5A5A5A"/>
<path d="M19.4597 4.31287C18.928 4.31287 18.402 4.33697 17.8818 4.38159C27.2094 5.18158 34.5311 13.0051 34.5311 22.5399C34.5311 32.0747 27.2095 39.8982 17.8818 40.6982C18.402 40.7429 18.928 40.767 19.4597 40.767C29.5263 40.767 37.6867 32.6064 37.6867 22.5399C37.6867 12.4734 29.5263 4.31287 19.4597 4.31287V4.31287Z" fill="#D83131"/>
<path d="M36.3582 1.31613L32.3596 5.31472C32.1878 5.48654 32.098 5.72398 32.1132 5.96651L32.3448 9.65591L37.0558 4.94491L36.8394 1.49805C36.8242 1.25551 36.53 1.14431 36.3582 1.31613V1.31613Z" fill="#0055A3"/>
<path d="M40.6852 5.64244L36.6867 9.64103C36.5148 9.81285 36.2774 9.90258 36.0349 9.88738L32.3455 9.65582L37.0565 4.94482L40.5033 5.16119C40.7459 5.17638 40.8571 5.47062 40.6852 5.64244V5.64244Z" fill="#0055A3"/>
<path d="M36.0866 10.4858C36.4681 10.4858 36.8359 10.3344 37.1073 10.063L41.1059 6.06439C41.6402 5.53008 41.2922 4.61309 40.5394 4.56584L38.4116 4.43228L39.8 3.04382C40.033 2.81083 40.033 2.43307 39.8 2.20016C39.567 1.96717 39.1893 1.96717 38.9563 2.20016L37.5678 3.58862L37.4343 1.46079C37.387 0.706617 36.4691 0.361073 35.9357 0.894344L31.9371 4.89293C31.6443 5.18573 31.4913 5.5907 31.5172 6.00394L31.6547 8.19366C28.3174 5.34816 24.0163 3.71637 19.4602 3.71637C9.05642 3.71637 0.636475 12.1353 0.636475 22.54C0.636475 27.2356 2.37533 31.733 5.53288 35.2036C5.75474 35.4472 6.13202 35.465 6.37567 35.2434C6.61939 35.0216 6.63721 34.6443 6.41552 34.4006C3.45826 31.1502 1.82965 26.938 1.82965 22.54C1.82965 12.8185 9.73868 4.90947 19.4602 4.90947C24.0159 4.90947 28.3027 6.65549 31.5093 9.64711L28.7871 12.3692C26.3252 10.1094 23.0474 8.72653 19.4602 8.72653C11.8435 8.72653 5.64679 14.9232 5.64679 22.5399C5.64679 24.732 6.17561 26.9154 7.17629 28.8543C7.17637 28.8544 7.17637 28.8544 7.17645 28.8545C9.49512 33.3473 14.1648 36.3532 19.4602 36.3532C25.9853 36.3532 31.6603 31.7445 32.9866 25.3485C33.0535 25.0258 32.8462 24.71 32.5236 24.6431C32.201 24.5763 31.8852 24.7835 31.8183 25.1062C30.6102 30.9318 25.4129 35.1601 19.4603 35.1601C14.7187 35.1601 10.418 32.5342 8.23679 28.3073C8.23679 28.3072 8.23671 28.3072 8.23671 28.3071C7.31001 26.5113 6.84005 24.571 6.84005 22.5399C6.84005 15.5811 12.5014 9.91971 19.4602 9.91971C22.7192 9.91971 25.6988 11.1687 27.9437 13.2126L25.2457 15.9106C23.6974 14.5577 21.673 13.7368 19.4602 13.7368C14.6062 13.7368 10.6572 17.6858 10.6572 22.5398C10.6572 27.3938 14.6062 31.3428 19.4602 31.3428C24.3142 31.3428 28.2633 27.3938 28.2633 22.5398C28.2633 20.327 27.4424 18.3026 26.0895 16.7543L28.7876 14.0562C30.8156 16.283 32.0617 19.2338 32.0802 22.4664C32.082 22.7947 32.3488 23.0596 32.6767 23.0596H32.6802C33.0097 23.0576 33.2752 22.789 33.2733 22.4595C33.253 18.9011 31.8736 15.6546 29.6313 13.2124L32.3536 10.4901C35.3324 13.675 37.0906 17.9364 37.0906 22.5397C37.0906 32.2614 29.1816 40.1705 19.4602 40.1705C15.4329 40.1705 11.4949 38.7773 8.3717 36.2477C8.11548 36.0404 7.74011 36.0798 7.53257 36.3357C7.3252 36.5918 7.36465 36.9675 7.62063 37.1749C10.9556 39.8761 15.1603 41.3636 19.4602 41.3636C29.8639 41.3636 38.2838 32.9447 38.2838 22.54C38.2838 18.4662 37.0036 14.5891 34.5818 11.3279C34.3311 10.9902 34.0699 10.6629 33.8 10.345C36.1387 10.4919 36.0127 10.4858 36.0866 10.4858V10.4858ZM27.0701 22.54C27.0701 26.7361 23.6563 30.1498 19.4602 30.1498C15.2641 30.1498 11.8503 26.7361 11.8503 22.54C11.8503 18.3439 15.2641 14.9301 19.4602 14.9301C21.3439 14.9301 23.0698 15.6184 24.4001 16.7563L21.6852 19.4712C21.0596 19.0164 20.2909 18.7472 19.4602 18.7472C17.3688 18.7472 15.6674 20.4486 15.6674 22.54C15.6674 24.6313 17.3688 26.3328 19.4602 26.3328C21.5516 26.3328 23.253 24.6313 23.253 22.54C23.253 21.7091 22.9838 20.9404 22.529 20.3149L25.2439 17.6C26.3817 18.9304 27.0701 20.6562 27.0701 22.54V22.54ZM19.0382 22.9619C19.2713 23.1949 19.649 23.1949 19.882 22.9619L21.6703 21.1735C21.9169 21.5709 22.0598 22.039 22.0598 22.54C22.0598 23.9735 20.8936 25.1397 19.4601 25.1397C18.0266 25.1397 16.8605 23.9735 16.8605 22.54C16.8605 21.1066 18.0266 19.9404 19.4601 19.9404C19.9611 19.9404 20.4293 20.0833 20.8266 20.3298L19.0382 22.1182C18.8053 22.3511 18.8053 22.7289 19.0382 22.9619V22.9619ZM32.7081 5.92916C32.7036 5.85749 32.7301 5.78725 32.7809 5.73658L36.2871 2.23047L36.4429 4.71355L32.8569 8.29961L32.7081 5.92916ZM33.7006 9.14327L37.2866 5.55721L39.7697 5.71304L36.2635 9.21924C36.2129 9.26999 36.1421 9.29695 36.071 9.29202L33.7006 9.14327Z" fill="black"/>
</g>
<defs>
<clipPath id="clip0_2308_293">
<rect width="40.7273" height="40.7273" fill="white" transform="translate(0.636475 0.636353)"/>
</clipPath>
</defs>
</svg>
