<svg width="22" height="22" viewBox="0 0 22 22" fill="none" xmlns="http://www.w3.org/2000/svg">
<path d="M9.86079 0.0849171C7.78273 0.269281 5.60372 1.19111 3.96315 2.57385C2.47402 3.83088 1.53174 5.12144 0.799795 6.90643C-0.579967 10.292 -0.159308 14.1302 1.94399 17.2476C2.49084 18.0521 3.97156 19.5354 4.74558 20.0383C5.57848 20.583 6.33567 20.9852 7.00031 21.2366L7.5724 21.4461L7.5051 20.5914C7.21064 16.7783 7.89211 13.2503 9.34758 11.1133C10.0122 10.1328 11.2153 9.01825 12.4773 8.20537C12.7886 8.00424 13.0241 7.82826 12.9989 7.81149C12.9484 7.75283 12.1744 8.04614 11.3836 8.41487C9.19615 9.42888 7.77432 10.9541 6.94142 13.1581C6.68902 13.8285 6.26836 15.2867 6.13375 15.9571C6.01597 16.5353 6.00755 16.5353 5.46911 15.5046C3.87061 12.429 4.35857 9.43726 6.81522 7.16622C7.88369 6.17735 9.66729 5.47341 11.6023 5.2639C12.8138 5.12982 15.0349 5.21362 16.0361 5.43151C16.7512 5.59073 17.6598 5.90918 17.6598 6.00136C17.6598 6.0265 17.5336 6.27791 17.3822 6.56284C16.7764 7.66903 16.4651 8.77522 16.1034 11.0546C15.8426 12.6637 15.7079 13.2335 15.4135 14.0045C14.7993 15.5967 12.9568 17.0381 10.8031 17.5996C10.4834 17.6918 9.81872 17.784 9.33917 17.8175L8.4642 17.8678L8.51468 18.6388C8.57357 19.4852 8.75025 20.4321 9.00264 21.2869L9.17091 21.8484L10.0879 21.949C12.5446 22.2171 15.4556 21.4126 17.4915 19.9126C19.7463 18.2449 21.1765 16.0576 21.8327 13.2754C22.0347 12.429 22.0599 9.81437 21.8748 8.95959C20.9494 4.56834 17.7608 1.28329 13.4785 0.286043C12.9316 0.160339 11.3247 -0.015646 10.8872 0.00111389C10.7526 0.00949478 10.2899 0.0430145 9.86079 0.0849171Z" fill="#FF0000"/>
</svg>
