<svg width="42" height="32" viewBox="0 0 42 32" fill="none" xmlns="http://www.w3.org/2000/svg">
<path d="M3.09546 21.9943C3.09546 25.9667 6.3272 29.1984 10.2996 29.1984C14.2719 29.1984 17.5036 25.9667 17.5036 21.9943C17.5036 18.0219 14.2719 14.7902 10.2996 14.7902C6.3272 14.7901 3.09546 18.0218 3.09546 21.9943V21.9943ZM16.3139 21.9943C16.3139 25.3106 13.6159 28.0086 10.2997 28.0086C6.98344 28.0086 4.28529 25.3106 4.28529 21.9943C4.28529 18.678 6.98336 15.98 10.2996 15.98C13.6158 15.98 16.3139 18.6779 16.3139 21.9943V21.9943Z" fill="black"/>
<path d="M39.9961 17.0433C39.9946 17.0402 39.9936 17.037 39.9921 17.0339L35.1665 7.02967C34.4998 5.64732 33.3924 4.55077 32.0636 3.87542L31.6081 2.93101C30.8496 1.35844 29.2313 0.342407 27.4854 0.342407C24.9615 0.342407 22.9082 2.39574 22.9082 4.9197V6.67724C22.5071 7.39629 22.2309 8.19388 22.1088 9.0408H19.8915C19.7695 8.19388 19.4933 7.39621 19.0921 6.67708V4.9197C19.0921 2.39582 17.0388 0.342407 14.5149 0.342407C12.769 0.342407 11.1508 1.35852 10.3922 2.93109L9.93669 3.87542C8.60788 4.55085 7.50046 5.6474 6.83376 7.02967L5.99794 8.76238C5.85516 9.05825 5.97938 9.41393 6.27525 9.55671C6.5712 9.69933 6.9268 9.57535 7.06958 9.27932L7.9054 7.54653C8.85283 5.58219 10.8744 4.31296 13.0552 4.31296C16.208 4.31296 18.7729 6.87784 18.7729 10.0306V17.3492C18.2128 16.3281 17.4665 15.4046 16.5562 14.6305C16.3059 14.4176 15.9304 14.448 15.7177 14.6982C15.5048 14.9485 15.5352 15.324 15.7854 15.5368C17.6841 17.1514 18.7729 19.505 18.7729 21.994C18.7729 26.6662 14.9718 30.4673 10.2997 30.4673C5.62751 30.4673 1.82631 26.6663 1.82631 21.9941C1.82631 17.322 5.62743 13.5208 10.2996 13.5208C11.5141 13.5208 12.6863 13.7722 13.7838 14.268C14.0829 14.4031 14.4356 14.2702 14.5709 13.9707C14.7062 13.6712 14.5731 13.3189 14.2737 13.1836C13.0212 12.6179 11.6842 12.331 10.2996 12.331C8.23594 12.331 6.32158 12.9816 4.75004 14.088L5.96534 11.5684C6.10812 11.2725 5.9839 10.9169 5.68803 10.7741C5.39224 10.6316 5.03648 10.7555 4.8937 11.0515L2.00811 17.0339C2.00661 17.037 2.00558 17.0402 2.00415 17.0433C1.13628 18.4922 0.636475 20.1857 0.636475 21.9941C0.636475 27.3223 4.97127 31.6572 10.2996 31.6572C15.5607 31.6572 19.8528 27.4309 19.9602 22.195H22.0401C22.1475 27.4309 26.4396 31.6572 31.7006 31.6572C37.0289 31.6572 41.3637 27.3223 41.3637 21.9941C41.3637 20.1857 40.864 18.4922 39.9961 17.0433V17.0433ZM34.0949 7.54653L37.2501 14.0878C35.6786 12.9815 33.7643 12.3309 31.7006 12.3309C28.0534 12.3309 24.872 14.3623 23.2274 17.3528V10.0306C23.2274 6.87784 25.7923 4.31296 28.9451 4.31296C31.1259 4.31296 33.1474 5.58227 34.0949 7.54653V7.54653ZM22.0376 21.0052H19.9628V10.2306H22.0376V21.0052ZM27.4854 1.53224C28.719 1.53224 29.865 2.21861 30.4549 3.29343C29.9643 3.18214 29.4584 3.12321 28.9451 3.12321C27.0582 3.12321 25.3459 3.88398 24.098 5.11451V4.9197C24.0979 3.05182 25.6176 1.53224 27.4854 1.53224ZM13.0552 3.12313C12.5419 3.12313 12.036 3.18206 11.5454 3.29335C12.1354 2.21854 13.2814 1.53216 14.5149 1.53216C16.3827 1.53216 17.9023 3.05174 17.9023 4.91962V5.11443C16.6544 3.88391 14.9421 3.12313 13.0552 3.12313V3.12313ZM31.7006 30.4674C27.0285 30.4674 23.2274 26.6663 23.2274 21.9941C23.2274 17.322 27.0285 13.5208 31.7006 13.5208C36.3728 13.5208 40.1739 17.322 40.1739 21.9941C40.1739 26.6663 36.3728 30.4674 31.7006 30.4674Z" fill="black"/>
<path d="M34.4034 15.318C34.099 15.1942 33.7519 15.3409 33.6284 15.6453C33.5046 15.9497 33.6512 16.2967 33.9557 16.4203C36.2394 17.3479 37.715 19.5359 37.715 21.9942C37.715 25.3105 35.0169 28.0085 31.7007 28.0085C28.3845 28.0085 25.6865 25.3105 25.6865 21.9942C25.6865 18.6845 28.3791 15.9867 31.6889 15.9802C32.0174 15.9796 32.2832 15.7127 32.2826 15.3841C32.282 15.056 32.0158 14.7904 31.6877 14.7904C31.6873 14.7904 31.6869 14.7904 31.6865 14.7904C27.7221 14.7981 24.4966 18.0298 24.4966 21.9942C24.4966 25.9666 27.7283 29.1983 31.7006 29.1983C35.673 29.1983 38.9047 25.9666 38.9047 21.9942C38.9048 19.0494 37.138 16.4287 34.4034 15.318V15.318Z" fill="black"/>
</svg>
