<svg width="120" height="120" viewBox="0 0 120 120" fill="none" xmlns="http://www.w3.org/2000/svg">
<path d="M61.74 83.8104C74.1372 83.8104 84.1872 82.4039 84.1872 80.6688C84.1872 78.9338 74.1372 77.5272 61.74 77.5272C49.3427 77.5272 39.2928 78.9338 39.2928 80.6688C39.2928 82.4039 49.3427 83.8104 61.74 83.8104Z" fill="#725943"/>
<path d="M61.74 114C77.2892 114 89.8944 112.15 89.8944 109.867C89.8944 107.585 77.2892 105.734 61.74 105.734C46.1908 105.734 33.5856 107.585 33.5856 109.867C33.5856 112.15 46.1908 114 61.74 114Z" fill="#725943"/>
<path d="M83.6496 54.6504C83.6496 54.6504 82.0776 74.2848 77.1696 79.8192C72.2616 85.3536 68.8968 82.6344 68.8968 82.6344C68.8968 82.6344 82.8912 57.972 83.6496 54.6504Z" fill="#7F9F69"/>
<path d="M90.408 44.1049C90.408 44.1049 75.6384 76.0921 63.4032 81.5089C63.4032 81.5089 66.1128 85.0057 75.2016 79.3249C84.2904 73.6441 91.02 52.0585 90.408 44.1049Z" fill="#465B31"/>
<path d="M90.408 44.1049C90.408 44.1049 79.6584 82.0248 63.4032 81.5089C63.4032 81.5089 64.3632 82.9489 68.0928 82.5745C71.8224 82.2001 80.2296 76.9777 83.7816 68.5537C83.7816 68.5537 90.7584 55.2337 90.408 44.1049Z" fill="#7F9F69"/>
<path d="M66.6672 12.9912C66.6672 12.9912 63.4032 25.752 55.6272 40.872C47.8512 55.992 61.848 66.9144 61.848 66.9144C61.848 66.9144 76.2792 69.36 66.6672 12.9912Z" fill="#465B31"/>
<path d="M66.2952 18.1031C66.2952 18.1031 60.0552 44.0687 56.5656 47.9855L56.904 51.36C56.904 51.36 65.8968 27.3359 66.2952 18.1031Z" fill="#314329"/>
<path d="M72.0552 6C72.0552 6 71.532 15.264 67.2552 23.916C62.9784 32.568 56.4984 41.7456 57.984 51.36C59.4696 60.9744 64.464 64.032 64.464 64.032C64.464 64.032 74.0472 64.5576 76.2912 49.9632C78.5352 35.3688 72.6672 6.6984 72.0552 6Z" fill="#7F9F69"/>
<path d="M76.9128 18.4968C76.9128 18.4968 74.3064 42.2688 65.2392 66.564C65.2392 66.564 63.5784 74.6928 69.7824 75.2184C75.9864 75.744 80.7936 56.2584 80.7936 39.648C80.7936 23.0376 76.9128 18.4968 76.9128 18.4968Z" fill="#314329"/>
<path d="M44.7 12.9912C44.7 12.9912 37.02 50.1288 48.6336 70.4088C48.6336 70.4088 52.0416 72.9456 51.9552 56.952C51.8688 40.9584 44.7 12.9912 44.7 12.9912Z" fill="#7F9F69"/>
<path d="M48.6336 10.9824C48.6336 10.9824 42.24 44.8032 51.9456 58.9608C51.9456 58.9608 56.148 61.2336 55.0128 48.4752C53.8776 35.7168 48.72 13.08 48.6336 10.9824Z" fill="#314329"/>
<path d="M52.9152 7.83594C52.9152 7.83594 45.36 29.2463 45.8808 54.2855C46.4016 79.3247 57.8088 78.4079 57.8088 78.4079C57.8088 78.4079 67.7904 76.9055 66.1032 65.3423C64.1904 52.2311 51.9552 15.9191 52.9152 7.83594Z" fill="#465B31"/>
<path d="M33.3384 23.916C33.3384 23.916 33.6336 48.72 39.456 61.1472C45.2784 73.5744 50.88 82.608 57.372 82.5744C57.372 82.5744 48.6336 73.1208 44.9616 60.36C41.2896 47.5992 34.1256 24.6144 33.3384 23.916Z" fill="#314329"/>
<path d="M34.2624 38.3256C34.2624 38.3256 35.7432 70.9656 53.7432 81.6504L53.2632 78.4104C53.2632 78.4104 37.6632 70.98 34.2624 38.3256Z" fill="#465B31"/>
<path d="M72.4608 18.4968C72.4608 18.4968 68.1144 53.4864 61.74 65.6784C61.74 65.6784 61.7664 66.8544 64.452 66.9312C64.452 66.9312 71.1456 39.6936 72.4608 18.4968Z" fill="#465B31"/>
<path d="M51.9552 20.6136C51.9552 20.6136 45.2712 60.4537 57.372 71.7337L57.168 67.9488C57.168 67.9488 47.9472 59.7024 51.9552 20.6136Z" fill="#314329"/>
<path d="M56.0736 33.4417C56.0736 33.4417 50.2944 55.632 50.2056 64.4688C50.1168 73.3056 50.9064 84.48 57.8976 84.48C57.8976 84.48 68.9088 84.7416 67.7736 71.4576C66.6384 58.1736 56.0736 33.4417 56.0736 33.4417Z" fill="#7F9F69"/>
<path d="M56.0736 43.1232L57.8976 84.48C58.684 84.5853 59.4842 84.4698 60.2088 84.1464L56.0736 43.1232Z" fill="#465B31"/>
<path d="M73.1784 79.5456C73.1784 79.5456 81.6672 76.6776 88.7472 56.0568C88.7472 56.0568 85.1328 74.5248 73.1784 80.5584V79.5456Z" fill="#465B31"/>
<path d="M27.0456 51.36C27.0456 51.36 30.2952 69.2376 44.7888 81.0744C52.0416 87 57.372 83.5224 57.372 83.5224C57.372 83.5224 52.2168 81.0744 50.556 79.5888C48.8952 78.1032 41.196 68.5776 39.276 66.5664C37.356 64.5552 28.008 54.6792 27.0456 51.36Z" fill="#465B31"/>
<path d="M78.528 28.2336C78.528 28.2336 80.2296 56.592 69.2928 70.56L71.2656 71.736C71.2656 71.736 81.2184 55.308 78.528 28.2336Z" fill="#465B31"/>
<path d="M29.3256 58.9608C29.3256 58.9608 40.272 85.3536 54.24 84.48C54.24 84.48 56.3856 84.264 57.36 83.52L56.4336 83.0664C55.7058 83.4945 54.8779 83.7229 54.0336 83.7288C52.6776 83.7288 41.4408 84.2088 29.3256 58.9608Z" fill="#314329"/>
<path d="M69.8712 56.952C69.8712 56.952 69.6312 67.0032 66.7248 71.0232C63.8184 75.0432 59.04 84.4032 59.04 84.4032C59.04 84.4032 66.912 87.3648 71.7168 83.6952C71.7168 83.6952 75.5568 81.2496 73.9032 71.2416C72.2496 61.2336 69.8712 56.952 69.8712 56.952Z" fill="#465B31"/>
<path d="M70.56 69.504C70.56 69.504 70.6968 84.1944 63.3384 85.3968C63.6264 85.3968 65.0016 85.6032 65.2032 85.5288C65.1912 85.5288 70.908 83.1024 70.56 69.504Z" fill="#314329"/>
<path d="M44.7 12.9912C44.7 12.9912 45.6288 30.6528 44.7 35.5512C43.7712 40.4496 46.4688 67.2312 50.2008 69.4992L50.6808 74.1312C50.6808 74.1312 43.8504 66.1272 42.6672 50.1312C41.484 34.1352 42.6408 24.2592 44.7 12.9912Z" fill="#465B31"/>
<path d="M84.1896 80.6088C84.1909 80.6287 84.1909 80.6488 84.1896 80.6688C84.1896 82.404 74.1384 83.8104 61.74 83.8104C49.3416 83.8104 39.2928 82.404 39.2928 80.6688C39.2915 80.6488 39.2915 80.6287 39.2928 80.6088C33.8664 83.9352 30.528 88.4616 30.528 93.4512C30.528 103.658 44.5008 111.931 61.74 111.931C78.9792 111.931 92.9544 103.656 92.9544 93.4512C92.9544 88.4616 89.6136 83.9352 84.1896 80.6088Z" fill="#FFDFBB"/>
<path d="M30.528 93.4513C30.528 102.022 40.368 109.229 53.7408 111.319C31.4712 103.498 45.36 82.8169 45.36 82.8169C41.6016 82.2553 39.2976 81.4993 39.2976 80.6689L39.2328 80.6497C33.84 83.9713 30.528 88.4809 30.528 93.4513Z" fill="#CEAA85"/>
<path d="M86.9568 85.5312C86.9568 85.5312 95.1984 91.8889 88.7472 100.495C88.7472 100.495 93.6 92.9833 86.9568 85.5312Z" fill="#725943"/>
<path d="M90.42 88.392C90.42 88.392 90.0936 89.5584 86.9568 89.736C86.9568 89.736 90.1104 90.1896 90.42 88.392Z" fill="#725943"/>
<path d="M91.7064 91.0824C91.7064 91.0824 89.1072 93.0528 84.624 92.5224C84.624 92.5152 90.9912 93.6 91.7064 91.0824Z" fill="#725943"/>
<path d="M91.7064 94.3199C91.7064 94.3199 90.2664 97.9703 82.5624 97.0415C82.56 97.0295 90.0936 98.9711 91.7064 94.3199Z" fill="#725943"/>
<path d="M39.4536 80.2944C39.4536 80.2944 30.2088 84.5304 30.2088 93.8832C30.2088 103.236 43.9656 110.736 53.7288 111.319C53.7288 111.319 30.7416 107.093 30.7416 93.8832C30.7416 86.0304 39.7296 80.9448 39.7296 80.9448L39.4536 80.2944Z" fill="#725943"/>
</svg>
