<svg width="69" height="69" viewBox="0 0 69 69" fill="none" xmlns="http://www.w3.org/2000/svg">
<path d="M17.7567 56.7935L34.5005 64.3115V34.3438L20.0778 26.8257L17.7567 56.7935Z" fill="#44C868"/>
<path d="M18.9992 40.7512L34.5005 64.3117L17.7567 56.7937L18.9992 40.7512Z" fill="#7EE5F2"/>
<path d="M17.7566 56.7935L1.01276 64.3115L6.43382 34.4208L20.0778 26.8257L17.7566 56.7935Z" fill="#4CE166"/>
<path d="M3.83164 48.7691L18.9992 40.7512L17.7566 56.7937L1.01276 64.3117L3.83164 48.7691Z" fill="#A8EEFC"/>
<path d="M51.2444 56.7935L67.9883 64.3115L62.5675 34.4208L48.9233 26.8257L51.2444 56.7935Z" fill="#44C868"/>
<path d="M49.6107 35.7001L66.3191 55.1082L62.5675 34.4208L60.4995 33.2698L49.6107 35.7001Z" fill="#7EE5F2"/>
<path d="M51.2444 56.7935L34.5005 64.3115V34.3438L48.9234 26.8257L51.2444 56.7935Z" fill="#4CE166"/>
<path d="M3.83167 48.7691L18.9992 40.7513L19.4407 35.0527L4.93256 42.6989L3.83167 48.7691Z" fill="#FFDB56"/>
<path d="M34.5046 37.2084L19.4407 35.0527L18.9992 40.7513L34.5006 64.3117V55.7446L25.2507 41.167L34.5046 42.2748V37.2084Z" fill="#FFBB24"/>
<path d="M49.6107 35.7002L60.4996 33.2699L53.9654 29.6326L49.2265 30.7406L49.6107 35.7002Z" fill="#FFBB24"/>
<path d="M50.161 42.8053L49.5735 35.2185L49.2265 30.7405L34.5046 37.2083V42.2746L44.1211 38.0894L50.161 42.8053Z" fill="#FFDB56"/>
<path d="M50.161 42.8054L67.9883 64.3116L66.3191 55.1083L49.6107 35.7002L50.161 42.8054Z" fill="#FFBB24"/>
<path d="M34.5655 4.68799C27.3007 4.68799 21.4113 10.5772 21.4113 17.8421C21.4113 28.9051 34.5655 39.0842 34.5655 39.0842C34.5655 39.0842 47.7196 28.9051 47.7196 17.8421C47.7195 10.5772 41.8303 4.68799 34.5655 4.68799ZM34.5655 23.0885C31.668 23.0885 29.3189 20.7397 29.3189 17.842C29.3189 14.9444 31.6677 12.5955 34.5655 12.5955C37.4632 12.5955 39.812 14.9444 39.812 17.842C39.812 20.7396 37.4629 23.0885 34.5655 23.0885Z" fill="#FF4A4A"/>
<path d="M34.5655 4.68799C33.9469 4.68799 33.3385 4.73179 32.7426 4.8144C39.1446 5.7021 44.0739 11.1961 44.0739 17.8423C44.0739 26.3172 36.3544 34.2734 32.7426 37.532C33.8455 38.5271 34.5655 39.0844 34.5655 39.0844C34.5655 39.0844 47.7197 28.9053 47.7197 17.8423C47.7195 10.5772 41.8303 4.68799 34.5655 4.68799Z" fill="#E7343F"/>
<path d="M34.5005 55.7446L40.2708 61.7211L34.5005 64.3118V55.7446Z" fill="#FFDB56"/>
<path d="M68.7871 64.932C68.7919 64.9256 68.7977 64.9201 68.8026 64.9136C68.8327 64.8727 68.8594 64.8297 68.883 64.7849C68.8896 64.7724 68.8946 64.7591 68.9008 64.7461C68.9164 64.7134 68.9309 64.6801 68.943 64.6459C68.949 64.6286 68.9539 64.6111 68.959 64.5933C68.9682 64.5618 68.9759 64.5298 68.9819 64.4973C68.9854 64.4787 68.9887 64.46 68.9911 64.4411C68.9955 64.4068 68.9976 64.3719 68.9985 64.3368C68.9989 64.3203 69.0003 64.3038 68.9998 64.287C68.9986 64.2351 68.9943 64.1831 68.9849 64.1311L64.9423 41.8412C64.8426 41.2908 64.3155 40.9254 63.7652 41.0253C63.2148 41.125 62.8497 41.6522 62.9494 42.2025L64.6587 51.627L51.4811 36.3204L60.344 34.3423L61.6564 35.0729L62.2262 38.215C62.3259 38.7654 62.8529 39.1305 63.4033 39.0309C63.9537 38.9312 64.3188 38.404 64.2192 37.8537L63.5637 34.2402C63.5097 33.9418 63.3248 33.6834 63.0599 33.536L49.4144 25.9401L49.4158 25.9409C49.4157 25.9409 49.4155 25.9408 49.4155 25.9408C49.4151 25.9406 49.4148 25.9404 49.4144 25.9401C49.3755 25.9185 49.3356 25.8999 49.2948 25.8839C49.282 25.8789 49.2689 25.8756 49.2558 25.8711C49.2274 25.8611 49.1988 25.8516 49.1698 25.8442C49.1534 25.84 49.1368 25.8375 49.1201 25.8343C49.0941 25.8292 49.068 25.8241 49.0417 25.821C49.0239 25.8188 49.0061 25.8181 48.9883 25.8171C48.9628 25.8154 48.9374 25.8141 48.9119 25.8144C48.8937 25.8145 48.8756 25.8159 48.8575 25.8169C48.8324 25.8185 48.8073 25.8208 48.7823 25.8243C48.7641 25.8269 48.7459 25.8301 48.7278 25.8338C48.7033 25.8386 48.679 25.8443 48.6548 25.8509C48.6366 25.8559 48.6185 25.8613 48.6006 25.8672C48.5771 25.8751 48.554 25.8842 48.5309 25.8939C48.5131 25.9014 48.4953 25.9088 48.4778 25.9175C48.4701 25.9212 48.4622 25.9238 48.4546 25.9277L46.141 27.1337C47.8622 23.9243 48.7317 20.8159 48.7317 17.8422C48.7317 10.0305 42.3765 3.67529 34.5648 3.67529C26.7531 3.67529 20.3983 10.0305 20.3983 17.8422C20.3983 20.8448 21.284 23.9847 23.0389 27.2272L20.5459 25.9277C20.5382 25.9237 20.53 25.921 20.5221 25.9172C20.5052 25.9088 20.4876 25.9016 20.4704 25.8943C20.4471 25.8844 20.4235 25.8753 20.3996 25.8672C20.382 25.8613 20.3641 25.856 20.3461 25.851C20.3219 25.8444 20.2975 25.8386 20.273 25.8338C20.2548 25.8301 20.2364 25.8269 20.2181 25.8243C20.1935 25.8208 20.1687 25.8187 20.1439 25.8171C20.1253 25.8159 20.1067 25.8146 20.0882 25.8144C20.0634 25.8141 20.0387 25.8154 20.0139 25.8169C19.9954 25.8181 19.9768 25.8188 19.9582 25.8211C19.933 25.8241 19.908 25.8291 19.8831 25.8339C19.8654 25.8374 19.8476 25.84 19.8301 25.8444C19.8025 25.8514 19.7754 25.8607 19.7483 25.87C19.7342 25.8749 19.7198 25.8787 19.7056 25.8842C19.6649 25.9002 19.6252 25.9188 19.5863 25.9402C19.5859 25.9404 19.5857 25.9406 19.5853 25.9409C19.5851 25.9409 19.5851 25.941 19.585 25.941L5.94124 33.536C5.67629 33.6834 5.49139 33.9418 5.43749 34.2402C5.43749 34.2403 5.43749 34.24 5.43749 34.2402L1.59439 55.4299C1.49466 55.9802 1.85988 56.5074 2.41026 56.6071C2.96077 56.7072 3.48771 56.3416 3.58743 55.7913L4.74035 49.4342L17.8477 42.5054L16.7936 56.1159L2.35258 62.6001L2.86078 59.797C2.9605 59.2468 2.59543 58.7197 2.04504 58.6198C1.49507 58.5204 0.967732 58.8853 0.867871 59.4357L0.0162907 64.1312C-0.0508224 64.501 0.0925677 64.8776 0.388512 65.1093C0.57004 65.2514 0.790381 65.3245 1.01274 65.3245C1.1533 65.3245 1.29467 65.2953 1.42742 65.2357L17.7566 57.9038L34.079 65.2326C34.0794 65.2328 34.0798 65.233 34.0802 65.2332L34.0857 65.2356C34.0949 65.2398 34.1044 65.2426 34.1139 65.2465C34.1288 65.2527 34.1439 65.2585 34.1593 65.264C34.174 65.2693 34.1888 65.2745 34.2039 65.2791C34.2136 65.2821 34.2233 65.2846 34.233 65.2873C34.2457 65.2908 34.2582 65.2942 34.2712 65.2972C34.2922 65.302 34.3135 65.3058 34.3346 65.3093C34.3447 65.3109 34.3547 65.3133 34.3649 65.3147C34.3718 65.3156 34.3787 65.3166 34.3856 65.3174C34.4195 65.3213 34.4536 65.3233 34.4876 65.3237C34.4919 65.3237 34.4962 65.3245 34.5005 65.3245C34.5027 65.3245 34.5048 65.3241 34.507 65.3241C34.548 65.3239 34.5887 65.3205 34.6295 65.3152C34.6345 65.3146 34.6396 65.3148 34.6447 65.314C34.6524 65.3129 34.66 65.3104 34.6678 65.3092C34.6994 65.3039 34.7311 65.297 34.7624 65.2886C34.771 65.2863 34.7798 65.2849 34.7884 65.2825C34.7893 65.2822 34.7901 65.2822 34.7911 65.2819C34.7939 65.2811 34.7965 65.2797 34.7993 65.2787C34.8386 65.2666 34.8773 65.2527 34.9155 65.2356L51.2443 57.904C51.2445 57.9038 51.2443 57.904 51.2445 57.9038L67.5739 65.2357C67.5897 65.2427 67.6058 65.248 67.622 65.2542C67.6379 65.2604 67.6535 65.2673 67.6699 65.2726C67.691 65.2797 67.7127 65.2849 67.7343 65.2904C67.7476 65.2939 67.7606 65.2983 67.7742 65.3011C67.8002 65.3067 67.8265 65.3104 67.8527 65.314C67.8622 65.3152 67.8713 65.3174 67.8808 65.3185C67.9167 65.3224 67.9527 65.3244 67.9887 65.3244H67.9888C67.989 65.3244 67.9891 65.3244 67.9891 65.3244C68.0383 65.3244 68.0875 65.3194 68.1365 65.3123C68.1479 65.3107 68.1592 65.3089 68.1704 65.3067C68.2188 65.298 68.2667 65.2867 68.3142 65.2705C68.3171 65.2694 68.3201 65.2679 68.3231 65.267C68.3543 65.2561 68.3855 65.2441 68.4159 65.2297C68.4248 65.2255 68.4325 65.2195 68.4412 65.2151C68.4667 65.2023 68.4912 65.1876 68.5158 65.1724C68.5403 65.1574 68.5647 65.1423 68.5877 65.1252C68.5957 65.1193 68.6046 65.1151 68.6125 65.109C68.6303 65.0952 68.6458 65.0791 68.6625 65.064C68.6759 65.052 68.6898 65.0407 68.7026 65.028C68.733 64.9979 68.7609 64.9657 68.7871 64.932ZM40.505 60.5055L35.5133 55.3353V42.9402L43.9728 39.2584L49.1856 43.3288L50.1796 56.1617L40.505 60.5055ZM35.5133 62.7469V58.2515L38.5409 61.3874L35.5133 62.7469ZM31.5408 37.8071C32.3835 38.5892 33.0666 39.1699 33.4878 39.5166V41.133L25.371 40.1612C24.983 40.1155 24.6023 40.296 24.3938 40.6269C24.1853 40.9578 24.186 41.3791 24.3956 41.7095L33.4878 56.0388V60.9301L20.0356 40.4842L20.2005 38.3559L20.3668 36.2085L31.5408 37.8071ZM39.1905 36.2558L48.3272 32.242L48.974 40.5937L44.7446 37.2912C44.4519 37.0628 44.0578 37.0127 43.7171 37.1608L35.5175 40.7296V39.6198C36.1301 39.1208 37.5221 37.9442 39.1905 36.2558ZM50.8707 38.8529L50.8591 38.7024L65.372 55.5603L66.3025 60.6912L51.1459 42.4066L50.8707 38.8529ZM50.0787 28.628L51.1834 29.2429L50.1451 29.4858L50.0787 28.628ZM27.2491 42.4261L33.4878 43.1731V52.2582L27.2491 42.4261ZM19.7804 43.7808L31.7435 61.9636L18.8215 56.1616L19.7804 43.7808ZM51.417 45.9074L64.4273 61.6027L52.2076 56.116L51.417 45.9074ZM57.6827 32.8608L50.53 34.4571L50.3032 31.5285L53.8145 30.7074L57.6827 32.8608ZM48.032 28.4325L48.1614 30.1025L42.4537 32.61C43.0204 31.9075 43.5488 31.2087 44.0392 30.5138L48.032 28.4325ZM34.5655 5.70081C41.2603 5.70081 46.707 11.1475 46.707 17.8423C46.707 26.9274 37.1229 35.6184 34.5655 37.775C32.008 35.6181 22.4241 26.9273 22.4241 17.8423C22.4241 11.1475 27.8706 5.70081 34.5655 5.70081ZM27.212 33.2619C27.8608 34.0368 28.5077 34.7568 29.1299 35.416L20.5238 34.1845L20.9693 28.4325L25.1672 30.6208C25.7889 31.495 26.4699 32.3755 27.212 33.2619ZM18.9225 28.628L18.6315 32.3854L18.4741 34.4174L6.30012 40.8334L7.34482 35.073L18.9225 28.628ZM5.1999 46.9001L5.82494 43.4536L5.84097 43.3648L18.2892 36.8043L18.0326 40.1166L5.1999 46.9001Z" fill="black"/>
<path d="M40.8248 17.8423C40.8248 14.391 38.017 11.583 34.5655 11.583C34.0062 11.583 33.5527 12.0364 33.5527 12.5958C33.5527 13.1552 34.0062 13.6085 34.5655 13.6085C36.9 13.6085 38.7993 15.5078 38.7993 17.8423C38.7993 20.1767 36.9 22.0761 34.5655 22.0761C32.231 22.0761 30.3317 20.1768 30.3317 17.8423C30.3317 16.7255 30.7627 15.6718 31.5454 14.875C31.9374 14.4761 31.9318 13.8349 31.5327 13.443C31.1337 13.051 30.4925 13.0565 30.1006 13.4557C28.9435 14.6334 28.3063 16.1913 28.3063 17.8423C28.3063 21.2936 31.1142 24.1016 34.5656 24.1016C38.0171 24.1016 40.8248 21.2935 40.8248 17.8423Z" fill="black"/>
</svg>
