<svg width="120" height="120" viewBox="0 0 120 120" fill="none" xmlns="http://www.w3.org/2000/svg">
<path d="M64.632 114C72.9759 114 79.74 113.38 79.74 112.615C79.74 111.85 72.9759 111.23 64.632 111.23C56.2881 111.23 49.524 111.85 49.524 112.615C49.524 113.38 56.2881 114 64.632 114Z" fill="#725943"/>
<path d="M73.8 64.2144C73.8 64.2144 66.3816 80.1431 65.9688 87.7343H67.1688C67.1688 87.7343 71.82 69.2279 74.5512 65.4864L73.8 64.2144Z" fill="#314329"/>
<path d="M76.1736 14.9112C76.1736 14.9112 74.3424 14.1912 73.44 19.008C72.5376 23.8248 61.584 82.5192 62.8128 87.7272H64.6056C64.6056 87.7272 71.2176 30.9432 74.5584 19.8072C74.5584 19.8072 75.2592 15.864 76.8552 15.7872L76.1736 14.9112Z" fill="#314329"/>
<path d="M66.24 36.2759C66.24 36.2759 65.2536 70.4087 61.4616 85.3511H63.8616C63.8616 85.3511 67.3056 53.5703 66.816 36.2759H66.24Z" fill="#314329"/>
<path d="M45.0816 42.1174C45.0816 42.1174 58.4784 58.9054 63.4344 83.2774H61.4616C61.4616 83.2774 55.9056 56.6374 44.8032 43.1134L45.0816 42.1174Z" fill="#314329"/>
<path d="M43.4856 40.9031C43.4856 40.9031 43.3344 34.0775 38.7072 33.3191C34.08 32.5607 33.0936 33.6983 30.7416 34.9871C28.3896 36.2759 26.04 37.5647 25.1304 40.0799C24.2208 42.5951 24.5232 42.4319 25.1304 42.2039C25.7376 41.9759 27.2544 39.7007 30.5904 40.1567C33.9264 40.6127 36.8856 41.3759 36.66 42.3167C36.4344 43.2575 30.66 43.0367 28.2384 43.3367C25.8168 43.6367 22.2384 45.0815 22.7784 48.7991C23.3184 52.5167 24.372 52.3631 26.1912 51.5303C28.0104 50.6975 30.1368 49.3295 31.6536 49.0271C33.1704 48.7247 34.32 48.7199 34.4592 49.8527C34.5984 50.9855 32.184 51.5327 28.6992 52.6607C25.2144 53.7887 22.14 56.3015 22.7256 58.7279C23.3112 61.1543 25.6608 69.1943 29.1504 71.0159C29.1504 71.0159 30.06 69.1943 31.8792 68.9687C33.6984 68.7431 42.0432 65.4023 42.6504 60.8519C43.2576 56.3015 40.68 53.6519 42.6504 49.0199C42.6504 49.0199 43.9416 48.5639 43.9416 51.4463C43.9416 54.3287 43.3344 55.9199 43.3344 55.9199C43.3344 55.9199 47.1264 55.1615 47.6544 52.7327C48.1824 50.3039 47.9592 49.4711 49.6272 48.1055C51.2952 46.7399 51.3072 42.9479 50.2344 41.3567C49.1616 39.7655 46.2888 39.1559 45 40.5215C43.7112 41.8871 43.4856 40.9031 43.4856 40.9031Z" fill="#465B31"/>
<path d="M42.72 42.1175C41.5056 35.2151 34.224 34.9871 34.224 34.9871C41.304 35.8463 42.2184 42.7991 42.2184 42.7991C41.8704 43.2791 41.3448 44.0639 40.6728 45.1319L40.7016 45.0839C40.7016 45.0839 31.5696 42.0671 25.9824 45.9095C25.9824 45.9095 32.9424 42.5351 40.3488 45.6503C39.2016 47.5079 37.6848 50.1431 35.9088 53.6543L35.9688 53.5319C33.8751 53.598 31.8248 54.1455 29.9768 55.1319C28.1289 56.1183 26.5329 57.5171 25.3128 59.2199C25.3128 59.2199 29.0952 54.3815 35.7936 53.8799L35.844 53.7815C34.8264 55.7951 33.7224 58.1015 32.556 60.7007C32.556 60.7007 35.676 55.5239 38.472 50.5991C42.7608 57.2231 39.2688 63.0143 39.2688 63.0143C43.4064 58.1591 38.7696 50.0735 38.7696 50.0735L38.7456 50.1143C40.5144 46.9703 42.1056 44.0039 42.5856 42.6383C46.3872 42.3647 47.5848 47.0087 47.5848 47.0087C47.1264 42.2399 42.72 42.1175 42.72 42.1175Z" fill="#7F9F69"/>
<path d="M78.3768 20.8799C78.3768 20.8799 78.4536 23.9159 79.5144 25.8863C80.5752 27.8567 79.8168 32.1815 79.8936 33.7007C79.9704 35.2199 82.0536 36.8855 82.2648 36.5063C82.476 36.1271 83.4648 34.9895 83.3832 33.7751C83.3016 32.5607 84.5952 33.7007 84.444 34.3823C84.2928 35.0639 84.048 37.4159 83.0712 38.4791C82.0944 39.5423 82.32 41.5103 83.3832 42.7991C84.4464 44.0879 87.7032 46.9703 88.1616 47.7287C88.62 48.4871 89.2992 47.9687 91.6512 44.9327C94.0032 41.8967 95.064 39.7655 94.1544 37.7183C93.2448 35.6711 89.76 33.1199 88.32 31.9703C86.88 30.8207 84.756 28.0079 85.2864 27.3263C85.8168 26.6447 89.0784 28.5263 89.9136 30.2063C90.7488 31.8863 92.9472 34.1591 93.3264 34.4567C93.7056 34.7543 94.9608 32.6327 94.4856 29.3711C94.0104 26.1095 93.1752 24.8111 90.9 24.4415C88.6248 24.0719 84.528 22.4687 84.1488 21.7871C83.7696 21.1055 83.4648 19.8143 84.3888 19.8911C85.3128 19.9679 86.7192 22.3199 88.464 22.4711C90.2088 22.6223 91.7256 22.9271 92.8632 23.7599C94.0008 24.5927 92.7888 20.2727 90.2856 18.2999C87.7824 16.3271 88.0608 15.1799 86.4792 15.3407C84.8976 15.5015 83.28 16.5599 83.0712 15.8735C82.8624 15.1871 83.1552 13.8239 84.1416 13.5959C85.128 13.3679 86.568 11.9999 86.1144 10.3343C85.6608 8.66869 82.1688 6.69349 80.0448 7.07269C77.9208 7.45189 76.1016 8.36389 76.176 10.3343C76.2504 12.3047 78.5184 17.7335 78.4728 19.0583C78.4272 20.3831 78.3768 20.8799 78.3768 20.8799Z" fill="#314329"/>
<path d="M78.1488 55.6176C78.1488 55.6176 77.1624 54.5568 75.5712 55.6176C73.98 56.6784 70.8 58.8 72.4608 63.0144C74.1216 67.2288 76.56 70.8648 77.3904 71.016C78.2208 71.1672 77.76 69.36 77.76 68.8152C77.76 68.2704 77.9112 63.204 79.2 63.0144C80.4888 62.8248 79.3512 66.9192 79.2 68.1336C79.0488 69.348 77.3784 75.7944 78.06 76.932C78.7416 78.0696 81.8544 80.1168 82.0824 80.724C82.1679 79.3853 82.1679 78.0426 82.0824 76.704C81.9288 74.8848 81.8424 69.264 83.0592 69.264C84.276 69.264 83.6736 73.9656 83.5992 75.18C83.5248 76.3944 82.368 81.2472 83.0592 82.38C83.7504 83.5128 83.5824 85.2 85.38 85.2C87.1776 85.2 89.148 84.5928 90.0576 85.7304C90.2088 86.1864 91.044 86.9448 91.044 86.9448C91.044 86.9448 91.4976 85.2768 92.3328 84.8952C93.168 84.5136 94.38 81.7752 93.168 78.3744C91.956 74.9736 90.048 73.6704 89.8296 72.9888C89.6112 72.3072 88.9968 71.0928 90.5136 71.016C92.0304 70.9392 96.732 74.352 97.2624 77.0832C97.2624 77.0832 98.4768 71.3232 91.6512 67.5264C91.6512 67.5264 87.4032 65.2512 86.8728 64.9488C86.3424 64.6464 86.34 63.5832 87.0984 63.0144C87.8568 62.4456 91.92 62.1336 93.5472 66.24C95.1744 70.3464 95.4432 69.12 95.4432 69.12C95.4432 69.12 97.2624 66.8448 96.3528 63.0144C95.4432 59.184 89.2224 57.8928 88.236 57.9744C87.2496 58.056 86.4936 57.8976 86.4936 57.0648C86.4936 56.232 90.6648 55.6992 93.2424 57.3672C95.82 59.0352 96.5808 59.8704 96.5808 59.8704C96.5808 59.8704 96.8832 54.9408 95.292 52.3608C93.7008 49.7808 91.4976 50.4648 91.4976 50.4648C91.4976 50.4648 88.3896 52.512 87.4032 52.512C86.4168 52.512 85.7352 51.06 86.8728 50.3832C88.0104 49.7064 91.4328 48.9432 91.4328 48.9432C91.4328 48.9432 87.4128 44.8464 84.0744 45.9096C80.736 46.9728 78.8424 53.5704 78.8424 54.4056C78.8391 54.6498 78.7737 54.8892 78.6524 55.1013C78.531 55.3133 78.3577 55.491 78.1488 55.6176V55.6176Z" fill="#465B31"/>
<path d="M80.172 21.8398C80.172 21.8398 87.0432 33.5086 87.852 42.799C87.852 42.799 88.9152 37.3126 81.0264 22.1422L80.172 21.8398Z" fill="#7F9F69"/>
<path d="M82.4976 10.0056C82.4976 10.0056 80.5248 10.1592 79.8168 12.384L80.172 13.1424C80.172 13.1424 80.4744 10.56 82.4976 10.0056Z" fill="#7F9F69"/>
<path d="M81.4368 19.0079C84.4224 16.1279 88.8768 18.7031 88.8768 18.7031C85.3368 15.4679 81.4368 18.3503 81.4368 18.3503V19.0079Z" fill="#7F9F69"/>
<path d="M86.544 24.7199C83.6112 24.2639 81.6888 21.1199 81.6888 21.1199V21.8399C81.6888 21.8399 83.1288 24.7199 86.5056 25.0367C90.5136 25.4399 92.7624 29.2799 92.7624 29.2799C92.16 26.9471 89.4768 25.1759 86.544 24.7199Z" fill="#7F9F69"/>
<path d="M66.24 36.2759C66.24 36.2759 65.1024 36.1248 64.7232 35.4408C64.344 34.7568 61.7664 29.5199 57.972 29.7599C54.1776 29.9999 53.2704 34.5384 52.284 34.9944C51.2976 35.4504 49.0992 39.24 49.2504 42.8064C49.4016 46.3728 52.512 53.4264 53.8104 54.4128C53.8104 54.4128 54.0504 52.5912 54.1896 50.6184C54.3288 48.6456 58.7496 42.3504 59.3472 42.8064C59.9448 43.2624 60.24 45.7584 58.8 47.0088C57.36 48.2592 55.152 52.4328 54.7752 53.532C54.3984 54.6312 48.3336 58.1208 48.7872 61.2312C49.2408 64.3416 52.5792 66.4656 52.884 67.9056C53.0282 68.654 53.2312 69.3899 53.4912 70.1064C53.4912 70.1064 54.2496 69.4992 56.5248 69.1944C58.8 68.8896 70.1784 66.996 70.1784 63.8088C70.1784 60.6216 67.9776 56.748 66.6888 55.2336C65.4 53.7192 63.8088 50.0808 64.7928 48.4872C65.7768 46.8936 69.5712 51.144 70.1784 52.7352C70.7856 54.3264 72.6264 58.872 72.4536 60.7008C72.4536 60.7008 73.8192 57.2112 74.0448 55.6176C74.2704 54.024 76.164 52.6608 76.1664 51.408C76.1688 50.1552 72.756 46.1568 71.544 44.928C70.332 43.6992 69.4944 43.5528 70.2528 42.7944C71.0112 42.036 75.18 45.2208 76.1664 47.004C77.1528 48.7872 76.776 44.928 76.776 44.928C76.776 44.928 76.9248 38.8488 76.1664 38.8872C75.408 38.9256 74.4864 38.6976 73.4328 38.3184C72.3792 37.9392 71.0568 37.1064 71.9928 36.1944C72.9288 35.2824 74.208 34.8312 75.1128 35.892C76.0176 36.9528 76.848 36.7272 76.8528 35.9688C76.8576 35.2103 75.8712 34.7207 75.7944 33.0695C75.7176 31.4183 75.72 30.6696 74.8104 30.8112C73.9008 30.9528 69.6504 33.3888 68.8104 34.5264C67.9704 35.664 67.0368 36.5111 66.24 36.2759Z" fill="#7F9F69"/>
<path d="M78.1488 55.6176C78.1488 55.6176 85.38 63.4056 88.6152 78.7272C88.6152 78.7272 85.5984 62.1336 78.5616 55.2336L78.1488 55.6176Z" fill="#7F9F69"/>
<path d="M93.9264 55.2336C85.2288 50.9568 81.9912 56.124 81.9912 56.124C86.1888 51.9264 93.9264 55.2336 93.9264 55.2336Z" fill="#7F9F69"/>
<path d="M83.3832 60.067C83.2608 60.1054 92.46 57.367 94.8864 66.3382C94.8864 66.3382 93.4704 56.9326 83.3832 60.067Z" fill="#7F9F69"/>
<path d="M80.0712 76.0969C79.5648 70.6369 81.6888 65.4792 81.6888 65.4792C78.6552 70.4352 80.0712 76.0969 80.0712 76.0969Z" fill="#7F9F69"/>
<path d="M52.416 47.3472C52.4149 47.3567 52.4149 47.3664 52.416 47.376C52.4148 47.3664 52.4148 47.3567 52.416 47.3472Z" fill="#465B31"/>
<path d="M64.6872 41.7024L64.6704 41.772C65.0976 40.0552 65.5304 38.2048 65.9688 36.2208L65.3376 35.9808C65.3376 35.9808 65.304 36.1392 65.2416 36.4248C62.196 33.9264 58.7808 35.9808 58.7808 35.9808C62.7768 34.404 65.1168 37.0056 65.1168 37.0056C65.0496 37.3056 64.9704 37.668 64.8768 38.0808C64.8768 38.0808 54.1008 37.8624 52.416 47.34C52.524 46.8024 54.3 38.8032 64.7784 38.5152C63.3072 44.9424 59.1744 61.5552 55.1928 64.2072C55.1928 64.2072 59.5704 62.1456 64.6536 41.8272L64.6056 42.0168C68.6352 43.2384 72.4344 50.0952 72.4344 50.0952C69.12 42.7896 64.6872 41.7024 64.6872 41.7024ZM65.2416 36.4344C65.2272 36.5088 65.208 36.5904 65.1888 36.6744L65.1168 37.0032L65.2416 36.4344ZM64.8744 38.0928C64.8456 38.2256 64.8144 38.3624 64.7808 38.5032L64.8744 38.0928Z" fill="#465B31"/>
<path d="M65.6592 37.6103L65.5992 37.8719C65.5992 37.8719 70.1088 37.5143 73.8 41.3831C73.8 41.3831 70.8 37.2767 65.6592 37.6103Z" fill="#465B31"/>
<path d="M74.1288 12.3839C74.1288 12.3839 72.3096 6.38394 74.5848 6.01194C76.86 5.63994 81.7848 14.4311 82.0944 17.3135C82.404 20.1959 82.3968 22.6223 81.2592 22.9271C80.1216 23.2319 78.3792 21.6359 78.3792 20.8775C78.3792 20.1191 78.8472 19.5887 77.8536 18.4511C76.86 17.3135 75.648 16.0991 75.5736 14.9615C75.4992 13.8239 74.1288 12.3839 74.1288 12.3839Z" fill="#465B31"/>
<path d="M78.6792 23.76C79.4928 24.3794 80.2538 25.0649 80.9544 25.8096C82.0944 27.0096 83.3832 28.3872 83.004 29.6784C82.6248 30.9696 82.2456 32.484 81.324 31.8C80.4024 31.116 80.4912 30.9672 79.8072 30.0576C79.1232 29.148 79.5048 28.236 79.3536 27.1776C79.2024 26.1192 78 24.444 78.6792 23.76Z" fill="#465B31"/>
<path d="M52.416 80.604H76.176V95.9784C76.176 99.1292 74.9244 102.151 72.6965 104.379C70.4685 106.607 67.4468 107.858 64.296 107.858V107.858C61.1452 107.858 58.1235 106.607 55.8956 104.379C53.6677 102.151 52.416 99.1292 52.416 95.9784V80.604V80.604Z" fill="#FFDFBB"/>
<path d="M65.328 107.309L63.4344 107.366L56.8464 100.536C56.8104 100.418 56.7912 100.351 56.7912 100.351V80.604H52.4112V96.684C52.4352 96.8352 52.464 96.9816 52.4928 97.128L52.4112 97.4904L52.5072 97.872C54.96 109.02 64.296 107.856 64.296 107.856C64.0229 107.855 63.7503 107.835 63.48 107.796L64.9824 107.88L66.36 107.676L76.1736 97.0992V95.9784L65.328 107.309ZM57.7824 102.845L62.5416 107.578C60.1968 106.814 58.6704 104.621 57.7824 102.845Z" fill="#CEAA85"/>
<path d="M76.1736 90.3672C76.0924 90.3672 76.012 90.3832 75.937 90.4144C75.862 90.4455 75.7939 90.4912 75.7366 90.5487C75.6793 90.6062 75.6339 90.6745 75.603 90.7496C75.5722 90.8247 75.5565 90.9052 75.5568 90.9864V94.8936L64.296 106.951L53.04 94.9008V90.9864C53.04 90.8222 52.9747 90.6647 52.8586 90.5486C52.7425 90.4324 52.585 90.3672 52.4208 90.3672C52.2566 90.3672 52.0991 90.4324 51.9829 90.5486C51.8668 90.6647 51.8016 90.8222 51.8016 90.9864V95.0784C51.7968 95.1199 51.7968 95.1617 51.8016 95.2032V112.097C51.8016 112.261 51.8668 112.419 51.9829 112.535C52.0991 112.651 52.2566 112.716 52.4208 112.716C52.585 112.716 52.7425 112.651 52.8586 112.535C52.9747 112.419 53.04 112.261 53.04 112.097V96.72L63.6816 108.108V112.104C63.6816 112.268 63.7468 112.426 63.8629 112.542C63.9791 112.658 64.1366 112.723 64.3008 112.723C64.465 112.723 64.6225 112.658 64.7386 112.542C64.8547 112.426 64.92 112.268 64.92 112.104V108.101L75.5568 96.72V112.109C75.5515 112.193 75.5636 112.278 75.5923 112.357C75.621 112.437 75.6656 112.51 75.7235 112.571C75.7814 112.633 75.8513 112.682 75.929 112.716C76.0066 112.749 76.0902 112.767 76.1748 112.767C76.2593 112.767 76.343 112.749 76.4206 112.716C76.4982 112.682 76.5681 112.633 76.626 112.571C76.6839 112.51 76.7286 112.437 76.7573 112.357C76.786 112.278 76.798 112.193 76.7928 112.109V90.9888C76.7934 90.9072 76.7779 90.8263 76.747 90.7507C76.7161 90.6752 76.6706 90.6065 76.613 90.5487C76.5554 90.4909 76.4869 90.4451 76.4115 90.4139C76.3361 90.3828 76.2552 90.3669 76.1736 90.3672V90.3672Z" fill="#725943"/>
<path d="M73.5768 85.6223V95.1383C73.5768 95.1383 74.4432 88.7999 73.5768 85.6223Z" fill="#725943"/>
<path d="M72 88.519C72 88.519 72.1848 93.7102 72 94.8358C72 94.8358 72.6096 90.8566 72 88.519Z" fill="#725943"/>
<path d="M70.7664 91.2456C70.7664 91.2456 71.0256 93.7968 70.7664 94.62C71.0445 93.5124 71.0445 92.3532 70.7664 91.2456V91.2456Z" fill="#725943"/>
<path d="M72.4536 87.36C72.4536 87.36 74.5296 87.3239 74.832 86.9519C74.832 86.9447 73.5768 87.84 72.4536 87.36Z" fill="#725943"/>
<path d="M71.4576 90.3671C71.4576 90.3671 74.3712 90.3359 74.5584 89.5151C74.5584 89.5199 74.4432 90.8303 71.4576 90.3671Z" fill="#725943"/>
<path d="M70.2648 92.9329C70.2648 92.9329 74.1984 93.0193 74.5584 92.2825C74.5584 92.2825 74.5224 93.5377 70.2648 92.9329Z" fill="#725943"/>
</svg>
