<svg width="120" height="120" viewBox="0 0 120 120" fill="none" xmlns="http://www.w3.org/2000/svg">
<path d="M39.456 114C52.5796 114 63.2184 112.577 63.2184 110.822C63.2184 109.067 52.5796 107.645 39.456 107.645C26.3324 107.645 15.6936 109.067 15.6936 110.822C15.6936 112.577 26.3324 114 39.456 114Z" fill="#725943"/>
<path d="M44.892 74.184C53.3552 74.184 60.216 73.247 60.216 72.0912C60.216 70.9354 53.3552 69.9984 44.892 69.9984C36.4288 69.9984 29.568 70.9354 29.568 72.0912C29.568 73.247 36.4288 74.184 44.892 74.184Z" fill="#725943"/>
<path d="M46.3992 31.6248C46.3992 31.6248 42.4896 28.2048 45.9792 24.8544C49.4688 21.504 55.2624 17.1072 52.9584 10.896C50.6544 4.68477 39.36 2.38077 29.2272 16.2696C19.0944 30.1584 9.68401 44.5392 16.176 56.6136C16.176 56.6136 17.2224 59.1264 15.5472 60.5232C15.5472 60.5232 17.64 59.4768 18.3384 59.5464C19.0368 59.616 33.3456 60.2664 46.8984 50.2728C60.4512 40.2792 69.2352 27.4392 69.024 22.1928C68.8128 16.9464 60.9984 14.0328 56.7408 18.7032C52.4832 23.3736 51.84 28.4856 50.376 30.0912C48.912 31.6968 47.8632 32.6736 46.3992 31.6248Z" fill="#465B31"/>
<path d="M39.36 11.9184C39.36 11.9184 44.88 8.95441 46.7592 12.7104C48.4824 16.1568 42.8736 25.1904 44.8392 29.628C45.0465 30.1062 45.3553 30.5336 45.744 30.8808C45.744 30.8808 43.7904 29.4624 44.2104 25.8408C44.6304 22.2192 47.4456 15.6888 46.2816 12.72C45.5544 10.848 42.1416 10.74 39.36 11.9184Z" fill="#7F9F69"/>
<path d="M45.4272 30.4921C45.4272 30.4921 33.5328 53.5657 18.828 56.8225C18.828 56.8225 32.508 55.3825 45.7224 30.8809L45.4272 30.4921Z" fill="#7F9F69"/>
<path d="M31.5768 16.3872C31.5768 16.3872 42.7392 10.5288 41.76 18.8304C41.196 23.5752 43.4232 29.3904 45.36 30.6576L45.4344 30.5328C45.4344 30.5328 41.3544 26.7744 42.0408 18.468C42.7272 10.1616 31.5768 16.3872 31.5768 16.3872Z" fill="#7F9F69"/>
<path d="M41.7864 36.6072C41.7864 36.6072 29.7168 24.0264 21.3408 31.0728C21.3408 31.0728 28.4784 24.0192 41.5896 36.9072L41.7864 36.6072Z" fill="#7F9F69"/>
<path d="M38.5104 41.4144C38.5104 41.4144 24.924 32.0688 18.456 38.1168C18.456 38.1168 23.8776 32.1408 38.2416 41.772L38.5104 41.4144Z" fill="#7F9F69"/>
<path d="M35.6328 45.0096C35.6328 45.0096 21.6672 38.7216 17.5008 42.7944C17.5008 42.7944 21.6 38.8296 35.2608 45.48L35.6328 45.0096Z" fill="#7F9F69"/>
<path d="M31.5768 49.1544C31.5768 49.1544 22.0392 43.7016 17.5008 47.796C17.5008 47.796 21.5496 44.0328 31.3176 49.4016L31.5768 49.1544Z" fill="#7F9F69"/>
<path d="M26.52 53.3184C26.52 53.3184 20.364 49.8432 17.5008 52.2624C17.5008 52.2624 20.328 50.088 26.2344 53.5104L26.52 53.3184Z" fill="#7F9F69"/>
<path d="M45.12 31.3848C45.12 31.3848 51.936 48.0576 45.3888 87.4248H47.0688C47.0688 87.4248 51.66 52.6248 46.908 32.3712C46.896 32.3712 45.6336 29.8296 45.12 31.3848Z" fill="#7F9F69"/>
<path d="M45.36 30.6576C45.36 30.6576 35.1648 18.2256 25.812 25.1808C25.812 25.1808 33.8544 17.9136 45.2328 30.8808L45.36 30.6576Z" fill="#7F9F69"/>
<path d="M45.7224 30.8808C45.7224 30.8808 47.5152 34.1041 51.7368 29.9521C55.9584 25.8 57.0432 17.5608 63.5688 19.9008C63.5688 19.9008 66.5352 20.5272 66.0816 25.308C66.0816 25.308 66.216 20.6088 63.4416 20.0736C59.6712 19.3536 58.6152 20.2008 54.1584 27.2976C49.62 34.5216 45.936 32.04 45.5016 31.08L45.7224 30.8808Z" fill="#7F9F69"/>
<path d="M45.5472 30.792C45.5472 30.792 47.2488 34.0584 52.4376 31.152C57.4008 28.368 60.7656 28.6392 62.5344 31.2672C62.5344 31.2672 60.1344 27.0096 52.5288 31.2912C47.196 34.2912 45.4896 31.1304 45.4896 31.1304L45.5472 30.792Z" fill="#7F9F69"/>
<path d="M45.4896 31.1304C45.4896 31.1304 47.4096 33.1008 49.056 33.6504C52.3728 34.7496 57.5496 37.872 55.1928 41.5704C55.1928 41.5704 57.9624 36.9624 48.9528 33.8232C47.6244 33.2526 46.4397 32.3934 45.4848 31.308L45.4896 31.1304Z" fill="#7F9F69"/>
<path d="M42.2136 36.8136C42.2136 36.8136 49.3992 41.4216 47.1672 49.0056C47.1672 49.0056 50.2032 42.1296 42.3504 36.6384L42.2136 36.8136Z" fill="#7F9F69"/>
<path d="M38.94 41.5728C38.94 41.5728 46.188 45.2712 40.2912 53.5104C40.2912 53.5104 46.7112 46.4232 39.1416 41.304L38.94 41.5728Z" fill="#7F9F69"/>
<path d="M36 45.2016C36 45.2016 42.8376 49.5984 35.4408 55.7424C35.4408 55.7424 43.0416 50.9952 36.2568 44.9064L36 45.2016Z" fill="#7F9F69"/>
<path d="M32.0256 49.2888C32.0256 49.2888 36.0336 54.24 30.72 57.0672C30.72 57.0672 36.4656 54.8376 32.268 49.0608L32.0256 49.2888Z" fill="#7F9F69"/>
<path d="M26.7792 53.3928C26.7792 53.3928 28.9824 56.8944 23.9232 58.3944C23.9232 58.3944 28.9344 57.7416 27.0216 53.2344L26.7792 53.3928Z" fill="#7F9F69"/>
<path d="M50.544 11.544C50.544 11.544 48.24 11.964 49.356 15.1752C50.472 18.3864 56.1264 24.1776 56.1264 27.528C56.1264 30.8784 55.536 36.072 57.4824 36.9072C59.7432 37.8672 87.3264 54.4008 90.1224 54.8208C90.1224 54.8208 89.2848 47.4216 84.9552 41.976C80.6256 36.5304 63.2472 9.66001 50.544 11.544Z" fill="#314329"/>
<path d="M56.532 35.3472C56.532 35.3472 56.7552 36.8808 58.6392 37.5792C60.5232 38.2776 76.9968 49.5792 79.44 51.2592C81.8832 52.9392 101.006 64.5192 105.962 66.264C105.962 66.264 97.6584 57.9576 96.4704 56.904C95.2824 55.8504 92.772 51.7392 91.9344 48.8784C91.0968 46.0176 77.8344 26.6904 74.136 21.6C70.4376 16.5096 60.3144 3.93597 53.196 8.54396C50.16 10.5 59.9376 24.6672 56.532 35.3472Z" fill="#465B31"/>
<path d="M56.532 35.3472C56.532 35.3472 55.596 36.756 59.412 38.9256C63.228 41.0952 97.6176 64.5432 105.972 66.2664C105.972 66.2664 86.9616 56.6376 77.2824 49.6584C67.6032 42.6792 61.1256 38.0784 59.3208 37.8384C57.516 37.5984 56.604 35.7864 56.532 35.3472Z" fill="#7F9F69"/>
<path d="M56.484 35.4504C56.484 35.4504 58.4496 31.5912 55.788 21.252C53.112 10.8552 61.1688 10.6176 64.1136 12.2928C64.1136 12.2928 53.196 8.54401 56.0664 21.4344C58.7064 33.2568 56.6592 35.7432 56.6592 35.7432L56.484 35.4504Z" fill="#7F9F69"/>
<path d="M56.6592 35.7432C56.6592 35.7432 59.9616 13.548 72.084 22.4016C72.084 22.4016 60.72 13.296 56.9784 36.3504L56.6592 35.7432Z" fill="#7F9F69"/>
<path d="M56.9784 36.3504C56.9784 36.3504 69.84 19.7304 83.7864 38.9256C83.7864 38.9256 70.3584 20.4456 57.4824 36.9072L56.9784 36.3504Z" fill="#7F9F69"/>
<path d="M64.8696 41.4216C64.8696 41.4216 79.8936 38.6856 84.9528 41.976C84.9528 41.976 80.0064 38.796 65.8728 41.772L64.8696 41.4216Z" fill="#7F9F69"/>
<path d="M74.4288 47.8367C74.4288 47.8367 84.0288 42.2063 94.2096 54.8207C94.2096 54.8207 85.9056 43.5935 74.9112 47.9567L74.4288 47.8367Z" fill="#7F9F69"/>
<path d="M87.5856 56.2343C87.5856 56.2343 94.908 56.0567 101.746 62.7551C101.746 62.7551 95.4288 56.8943 88.5024 56.8223L87.5856 56.2343Z" fill="#7F9F69"/>
<path d="M56.6592 35.7432C56.6592 35.7432 51.552 36.4008 50.64 41.772C49.728 47.1432 39.6768 80.556 34.3728 84.3696H36.6048C36.6048 84.3696 47.0832 63.1512 51.4968 41.976C51.4968 41.976 53.1624 36.3528 56.9808 36.3504L56.6592 35.7432Z" fill="#7F9F69"/>
<path d="M58.2216 79.8576C57.7248 77.0424 59.4696 73.476 60.0408 72.4176C58.92 73.4232 52.5648 74.1936 44.892 74.1936C37.2192 74.1936 30.864 73.4232 29.7432 72.4176C30.3144 73.4856 32.0592 77.052 31.5624 79.8576C30.972 83.2176 26.5656 100.238 26.5656 109.73C26.5656 109.73 26.5512 111.41 28.4856 111.41H61.3008C63.2328 111.41 63.2208 109.73 63.2208 109.73C63.2184 100.238 58.812 83.208 58.2216 79.8576Z" fill="#FFDFBB"/>
<path d="M53.0544 79.5984C53.0544 79.5984 42 82.5792 38.3712 82.5792C34.7424 82.5792 32.928 84.8952 32.928 87.3313C32.928 89.7673 35.2512 96.6096 33.8088 101.774C32.3664 106.939 32.6712 108.475 34.3704 109.591C35.481 110.305 36.6567 110.913 37.8816 111.406H28.4832C28.4832 111.406 26.628 111.588 26.5632 109.452C26.364 102.425 29.6568 88.6393 31.104 82.0369C31.104 82.0369 31.9224 78.9865 31.7544 77.7625C31.7544 77.7625 38.4528 80.3496 53.052 79.5984" fill="#CEAA85"/>
<path d="M29.616 72.24C29.616 72.24 31.4952 75.54 31.7928 77.3376C32.0904 79.1352 48.9384 79.7376 54.2496 79.4976C54.2496 79.4976 41.1624 80.7192 31.8456 77.892C31.8456 77.892 31.9152 79.8288 31.296 81.1608C31.4533 80.4479 31.5703 79.7268 31.6464 79.0008C31.8096 76.2264 29.616 72.24 29.616 72.24Z" fill="#725943"/>
<path d="M33.3936 85.1616C33.3936 85.1616 30.8496 97.8648 32.5752 106.38C32.5752 106.38 30.1128 98.0736 33.3936 85.1616Z" fill="#725943"/>
<path d="M35.1648 87.12C35.1648 87.12 33.312 98.64 34.5696 106.368C34.56 106.37 32.7768 98.8344 35.1648 87.12Z" fill="#725943"/>
<path d="M38.0784 86.64C38.0784 86.64 36.2256 97.2 37.4808 104.292C37.4808 104.287 35.6904 97.3776 38.0784 86.64Z" fill="#725943"/>
<path d="M41.3688 89.7456C41.3688 89.7456 39.7536 99.8712 40.848 106.658C40.848 106.658 39.2856 100.039 41.3688 89.7456Z" fill="#725943"/>
<path d="M44.004 91.7928C44.004 91.7928 36.804 92.0016 31.3008 89.3496C31.3008 89.3496 35.76 92.4216 44.004 91.7928Z" fill="#725943"/>
<path d="M42.3048 94.4137C42.3048 94.4137 35.1048 94.6225 29.6016 91.9705C29.6016 91.9705 34.08 95.0401 42.3048 94.4137Z" fill="#725943"/>
<path d="M43.7736 97.7953C43.7736 97.7953 36.5736 98.0041 31.0704 95.3521C31.0704 95.3521 35.5368 98.4217 43.7736 97.7953Z" fill="#725943"/>
<path d="M41.1696 101.736C41.1696 101.736 33.9696 101.945 28.464 99.2928C28.464 99.2928 32.9328 102.365 41.1696 101.736Z" fill="#725943"/>
</svg>
