<svg width="33" height="164" viewBox="0 0 33 164" fill="none" xmlns="http://www.w3.org/2000/svg">
<circle cx="16.5" cy="141.5" r="9.5" fill="#FFC260"/>
<path fill-rule="evenodd" clip-rule="evenodd" d="M18 115H19V119H21V121.939C22.6121 122.635 24.0934 123.706 25.3388 125.101C27.683 127.726 29 131.287 29 135H27.2708C30.7792 138.026 33 142.504 33 147.5C33 156.107 26.4097 163.175 18 163.933V164H17V163.993C16.8339 163.998 16.6673 164 16.5 164C7.3873 164 0 156.613 0 147.5C0 142.504 2.22084 138.026 5.72924 135H4C4 131.287 5.31696 127.726 7.66117 125.101C8.90664 123.706 10.3879 122.635 12 121.939V119H14V115H15L15 0H18L18 115ZM18 162.928C25.8566 162.174 32 155.554 32 147.5C32 142.369 29.5073 137.821 25.6669 135H18V162.928ZM17 135H16.5H7.33309C3.49271 137.821 1 142.369 1 147.5C1 156.06 7.93959 163 16.5 163C16.6673 163 16.834 162.997 17 162.992V135Z" fill="#514657"/>
</svg>
