<svg width="32" height="32" viewBox="0 0 32 32" fill="none" xmlns="http://www.w3.org/2000/svg">
<circle cx="16" cy="15.9999" r="14.8571" fill="#EDEEFF"/>
<path d="M26.0008 20.6801C25.8878 20.2581 25.6161 19.9051 25.2356 19.6852C24.8553 19.4656 24.4131 19.4071 23.9915 19.5198L18.6079 20.9622C18.6192 20.938 18.6335 20.916 18.644 20.8911C19.0206 19.9834 18.5889 18.9386 17.6814 18.5618L12.9386 16.5924C12.2477 16.3058 11.5475 16.3049 10.8569 16.5905L9.28208 17.241V16.7867C9.28208 16.3722 8.94486 16.035 8.53039 16.035L6.69445 16.0349C6.27997 16.0349 5.94275 16.3721 5.94275 16.7866V23.6761C5.94275 24.0906 6.27997 24.4278 6.69445 24.4278H8.53039C8.94486 24.4278 9.28208 24.0906 9.28208 23.6761V23.3232L9.29427 23.3178C10.0291 22.9907 10.7934 23.0172 11.5051 23.3939L14.0783 24.7571C14.533 24.9982 14.9807 25.1179 15.4322 25.1179C15.6639 25.1179 15.8968 25.0864 16.1324 25.0233L24.8407 22.6901C25.7147 22.4557 26.2351 21.5541 26.0009 20.6803L26.0008 20.6801ZM8.53046 23.8056H6.69452C6.62421 23.8056 6.56496 23.7463 6.56496 23.676V16.7864C6.56496 16.7161 6.62421 16.6569 6.69452 16.6569H8.53046C8.60076 16.6569 8.66001 16.7161 8.66001 16.7864V17.7031V17.7037V23.6759C8.66015 23.7462 8.60076 23.8056 8.53046 23.8056V23.8056ZM24.6796 22.0888L15.9716 24.422C15.4367 24.5655 14.9129 24.495 14.3696 24.2071L11.7964 22.8439C10.9877 22.4153 10.1235 22.355 9.28223 22.6567V17.9143L11.0944 17.1657C11.6347 16.9421 12.1602 16.943 12.7001 17.1669L17.4429 19.1364C18.0337 19.3819 18.3144 20.0623 18.0693 20.6528C17.8236 21.2433 17.1438 21.5242 16.5529 21.2792L14.0194 20.227C13.8599 20.1608 13.6788 20.2364 13.613 20.395C13.5471 20.5536 13.6221 20.7356 13.781 20.8014L16.3144 21.8537C16.5371 21.946 16.7682 21.9898 16.9954 21.9898C17.2175 21.9898 17.4346 21.9436 17.6388 21.8645L17.6392 21.8659L24.1521 20.121C24.4134 20.051 24.6875 20.0874 24.9244 20.224C25.1609 20.3607 25.3298 20.5798 25.3997 20.8414C25.5454 21.3838 25.2225 21.9434 24.6797 22.0889L24.6796 22.0888ZM19.449 18.4452C22.6313 18.4452 25.2206 15.8563 25.2206 12.674C25.2206 9.49175 22.6315 6.9028 19.449 6.9028C16.2669 6.9028 13.6779 9.49171 13.6779 12.674C13.6779 15.8562 16.2668 18.4452 19.449 18.4452ZM19.449 7.52513C22.2884 7.52513 24.5983 9.83506 24.5983 12.6744C24.5983 15.5134 22.2883 17.8236 19.449 17.8236C16.61 17.8236 14.3002 15.5138 14.3002 12.6744C14.3002 9.83499 16.6097 7.52513 19.449 7.52513ZM19.4493 17.4897C22.1047 17.4897 24.2651 15.3296 24.2651 12.6744C24.2651 10.019 22.1048 7.85862 19.4493 7.85862C16.7938 7.85862 14.6336 10.0189 14.6336 12.6744C14.6336 15.3293 16.7938 17.4897 19.4493 17.4897V17.4897ZM17.0914 9.20925C17.15 9.30209 17.25 9.35482 17.3533 9.35482C17.4062 9.35482 17.4596 9.3415 17.5087 9.31315C17.6528 9.22994 17.7039 9.04893 17.6289 8.90266C18.0915 8.67827 18.6003 8.53666 19.1382 8.49682V8.75339C19.1382 8.92533 19.2776 9.06438 19.4492 9.06438C19.6209 9.06438 19.7602 8.92519 19.7602 8.75339V8.49682C20.2981 8.53637 20.8067 8.67826 21.2696 8.90266C21.1944 9.04923 21.2455 9.2301 21.3896 9.31315C21.4385 9.3415 21.4921 9.35482 21.545 9.35482C21.6483 9.35482 21.7482 9.30209 21.8071 9.2091C22.2417 9.50578 22.6174 9.88184 22.9141 10.3162C22.7738 10.4049 22.7269 10.5886 22.8105 10.7338C22.8682 10.8336 22.9727 10.8893 23.0801 10.8893C23.1278 10.8893 23.1759 10.8764 23.2212 10.8535C23.4456 11.3164 23.5876 11.8254 23.6271 12.3636H23.3706C23.1989 12.3636 23.0596 12.5028 23.0596 12.6746C23.0596 12.8465 23.1989 12.9856 23.3706 12.9856H23.6271C23.5876 13.5235 23.4457 14.032 23.2213 14.4948C23.0757 14.4204 22.8943 14.4707 22.8109 14.6148C22.727 14.76 22.7741 14.944 22.9145 15.0327C22.6179 15.4672 22.2421 15.8428 21.8075 16.1394C21.7189 15.9987 21.5348 15.9517 21.3899 16.0357C21.2457 16.1189 21.1947 16.2997 21.2698 16.4462C20.807 16.6706 20.2982 16.8124 19.7605 16.8521V16.5958C19.7605 16.4241 19.6211 16.2848 19.4495 16.2848C19.2778 16.2848 19.1385 16.4241 19.1385 16.5958V16.8521C18.6004 16.8125 18.0917 16.6706 17.6291 16.4462C17.704 16.2997 17.653 16.1188 17.5089 16.0357C17.3642 15.9518 17.1801 15.999 17.0913 16.1394C16.6569 15.8428 16.2812 15.4671 15.9847 15.0327C16.125 14.944 16.1721 14.76 16.0883 14.6148C16.005 14.4705 15.824 14.4197 15.6778 14.4948C15.4535 14.0321 15.3117 13.5235 15.272 12.9856H15.5283C15.6999 12.9856 15.8393 12.8464 15.8393 12.6746C15.8393 12.5026 15.6999 12.3636 15.5283 12.3636H15.272C15.3115 11.8255 15.4536 11.3166 15.678 10.8535C15.7232 10.8765 15.7711 10.8893 15.819 10.8893C15.9265 10.8893 16.0309 10.8334 16.0886 10.7338C16.1724 10.5886 16.1253 10.4049 15.985 10.3162C16.2808 9.8817 16.6568 9.50579 17.0914 9.20925L17.0914 9.20925ZM17.4769 14.1244C17.5298 14.1244 17.5832 14.1111 17.6323 14.0827L18.9615 13.3152C19.0975 13.4191 19.2655 13.4832 19.4493 13.4832C19.8951 13.4832 20.258 13.1203 20.258 12.6746C20.258 12.339 20.0523 12.0505 19.7603 11.9283V9.53023C19.7603 9.35829 19.621 9.21923 19.4493 9.21923C19.2777 9.21923 19.1383 9.35843 19.1383 9.53023V11.928C18.8463 12.0502 18.6406 12.3385 18.6406 12.6743C18.6406 12.7092 18.6466 12.7425 18.651 12.7761L17.3214 13.544C17.1725 13.6299 17.1217 13.8202 17.2076 13.9688C17.265 14.0687 17.3694 14.1244 17.4769 14.1244L17.4769 14.1244ZM19.4493 12.861C19.3464 12.861 19.2627 12.7774 19.2627 12.6746C19.2627 12.5716 19.3464 12.4878 19.4493 12.4878C19.5522 12.4878 19.636 12.5716 19.636 12.6746C19.6359 12.7775 19.5521 12.861 19.4493 12.861Z" fill="#575DC2"/>
</svg>
