<svg width="32" height="32" viewBox="0 0 32 32" fill="none" xmlns="http://www.w3.org/2000/svg">
<circle cx="16" cy="15.9999" r="14.8571" fill="#EDEEFF"/>
<path d="M19.4284 23.9519C19.3294 25.7625 17.8321 27.2 15.9998 27.2C14.1675 27.2 12.6702 25.7626 12.5712 23.9519H8.37285C7.10657 23.9519 6.07983 22.926 6.07983 21.6593C6.07983 20.3943 7.10582 19.3665 8.36992 19.3665C8.36833 19.3665 8.36913 14.7809 8.36913 14.7809C8.36913 11.5509 10.3859 8.71917 13.3291 7.61963V7.51888C13.3291 6.04302 14.5265 4.8457 15.9998 4.8457C17.4747 4.8457 18.6705 6.0422 18.6705 7.51888V7.61963C21.6137 8.7191 23.6305 11.5514 23.6305 14.7809V19.3659C24.892 19.3665 25.9198 20.3937 25.9198 21.6592C25.9198 22.9245 24.8923 23.9518 23.6268 23.9518L19.4284 23.9519ZM17.8981 23.9519H14.1014C14.1972 24.9175 15.0105 25.6716 15.9997 25.6716C16.9889 25.6716 17.8023 24.9175 17.8981 23.9519H17.8981ZM14.3037 8.90606C11.7128 9.65453 9.89511 12.0385 9.89511 14.781V19.366C9.89511 20.2099 9.21141 20.8951 8.36986 20.8951C7.94856 20.8951 7.60604 21.2382 7.60604 21.6593C7.60604 22.081 7.94855 22.4235 8.37279 22.4235H23.6267C24.0498 22.4235 24.3934 22.0799 24.3934 21.6593C24.3934 21.2387 24.0498 20.8951 23.6296 20.8951C22.7865 20.8951 22.1043 20.2123 22.1043 19.366V14.781C22.1043 12.0393 20.2866 9.65453 17.6958 8.90606L17.1443 8.74667V7.51926C17.1443 6.88729 16.632 6.37476 15.9997 6.37476C15.3687 6.37476 14.855 6.88812 14.855 7.51926V8.74667L14.3037 8.90606Z" fill="#575DC2"/>
</svg>
