<svg width="414" height="162" viewBox="0 0 414 162" fill="none" xmlns="http://www.w3.org/2000/svg">
<rect y="79" width="414" height="83" fill="#463A4D"/>
<rect y="79" width="414" height="3" fill="#987DA7"/>
<rect y="84" width="414" height="3" fill="#987DA7"/>
<rect y="89" width="414" height="3" fill="#987DA7"/>
<rect y="94" width="414" height="3" fill="#987DA7"/>
<rect y="99" width="414" height="3" fill="#987DA7"/>
<rect y="104" width="414" height="3" fill="#987DA7"/>
<rect y="109" width="414" height="3" fill="#987DA7"/>
<rect y="114" width="414" height="3" fill="#987DA7"/>
<rect y="119" width="414" height="3" fill="#987DA7"/>
<rect y="124" width="414" height="3" fill="#987DA7"/>
<rect y="129" width="414" height="3" fill="#987DA7"/>
<rect y="134" width="414" height="3" fill="#987DA7"/>
<rect y="139" width="414" height="3" fill="#987DA7"/>
<rect y="144" width="414" height="3" fill="#987DA7"/>
<rect y="149" width="414" height="3" fill="#987DA7"/>
<rect y="154" width="414" height="3" fill="#987DA7"/>
<rect y="159" width="414" height="3" fill="#987DA7"/>
<line x1="64.5" x2="64.5" y2="79" stroke="#463A4D" stroke-width="3"/>
<line x1="352.5" x2="352.5" y2="79" stroke="#463A4D" stroke-width="3"/>
<path d="M95.9375 148L101.25 93H119.906L125.125 148H114.719L113.938 139.125H107.312L106.625 148H95.9375ZM108.094 130.344H113.094L110.688 102.375H110.188L108.094 130.344ZM128.5 148V93H143.406C147.406 93 150.312 93.9792 152.125 95.9375C153.958 97.875 154.875 101.083 154.875 105.562V107.969C154.875 110.552 154.406 112.646 153.469 114.25C152.552 115.854 151.146 116.906 149.25 117.406C151.729 118.031 153.385 119.5 154.219 121.812C155.073 124.104 155.5 126.906 155.5 130.219C155.5 133.781 155.167 136.896 154.5 139.562C153.833 142.229 152.625 144.302 150.875 145.781C149.125 147.26 146.635 148 143.406 148H128.5ZM139.25 113.719H141.5C142.521 113.719 143.177 113.323 143.469 112.531C143.76 111.74 143.906 110.792 143.906 109.688V104.156C143.906 102.385 143.125 101.5 141.562 101.5H139.25V113.719ZM140.344 138.312C143.198 138.312 144.625 136.958 144.625 134.25V127.375C144.625 125.812 144.385 124.583 143.906 123.688C143.448 122.771 142.573 122.312 141.281 122.312H139.25V138.25C139.708 138.292 140.073 138.312 140.344 138.312ZM172.25 148.5C167.854 148.5 164.49 147.177 162.156 144.531C159.844 141.865 158.688 138.021 158.688 133V106.875C158.688 102.167 159.833 98.5938 162.125 96.1562C164.438 93.7188 167.812 92.5 172.25 92.5C176.688 92.5 180.052 93.7188 182.344 96.1562C184.656 98.5938 185.812 102.167 185.812 106.875V133C185.812 138.021 184.646 141.865 182.312 144.531C180 147.177 176.646 148.5 172.25 148.5ZM172.344 138.375C174.01 138.375 174.844 136.76 174.844 133.531V106.688C174.844 103.979 174.031 102.625 172.406 102.625C170.573 102.625 169.656 104.01 169.656 106.781V133.594C169.656 135.302 169.865 136.531 170.281 137.281C170.698 138.01 171.385 138.375 172.344 138.375ZM202.969 148.5C198.385 148.5 195.01 147.219 192.844 144.656C190.677 142.073 189.594 138.281 189.594 133.281V93H200.281V132.844C200.281 133.76 200.333 134.646 200.438 135.5C200.542 136.333 200.781 137.021 201.156 137.562C201.531 138.104 202.135 138.375 202.969 138.375C203.823 138.375 204.438 138.115 204.812 137.594C205.188 137.052 205.417 136.354 205.5 135.5C205.604 134.646 205.656 133.76 205.656 132.844V93H216.344V133.281C216.344 138.281 215.26 142.073 213.094 144.656C210.927 147.219 207.552 148.5 202.969 148.5ZM225.281 148V103.562H218.75V93H242.812V103.562H236.281V148H225.281ZM273.594 148.5C269.01 148.5 265.635 147.219 263.469 144.656C261.302 142.073 260.219 138.281 260.219 133.281V93H270.906V132.844C270.906 133.76 270.958 134.646 271.062 135.5C271.167 136.333 271.406 137.021 271.781 137.562C272.156 138.104 272.76 138.375 273.594 138.375C274.448 138.375 275.062 138.115 275.438 137.594C275.812 137.052 276.042 136.354 276.125 135.5C276.229 134.646 276.281 133.76 276.281 132.844V93H286.969V133.281C286.969 138.281 285.885 142.073 283.719 144.656C281.552 147.219 278.177 148.5 273.594 148.5ZM304.25 148.5C299.229 148.5 295.604 147.25 293.375 144.75C291.167 142.25 290.062 138.271 290.062 132.812V127.438H300.938V134.312C300.938 135.583 301.125 136.583 301.5 137.312C301.896 138.021 302.573 138.375 303.531 138.375C304.531 138.375 305.219 138.083 305.594 137.5C305.99 136.917 306.188 135.958 306.188 134.625C306.188 132.938 306.021 131.531 305.688 130.406C305.354 129.26 304.771 128.177 303.938 127.156C303.125 126.115 301.99 124.906 300.531 123.531L295.594 118.844C291.906 115.365 290.062 111.385 290.062 106.906C290.062 102.219 291.146 98.6458 293.312 96.1875C295.5 93.7292 298.656 92.5 302.781 92.5C307.823 92.5 311.396 93.8438 313.5 96.5312C315.625 99.2188 316.688 103.302 316.688 108.781H305.5V105C305.5 104.25 305.281 103.667 304.844 103.25C304.427 102.833 303.854 102.625 303.125 102.625C302.25 102.625 301.604 102.875 301.188 103.375C300.792 103.854 300.594 104.479 300.594 105.25C300.594 106.021 300.802 106.854 301.219 107.75C301.635 108.646 302.458 109.677 303.688 110.844L310.031 116.938C311.302 118.146 312.469 119.427 313.531 120.781C314.594 122.115 315.448 123.677 316.094 125.469C316.74 127.24 317.062 129.406 317.062 131.969C317.062 137.135 316.104 141.188 314.188 144.125C312.292 147.042 308.979 148.5 304.25 148.5Z" fill="#FDFBFF"/>
</svg>
