<svg width="69" height="69" viewBox="0 0 69 69" fill="none" xmlns="http://www.w3.org/2000/svg">
<g clip-path="url(#clip0_2347_1168)">
<path d="M58.9955 25.6598L58.6976 22.6949L58.9955 22.233L58.4991 16.9135L57.6363 16.3778H51.8077L51.1003 16.9135L50.604 22.2328L50.9149 22.577L50.604 25.8114L50.2427 26.1036L48.9441 40.0203L49.5841 40.4961H60.0958L60.6554 40.0203L59.3566 26.1036L58.9955 25.6598Z" fill="#DBEDFF"/>
<path d="M54.3307 26.1036L54.6918 25.8114L55.0028 22.577L54.6918 22.2328L55.1882 16.9135L55.8956 16.3778H51.8077L51.1003 16.9135L50.604 22.2328L50.9149 22.577L50.604 25.8114L50.2427 26.1036L48.9441 40.0203L49.5841 40.4961H53.6719L53.0319 40.0203L54.3307 26.1036Z" fill="#B5DCFF"/>
<path d="M64.5272 40.0201H44.3207L43.2726 41.0398V64.3094H64.9699L65.2788 64.0331V40.7717C65.2788 40.3567 64.9423 40.0201 64.5272 40.0201V40.0201Z" fill="#8479C2"/>
<path d="M48.9441 40.7717C48.9441 40.3567 49.2806 40.0201 49.6957 40.0201H44.3207L43.2726 41.0398V64.3094H49.253L48.9441 64.0331V40.7717Z" fill="#6E60B8"/>
<path d="M58.9034 13.0426H50.696C50.3078 13.0426 49.9931 13.3573 49.9931 13.7455V16.2105C49.9931 16.5988 50.3078 16.9135 50.696 16.9135H58.9034C59.2917 16.9135 59.6063 16.5988 59.6063 16.2105V13.7455C59.6063 13.3573 59.2917 13.0426 58.9034 13.0426Z" fill="#B5DCFF"/>
<path d="M53.9462 16.2105V13.7455C53.9462 13.3573 54.2609 13.0426 54.6491 13.0426H50.696C50.3078 13.0426 49.9931 13.3573 49.9931 13.7455V16.2105C49.9931 16.5988 50.3078 16.9135 50.696 16.9135H54.6491C54.2609 16.9135 53.9462 16.5988 53.9462 16.2105Z" fill="#8BCAFF"/>
<path d="M53.5936 3.49668C53.3238 3.55746 53.0522 3.4138 52.9285 3.16651C51.7651 0.841395 48.6448 0.279558 46.7423 2.04189C46.5151 2.25239 46.1603 2.25145 45.9325 2.04162C44.4326 0.660001 42.1047 0.658923 40.6036 2.04067C40.3757 2.2505 40.02 2.25212 39.7934 2.04067C37.3749 -0.215976 33.1832 1.4287 33.1832 4.94797C33.1832 8.46792 37.3755 10.1111 39.7934 7.85527C40.02 7.64396 40.3757 7.64544 40.6036 7.85527C42.1044 9.23649 44.433 9.23662 45.9335 7.85339C46.161 7.64369 46.5149 7.64302 46.7425 7.85258C48.095 9.09768 50.1423 9.23797 51.6505 8.19246C51.8796 8.0337 52.1879 8.04004 52.3968 8.22453C54.0774 9.70897 56.9149 8.57182 56.9149 6.16194C56.9149 4.3736 55.2461 3.12406 53.5936 3.49668V3.49668Z" fill="#DBEDFF"/>
<path d="M52.397 5.15875C52.1881 4.97425 51.8797 4.96792 51.6506 5.12667C50.1425 6.17218 48.0951 6.03189 46.7426 4.78679C46.5151 4.57723 46.1611 4.57791 45.9336 4.7876C44.4331 6.17084 42.1044 6.1707 40.6038 4.78949C40.3759 4.57966 40.0201 4.57804 39.7936 4.78949C37.7614 6.68537 34.4771 5.82664 33.4802 3.41528C33.2908 3.87322 33.1832 4.38654 33.1832 4.94824C33.1832 8.46819 37.3755 10.1114 39.7934 7.85554C40.02 7.64423 40.3757 7.64571 40.6036 7.85554C42.1044 9.23675 44.433 9.23689 45.9335 7.85365C46.161 7.64396 46.5149 7.64329 46.7425 7.85285C48.095 9.09795 50.1423 9.23824 51.6505 8.19272C51.8796 8.03397 52.1879 8.0403 52.3968 8.2248C54.0774 9.70924 56.9149 8.57209 56.9149 6.16221C56.9149 5.58528 56.7406 5.06508 56.4499 4.63666C55.5753 5.90926 53.6596 6.27407 52.397 5.15875V5.15875Z" fill="#B5DCFF"/>
<path d="M50.2427 26.1037H59.3567L58.9954 22.2328H50.604L50.2427 26.1037Z" fill="#F27182"/>
<path d="M50.604 22.2328L50.2427 26.1037H54.3305L54.6918 22.2328H50.604Z" fill="#ED5469"/>
<path d="M48.7634 60.157H60.8361V64.2087H48.7634V60.157Z" fill="#00D2FC"/>
<path d="M48.7634 60.157H54.4423V64.2087H48.7634V60.157Z" fill="#00C2FB"/>
<path d="M48.7634 52.7566H60.8361V56.8083H48.7634V52.7566Z" fill="#00D2FC"/>
<path d="M48.7634 52.7566H54.4423V56.8083H48.7634V52.7566Z" fill="#00C2FB"/>
<path d="M43.1301 33.3027L31.2437 39.2866C30.9666 39.4262 30.7917 39.7099 30.7917 40.0203L30.3352 40.4961V64.3095H43.7669L44.3209 64.0332V34.0364C44.3208 33.425 43.6765 33.0278 43.1301 33.3027V33.3027Z" fill="#FFC365"/>
<path d="M48.7634 56.6326H60.8361V60.3328H48.7634V56.6326Z" fill="#62DDFC"/>
<path d="M48.7634 56.6326H54.4423V60.3328H48.7634V56.6326Z" fill="#00D2FC"/>
<path d="M60.6554 48.8519H48.9441C48.8813 48.8519 48.8213 48.8397 48.7634 48.8226V52.9324H60.8361V48.8226C60.778 48.8397 60.7183 48.8519 60.6554 48.8519Z" fill="#62DDFC"/>
<path d="M54.3572 48.8519H48.8483C48.8188 48.8519 48.7906 48.8397 48.7632 48.8226V52.9324H54.4421V48.8226C54.4149 48.8397 54.3869 48.8519 54.3572 48.8519V48.8519Z" fill="#00D2FC"/>
<path d="M60.6554 45.3877H48.9441C48.5558 45.3877 48.2411 45.7024 48.2411 46.0906V48.5556C48.2411 48.9439 48.5558 49.2586 48.9441 49.2586H60.6554C61.0436 49.2586 61.3583 48.9439 61.3583 48.5556V46.0906C61.3583 45.7024 61.0436 45.3877 60.6554 45.3877Z" fill="#DBEDFF"/>
<path d="M53.7393 48.5555V46.0905C53.7393 45.7023 54.054 45.3876 54.4423 45.3876H48.9441C48.5558 45.3876 48.2411 45.7023 48.2411 46.0905V48.5555C48.2411 48.9438 48.5558 49.2584 48.9441 49.2584H54.4423C54.054 49.2584 53.7393 48.9438 53.7393 48.5555Z" fill="#B5DCFF"/>
<path d="M34.5783 41.329C34.5783 41.0188 34.7532 40.7349 35.0303 40.5953L44.3207 35.9183V34.0363C44.3207 33.4247 43.6764 33.0277 43.1301 33.3026L31.2436 39.2865C30.9666 39.4261 30.7916 39.7098 30.7916 40.0202V64.0331H34.5781V41.329H34.5783Z" fill="#FFA90F"/>
<path d="M29.601 33.3027L17.7146 39.2866C17.4375 39.4262 17.2626 39.7099 17.2626 40.0203L16.6789 40.4961V64.6688H29.7512L30.7917 64.0332V34.0364C30.7917 33.425 30.1474 33.0278 29.601 33.3027V33.3027Z" fill="#FFC365"/>
<path d="M21.0492 41.329C21.0492 41.0188 21.2241 40.7349 21.5012 40.5953L30.7917 35.9183V34.0363C30.7917 33.4247 30.1474 33.0277 29.601 33.3026L17.7146 39.2865C17.4375 39.4261 17.2626 39.7098 17.2626 40.0202V64.0331H21.0491V41.329H21.0492Z" fill="#FFA90F"/>
<path d="M16.072 33.3026L4.18552 39.2865C3.90845 39.4261 3.73352 39.7098 3.73352 40.0202V64.0331H17.2626V34.0363C17.2626 33.4247 16.6183 33.0277 16.072 33.3026V33.3026Z" fill="#FFC365"/>
<path d="M7.52016 41.329C7.52016 41.0188 7.69509 40.7349 7.97217 40.5953L17.2626 35.9183V34.0363C17.2626 33.4247 16.6183 33.0277 16.072 33.3026L4.18552 39.2865C3.90845 39.4261 3.73352 39.7098 3.73352 40.0202V64.0331H7.52003V41.329H7.52016Z" fill="#FFA90F"/>
<path d="M67.0185 63.8982H1.9937C1.45423 63.8982 1.01678 64.3355 1.01678 64.8751V67.0064C1.01678 67.5459 1.4541 67.9833 1.9937 67.9833H67.0185C67.558 67.9833 67.9954 67.546 67.9954 67.0064V64.8751C67.9954 64.3355 67.5581 63.8982 67.0185 63.8982Z" fill="#DBEDFF"/>
<path d="M67.0185 65.9408H1.9937C1.45423 65.9408 1.01678 65.5035 1.01678 64.9639V67.0064C1.01678 67.5458 1.4541 67.9833 1.9937 67.9833H67.0185C67.558 67.9833 67.9954 67.546 67.9954 67.0064V64.9639C67.9954 65.5035 67.5581 65.9408 67.0185 65.9408Z" fill="#B5DCFF"/>
<path d="M39.8344 43.0331H35.278C34.8171 43.0331 34.4434 43.4067 34.4434 43.8677V48.9632C34.4434 49.4241 34.8171 49.7978 35.278 49.7978H39.8344C40.2953 49.7978 40.669 49.4242 40.669 48.9632V43.8677C40.669 43.4067 40.2953 43.0331 39.8344 43.0331Z" fill="#00D2FC"/>
<path d="M26.3053 43.0331H21.7489C21.288 43.0331 20.9143 43.4067 20.9143 43.8677V48.9632C20.9143 49.4241 21.288 49.7978 21.7489 49.7978H26.3053C26.7662 49.7978 27.1399 49.4242 27.1399 48.9632V43.8677C27.1399 43.4067 26.7662 43.0331 26.3053 43.0331Z" fill="#00D2FC"/>
<path d="M12.7763 43.0331H8.21986C7.75896 43.0331 7.38525 43.4067 7.38525 43.8677V48.9632C7.38525 49.4241 7.75896 49.7978 8.21986 49.7978H12.7763C13.2372 49.7978 13.6109 49.4242 13.6109 48.9632V43.8677C13.6109 43.4067 13.2372 43.0331 12.7763 43.0331Z" fill="#00D2FC"/>
<path d="M37.5562 48.9631V43.8676C37.5562 43.4067 37.9299 43.033 38.3908 43.033H35.278C34.8171 43.033 34.4434 43.4065 34.4434 43.8676V48.9631C34.4434 49.424 34.8171 49.7977 35.278 49.7977H38.3908C37.9299 49.7977 37.5562 49.424 37.5562 48.9631Z" fill="#00C2FB"/>
<path d="M24.0271 48.9631V43.8676C24.0271 43.4067 24.4008 43.033 24.8617 43.033H21.7489C21.288 43.033 20.9143 43.4065 20.9143 43.8676V48.9631C20.9143 49.424 21.288 49.7977 21.7489 49.7977H24.8617C24.4008 49.7977 24.0271 49.424 24.0271 48.9631V48.9631Z" fill="#00C2FB"/>
<path d="M10.4981 48.9631V43.8676C10.4981 43.4067 10.8718 43.033 11.3327 43.033H8.21986C7.75896 43.033 7.38525 43.4065 7.38525 43.8676V48.9631C7.38525 49.424 7.75896 49.7977 8.21986 49.7977H11.3327C10.8718 49.7977 10.4981 49.424 10.4981 48.9631Z" fill="#00C2FB"/>
<path d="M8.21382 50.814H12.7702C13.7877 50.814 14.6155 49.9861 14.6155 48.9687V43.8732C14.6155 42.8557 13.7876 42.028 12.7702 42.028H8.21382C7.1962 42.028 6.36847 42.8558 6.36847 43.8732V48.9687C6.36847 49.9861 7.1962 50.814 8.21382 50.814V50.814ZM8.38995 44.0494H12.594V48.7925H8.38995V44.0494Z" fill="black"/>
<path d="M21.7429 50.814H26.2993C27.3168 50.814 28.1445 49.9861 28.1445 48.9687V43.8732C28.1445 42.8557 27.3166 42.028 26.2993 42.028H21.7429C20.7253 42.028 19.8975 42.8558 19.8975 43.8732V48.9687C19.8975 49.9861 20.7253 50.814 21.7429 50.814ZM21.919 44.0494H26.123V48.7925H21.919V44.0494Z" fill="black"/>
<path d="M35.272 50.814H39.8284C40.846 50.814 41.6737 49.9861 41.6737 48.9687V43.8732C41.6737 42.8557 40.8459 42.028 39.8284 42.028H35.272C34.2545 42.028 33.4268 42.8558 33.4268 43.8732V48.9687C33.4266 49.9861 34.2545 50.814 35.272 50.814ZM35.4481 44.0494H39.6521V48.7925H35.4481V44.0494Z" fill="black"/>
<path d="M53.6858 2.45858C52.9634 1.2062 51.7408 0.346939 50.2897 0.083068C48.8618 -0.176491 47.4398 0.180369 46.3307 1.0643C44.5465 -0.345891 41.9788 -0.346295 40.1938 1.06322C38.784 -0.0611313 36.837 -0.316377 35.13 0.425373C33.3021 1.21995 32.1664 2.95506 32.1664 4.95377C32.1664 6.95234 33.3019 8.68745 35.1296 9.48189C36.837 10.2239 38.7839 9.96867 40.1938 8.84432C41.9795 10.2544 44.5485 10.2534 46.3328 8.84162C47.9412 10.1108 50.2173 10.2545 51.9722 9.19013C54.3601 10.9467 57.9197 9.29821 57.9197 6.16787C57.9196 3.87268 55.8832 2.16061 53.6858 2.45858V2.45858ZM53.06 7.47294C52.5051 6.98266 51.6862 6.93967 51.0689 7.36769C49.9538 8.14057 48.4198 8.03424 47.4213 7.11487C46.8104 6.55249 45.8533 6.55303 45.2427 7.11608C44.1328 8.13909 42.3931 8.13976 41.2823 7.11756C40.667 6.55101 39.7073 6.55317 39.0981 7.12201C38.0843 8.06793 36.8 8.00378 35.9355 7.62792C34.8412 7.15233 34.1879 6.15251 34.1879 4.95377C34.1879 3.75489 34.8413 2.75507 35.9359 2.27934C36.9566 1.83569 38.1903 1.93852 39.0979 2.78552C39.7075 3.35437 40.667 3.35639 41.2823 2.79011C42.3925 1.76791 44.1317 1.76818 45.2419 2.79078C45.8549 3.35545 46.8131 3.35477 47.4233 2.78916C48.0959 2.16627 49.0084 1.90483 49.9282 2.07194C50.8466 2.23891 51.6086 2.80479 52.0188 3.62444C52.3541 4.29517 53.0906 4.65041 53.8099 4.48842H53.81C54.8299 4.25811 55.8983 5.02344 55.8983 6.16787C55.8981 7.69948 54.0945 8.38706 53.06 7.47294V7.47294Z" fill="black"/>
<path d="M67.0125 63.028H66.2834V40.7775C66.2834 39.8057 65.4929 39.0151 64.5211 39.0151H61.5701L61.1693 34.7206C61.1173 34.1648 60.6243 33.7561 60.069 33.8081C59.5132 33.86 59.1047 34.3527 59.1565 34.9085L59.5398 39.0151H50.0474L51.1575 27.1201H58.4296L58.7162 30.1917C58.7681 30.7474 59.2593 31.1556 59.8166 31.1042C60.3723 31.0523 60.7808 30.5596 60.7291 30.0038C60.5933 28.5492 59.7211 19.2021 59.5887 17.7829C60.1899 17.5165 60.611 16.915 60.611 16.2163V13.7513C60.611 12.8063 59.8422 12.0376 58.8972 12.0376H50.69C49.745 12.0376 48.9762 12.8063 48.9762 13.7513V16.2163C48.9762 16.9152 49.3973 17.5165 49.9985 17.7829C49.9121 18.7087 48.1035 38.09 48.0172 39.0151H45.3253V34.042C45.3253 32.6767 43.8871 31.793 42.6695 32.4056L31.7962 37.8793V34.0419C31.7962 32.6766 30.358 31.7928 29.1404 32.4055L18.2671 37.8792V34.0419C18.2671 32.6766 16.8289 31.7928 15.6113 32.4055L3.72491 38.3894C3.1031 38.7026 2.71686 39.3296 2.71686 40.0259V63.028H1.98779C0.891606 63.028 0 63.9196 0 65.0155V67.0122C0 68.1081 0.891606 68.9997 1.98765 68.9997H32.1416C32.6999 68.9997 33.1523 68.5472 33.1523 67.989C33.1523 67.4308 32.6999 66.9782 32.1416 66.9782H2.02148V65.0493H66.9785V66.9782H36.8584C36.3001 66.9782 35.8476 67.4308 35.8476 67.989C35.8476 68.5472 36.3001 68.9997 36.8584 68.9997H67.0125C68.1084 68.9997 69 68.1081 69 67.0121V65.0154C69 63.9196 68.1084 63.028 67.0125 63.028V63.028ZM51.3462 25.0985L51.5187 23.2492H58.0684L58.241 25.0985H51.3462ZM51.7073 21.2278L52.0151 17.9298H57.5721L57.8799 21.2278H51.7073ZM50.9977 14.0591H58.5895V15.9083H58.4929H51.0943H50.9977V14.0591ZM16.2458 63.028H4.73821V40.1425L16.2458 34.3493V63.028ZM29.7747 63.028H18.2671V40.1425L29.7747 34.3493V63.028ZM43.3038 63.028H31.7962V40.1426L43.3038 34.3494V63.028ZM59.8191 63.028H49.7681V61.3492H59.8191V63.028ZM59.8191 59.3277H49.7681V57.649H59.8191V59.3277ZM59.8191 55.6275H49.7681V53.9487H59.8191V55.6275ZM59.8191 51.9273H49.7681V50.2749H59.8191V51.9273ZM60.3415 48.2534H49.2457V46.4042H60.3415V48.2534ZM64.2619 63.028H61.8406C61.8406 61.5601 61.8406 51.027 61.8406 49.7904C62.1622 49.4787 62.3629 49.0433 62.3629 48.5612V46.0964C62.3629 45.1514 61.5941 44.3827 60.6491 44.3827H48.9381C47.9931 44.3827 47.2242 45.1514 47.2242 46.0964V48.5614C47.2242 49.0434 47.425 49.4788 47.7466 49.7906V63.0281H45.3253V41.0366H64.2619V63.028Z" fill="black"/>
</g>
<defs>
<clipPath id="clip0_2347_1168">
<rect width="69" height="69" fill="white"/>
</clipPath>
</defs>
</svg>
