<svg width="69" height="69" viewBox="0 0 69 69" fill="none" xmlns="http://www.w3.org/2000/svg">
<g clip-path="url(#clip0_2347_1169)">
<path d="M4.45886 18.8098V63.5778C4.45886 63.8752 4.70049 64.1169 4.99792 64.1169H64.0021C64.2995 64.1169 64.5412 63.8752 64.5412 63.5778V18.8098H4.45886Z" fill="#ED5176"/>
<path d="M4.45886 34.1626H64.5412V37.2038H4.45886V34.1626Z" fill="#BA365F"/>
<path d="M4.45886 18.8098H64.5412V21.851H4.45886V18.8098Z" fill="#BA365F"/>
<path d="M23.8288 18.8098V21.8726C23.8288 24.0304 25.5781 25.7797 27.7359 25.7797H44.2384C47.0238 25.7797 49.2821 23.5219 49.2821 20.736V18.8098H23.8288Z" fill="#BA365F"/>
<path d="M61.3631 18.8098V63.5778C61.3631 63.8752 61.1215 64.1169 60.824 64.1169H64.0021C64.2995 64.1169 64.5411 63.8752 64.5411 63.5778V18.8098H61.3631Z" fill="#BA365F"/>
<path d="M27.3143 43.9773V64.1169H41.6858V43.9773C41.6858 43.233 41.0825 42.6292 40.3381 42.6292H28.6625C27.9176 42.6292 27.3143 43.233 27.3143 43.9773V43.9773Z" fill="#6A7193"/>
<path d="M29.3694 46.0341C29.3694 45.2897 29.9727 44.6864 30.7171 44.6864H41.6858V43.9773C41.6858 43.233 41.0825 42.6292 40.3381 42.6292H28.6625C27.9176 42.6292 27.3143 43.233 27.3143 43.9773V64.1169H29.3694V46.0341Z" fill="#575B7A"/>
<path d="M1.09442 28.1223V33.624C1.09442 33.9214 1.33553 34.1631 1.63348 34.1631H67.3665C67.6644 34.1631 67.9055 33.9214 67.9055 33.624V28.1223C67.9055 27.8244 67.6644 27.5833 67.3665 27.5833H1.63348C1.33553 27.5833 1.09442 27.8244 1.09442 28.1223V28.1223Z" fill="#C8E7F7"/>
<path d="M67.3665 27.5833H64.2006C64.4985 27.5833 64.7396 27.8244 64.7396 28.1223V33.624C64.7396 33.9214 64.4985 34.1631 64.2006 34.1631H67.3665C67.6645 34.1631 67.9056 33.9214 67.9056 33.624V28.1223C67.9056 27.8244 67.6645 27.5833 67.3665 27.5833Z" fill="#8CBCD6"/>
<path d="M46.0898 45.9308V56.9605C46.0898 57.5907 46.6005 58.1018 47.2311 58.1018H59.7396C60.3703 58.1018 60.8809 57.5907 60.8809 56.9605V45.9308C60.8809 45.3007 60.3703 44.79 59.7396 44.79H47.2311C46.6005 44.79 46.0898 45.3007 46.0898 45.9308Z" fill="#C8E7F7"/>
<path d="M8.11908 45.9308V56.9605C8.11908 57.5907 8.62971 58.1018 9.26038 58.1018H21.7688C22.3995 58.1018 22.9101 57.5907 22.9101 56.9605V45.9308C22.9101 45.3007 22.3995 44.79 21.7688 44.79H9.26038C8.62971 44.79 8.11908 45.3007 8.11908 45.9308Z" fill="#C8E7F7"/>
<path d="M67.9893 15.8403V13.3682H1.01074V15.8403C2.65109 15.8403 3.98032 17.17 3.98032 18.8099H65.0197C65.0197 17.1695 66.3489 15.8403 67.9893 15.8403Z" fill="#C8E7F7"/>
<path d="M23.8288 13.3682H49.2821V18.8099H23.8288V13.3682Z" fill="#8CBCD6"/>
<path d="M64.8233 13.3682V15.8403C63.1835 15.8403 61.8538 17.1695 61.8538 18.8099H65.0197C65.0197 17.1695 66.3489 15.8403 67.9893 15.8403V13.3682H64.8233Z" fill="#8CBCD6"/>
<path d="M21.7736 8.8261V19.8542C21.7736 22.0126 23.5229 23.7614 25.6808 23.7614H43.3193C45.4771 23.7614 47.2264 22.0126 47.2264 19.8542V8.8261C47.2264 6.66827 45.4771 4.91895 43.3193 4.91895H25.6808C23.5229 4.91895 21.7736 6.66827 21.7736 8.8261V8.8261Z" fill="#FFEB96"/>
<path d="M64.5412 45.9814C63.9826 45.9814 63.5304 46.4342 63.5304 46.9922V63.1062H42.6965V43.9773C42.6965 42.6765 41.6384 41.6184 40.3381 41.6184H28.6619C27.3616 41.6184 26.3035 42.6771 26.3035 43.9773V63.1062H5.4696V46.9922C5.4696 46.4342 5.0174 45.9814 4.45886 45.9814C3.90032 45.9814 3.44812 46.4342 3.44812 46.9922V63.5778C3.44812 64.4322 4.14353 65.1276 4.99792 65.1276H64.0021C64.8565 65.1276 65.5519 64.4322 65.5519 63.5778V46.9922C65.5519 46.4342 65.0997 45.9814 64.5412 45.9814ZM28.325 63.1062V43.9773C28.325 43.7915 28.4761 43.6399 28.6619 43.6399H40.3381C40.5239 43.6399 40.675 43.7915 40.675 43.9773V63.1062H28.325Z" fill="black"/>
<path d="M59.7396 59.1126C60.9262 59.1126 61.8916 58.1471 61.8916 56.9605V45.9308C61.8916 44.7442 60.9262 43.7793 59.7396 43.7793H47.2311C46.0446 43.7793 45.0791 44.7442 45.0791 45.9308V56.9605C45.0791 58.1471 46.0446 59.1126 47.2311 59.1126H59.7396ZM47.1006 56.9605V45.9308C47.1006 45.8592 47.159 45.8008 47.2311 45.8008H59.7396C59.8117 45.8008 59.8702 45.8592 59.8702 45.9308V56.9605C59.8702 57.0327 59.8117 57.0911 59.7396 57.0911H47.2311C47.159 57.0911 47.1006 57.0327 47.1006 56.9605Z" fill="black"/>
<path d="M21.7688 59.1126C22.9554 59.1126 23.9209 58.1471 23.9209 56.9605V45.9308C23.9209 44.7442 22.9554 43.7793 21.7688 43.7793H9.26038C8.07381 43.7793 7.10834 44.7442 7.10834 45.9308V56.9605C7.10834 58.1471 8.07381 59.1126 9.26038 59.1126H21.7688ZM9.12982 56.9605V45.9308C9.12982 45.8592 9.18826 45.8008 9.26038 45.8008H21.7688C21.841 45.8008 21.8994 45.8592 21.8994 45.9308V56.9605C21.8994 57.0327 21.841 57.0911 21.7688 57.0911H9.26038C9.18826 57.0911 9.12982 57.0327 9.12982 56.9605Z" fill="black"/>
<path d="M66.0299 18.8093C66.0299 17.7296 66.9085 16.8515 67.9893 16.8515C68.5478 16.8515 69 16.3988 69 15.8408V13.3676C69 12.8096 68.5478 12.3568 67.9893 12.3568H51.3041C50.7456 12.3568 50.2934 12.8096 50.2934 13.3676C50.2934 13.9261 50.7456 14.3783 51.3041 14.3783H66.9785V14.96C65.5945 15.3233 64.5022 16.4151 64.1384 17.7985H48.2377V8.8261C48.2377 6.11446 46.0314 3.9082 43.3198 3.9082H25.6807C22.9686 3.9082 20.7629 6.11446 20.7629 8.8261V12.3568H1.01074C0.452202 12.3568 0 12.8096 0 13.3676V15.8408C0 16.3988 0.452202 16.8515 1.01074 16.8515C2.0915 16.8515 2.97011 17.7296 2.97011 18.8093C2.97011 19.1741 3.16331 19.4936 3.45284 19.6716V26.5751H1.63403C0.779114 26.5751 0.0837021 27.2706 0.0837021 28.125V33.6288C0.0837021 34.4832 0.779114 35.1786 1.63403 35.1786H3.45284V42.9565C3.45284 43.5146 3.90504 43.9673 4.46358 43.9673C5.02213 43.9673 5.47433 43.5146 5.47433 42.9565V35.1786H63.6094V42.9581C63.6094 43.5161 64.0616 43.9689 64.6201 43.9689C65.1781 43.9689 65.6309 43.5161 65.6309 42.9581V35.1786H67.4497C68.3046 35.1786 69 34.4832 69 33.6288V28.125C69 27.2706 68.3046 26.5751 67.4497 26.5751H65.6309V19.6142C65.873 19.4294 66.0299 19.1378 66.0299 18.8093V18.8093ZM22.7838 8.8261C22.7838 7.22891 24.0836 5.92969 25.6802 5.92969H43.3193C44.9164 5.92969 46.2157 7.22891 46.2157 8.8261V19.8542C46.2157 21.4514 44.9164 22.7506 43.3193 22.7506H25.6807C24.0836 22.7506 22.7843 21.4514 22.7843 19.8542V8.8261H22.7838ZM66.9785 33.1571H2.10519V28.5966H66.9785V33.1571ZM5.47433 26.5751V19.82H17.7312C18.2897 19.82 18.7419 19.3678 18.7419 18.8093C18.7419 18.2513 18.2897 17.7985 17.7312 17.7985H4.86156C4.4978 16.4151 3.40546 15.3233 2.02148 14.96V14.3783H20.7623V19.8548C20.7623 22.5664 22.9686 24.7727 25.6802 24.7727H43.3193C46.0314 24.7727 48.2371 22.5664 48.2371 19.8548V19.8205H63.6088V26.5751H5.47433Z" fill="black"/>
<path d="M30.5918 52.3622H29.7832C29.2247 52.3622 28.7725 52.8149 28.7725 53.3729C28.7725 53.9309 29.2247 54.3837 29.7832 54.3837H30.5918C31.1503 54.3837 31.6025 53.9309 31.6025 53.3729C31.6025 52.8149 31.1503 52.3622 30.5918 52.3622Z" fill="black"/>
<path d="M27.26 9.96375H28.4987L29.7695 16.0387C30.0159 17.2158 31.0677 18.0707 32.2706 18.0707H38.2724C39.3289 18.0707 40.2897 17.4064 40.6629 16.4183L42.6449 11.1714C42.8334 10.6718 42.7649 10.1117 42.4617 9.67316C42.1585 9.23412 41.6584 8.97195 41.1251 8.97195H32.6364C32.0784 8.97195 31.6257 9.42416 31.6257 9.9827C31.6257 10.5407 32.0784 10.9934 32.6364 10.9934H40.5513L38.772 15.7039C38.6941 15.9103 38.4935 16.0493 38.2729 16.0493H32.2706C32.0195 16.0493 31.7999 15.8703 31.7484 15.625L30.4723 9.52628C30.2802 8.60819 29.4605 7.94226 28.5224 7.94226H27.2606C26.702 7.94226 26.2498 8.39446 26.2498 8.953C26.2498 9.51102 26.702 9.96375 27.26 9.96375V9.96375Z" fill="black"/>
<path d="M32.4448 18.9188H32.1753C31.6168 18.9188 31.1646 19.371 31.1646 19.9296C31.1646 20.4876 31.6168 20.9403 32.1753 20.9403H32.4448C33.0034 20.9403 33.4556 20.4876 33.4556 19.9296C33.4556 19.371 33.0034 18.9188 32.4448 18.9188Z" fill="black"/>
<path d="M36.8247 18.9188H36.5552C35.9966 18.9188 35.5444 19.371 35.5444 19.9296C35.5444 20.4876 35.9966 20.9403 36.5552 20.9403H36.8247C37.3832 20.9403 37.8354 20.4876 37.8354 19.9296C37.8354 19.371 37.3832 18.9188 36.8247 18.9188Z" fill="black"/>
</g>
<defs>
<clipPath id="clip0_2347_1169">
<rect width="69" height="69" fill="white"/>
</clipPath>
</defs>
</svg>
