<svg width="69" height="69" viewBox="0 0 69 69" fill="none" xmlns="http://www.w3.org/2000/svg">
<g clip-path="url(#clip0_2347_1237)">
<path fill-rule="evenodd" clip-rule="evenodd" d="M47.8856 67.9893H56.7752L58.1567 59.3022L56.1171 51.9927C54.0506 48.8125 50.1434 46.7154 46.1521 45.2383L43.8216 56.187C43.6225 57.1171 47.8856 65.3526 47.8856 67.9893Z" fill="#9DC6FB"/>
<path fill-rule="evenodd" clip-rule="evenodd" d="M43.0485 29.2456C47.6254 28.0938 48.9149 23.5779 46.064 20.5701H41.491L43.0485 29.2456Z" fill="#FFCEBF"/>
<path fill-rule="evenodd" clip-rule="evenodd" d="M18.002 56.1869L28.8777 59.9259L41.4908 56.1869V43.7533C40.1514 43.3783 38.8886 43.0606 37.7788 42.7775C37.1972 42.6283 36.849 42.3642 36.849 41.7251H22.644C22.644 42.3642 22.2958 42.6283 21.7179 42.7775C20.6081 43.0606 19.3414 43.3783 18.002 43.7533L16.2646 49.2756L18.002 56.1869Z" fill="#9DC6FB"/>
<path fill-rule="evenodd" clip-rule="evenodd" d="M29.7465 48.8319C33.6537 48.8319 36.8491 45.6326 36.8491 41.7253V38.7556C35.6933 39.6281 34.4267 40.3476 33.1026 40.8375C31.8894 41.2891 30.8181 41.5148 29.7465 41.5148C28.675 41.5148 27.6035 41.2891 26.3905 40.8375C25.0664 40.3476 23.8035 39.6282 22.644 38.7556V41.7253C22.644 45.6326 25.8393 48.8319 29.7465 48.8319V48.8319Z" fill="#FFDFCF"/>
<path fill-rule="evenodd" clip-rule="evenodd" d="M13.429 20.5702C10.5781 23.5782 11.8676 28.0939 16.4483 29.2457C16.3794 28.8056 19.6666 25.1242 19.6666 24.6994L18.0594 19.5981L13.429 20.5702Z" fill="#FFCEBF"/>
<path fill-rule="evenodd" clip-rule="evenodd" d="M1.28271 67.0285C1.34781 67.7786 1.742 67.9891 2.78279 67.9891H11.6113C11.6113 65.6701 16.5747 58.0774 16.3412 57.1552L13.341 45.2383C7.70416 47.3239 2.23564 50.6495 1.8835 56.5085L1.28271 66.4623V67.0285Z" fill="#9DC6FB"/>
<path fill-rule="evenodd" clip-rule="evenodd" d="M16.4484 29.2456C16.965 32.5981 19.3874 36.2948 22.644 38.7555C23.8035 39.628 25.0664 40.3475 26.3905 40.8373C27.6037 41.2889 28.675 41.5147 29.7466 41.5147C30.8181 41.5147 31.8896 41.2889 33.1026 40.8373C34.4267 40.3475 35.6934 39.6281 36.8491 38.7555C40.1057 36.2948 42.5281 32.5981 43.0486 29.2456C43.1175 28.8055 43.152 28.3692 43.152 27.9445V21.3124C35.3185 19.6362 23.9797 19.6707 16.3414 21.3124V27.9445C16.3413 28.3692 16.3796 28.8056 16.4484 29.2456V29.2456Z" fill="#FFEEE6"/>
<path fill-rule="evenodd" clip-rule="evenodd" d="M14.9484 15.507L29.7466 16.8808L44.5448 15.507L42.8074 9.37622H16.6856L14.9484 15.507Z" fill="#365E7D"/>
<path fill-rule="evenodd" clip-rule="evenodd" d="M25.6365 42.9499C27.1251 43.501 28.4338 43.7766 29.7464 43.7766C33.3858 43.7766 33.8066 42.2458 34.04 43.788C34.262 45.25 34.5069 45.5828 35.4789 45.9119C36.34 44.7371 36.849 43.2867 36.849 41.7253V41.4842V38.7556C35.6932 39.6281 34.4266 40.3476 33.1025 40.8375C31.8893 41.2891 30.8179 41.5148 29.7464 41.5148C28.6749 41.5148 27.6034 41.2891 26.3903 40.8375C25.0663 40.3476 23.8034 39.6282 22.6439 38.7556V41.4842C23.6045 42.0698 24.6071 42.5672 25.6365 42.9499Z" fill="#FFCEBF"/>
<path fill-rule="evenodd" clip-rule="evenodd" d="M35.4791 45.9117C36.2329 46.1069 37.0365 46.3174 37.8707 46.5508C39.038 46.8761 40.2624 47.2435 41.491 47.6644V43.7533C40.1515 43.3783 38.8888 43.0606 37.779 42.7775C37.1973 42.6283 36.8491 42.3642 36.8491 41.7251C36.8491 43.2865 36.3401 44.7368 35.4791 45.9117V45.9117Z" fill="#80B4FB"/>
<path fill-rule="evenodd" clip-rule="evenodd" d="M46.152 49.5934C48.7581 50.9098 51.0655 52.5899 52.493 54.7864V59.4706V64.7288V67.9893H56.7751C56.4078 67.9739 56.117 67.6716 56.117 67.3005V61.9313V56.6769V51.9927C54.0505 48.8125 50.1433 46.7154 46.152 45.2383V49.5934Z" fill="#80B4FB"/>
<path fill-rule="evenodd" clip-rule="evenodd" d="M41.491 56.187L43.722 58.6286L46.152 56.187V45.2383C44.5753 44.6566 42.9873 44.1705 41.491 43.7534V56.187Z" fill="#FFE07D"/>
<path fill-rule="evenodd" clip-rule="evenodd" d="M42.5319 48.0356C43.7642 48.491 44.9887 49.0077 46.1521 49.5931V45.238C44.5755 44.6564 42.9874 44.1703 41.4911 43.7532V47.6642C41.8392 47.7831 42.1836 47.9093 42.5319 48.0356Z" fill="#FFD064"/>
<path fill-rule="evenodd" clip-rule="evenodd" d="M13.341 56.187L15.5338 59.2485L18.002 56.187V43.7534C16.5096 44.1705 14.9176 44.6566 13.341 45.2383V56.187Z" fill="#FFE07D"/>
<path fill-rule="evenodd" clip-rule="evenodd" d="M11.6113 67.9894H29.7465H47.8856V57.917C47.8856 56.964 47.1049 56.1873 46.1521 56.1873H41.4911H18.002H13.341C12.3881 56.1873 11.6113 56.9642 11.6113 57.917V67.9894Z" fill="#D09080"/>
<path fill-rule="evenodd" clip-rule="evenodd" d="M16.6856 9.37632H42.8074L41.6708 5.36192C40.9285 2.74437 39.1145 1.01074 36.9562 1.01074H32.3793H22.5369C20.3824 1.01074 18.5646 2.74437 17.8222 5.36192L16.6856 9.37632Z" fill="#D8A595"/>
<path fill-rule="evenodd" clip-rule="evenodd" d="M36.1755 5.36192L37.3121 9.37632H42.8075L41.6709 5.36192C40.9284 2.74437 39.1145 1.01074 36.9562 1.01074H32.3793H31.4647C33.6193 1.01074 35.437 2.74437 36.1755 5.36192V5.36192Z" fill="#D09080"/>
<path fill-rule="evenodd" clip-rule="evenodd" d="M39.0494 15.507H44.5447L42.8073 9.37622H37.3121L39.0494 15.507Z" fill="#2B4D66"/>
<path fill-rule="evenodd" clip-rule="evenodd" d="M43.1519 23.7732V21.3125C34.6258 19.4871 24.2704 19.6057 16.3413 21.3125V23.7732C20.4475 24.4505 25.0933 24.7529 29.7466 24.8447C33.2214 24.7758 36.696 24.5922 39.9412 24.2171V25.4954C39.9412 25.9239 39.9029 26.3564 39.8378 26.8003C38.9577 32.4755 32.4942 39.0656 26.5359 39.0656C25.4644 39.0656 24.3929 38.8398 23.1799 38.392C22.4413 38.1164 21.7257 37.7759 21.033 37.374C21.542 37.8639 22.0777 38.3269 22.6442 38.7555C23.8037 39.628 25.0666 40.3475 26.3906 40.8373C27.6038 41.2889 28.6752 41.5147 29.7467 41.5147C30.8182 41.5147 31.8898 41.2889 33.1028 40.8373C34.4269 40.3475 35.6935 39.6281 36.8493 38.7555C40.1059 36.2948 42.5283 32.598 43.0488 29.2456C43.1176 28.8055 43.1521 28.3692 43.1521 27.9445V23.7732H43.1519Z" fill="#FFDFCF"/>
<path fill-rule="evenodd" clip-rule="evenodd" d="M16.3413 21.3125C20.2102 22.097 24.9745 22.4069 29.7466 22.4912C34.5224 22.4069 39.2868 22.097 43.1518 21.3125C44.1928 21.102 45.1686 20.8571 46.064 20.5701C48.5361 19.7817 50.373 18.695 51.2111 17.2062C52.1295 15.5722 50.7212 15.5071 49.2441 15.5071H44.5448H29.7466H14.9484H10.249C8.7757 15.5071 7.36349 15.5722 8.28191 17.2062C9.12002 18.6948 10.9607 19.7817 13.429 20.5701C14.3245 20.8571 15.3004 21.102 16.3413 21.3125V21.3125Z" fill="#D8A595"/>
<path fill-rule="evenodd" clip-rule="evenodd" d="M46.064 20.5701C48.5361 19.7817 50.373 18.695 51.2111 17.2062C52.1295 15.5722 50.7212 15.5071 49.2441 15.5071H44.5448H43.8521C44.0511 15.5071 44.2424 15.5109 44.43 15.5185C45.6124 15.5645 46.4926 15.8285 45.7158 17.2062C44.8777 18.6948 43.0408 19.7817 40.5687 20.5701C40.3773 20.6313 40.1784 20.6926 39.9756 20.75C39.9641 20.7538 39.9526 20.7577 39.9411 20.7615C39.2217 20.9681 38.4601 21.1517 37.6565 21.3125C34.5339 21.9478 30.8256 22.2731 26.9988 22.4146C27.9096 22.4491 28.828 22.4758 29.7464 22.4912C33.2671 22.43 36.7839 22.2463 39.9411 21.8368C40.5304 21.7602 41.1083 21.676 41.6745 21.5842C42.1796 21.5 42.6733 21.412 43.1517 21.3125C44.1928 21.102 45.1686 20.8571 46.064 20.5701V20.5701Z" fill="#D09080"/>
<path fill-rule="evenodd" clip-rule="evenodd" d="M43.9708 58.38V67.9894H47.8856V57.917C47.8856 56.964 47.1049 56.1873 46.1521 56.1873H43.8216H42.2373C43.1902 56.1873 43.9708 56.9642 43.9708 57.917V58.38Z" fill="#CE775F"/>
<path fill-rule="evenodd" clip-rule="evenodd" d="M56.1171 58.1694H63.8778V48.0051C63.8778 47.6263 63.5679 47.3201 63.1928 47.3201H59.9974H56.802C56.4231 47.3201 56.1169 47.6263 56.1169 48.0051V51.9927V58.1694H56.1171Z" fill="#D09080"/>
<path fill-rule="evenodd" clip-rule="evenodd" d="M56.802 67.9892H63.1927C63.5677 67.9892 63.8777 67.6793 63.8777 67.3004V60.4388H56.1169V67.3004C56.1171 67.6793 56.4231 67.9892 56.802 67.9892V67.9892Z" fill="#D09080"/>
<path fill-rule="evenodd" clip-rule="evenodd" d="M61.3598 48.0051V56.6768H63.8779V48.0051C63.8779 47.6263 63.5679 47.3201 63.1928 47.3201H60.6747C61.0498 47.3201 61.3598 47.6263 61.3598 48.0051Z" fill="#CE775F"/>
<path fill-rule="evenodd" clip-rule="evenodd" d="M61.3598 61.9313V67.3005C61.3598 67.6793 61.0498 67.9893 60.6747 67.9893H63.1928C63.5679 67.9893 63.8779 67.6793 63.8779 67.3005V61.9313H61.3598Z" fill="#CE775F"/>
<path fill-rule="evenodd" clip-rule="evenodd" d="M56.1171 56.677H63.8778V61.9314H56.1171V56.677Z" fill="#FFE07D"/>
<path fill-rule="evenodd" clip-rule="evenodd" d="M61.3597 56.677H63.8778V61.9314H61.3597V56.677Z" fill="#FFD064"/>
<path d="M20.5819 26.4458C20.1811 26.8344 20.1712 27.4742 20.5598 27.875C20.9482 28.2758 21.5881 28.2859 21.989 27.8973C22.4696 27.4314 23.2818 27.4317 23.7619 27.8973C23.9582 28.0877 24.212 28.1823 24.4653 28.1823C24.7293 28.1823 24.993 28.0795 25.1912 27.875C25.5799 27.4742 25.5699 26.8344 25.1691 26.4458C23.9043 25.2197 21.8467 25.22 20.5819 26.4458Z" fill="black"/>
<path d="M35.7311 27.8972C36.22 27.4233 37.018 27.424 37.5095 27.8988C37.7057 28.0881 37.9587 28.1823 38.2113 28.1823C38.476 28.1823 38.7404 28.079 38.9387 27.8734C39.3263 27.4718 39.3149 26.832 38.9133 26.4442C37.6455 25.2207 35.5866 25.2215 34.3238 26.4459C33.923 26.8344 33.913 27.4743 34.3017 27.8751C34.6902 28.2757 35.3301 28.2858 35.7311 27.8972V27.8972Z" fill="black"/>
<path d="M29.7471 36.0495C30.8886 36.0495 31.9616 35.605 32.769 34.7976C33.1637 34.4029 33.1637 33.7629 32.769 33.3683C32.3741 32.9736 31.7342 32.9736 31.3395 33.3683C30.9141 33.7938 30.3486 34.028 29.7473 34.028C29.7467 34.028 29.746 34.028 29.7455 34.028C29.1453 34.0276 28.5817 33.7936 28.1588 33.3694C27.7645 32.974 27.1245 32.9732 26.7295 33.3672C26.3341 33.7613 26.3332 34.4013 26.7272 34.7966C27.5318 35.6037 28.6032 36.0485 29.744 36.0493C29.745 36.0495 29.746 36.0495 29.7471 36.0495Z" fill="black"/>
<path d="M43.2284 61.0774H40.8519C40.2936 61.0774 39.8412 61.5299 39.8412 62.0881C39.8412 62.6463 40.2936 63.0989 40.8519 63.0989H43.2284C43.7867 63.0989 44.2391 62.6463 44.2391 62.0881C44.2391 61.5299 43.7866 61.0774 43.2284 61.0774Z" fill="black"/>
<path d="M18.645 61.0774H16.2648C15.7064 61.0774 15.254 61.5299 15.254 62.0881C15.254 62.6463 15.7064 63.0989 16.2648 63.0989H18.645C19.2033 63.0989 19.6557 62.6463 19.6557 62.0881C19.6557 61.5299 19.2032 61.0774 18.645 61.0774Z" fill="black"/>
<path d="M67.7276 22.1003C67.1692 22.1003 66.7168 22.5529 66.7168 23.1111V33.926C66.7168 35.5253 65.4158 36.8263 63.8165 36.8263H61.0081V23.1111C61.0081 22.5529 60.5557 22.1003 59.9974 22.1003C59.4391 22.1003 58.9867 22.5529 58.9867 23.1111V36.8263H56.1744C54.5773 36.8263 53.278 35.5253 53.278 33.926V23.1111C53.278 22.5529 52.8256 22.1003 52.2672 22.1003C51.7089 22.1003 51.2565 22.5529 51.2565 23.1111V33.926C51.2565 36.6399 53.4626 38.8478 56.1744 38.8478H58.9867V46.3094H56.802C55.867 46.3094 55.1062 47.0701 55.1062 48.0051V49.2291C52.8399 47.0676 49.739 45.5091 46.6127 44.3394C46.544 44.3041 46.4707 44.2767 46.3939 44.2578C44.832 43.6825 43.2685 43.2032 41.8043 42.7928C41.7836 42.7861 41.7623 42.7805 41.741 42.7751C40.5424 42.4403 39.4111 42.1512 38.4036 41.8941L38.0302 41.7986C37.9488 41.7777 37.8946 41.7587 37.86 41.7445C37.8599 41.7387 37.8597 41.7322 37.8597 41.7252V39.2428C40.8945 36.8138 43.2095 33.3681 43.9278 30.0387C46.1721 29.2952 47.7712 27.7562 48.3574 25.7388C48.8128 24.1721 48.562 22.5041 47.6994 21.064C49.8725 20.1892 51.3201 19.0731 52.092 17.7013C52.5765 16.8394 52.6442 16.0982 52.2931 15.4983C51.7067 14.4962 50.3412 14.4962 49.2439 14.4962H45.3088L42.6431 5.08605C41.767 1.99642 39.5347 0 36.9562 0H22.5369C19.9584 0 17.7263 1.99642 16.8499 5.08646L14.1841 14.4963H10.2489C9.15208 14.4963 7.7869 14.4963 7.20027 15.499C6.84934 16.099 6.91672 16.84 7.40107 17.7019C8.17287 19.0734 9.62053 20.1895 11.7936 21.064C10.931 22.504 10.6803 24.1717 11.1357 25.7379C11.7221 27.755 13.3209 29.2936 15.565 30.0375C16.2832 33.3666 18.5983 36.8127 21.6331 39.2421V41.7251C21.6331 41.7323 21.633 41.7391 21.6329 41.7453C21.5989 41.7593 21.5461 41.7779 21.4672 41.7984L21.0689 41.9002C20.0685 42.1559 18.9601 42.4401 17.7954 42.764C17.7559 42.7722 17.7176 42.7834 17.6799 42.796C16.2001 43.2096 14.631 43.6909 13.0663 44.2663C13.0166 44.2803 12.9685 44.298 12.9221 44.3192C11.5023 44.8468 10.0896 45.4519 8.75708 46.1588C3.77844 48.8007 1.12638 52.2624 0.874641 56.4475L0.273856 66.4019C0.234369 67.0623 0.264153 67.8119 0.784483 68.3644C1.31196 68.9245 2.09077 69 2.78292 69H56.7753C56.7799 69 56.7842 68.9993 56.7888 68.9993C56.7932 68.9993 56.7977 69 56.8021 69H63.1928C64.1278 69 64.8886 68.2376 64.8886 67.3005V48.0051C64.8886 47.0701 64.1278 46.3094 63.1928 46.3094H61.0083V38.8478H63.8167C66.5306 38.8478 68.7384 36.6399 68.7384 33.926V23.1111C68.7383 22.5529 68.2858 22.1003 67.7276 22.1003V22.1003ZM42.5017 45.099C43.3669 45.3575 44.2538 45.6408 45.1412 45.9541V55.1799L42.5017 55.1892V45.099ZM46.4165 25.1746C46.0973 26.273 45.3004 27.171 44.1626 27.757V22.1359C44.7109 22.0113 45.2311 21.8777 45.7248 21.7358C46.5018 22.7843 46.7551 24.0097 46.4165 25.1746V25.1746ZM17.4492 10.3871H27.7489C28.3073 10.3871 28.7597 9.93452 28.7597 9.37632C28.7597 8.81812 28.3073 8.36558 27.7489 8.36558H18.0218L18.7946 5.63765C19.4177 3.44097 20.8865 2.02148 22.5369 2.02148H36.9562C38.6066 2.02148 40.0755 3.44097 40.6986 5.63738L41.4714 8.36558H32.4215C31.8632 8.36558 31.4108 8.81812 31.4108 9.37632C31.4108 9.93452 31.8632 10.3871 32.4215 10.3871H42.0441L43.2082 14.4963H16.2851L17.4492 10.3871ZM15.3305 27.7557C14.1927 27.1696 13.396 26.2717 13.0767 25.1738C12.7382 24.0092 12.9913 22.7841 13.7682 21.7358C14.262 21.8779 14.7822 22.0113 15.3305 22.1359V27.7557ZM9.163 16.7111C9.13375 16.6591 9.10976 16.6128 9.09009 16.5721C9.44856 16.5178 49.244 16.5178 49.244 16.5178C49.469 16.5178 50.0443 16.5178 50.403 16.5719C50.3834 16.6126 50.3595 16.6586 50.3303 16.7105C49.1856 18.7447 44.6857 21.2229 29.7466 21.4803C14.8073 21.2229 10.3074 18.7447 9.163 16.7111V16.7111ZM17.352 27.9445V22.5355C20.65 23.0994 24.7565 23.4167 29.7293 23.5018C29.735 23.5018 29.7408 23.5019 29.7466 23.5019C29.7524 23.5019 29.7581 23.5019 29.7638 23.5018C34.7367 23.4166 38.8431 23.0994 42.1412 22.5355V27.9446C42.1412 32.4559 37.7535 38.0377 32.7499 39.8902C31.6251 40.3091 30.6706 40.5041 29.7466 40.5041C28.8226 40.5041 27.8682 40.3091 26.7416 39.8897C21.7397 38.0364 17.352 32.4545 17.352 27.9445V27.9445ZM35.8384 40.641V41.7253C35.8384 45.0865 33.1056 47.821 29.7466 47.821C26.3875 47.821 23.6547 45.0865 23.6547 41.7253V40.6407C24.4243 41.0945 25.2217 41.4822 26.0379 41.7846C27.3957 42.29 28.5741 42.5256 29.7467 42.5256C30.9193 42.5256 32.0977 42.2901 33.4538 41.7853C34.2704 41.4827 35.0683 41.0949 35.8384 40.641ZM14.3517 45.9513C15.2377 45.6393 16.1234 45.3575 16.9913 45.0992V55.1763H14.3517V45.9513ZM12.3303 55.3718C11.3184 55.7752 10.6005 56.7629 10.6005 57.9167V66.9785H2.78292C2.53024 66.9785 2.37836 66.9634 2.29076 66.949C2.28321 66.8687 2.27917 66.7355 2.29184 66.5233L2.89262 56.5692C3.10218 53.0869 5.3304 50.2658 9.70475 47.9446C10.5476 47.4975 11.4308 47.0933 12.3304 46.7223V55.3718H12.3303ZM46.8747 66.9785H12.622V57.9169C12.622 57.5204 12.9447 57.1979 13.341 57.1979H26.9607C27.519 57.1979 27.9714 56.7454 27.9714 56.1872C27.9714 55.629 27.519 55.1764 26.9607 55.1764H19.0127V44.5263C19.9151 44.2822 20.7774 44.0614 21.5695 43.8589L21.8954 43.7755C22.8056 47.2619 25.9805 49.8425 29.7466 49.8425C33.513 49.8425 36.6882 47.2618 37.598 43.7746L37.9037 43.8527C38.6927 44.0542 39.5621 44.2763 40.4804 44.5252V55.1965L32.0513 55.1766C31.493 55.1786 31.0422 55.6326 31.0441 56.1908C31.0461 56.7478 31.4981 57.198 32.0547 57.198C32.0559 57.198 32.0604 57.2478 32.0616 57.2478L46.1562 57.198H46.159C46.347 57.198 46.5253 57.2726 46.6614 57.408C46.799 57.5452 46.8749 57.7259 46.8749 57.9171V66.9785H46.8747ZM55.1062 66.9785H48.8962V57.9169C48.8962 57.1842 48.609 56.4947 48.0878 55.9754C47.8185 55.7073 47.5042 55.5048 47.1627 55.3701V46.7254C50.3846 48.0555 53.3893 49.8365 55.1062 52.3013V66.9785ZM62.867 66.9785H57.1277V62.942H62.867V66.9785ZM62.867 60.9205H57.1277V57.6876H62.867V60.9205ZM62.867 48.3309V55.6662H57.1277V48.3309H62.867Z" fill="black"/>
</g>
<defs>
<clipPath id="clip0_2347_1237">
<rect width="69" height="69" fill="white"/>
</clipPath>
</defs>
</svg>
