<svg width="32" height="32" viewBox="0 0 32 32" fill="none" xmlns="http://www.w3.org/2000/svg">
<circle cx="16.0001" cy="16.0003" r="14.8571" fill="#EDEEFF"/>
<path d="M15.9906 5.71485C15.9666 5.71613 15.9428 5.71836 15.9191 5.72203C15.7497 5.74166 15.5938 5.82338 15.4815 5.95153C15.3691 6.07984 15.3085 6.24518 15.3113 6.41561V7.78829C15.3088 7.97214 15.38 8.14913 15.5089 8.27999C15.6379 8.41085 15.814 8.48443 15.9977 8.48443C16.1814 8.48443 16.3576 8.41086 16.4866 8.27999C16.6155 8.14912 16.6867 7.97213 16.6842 7.78829V6.41561C16.688 6.22984 16.6163 6.05046 16.4856 5.91848C16.3551 5.78633 16.1763 5.71292 15.9906 5.71483L15.9906 5.71485ZM9.74165 7.78126C9.57471 7.7985 9.41991 7.87638 9.30645 8.00007C9.19298 8.12375 9.12882 8.28478 9.12595 8.4525C9.12324 8.6204 9.18197 8.7835 9.29129 8.91087L11.3503 11.4277C11.4627 11.578 11.6317 11.6757 11.8181 11.6982C12.0045 11.7207 12.192 11.6658 12.3368 11.5464C12.4817 11.4269 12.5712 11.2534 12.5848 11.0662C12.5983 10.879 12.5347 10.6943 12.4084 10.5553L10.3494 8.03852C10.204 7.85467 9.9748 7.75764 9.74164 7.78126L9.74165 7.78126ZM22.161 7.78126C21.9599 7.78749 21.7718 7.88149 21.6462 8.03853L19.5871 10.5553C19.4609 10.6943 19.3972 10.879 19.4108 11.0662C19.4243 11.2534 19.5139 11.4269 19.6588 11.5464C19.8035 11.6658 19.991 11.7207 20.1774 11.6982C20.3638 11.6757 20.5328 11.578 20.6452 11.4277L22.7042 8.91087C22.8191 8.77522 22.8769 8.6003 22.8654 8.42301C22.8539 8.24554 22.774 8.07957 22.6426 7.95987C22.5113 7.84033 22.3386 7.77618 22.161 7.78128L22.161 7.78126ZM15.9407 10.5339C15.7219 10.5526 15.5251 10.6749 15.4115 10.8627L13.7385 13.5796L10.5998 14.2089C10.4367 14.2416 10.291 14.3326 10.19 14.4645C10.0888 14.5967 10.0391 14.7611 10.05 14.927C10.061 15.093 10.1319 15.2494 10.2495 15.3671L12.5302 17.648L12.1156 20.7366C12.0939 20.8978 12.1301 21.0614 12.2179 21.1981C12.3055 21.3351 12.439 21.4364 12.5944 21.4841C12.7498 21.5318 12.9171 21.5227 13.0665 21.4587L15.9979 20.2003L18.9293 21.4587C19.0787 21.5227 19.2459 21.5318 19.4014 21.4841C19.5568 21.4364 19.6903 21.3351 19.7779 21.1981C19.8657 21.0614 19.9019 20.8978 19.8802 20.7366L19.4656 17.648L21.7463 15.3671C21.8639 15.2494 21.9348 15.093 21.9458 14.927C21.9567 14.7611 21.907 14.5967 21.8058 14.4645C21.7048 14.3326 21.5591 14.2416 21.396 14.2089L18.2573 13.5796L16.5843 10.8627C16.5182 10.7535 16.4229 10.665 16.3093 10.6067C16.1955 10.5486 16.068 10.5234 15.9408 10.5339L15.9407 10.5339ZM15.9978 12.5287L17.2419 14.552C17.3418 14.7151 17.5049 14.829 17.6924 14.8665L19.8659 15.3027L18.2572 16.9114C18.1057 17.0637 18.0344 17.278 18.0641 17.4906L18.3644 19.7214L16.2695 18.8277C16.0961 18.7528 15.8995 18.7528 15.7262 18.8277L13.6312 19.7214L13.9316 17.4906C13.9613 17.278 13.8899 17.0637 13.7385 16.9114L12.1298 15.3027L14.3033 14.8665C14.4908 14.829 14.6539 14.7151 14.7538 14.552L15.9978 12.5287ZM6.59609 13.2722C6.57215 13.2733 6.54821 13.2757 6.52459 13.2794C6.29685 13.299 6.09368 13.4309 5.98308 13.631C5.87233 13.831 5.8685 14.073 5.97287 14.2765C6.07724 14.48 6.2761 14.6182 6.50318 14.645L7.87586 14.8737C8.1186 14.9146 8.36453 14.823 8.52126 14.6332C8.67798 14.4435 8.7217 14.1846 8.63569 13.954C8.54982 13.7234 8.3473 13.5561 8.10472 13.5153L6.73188 13.2866C6.68719 13.2773 6.64171 13.2724 6.59607 13.2722L6.59609 13.2722ZM25.4143 13.2722C25.3808 13.2722 25.3473 13.2746 25.3141 13.2794C25.2973 13.2812 25.2807 13.2835 25.2641 13.2866L23.8913 13.5153C23.7111 13.5456 23.5504 13.6463 23.4446 13.7952C23.3386 13.9439 23.2962 14.1288 23.3265 14.3089C23.3568 14.4891 23.4575 14.6498 23.6063 14.7558C23.7552 14.8616 23.94 14.9041 24.1201 14.8738L25.4928 14.6451C25.7281 14.6179 25.9328 14.4721 26.0351 14.2587C26.1376 14.0453 26.1232 13.7943 25.9971 13.594C25.871 13.3937 25.651 13.2722 25.4143 13.2722L25.4143 13.2722ZM10.2282 17.8481C10.146 17.8575 10.066 17.8818 9.9923 17.9196L7.01795 19.2924C6.83936 19.3591 6.69653 19.4973 6.62391 19.6737C6.5513 19.85 6.55529 20.0487 6.63492 20.2221C6.71456 20.3954 6.86282 20.5277 7.04397 20.5874C7.22511 20.6469 7.42301 20.6285 7.58993 20.5365L10.5643 19.1636C10.7574 19.0793 10.9012 18.911 10.9542 18.707C11.0072 18.503 10.9636 18.286 10.8359 18.1184C10.7081 17.9509 10.5105 17.8511 10.2997 17.8481C10.2759 17.8468 10.2521 17.8468 10.2282 17.8481L10.2282 17.8481ZM21.6752 17.8553C21.4706 17.8685 21.2826 17.9726 21.1626 18.1389C21.0427 18.3052 21.0035 18.5165 21.0556 18.7148C21.1078 18.9132 21.2459 19.0778 21.4321 19.1636L24.4065 20.5364C24.5734 20.6285 24.7713 20.6469 24.9524 20.5874C25.1336 20.5277 25.2818 20.3954 25.3615 20.222C25.4411 20.0487 25.4451 19.85 25.3725 19.6737C25.2999 19.4973 25.157 19.3591 24.9785 19.2924L22.0041 17.9196C21.9015 17.8712 21.7885 17.8492 21.6752 17.8553L21.6752 17.8553ZM15.9913 21.7304C15.9674 21.7316 15.9436 21.7339 15.9198 21.7375C15.7505 21.7572 15.5946 21.8389 15.4822 21.967C15.3699 22.0954 15.3092 22.2607 15.3121 22.4311V25.6341C15.3095 25.8178 15.3807 25.995 15.5097 26.1258C15.6386 26.2567 15.8148 26.3303 15.9985 26.3303C16.1822 26.3303 16.3584 26.2567 16.4873 26.1258C16.6163 25.995 16.6875 25.8178 16.6849 25.6341V22.4311C16.6887 22.2454 16.6171 22.066 16.4864 21.934C16.3558 21.8018 16.1771 21.7284 15.9913 21.7303L15.9913 21.7304ZM11.3795 22.1951C11.1527 22.2125 10.9492 22.341 10.8361 22.5384L10.1498 23.6823C10.034 23.8381 9.98958 24.0355 10.0274 24.2258C10.0654 24.4162 10.1821 24.5815 10.3485 24.6811C10.5151 24.7805 10.7161 24.805 10.9017 24.7481C11.0871 24.6915 11.24 24.5587 11.3224 24.383L12.0088 23.239C12.0969 23.0954 12.1289 22.9243 12.0991 22.7585C12.0693 22.5926 11.9794 22.4436 11.8466 22.3397C11.714 22.2358 11.5477 22.1844 11.3795 22.1951L11.3795 22.1951ZM20.5312 22.1951C20.2907 22.2099 20.0756 22.3496 19.9642 22.5634C19.8529 22.7771 19.8619 23.0336 19.9878 23.239L20.6742 24.383C20.7566 24.5587 20.9095 24.6915 21.0949 24.7481C21.2805 24.8049 21.4814 24.7805 21.6481 24.6811C21.8145 24.5815 21.9312 24.4162 21.9692 24.2257C22.007 24.0355 21.9626 23.8381 21.8468 23.6823L21.1605 22.5384C21.0973 22.4287 21.0052 22.3387 20.8941 22.2781C20.7832 22.2176 20.6576 22.1888 20.5312 22.1951L20.5312 22.1951Z" fill="#575DC2"/>
</svg>
