<svg width="40" height="40" viewBox="0 0 40 40" fill="none" xmlns="http://www.w3.org/2000/svg">
<rect x="3.24976" y="3.2998" width="33.45" height="33.45" rx="1.5" fill="#EDEEFF"/>
<path d="M27.843 17.8999C27.6947 17.629 27.4068 17.4595 27.0979 17.4595H22.0174V7.29741C22.0174 6.92053 21.772 6.59033 21.412 6.48429C21.052 6.37856 20.6628 6.52239 20.4593 6.83576L11.145 21.2321C10.9758 21.4946 10.9631 21.8248 11.111 22.096C11.2593 22.3712 11.5472 22.5408 11.8561 22.5408H16.9366V32.7029C16.9366 33.0797 17.182 33.41 17.542 33.516C17.6226 33.537 17.7029 33.5497 17.7836 33.5497C18.0674 33.5497 18.334 33.41 18.4947 33.1642L27.809 18.7679C27.9785 18.5054 27.9912 18.1752 27.843 17.8999L27.843 17.8999ZM18.63 29.8365V21.694C18.63 21.2241 18.2532 20.8473 17.7833 20.8473H13.414L20.3234 10.1642V18.3067C20.3234 18.7766 20.7003 19.1535 21.1701 19.1535H25.5394L18.63 29.8365Z" fill="#575DC2"/>
</svg>
