<svg width="277" height="310" viewBox="0 0 277 310" fill="none" xmlns="http://www.w3.org/2000/svg">
<rect x="61" y="23" width="214" height="281" fill="#E5F0FF" stroke="#5A4F5F" stroke-width="2"/>
<line x1="169" y1="24" x2="169" y2="303" stroke="#5A4F5F" stroke-width="2"/>
<line x1="274" y1="108" x2="62" y2="108" stroke="#5A4F5F" stroke-width="2"/>
<line x1="274" y1="215" x2="62" y2="215" stroke="#5A4F5F" stroke-width="2"/>
<path d="M59.4706 293.114C59.4706 293.114 58.4117 306.032 59.4706 307.079C60.5295 308.126 275.479 308.475 276.185 307.079C276.891 305.682 277.597 293.812 276.185 293.114C274.773 292.416 59.6294 291.002 59.4706 293.114Z" fill="#883E21"/>
<path d="M191.152 298.496C156.079 297.924 122.842 298.496 122.842 298.496C116.607 307.537 125.7 305.579 183.877 306.619C242.055 307.658 238.175 303.241 237.915 299.985C237.655 296.729 226.224 299.085 191.152 298.496Z" fill="#75321D"/>
<path d="M272.729 300.158C272.469 297.838 264.156 299.864 257.141 300.072C250.127 300.28 242.593 300.072 242.593 300.072C240.255 302.86 240.774 306.359 257.661 306.757C274.548 307.156 272.989 302.462 272.729 300.158Z" fill="#75321D"/>
<path d="M178.247 293.871C178.247 293.871 179.633 293.785 181.971 293.871C184.309 293.958 186.388 293.525 186.388 294.391C186.388 295.257 186.561 297.076 182.318 296.989C178.074 296.902 177.122 295.517 178.247 293.871Z" fill="#B55031"/>
<path d="M132.318 298.357C131.642 298.167 131.677 298.617 131.677 298.617C131.677 298.617 131.504 298.859 132.127 299.033C132.751 299.206 132.716 298.911 132.716 298.911C132.716 298.911 132.976 298.548 132.318 298.357Z" fill="#562517"/>
<path d="M131.261 296.781C131.261 296.781 130.949 296.712 131.07 297.353C131.191 297.993 131.451 297.838 131.451 297.838C131.451 297.838 131.884 297.924 131.763 297.231C131.642 296.539 131.261 296.781 131.261 296.781Z" fill="#562517"/>
<path d="M133.735 296.868C133.735 296.868 133.7 296.417 133.077 296.729C132.453 297.041 132.782 297.335 132.782 297.335C132.782 297.335 132.8 297.63 133.389 297.353C133.978 297.076 133.735 296.868 133.735 296.868Z" fill="#562517"/>
<path d="M134.917 297.699C134.917 297.699 134.726 297.457 134.414 298.028C134.103 298.6 134.38 298.634 134.38 298.634C134.38 298.634 134.674 298.981 135.02 298.374C135.367 297.768 134.917 297.699 134.917 297.699Z" fill="#562517"/>
<path d="M134.966 295.534C134.723 294.893 134.377 295.188 134.377 295.188C134.377 295.188 134.082 295.188 134.325 295.794C134.567 296.4 134.775 296.192 134.775 296.192C134.775 296.192 135.226 296.192 134.966 295.534Z" fill="#562517"/>
<path d="M190.251 306.584C189.576 306.411 189.611 306.844 189.611 306.844C189.611 306.844 189.42 307.086 190.061 307.26C190.702 307.433 190.65 307.138 190.65 307.138C190.65 307.138 190.91 306.775 190.251 306.584Z" fill="#562517"/>
<path d="M189.18 305.008C189.18 305.008 188.885 304.939 189.007 305.58C189.128 306.22 189.37 306.064 189.37 306.064C189.37 306.064 189.821 306.151 189.7 305.458C189.578 304.765 189.18 305.008 189.18 305.008Z" fill="#562517"/>
<path d="M191.67 305.095C191.67 305.095 191.636 304.644 191.012 304.956C190.389 305.268 190.718 305.562 190.718 305.562C190.718 305.562 190.735 305.874 191.307 305.58C191.878 305.285 191.67 305.095 191.67 305.095Z" fill="#562517"/>
<path d="M192.85 305.926C192.85 305.926 192.66 305.701 192.331 306.255C192.002 306.809 192.314 306.861 192.314 306.861C192.314 306.861 192.608 307.208 192.954 306.601C193.301 305.995 192.85 305.926 192.85 305.926Z" fill="#562517"/>
<path d="M192.901 303.761C192.642 303.12 192.313 303.415 192.313 303.415C192.313 303.415 192.018 303.415 192.243 304.021C192.468 304.627 192.711 304.419 192.711 304.419C192.711 304.419 193.161 304.419 192.901 303.761Z" fill="#562517"/>
<path d="M251.996 300.868C251.321 300.695 251.355 301.128 251.355 301.128C251.355 301.128 251.165 301.371 251.805 301.544C252.446 301.717 252.394 301.423 252.394 301.423C252.394 301.423 252.654 301.059 251.996 300.868Z" fill="#562517"/>
<path d="M250.925 299.292C250.925 299.292 250.63 299.223 250.751 299.864C250.873 300.505 251.115 300.349 251.115 300.349C251.115 300.349 251.565 300.436 251.444 299.743C251.323 299.05 250.925 299.292 250.925 299.292Z" fill="#562517"/>
<path d="M253.415 299.379C253.415 299.379 253.38 298.929 252.757 299.24C252.133 299.552 252.462 299.847 252.462 299.847C252.462 299.847 252.48 300.158 253.051 299.864C253.623 299.569 253.415 299.379 253.415 299.379Z" fill="#562517"/>
<path d="M254.595 300.211C254.595 300.211 254.405 299.985 254.075 300.54C253.746 301.094 254.058 301.146 254.058 301.146C254.058 301.146 254.353 301.492 254.699 300.886C255.045 300.28 254.595 300.211 254.595 300.211Z" fill="#562517"/>
<path d="M254.646 298.045C254.386 297.405 254.057 297.699 254.057 297.699C254.057 297.699 253.763 297.699 253.988 298.305C254.213 298.911 254.455 298.704 254.455 298.704C254.455 298.704 254.906 298.704 254.646 298.045Z" fill="#562517"/>
<path d="M191.167 291.481C174.887 291.481 140.836 291.914 140.836 291.914C140.836 291.914 116.692 291.152 116.692 292.122C116.692 292.122 130.79 292.538 155.142 292.122C179.494 291.706 203.534 292.365 203.534 292.365C203.534 292.365 207.448 291.481 191.167 291.481Z" fill="#602819"/>
<path d="M271.843 307.312C271.843 307.312 263.443 307.554 246.833 307.762C230.224 307.97 212.54 307.952 212.54 307.952C212.107 309.303 238.173 308.68 255.493 308.004C272.813 307.329 271.843 307.312 271.843 307.312Z" fill="#602819"/>
<path d="M109.214 301.852C106.874 301.798 105.02 300.381 105.128 300.08C105.236 299.779 107.36 299.849 108.728 299.619C110.096 299.389 112.04 296.961 113.48 296.536C114.001 296.405 114.549 296.417 115.064 296.571C113.984 294.658 112.094 293.152 110.114 292C80.792 292.089 59.534 292.408 59.48 293.081C59.48 293.081 58.4 306.193 59.48 307.256C59.804 307.592 81.062 307.841 110.258 308C113.246 306.281 115.982 303.694 116 300.097C114.218 300.487 111.212 301.905 109.214 301.852Z" fill="#AF622A"/>
<path d="M102.993 300.799C102.906 297.249 95.0258 298.894 84.3741 298.808C73.7224 298.721 63.5903 298.808 63.5903 298.808C59.347 304.263 67.3141 306.428 83.2829 306.601C99.2518 306.775 103.079 304.35 102.993 300.799Z" fill="#9B5627"/>
<path d="M81.3473 297.768C89.3144 297.941 88.6216 295.257 88.4658 294.304C88.3099 293.352 84.1185 293.871 80.8277 293.871H75.4586C74.6792 294.91 73.3802 297.595 81.3473 297.768Z" fill="#9B5627"/>
<path d="M102.562 292.746H105.784C107.343 292.746 108.676 292.451 108.728 293.092C108.78 293.733 108.503 294.824 105.645 294.599C102.787 294.374 101.8 293.958 102.562 292.746Z" fill="#DB7B3A"/>
<path d="M65.98 304.766C65.3046 304.575 65.3392 305.025 65.3392 305.025C65.3392 305.025 65.1487 305.251 65.7895 305.441C66.4304 305.632 66.3784 305.302 66.3784 305.302C66.3784 305.302 66.6382 304.956 65.98 304.766Z" fill="#77431F"/>
<path d="M64.9086 303.172C64.9086 303.172 64.6141 303.12 64.7354 303.761C64.8566 304.402 65.0991 304.229 65.0991 304.229C65.0991 304.229 65.5494 304.315 65.4282 303.622C65.3069 302.93 64.9086 303.172 64.9086 303.172Z" fill="#77431F"/>
<path d="M67.4022 303.259C67.4022 303.259 67.3675 302.808 66.744 303.12C66.1205 303.432 66.4496 303.726 66.4496 303.726C66.4496 303.726 66.4669 304.038 67.0384 303.744C67.61 303.449 67.4022 303.259 67.4022 303.259Z" fill="#77431F"/>
<path d="M68.5791 304.107C68.5791 304.107 68.3886 303.865 68.0595 304.436C67.7304 305.008 68.0422 305.043 68.0422 305.043C68.0422 305.043 68.3366 305.389 68.683 304.766C69.0294 304.142 68.5791 304.107 68.5791 304.107Z" fill="#77431F"/>
<path d="M68.6331 301.942C68.3733 301.284 68.0442 301.596 68.0442 301.596C68.0442 301.596 67.7498 301.579 67.975 302.185C68.2001 302.791 68.4426 302.583 68.4426 302.583C68.4426 302.583 68.8929 302.583 68.6331 301.942Z" fill="#77431F"/>
<path d="M100.917 296.383C100.259 296.192 100.293 296.643 100.293 296.643C100.293 296.643 100.103 296.868 100.744 297.041C101.384 297.214 101.332 296.92 101.332 296.92C101.332 296.92 101.592 296.573 100.917 296.383Z" fill="#77431F"/>
<path d="M99.8595 294.789C99.8595 294.789 99.5651 294.737 99.6863 295.378C99.8075 296.019 100.05 295.846 100.05 295.846C100.05 295.846 100.5 295.932 100.379 295.24C100.258 294.547 99.8595 294.789 99.8595 294.789Z" fill="#77431F"/>
<path d="M102.355 294.876C102.355 294.876 102.321 294.426 101.697 294.737C101.074 295.049 101.386 295.344 101.386 295.344C101.386 295.344 101.42 295.655 101.992 295.361C102.563 295.066 102.355 294.876 102.355 294.876Z" fill="#77431F"/>
<path d="M103.513 295.725C103.513 295.725 103.34 295.482 103.01 296.054C102.681 296.625 102.993 296.643 102.993 296.643C102.993 296.643 103.288 296.989 103.617 296.383C103.946 295.777 103.513 295.725 103.513 295.725Z" fill="#77431F"/>
<path d="M103.584 293.56C103.324 292.901 102.995 293.213 102.995 293.213C102.995 293.213 102.701 293.196 102.926 293.802C103.151 294.408 103.394 294.2 103.394 294.2C103.394 294.2 103.827 294.2 103.584 293.56Z" fill="#77431F"/>
<path d="M90.9217 306.359C90.2462 306.168 90.2809 306.619 90.2809 306.619C90.2809 306.619 90.1077 306.861 90.7312 307.034C91.3547 307.208 91.32 306.913 91.32 306.913C91.32 306.913 91.5798 306.549 90.9217 306.359Z" fill="#77431F"/>
<path d="M89.8676 304.783C89.8676 304.783 89.5558 304.714 89.677 305.354C89.7983 305.995 90.0581 305.822 90.0581 305.822C90.0581 305.822 90.4911 305.909 90.3698 305.233C90.2486 304.558 89.8676 304.783 89.8676 304.783Z" fill="#77431F"/>
<path d="M92.342 304.87C92.342 304.87 92.3074 304.419 91.6839 304.731C91.0604 305.043 91.3894 305.337 91.3894 305.337C91.3894 305.337 91.4068 305.632 91.9956 305.354C92.5845 305.077 92.342 304.87 92.342 304.87Z" fill="#77431F"/>
<path d="M93.5205 305.701C93.5205 305.701 93.33 305.458 93.0182 306.03C92.7065 306.601 92.9836 306.636 92.9836 306.636C92.9836 306.636 93.278 306.982 93.6244 306.376C93.9708 305.77 93.5205 305.701 93.5205 305.701Z" fill="#77431F"/>
<path d="M93.5697 303.536C93.3272 302.878 92.9809 303.189 92.9809 303.189C92.9809 303.189 92.6864 303.189 92.9289 303.796C93.1714 304.402 93.3792 304.194 93.3792 304.194C93.3792 304.194 93.8295 304.194 93.5697 303.536Z" fill="#77431F"/>
<path d="M63.4722 307.242C63.4722 307.242 71.9589 307.519 85.1739 307.623L108.036 307.814C108.036 307.814 108.729 308.126 100.831 308.004C92.9331 307.883 74.1585 307.641 74.1585 307.641C74.1585 307.641 63.2297 307.831 63.4722 307.242Z" fill="#894D24"/>
<path d="M81.0826 231.693C81.0826 231.693 80.996 225.285 80.13 215.932C79.264 206.58 77.1683 201.557 77.7399 201.384C78.3114 201.21 79.7836 208.398 80.2512 214.408C80.7189 220.418 81.9486 232.213 81.0826 231.693Z" fill="#4D7F3A"/>
<path d="M78.4858 207.532C78.4858 207.532 78.3819 205.956 76.9617 204.051C75.5415 202.146 73.2033 200.466 73.0128 200.57C72.8223 200.673 73.6709 202.752 75.5068 204.761C77.3427 206.77 78.1048 207.653 78.4858 207.532Z" fill="#4D7F3A"/>
<path d="M80.4965 212.988C80.9121 213.005 81.3624 211.914 82.5575 209.472C83.7526 207.03 83.9431 204.796 83.7526 204.744C83.5621 204.692 81.7781 206.978 80.9641 209.212C80.1501 211.447 80.4965 212.988 80.4965 212.988Z" fill="#4D7F3A"/>
<path d="M84.7393 210.425C84.5315 210.355 82.5916 212.503 81.6217 214.668C80.6518 216.833 80.877 218.392 80.877 218.392C81.2753 218.444 81.8122 217.387 83.1805 215.049C84.5488 212.711 84.9298 210.494 84.7393 210.425Z" fill="#4D7F3A"/>
<path d="M84.0801 221.353C85.7948 219.24 86.4876 217.11 86.3144 217.023C86.1412 216.937 83.8896 218.738 82.5906 220.747C81.2916 222.756 81.2916 224.315 81.2916 224.315C81.69 224.419 82.3654 223.466 84.0801 221.353Z" fill="#4D7F3A"/>
<path d="M86.7666 222.86C86.5761 222.774 84.3245 224.575 83.0256 226.567C81.7266 228.558 81.6919 230.117 81.6919 230.117C82.0903 230.221 82.7658 229.286 84.5151 227.173C86.2644 225.06 86.9572 222.964 86.7666 222.86Z" fill="#4D7F3A"/>
<path d="M79.4893 213.109C79.4893 213.109 79.3681 211.55 77.9478 209.645C76.5276 207.74 74.1894 206.06 74.0162 206.164C73.843 206.268 74.6571 208.346 76.5103 210.338C78.3635 212.33 79.0909 213.248 79.4893 213.109Z" fill="#4D7F3A"/>
<path d="M76.8721 215.846C78.8812 217.664 79.7125 218.496 80.0762 218.34C80.0762 218.34 79.8338 216.781 78.2403 215.014C76.6469 213.248 74.1702 211.776 73.997 211.897C73.8238 212.018 74.8457 214.027 76.8721 215.846Z" fill="#4D7F3A"/>
<path d="M77.1862 221.994C79.2126 223.813 80.0266 224.644 80.4077 224.488C80.4077 224.488 80.1479 222.929 78.5544 221.163C76.961 219.396 74.4843 217.924 74.3111 218.045C74.1379 218.167 75.1598 220.176 77.1862 221.994Z" fill="#4D7F3A"/>
<path d="M74.7114 223.917C74.5382 224.038 75.5601 226.03 77.5865 227.848C79.6129 229.667 80.4269 230.516 80.7907 230.342C80.7907 230.342 80.5309 228.784 78.9548 227.017C77.3787 225.25 74.8846 223.796 74.7114 223.917Z" fill="#4D7F3A"/>
<path d="M81.7261 203.635C82.9211 201.193 83.1117 198.976 82.9211 198.924C82.7306 198.872 80.9467 201.141 80.1327 203.376C79.3186 205.61 79.665 207.151 79.665 207.151C80.0807 207.169 80.531 206.077 81.7261 203.635Z" fill="#4D7F3A"/>
<path d="M64.1641 209.87C64.1641 209.87 69.3081 212.468 73.8112 218.877C78.3144 225.285 77.5523 231.693 77.8121 231.693C78.0719 231.693 78.3144 228.333 76.3573 223.137C74.4001 217.941 69.6545 213.04 67.1604 211.36C64.6664 209.68 64.3373 209.351 64.1641 209.87Z" fill="#4D7F3A"/>
<path d="M68.2695 207.844C68.0617 205.125 67.1091 203.116 66.9012 203.168C66.6934 203.22 66.3297 206.077 66.7627 208.416C67.1957 210.754 68.2695 211.914 68.2695 211.914C68.6159 211.724 68.46 210.563 68.2695 207.844Z" fill="#83BB62"/>
<path d="M63.6261 212.641C60.9243 212.312 58.9325 211.291 59.0018 211.083C59.071 210.875 61.9461 210.632 64.267 211.152C66.5878 211.672 67.679 212.797 67.679 212.797C67.4711 213.161 66.328 212.953 63.6261 212.641Z" fill="#83BB62"/>
<path d="M72.3568 211.862C72.2182 209.143 71.3176 207.099 71.1271 207.151C70.9365 207.203 70.4689 210.061 70.8499 212.399C71.231 214.737 72.2702 215.932 72.2702 215.932C72.6339 215.742 72.4953 214.581 72.3568 211.862Z" fill="#4D7F3A"/>
<path d="M75.6472 216.157C75.7511 213.438 75.0063 211.325 74.8158 211.377C74.6253 211.429 73.9152 214.2 74.1057 216.573C74.2962 218.946 75.2142 220.21 75.2142 220.21C75.5952 220.054 75.5606 218.877 75.6472 216.157Z" fill="#83BB62"/>
<path d="M78.6618 221.89C79.2334 219.223 78.9043 217.023 78.6965 217.023C78.4886 217.023 77.3109 219.639 77.0511 222.012C76.7913 224.384 77.4841 225.787 77.4841 225.787C77.8998 225.701 78.073 224.54 78.6618 221.89Z" fill="#3C522E"/>
<path d="M80.3412 227.104C81.5189 224.644 81.6921 222.41 81.4843 222.358C81.2764 222.306 79.5444 224.61 78.7651 226.844C77.9857 229.078 78.3321 230.637 78.3321 230.637C78.7477 230.637 79.1807 229.546 80.3412 227.104Z" fill="#4D7F3A"/>
<path d="M67.3843 216.694C64.6651 216.885 62.5348 216.227 62.5694 216.019C62.6041 215.811 65.3752 215.032 67.748 215.136C70.1208 215.24 71.4198 216.14 71.4198 216.14C71.2813 216.521 70.1035 216.521 67.3843 216.694Z" fill="#3C522E"/>
<path d="M70.2602 220.661C67.541 220.695 65.428 219.933 65.4799 219.725C65.5319 219.518 68.3204 218.894 70.6932 219.119C73.066 219.344 74.313 220.314 74.313 220.314C74.1398 220.678 72.9794 220.626 70.2602 220.661Z" fill="#4D7F3A"/>
<path d="M72.7199 225.579C70.0527 224.991 68.1821 223.778 68.2687 223.588C68.3553 223.397 71.2477 223.414 73.4993 224.176C75.7509 224.939 76.7381 226.151 76.7381 226.151C76.4956 226.48 75.3698 226.168 72.7199 225.579Z" fill="#83BB62"/>
<path d="M111.463 209.87C111.463 209.87 106.319 212.468 101.815 218.877C97.3123 225.285 98.057 231.693 97.7972 231.693C97.5374 231.693 97.2949 228.333 99.2694 223.137C101.244 217.941 105.972 213.04 108.449 211.36C110.926 209.68 111.289 209.351 111.463 209.87Z" fill="#4D7F3A"/>
<path d="M107.358 207.844C107.566 205.125 108.519 203.116 108.709 203.168C108.9 203.22 109.298 206.077 108.865 208.416C108.432 210.754 107.358 211.914 107.358 211.914C106.994 211.724 107.15 210.563 107.358 207.844Z" fill="#83BB62"/>
<path d="M112.001 212.641C114.703 212.312 116.678 211.291 116.609 211.083C116.539 210.875 113.681 210.632 111.361 211.152C109.04 211.672 107.931 212.797 107.931 212.797C108.139 213.161 109.3 212.953 112.001 212.641Z" fill="#83BB62"/>
<path d="M103.251 211.862C103.39 209.143 104.291 207.099 104.498 207.151C104.706 207.203 105.139 210.061 104.758 212.399C104.377 214.737 103.338 215.932 103.338 215.932C102.974 215.742 103.113 214.581 103.251 211.862Z" fill="#4D7F3A"/>
<path d="M99.9628 216.157C99.8762 213.438 100.604 211.325 100.812 211.377C101.019 211.429 101.695 214.2 101.522 216.573C101.348 218.946 100.396 220.21 100.396 220.21C100.015 220.054 100.049 218.877 99.9628 216.157Z" fill="#83BB62"/>
<path d="M96.9693 221.89C96.3805 219.223 96.7095 217.023 96.9174 217.023C97.1252 217.023 98.3203 219.639 98.5628 222.012C98.8052 224.384 98.1298 225.787 98.1298 225.787C97.7314 225.701 97.5409 224.54 96.9693 221.89Z" fill="#3C522E"/>
<path d="M95.2679 227.104C94.0902 224.644 93.917 222.41 94.1248 222.358C94.3327 222.306 96.082 224.61 96.8614 226.844C97.6407 229.078 97.2944 230.637 97.2944 230.637C96.8787 230.637 96.4457 229.546 95.2679 227.104Z" fill="#4D7F3A"/>
<path d="M108.227 216.694C110.946 216.885 113.076 216.227 113.059 216.019C113.041 215.811 110.236 215.032 107.863 215.136C105.49 215.24 104.208 216.14 104.208 216.14C104.347 216.521 105.507 216.521 108.227 216.694Z" fill="#3C522E"/>
<path d="M105.367 220.661C108.086 220.695 110.181 219.933 110.147 219.725C110.112 219.518 107.289 218.894 104.916 219.119C102.543 219.344 101.314 220.314 101.314 220.314C101.47 220.678 102.647 220.626 105.367 220.661Z" fill="#4D7F3A"/>
<path d="M102.907 225.579C105.557 224.991 107.428 223.778 107.341 223.588C107.255 223.397 104.379 223.414 102.128 224.176C99.8763 224.939 98.8718 226.151 98.8718 226.151C99.1143 226.48 100.24 226.168 102.907 225.579Z" fill="#83BB62"/>
<path d="M94.5773 203.462C94.5773 203.462 92.2911 208.831 90.282 216.729C88.2729 224.627 88.2729 231.693 87.8053 231.693C87.3377 231.693 88.2383 225.198 89.7451 218.357C91.2519 211.516 93.8845 202.717 94.5773 203.462Z" fill="#4D7F3A"/>
<path d="M97.2619 204.83C99.219 203.479 100.968 201.176 100.864 201.003C100.76 200.829 98.6648 201.574 96.6037 203.358C94.5427 205.142 93.6247 205.869 93.746 206.25C93.746 206.25 95.3047 206.181 97.2619 204.83Z" fill="#83BB62"/>
<path d="M92.9663 205.87C93.2607 205.575 92.7411 204.519 91.6846 202.025C90.6281 199.53 89.0866 197.885 88.9134 198.006C88.7402 198.128 89.2945 200.968 90.4376 203.046C91.5807 205.125 92.9663 205.87 92.9663 205.87Z" fill="#83BB62"/>
<path d="M95.2187 208.554C93.0018 210.13 91.9972 210.754 92.0838 211.152C92.0838 211.152 93.6599 211.239 95.7383 210.078C97.8167 208.918 99.7738 206.822 99.6872 206.632C99.6006 206.441 97.4356 206.978 95.2187 208.554Z" fill="#4D7F3A"/>
<path d="M93.6432 213.023C91.5475 214.772 90.6122 215.465 90.7161 215.863C90.7161 215.863 92.2922 215.828 94.2667 214.512C96.2411 213.196 98.0424 210.927 97.9385 210.754C97.8346 210.58 95.7216 211.291 93.6432 213.023Z" fill="#83BB62"/>
<path d="M92.4951 217.543C90.4167 219.292 89.4642 219.985 89.5854 220.383C89.5854 220.383 91.1442 220.349 93.136 219.033C95.1277 217.716 96.8944 215.447 96.7904 215.274C96.6865 215.101 94.5908 215.811 92.4951 217.543Z" fill="#4D7F3A"/>
<path d="M91.8053 222.982C89.727 224.731 88.7744 225.424 88.8956 225.805C88.8956 225.805 90.4544 225.77 92.4462 224.454C94.438 223.137 96.2046 220.886 96.1007 220.695C95.9967 220.505 93.901 221.232 91.8053 222.982Z" fill="#83BB62"/>
<path d="M91.2844 227.537C89.1887 229.269 88.2534 229.961 88.3573 230.36C88.3573 230.36 89.9334 230.325 91.9079 229.009C93.8823 227.692 95.6836 225.424 95.5797 225.25C95.4758 225.077 93.3627 225.787 91.2844 227.537Z" fill="#83BB62"/>
<path d="M91.3198 210.91C91.6315 210.65 91.2332 209.541 90.4538 206.943C89.6744 204.345 88.3061 202.561 88.1156 202.665C87.9251 202.769 88.1849 205.627 89.1029 207.827C90.0208 210.026 91.3198 210.91 91.3198 210.91Z" fill="#83BB62"/>
<path d="M90.1804 215.672C90.4922 215.413 90.0938 214.304 89.3144 211.706C88.535 209.108 87.1668 207.324 86.9763 207.428C86.7857 207.532 87.0455 210.39 87.9635 212.59C88.8814 214.789 90.1804 215.672 90.1804 215.672Z" fill="#4D7F3A"/>
<path d="M89.0503 220.384C89.362 220.124 88.9637 219.015 88.1843 216.417C87.4049 213.819 86.0366 212.035 85.8461 212.139C85.6556 212.243 85.9154 215.101 86.8334 217.301C87.7513 219.5 89.0503 220.384 89.0503 220.384Z" fill="#83BB62"/>
<path d="M84.811 217.353C84.6378 217.457 84.8803 220.332 85.7982 222.514C86.7162 224.696 88.0151 225.614 88.0151 225.614C88.3269 225.337 87.9285 224.246 87.1491 221.631C86.3698 219.015 85.0015 217.266 84.811 217.353Z" fill="#4D7F3A"/>
<path d="M84.1679 221.682C83.9773 221.786 84.2371 224.661 85.1551 226.844C86.073 229.026 87.372 229.944 87.372 229.944C87.6838 229.667 87.2854 228.576 86.506 225.96C85.7266 223.345 84.3584 221.596 84.1679 221.682Z" fill="#83BB62"/>
<path d="M85.3287 231.693C86.5425 228.313 88.3102 225.158 90.5593 222.358C94.283 217.751 97.1061 217.595 97.1581 217.716C97.2101 217.838 96.1536 217.82 94.4389 218.929C92.7242 220.037 91.2001 221.735 89.4508 224.125C87.7015 226.515 85.5885 231.919 85.3287 231.693Z" fill="#4D7F3A"/>
<path d="M95.3554 215.725C96.5505 213.282 96.741 211.066 96.5331 211.014C96.3253 210.962 94.576 213.231 93.762 215.465C92.948 217.699 93.2943 219.241 93.2943 219.241C93.71 219.258 94.1603 218.167 95.3554 215.725Z" fill="#4D7F3A"/>
<path d="M97.5045 219.067C100.189 218.634 102.371 219.102 102.371 219.31C102.371 219.518 99.6522 220.539 97.2794 220.661C94.9066 220.782 93.5383 219.985 93.5383 219.985C93.6422 219.587 94.82 219.483 97.5045 219.067Z" fill="#83BB62"/>
<path d="M91.7354 219.188C92.7919 216.677 92.8612 214.443 92.6534 214.408C92.4455 214.373 90.8175 216.746 90.1247 219.015C89.4319 221.284 89.8822 222.808 89.8822 222.808C90.2806 222.808 90.6789 221.7 91.7354 219.188Z" fill="#83BB62"/>
<path d="M88.3409 222.826C88.8605 220.158 88.4968 217.959 88.2716 217.959C88.0465 217.959 86.938 220.626 86.7302 222.981C86.5223 225.337 87.2498 226.757 87.2498 226.757C87.6481 226.671 87.804 225.51 88.3409 222.826Z" fill="#4D7F3A"/>
<path d="M86.0009 226.307C86.0702 223.588 85.3255 221.492 85.1176 221.527C84.9098 221.561 84.2516 224.367 84.4421 226.74C84.6327 229.113 85.5853 230.36 85.5853 230.36C85.9663 230.204 85.9143 229.026 86.0009 226.307Z" fill="#3C522E"/>
<path d="M94.0387 221.96C96.6194 221.111 98.8536 221.215 98.8709 221.44C98.8883 221.665 96.4115 223.086 94.0734 223.57C91.7352 224.055 90.2803 223.518 90.2803 223.518C90.315 223.12 91.4581 222.826 94.0387 221.96Z" fill="#4D7F3A"/>
<path d="M91.3724 225.493C93.8491 224.35 96.066 224.211 96.118 224.419C96.17 224.627 93.8491 226.324 91.5975 227.086C89.346 227.848 87.8045 227.45 87.8045 227.45C87.8045 227.052 88.8956 226.619 91.3724 225.493Z" fill="#83BB62"/>
<path d="M72.08 230.827C72.08 230.827 88.3606 230.412 103.966 230.827C104.988 230.845 110.703 272.845 87.7544 272.845C64.8057 272.845 72.08 230.827 72.08 230.827Z" fill="#E68D4F"/>
<path d="M76.7528 251.75C77.9652 251.628 77.4456 247.454 77.5322 243.038C77.6188 238.621 77.5322 233.339 77.5322 233.339C76.5796 232.213 71.9379 231.641 72.163 242.535C72.3882 253.43 75.5404 251.871 76.7528 251.75Z" fill="#E58341"/>
<path d="M78.1761 253.776C74.5736 252.91 72.322 257.153 75.5435 264.081C78.7649 271.009 81.8652 268.238 82.558 266.939C83.2508 265.64 81.7786 263.302 80.826 260.704C79.8734 258.106 78.1761 253.776 78.1761 253.776Z" fill="#E58341"/>
<path d="M95.3736 267.199C95.287 266.246 92.0829 266.593 90.4895 266.593H84.4622C82.7302 267.459 83.1632 272.204 89.4676 271.875C95.772 271.546 95.4602 268.151 95.3736 267.199Z" fill="#E58341"/>
<path d="M103.01 238.794C103.01 238.794 103.08 240.059 103.01 241.912C102.941 243.765 102.733 244.908 103.357 245.082C103.98 245.255 105.089 245.03 105.002 241.929C104.916 238.829 104.05 238.102 103.01 238.794Z" fill="#F7AA77"/>
<path d="M77.4829 237.911C76.8767 237.738 76.9114 238.136 76.9114 238.136C76.9114 238.136 76.7555 238.344 77.3097 238.5C77.864 238.656 77.8293 238.396 77.8293 238.396C77.8293 238.396 78.0718 238.067 77.4829 237.911Z" fill="#E27124"/>
<path d="M76.5296 236.491C76.5296 236.491 76.2698 236.439 76.3737 237.01C76.4777 237.582 76.7028 237.426 76.7028 237.426C76.7028 237.426 77.1012 237.513 76.9799 236.906C76.8587 236.3 76.5296 236.491 76.5296 236.491Z" fill="#E27124"/>
<path d="M78.748 236.577C78.748 236.577 78.7133 236.179 78.1591 236.456C77.6049 236.733 77.8993 236.993 77.8993 236.993C77.8993 236.993 77.9166 237.253 78.4362 237.01C78.9558 236.768 78.748 236.577 78.748 236.577Z" fill="#E27124"/>
<path d="M79.785 237.322C79.785 237.322 79.6118 237.114 79.3347 237.617C79.0576 238.119 79.3174 238.154 79.3174 238.154C79.3174 238.154 79.5772 238.448 79.8716 237.911C80.166 237.374 79.785 237.322 79.785 237.322Z" fill="#E27124"/>
<path d="M79.8358 235.4C79.6106 234.811 79.3162 235.088 79.3162 235.088C79.3162 235.088 79.0391 235.088 79.2643 235.625C79.4894 236.162 79.6626 235.971 79.6626 235.971C79.6626 235.971 80.061 235.971 79.8358 235.4Z" fill="#E27124"/>
<path d="M74.8666 261.639C74.2778 261.466 74.3124 261.864 74.3124 261.864C74.3124 261.864 74.1565 262.072 74.7107 262.228C75.265 262.384 75.2303 262.124 75.2303 262.124C75.2303 262.124 75.4728 261.812 74.8666 261.639Z" fill="#E27124"/>
<path d="M73.9306 260.236C73.9306 260.236 73.6708 260.167 73.7748 260.739C73.8787 261.31 74.1038 261.172 74.1038 261.172C74.1038 261.172 74.4849 261.241 74.381 260.635C74.277 260.028 73.9306 260.236 73.9306 260.236Z" fill="#E27124"/>
<path d="M76.1482 260.306C76.1482 260.306 76.1136 259.907 75.5593 260.184C75.0051 260.461 75.2822 260.721 75.2822 260.721C75.2822 260.721 75.2995 260.998 75.8191 260.739C76.3387 260.479 76.1482 260.306 76.1482 260.306Z" fill="#E27124"/>
<path d="M77.1891 261.05C77.1891 261.05 77.0159 260.843 76.7388 261.345C76.4617 261.847 76.7215 261.882 76.7215 261.882C76.7215 261.882 76.9639 262.193 77.2757 261.639C77.5875 261.085 77.1891 261.05 77.1891 261.05Z" fill="#E27124"/>
<path d="M77.2402 259.128C77.015 258.556 76.7206 258.816 76.7206 258.816C76.7206 258.816 76.4435 258.816 76.6513 259.353C76.8591 259.89 77.067 259.699 77.067 259.699C77.067 259.699 77.4653 259.699 77.2402 259.128Z" fill="#E27124"/>
<path d="M89.2764 267.303C88.6875 267.147 88.7222 267.545 88.7222 267.545C88.7222 267.545 88.549 267.753 89.1205 267.909C89.6921 268.065 89.6401 267.788 89.6401 267.788C89.6401 267.788 89.8826 267.476 89.2764 267.303Z" fill="#E27124"/>
<path d="M88.3421 265.9C88.3421 265.9 88.0823 265.848 88.1862 266.42C88.2902 266.991 88.5153 266.835 88.5153 266.835C88.5153 266.835 88.8964 266.905 88.7924 266.298C88.6885 265.692 88.3421 265.9 88.3421 265.9Z" fill="#E27124"/>
<path d="M90.5568 265.969C90.5568 265.969 90.5221 265.588 89.9506 265.848C89.379 266.108 89.6908 266.402 89.6908 266.402C89.6908 266.402 89.7081 266.662 90.2277 266.402C90.7473 266.142 90.5568 265.969 90.5568 265.969Z" fill="#E27124"/>
<path d="M91.5975 266.714C91.5975 266.714 91.4243 266.506 91.1472 267.008C90.8701 267.511 91.1299 267.545 91.1299 267.545C91.1299 267.545 91.3723 267.857 91.6841 267.32C91.9959 266.783 91.5975 266.714 91.5975 266.714Z" fill="#E27124"/>
<path d="M91.6486 264.792C91.4234 264.22 91.129 264.497 91.129 264.497C91.129 264.497 90.8519 264.48 91.0597 265.017C91.2675 265.554 91.4581 265.38 91.4581 265.38C91.4581 265.38 91.8564 265.38 91.6486 264.792Z" fill="#E27124"/>
<path d="M101.055 242.951C100.466 242.795 100.501 243.194 100.501 243.194C100.501 243.194 100.328 243.401 100.899 243.557C101.471 243.713 101.419 243.436 101.419 243.436C101.419 243.436 101.661 243.124 101.055 242.951Z" fill="#E27124"/>
<path d="M100.118 241.548C100.118 241.548 99.8579 241.496 99.9618 242.068C100.066 242.639 100.291 242.484 100.291 242.484C100.291 242.484 100.672 242.553 100.568 241.947C100.464 241.341 100.118 241.548 100.118 241.548Z" fill="#E27124"/>
<path d="M102.332 241.618C102.332 241.618 102.298 241.219 101.726 241.496C101.155 241.773 101.466 242.051 101.466 242.051C101.466 242.051 101.484 242.31 102.003 242.051C102.523 241.791 102.332 241.618 102.332 241.618Z" fill="#E27124"/>
<path d="M103.359 242.362C103.359 242.362 103.203 242.154 102.926 242.657C102.649 243.159 102.908 243.194 102.908 243.194C102.908 243.194 103.151 243.505 103.463 242.968C103.774 242.432 103.359 242.362 103.359 242.362Z" fill="#E27124"/>
<path d="M103.41 240.44C103.185 239.868 102.908 240.145 102.908 240.145C102.908 240.145 102.63 240.128 102.838 240.665C103.046 241.202 103.237 241.029 103.237 241.029C103.237 241.029 103.635 241.029 103.41 240.44Z" fill="#E27124"/>
<path d="M71.7674 255.335C70.2433 243.99 71.2132 233.477 71.2132 233.477C70.7456 233.443 70.7456 234.464 70.6243 239.886C70.5031 245.307 71.3171 255.179 72.3044 259.457C73.2916 263.735 77.5003 271.979 83.9606 272.845C90.4209 273.711 90.1091 272.845 90.1091 272.845C79.7865 274.3 73.2916 266.679 71.7674 255.335Z" fill="#E27A34"/>
<path d="M105.335 236.352C105.335 236.352 105.422 242.536 105.093 249.585C104.764 256.634 102.062 262.73 102.062 262.73C102.062 262.73 102.426 263.596 103.707 259.249C104.989 254.902 105.561 248.667 105.613 243.99C105.665 239.314 105.665 236.248 105.335 236.352Z" fill="#E27A34"/>
<path d="M103.895 255.837C103.895 255.837 103.965 269.173 103.895 276.794C103.878 280.033 103.74 283.618 103.653 286.649C103.237 285.783 102.648 284.605 101.765 282.995C99.0286 277.885 97.1927 273.832 96.0669 272.914C97.0715 268.532 99.9119 255.785 98.4397 255.612C98.4397 255.612 95.9803 268.706 94.4735 276.188C92.9667 283.67 90.4899 292.936 91.3213 292.798C92.1526 292.659 95.7205 274.369 95.7205 274.369C95.7205 274.369 95.7898 274.075 95.8937 273.59L100.657 282.406C102.267 285.385 103.116 287.134 103.601 288.087C103.514 291.464 103.532 293.854 103.93 293.715C104.709 293.421 104.779 274.785 104.779 274.785C104.779 274.785 105.697 255.733 103.895 255.837Z" fill="#883E21"/>
<path d="M77.8288 255.612C76.3566 255.785 79.2317 268.688 80.2362 272.984C79.0931 274.057 77.2919 278.024 74.6073 282.995C73.6374 284.796 73.0139 286.043 72.5982 286.926C72.5116 283.739 72.3557 279.808 72.3211 276.292C72.2691 268.671 72.3211 255.335 72.3211 255.335C70.5371 255.214 71.4551 274.283 71.4551 274.283C71.4551 274.283 71.5071 292.919 72.3038 293.213C72.6675 293.352 72.7021 291.325 72.6502 288.346C73.1005 287.48 73.9491 285.696 75.7331 282.406L80.4094 273.728C80.496 274.144 80.5653 274.369 80.5653 274.369C80.5653 274.369 84.1332 292.659 84.9645 292.798C85.7959 292.936 83.2845 283.653 81.795 276.188C80.3055 268.723 77.8288 255.612 77.8288 255.612Z" fill="#883E21"/>
<path d="M164.944 262.782C164.563 262.436 117.107 262.782 117.107 262.782C116.137 262.782 112.084 287.03 141.615 287.03C169.846 287.03 165.343 263.129 164.944 262.782Z" fill="#F8EEE4"/>
<path d="M123.17 264.428C121.611 262.453 116.571 264.341 117.454 269.797C118.338 275.253 121.195 275.512 122.823 275.166C124.451 274.82 123.62 272.62 123.499 269.849C123.378 267.078 123.17 264.428 123.17 264.428Z" fill="#F4E5D7"/>
<path d="M132.521 277.816C130.148 276.777 126.286 274.577 126.286 274.577C122.995 275.512 123.463 282.059 130.668 283.878C137.873 285.696 139.449 282.665 139.206 280.985C138.964 279.305 134.876 278.855 132.521 277.816Z" fill="#F4E5D7"/>
<path d="M155.437 279.842C155.091 278.734 151.454 280.016 148.63 280.241C145.807 280.466 141.806 280.985 141.806 280.985C140.663 283.479 141.702 286.77 149.427 285.315C157.152 283.861 155.783 280.933 155.437 279.842Z" fill="#F4E5D7"/>
<path d="M162.954 264.116C162.954 264.116 162.919 265.242 162.954 266.593C162.988 267.944 162.954 269.017 163.387 269.104C163.82 269.191 165.171 269.139 164.911 266.194C164.651 263.25 163.3 263.683 162.954 264.116Z" fill="white"/>
<path d="M123.154 268.1C122.565 267.926 122.599 268.325 122.599 268.325C122.599 268.325 122.426 268.533 122.98 268.688C123.535 268.844 123.517 268.584 123.517 268.584C123.517 268.584 123.76 268.273 123.154 268.1Z" fill="#F7D7BA"/>
<path d="M122.22 266.697C122.22 266.697 121.96 266.627 122.046 267.199C122.133 267.77 122.393 267.632 122.393 267.632C122.393 267.632 122.774 267.701 122.67 267.095C122.566 266.489 122.22 266.697 122.22 266.697Z" fill="#F7D7BA"/>
<path d="M124.418 266.766C124.418 266.766 124.384 266.368 123.829 266.645C123.275 266.922 123.57 267.182 123.57 267.182C123.57 267.182 123.587 267.459 124.106 267.199C124.626 266.939 124.418 266.766 124.418 266.766Z" fill="#F7D7BA"/>
<path d="M125.46 267.511C125.46 267.511 125.304 267.303 125.01 267.805C124.715 268.307 124.992 268.342 124.992 268.342C124.992 268.342 125.252 268.654 125.564 268.117C125.876 267.58 125.46 267.511 125.46 267.511Z" fill="#F7D7BA"/>
<path d="M125.511 265.588C125.286 265.017 124.991 265.276 124.991 265.276C124.991 265.276 124.731 265.276 124.939 265.813C125.147 266.35 125.338 266.16 125.338 266.16C125.338 266.16 125.736 266.16 125.511 265.588Z" fill="#F7D7BA"/>
<path d="M132.644 284.865C132.055 284.709 132.09 285.09 132.09 285.09C132.09 285.09 131.917 285.315 132.471 285.471C133.025 285.627 133.008 285.35 133.008 285.35C133.008 285.35 133.233 285.038 132.644 284.865Z" fill="#F7D7BA"/>
<path d="M131.71 283.462C131.71 283.462 131.433 283.41 131.537 283.982C131.64 284.553 131.866 284.397 131.866 284.397C131.866 284.397 132.264 284.467 132.16 283.861C132.056 283.254 131.71 283.462 131.71 283.462Z" fill="#F7D7BA"/>
<path d="M133.912 283.531C133.912 283.531 133.877 283.133 133.323 283.41C132.769 283.687 133.063 283.964 133.063 283.964C133.063 283.964 133.081 284.224 133.6 283.964C134.12 283.705 133.912 283.531 133.912 283.531Z" fill="#F7D7BA"/>
<path d="M134.947 284.276C134.947 284.276 134.792 284.068 134.497 284.571C134.203 285.073 134.48 285.108 134.48 285.108C134.48 285.108 134.74 285.419 135.051 284.882C135.363 284.345 134.947 284.276 134.947 284.276Z" fill="#F7D7BA"/>
<path d="M135.001 282.354C134.776 281.782 134.482 282.059 134.482 282.059C134.482 282.059 134.222 282.042 134.43 282.579C134.638 283.116 134.828 282.943 134.828 282.943C134.828 282.943 135.227 282.943 135.001 282.354Z" fill="#F7D7BA"/>
<path d="M161.624 270.576C161.018 270.42 161.052 270.819 161.052 270.819C161.052 270.819 160.896 271.026 161.451 271.182C162.005 271.338 161.97 271.061 161.97 271.061C161.97 271.061 162.213 270.749 161.624 270.576Z" fill="#F7D7BA"/>
<path d="M160.671 269.173C160.671 269.173 160.411 269.121 160.515 269.693C160.619 270.264 160.844 270.109 160.844 270.109C160.844 270.109 161.242 270.178 161.121 269.572C161 268.965 160.671 269.173 160.671 269.173Z" fill="#F7D7BA"/>
<path d="M162.886 269.243C162.886 269.243 162.851 268.862 162.297 269.121C161.743 269.381 162.037 269.676 162.037 269.676C162.037 269.676 162.054 269.935 162.574 269.676C163.094 269.416 162.886 269.243 162.886 269.243Z" fill="#F7D7BA"/>
<path d="M163.923 269.987C163.923 269.987 163.75 269.779 163.473 270.282C163.195 270.784 163.455 270.819 163.455 270.819C163.455 270.819 163.715 271.13 164.009 270.594C164.304 270.057 163.923 269.987 163.923 269.987Z" fill="#F7D7BA"/>
<path d="M163.977 268.065C163.752 267.493 163.457 267.77 163.457 267.77C163.457 267.77 163.18 267.753 163.405 268.29C163.63 268.827 163.804 268.654 163.804 268.654C163.804 268.654 164.202 268.654 163.977 268.065Z" fill="#F7D7BA"/>
<path d="M122.202 281.003C114.841 274.3 116.366 264.254 116.366 264.254C115.205 264.462 116.677 272.828 118.098 275.98C119.518 279.132 124.731 285.246 133.478 286.597C142.224 287.948 142.484 287.013 142.484 287.013C140.128 287.117 129.581 287.723 122.202 281.003Z" fill="#EFD9C7"/>
<path d="M165.43 263.804C165.43 263.804 166.036 267.268 164.91 272.083C163.785 276.898 161.204 280.431 159.766 281.332C159.766 281.332 160.217 282.302 163.317 276.985C166.417 271.667 166.054 263.458 165.43 263.804Z" fill="#EFD9C7"/>
<path d="M159.371 269.312C158.418 269.104 158.418 272.083 157.83 273.174C157.241 274.265 155.595 275.339 154.019 274.56C152.443 273.78 152.356 268.359 147.594 268.238C142.831 268.117 141.739 275.131 140.198 274.75C138.657 274.369 139.003 269.71 135.522 268.602C132.04 267.493 129.823 269.624 128.992 271.529C128.161 273.434 127.26 274.664 125.805 274.231C124.35 273.798 125.112 268.844 123.207 270.057C123.207 270.057 121.891 276.985 126.186 276.673C130.482 276.361 128.49 269.572 133.08 269.641C137.669 269.71 135.106 276.413 140.007 276.465C144.909 276.517 142.502 269.658 147.074 269.641C151.646 269.624 149.066 276.5 154.833 276.5C160.601 276.5 160.324 269.52 159.371 269.312Z" fill="#FBBF3A"/>
<path d="M120.263 285.644C120.263 288.416 120.159 292.087 120.696 291.828C121.233 291.568 121.025 290.581 121.146 285.904C121.267 281.228 121.146 278.803 121.146 278.803C120.038 278.803 120.246 282.873 120.263 285.644Z" fill="#883E21"/>
<path d="M125.888 286.06C124.693 288.572 123.013 291.845 123.619 291.845C124.226 291.845 124.451 290.858 126.564 286.684C128.677 282.51 129.629 280.275 129.629 280.275C128.642 279.808 127.066 283.566 125.888 286.06Z" fill="#883E21"/>
<path d="M162.299 285.644C162.299 282.873 162.507 278.803 161.399 278.803C161.399 278.803 161.295 281.228 161.399 285.904C161.502 290.581 161.312 291.55 161.849 291.828C162.386 292.105 162.282 288.416 162.299 285.644Z" fill="#883E21"/>
<path d="M152.912 280.275C152.912 280.275 153.864 282.51 155.977 286.684C158.09 290.858 158.333 291.828 158.922 291.845C159.511 291.862 157.848 288.572 156.67 286.06C155.492 283.549 153.916 279.808 152.912 280.275Z" fill="#883E21"/>
<path d="M136.422 278.994C135.365 279.305 136.716 283.15 137.513 285.8C138.309 288.45 139.262 292.018 139.695 291.602C140.128 291.187 139.66 290.321 138.431 285.8C137.201 281.28 136.422 278.994 136.422 278.994Z" fill="#883E21"/>
<path d="M145.931 278.994C145.931 278.994 145.134 281.28 143.922 285.8C142.709 290.321 142.207 291.187 142.657 291.602C143.108 292.018 144.043 288.468 144.84 285.8C145.636 283.133 146.987 279.305 145.931 278.994Z" fill="#883E21"/>
<path d="M139.208 262.557C139.208 262.557 139.174 260.063 137.442 254.313C135.71 248.563 133.406 248.442 133.579 247.801C133.753 247.16 136.177 249.013 137.909 254.313C139.641 259.613 140.161 262.782 139.208 262.557Z" fill="#4D7F3A"/>
<path d="M137.358 258.47C135.695 257.881 134.569 258.712 134.448 258.972C134.327 259.232 134.327 260.635 136.336 261.431C138.345 262.228 138.466 260.444 138.466 260.444C138.466 260.444 139.02 259.076 137.358 258.47Z" fill="#4D7F3A"/>
<path d="M131.518 247.281C129.821 247.697 129.318 249.013 129.37 249.29C129.422 249.567 130.184 250.745 132.297 250.312C134.411 249.879 133.545 248.32 133.545 248.32C133.545 248.32 133.233 246.865 131.518 247.281Z" fill="#4D7F3A"/>
<path d="M140.992 250.087C140.767 249.896 139.382 249.689 138.186 250.988C136.991 252.287 138.1 253.239 138.1 253.239C138.1 253.239 139.018 254.763 140.438 253.135C141.858 251.507 141.217 250.26 140.992 250.087Z" fill="#4D7F3A"/>
<path d="M142.849 256.876C142.624 256.686 141.238 256.478 140.043 257.76C138.848 259.041 139.957 260.028 139.957 260.028C139.957 260.028 140.875 261.553 142.295 259.925C143.715 258.296 143.074 257.049 142.849 256.876Z" fill="#83BB62"/>
<path d="M135.435 252.148C133.685 251.923 132.767 252.979 132.698 253.257C132.629 253.534 132.941 254.902 135.088 255.248C137.236 255.595 136.959 253.828 136.959 253.828C136.959 253.828 137.184 252.373 135.435 252.148Z" fill="#83BB62"/>
<path d="M136.437 243.817C136.16 243.713 134.775 243.973 134.082 245.601C133.389 247.229 134.74 247.749 134.74 247.749C134.74 247.749 136.126 248.892 136.922 246.883C137.719 244.874 136.697 243.904 136.437 243.817Z" fill="#83BB62"/>
<path d="M148.684 262.557C148.684 262.557 148.719 260.063 150.451 254.313C152.183 248.563 154.486 248.442 154.313 247.801C154.14 247.16 151.715 249.013 149.983 254.313C148.251 259.613 147.732 262.782 148.684 262.557Z" fill="#4D7F3A"/>
<path d="M150.535 258.47C152.198 257.881 153.341 258.712 153.445 258.972C153.549 259.232 153.566 260.635 151.557 261.431C149.548 262.228 149.427 260.444 149.427 260.444C149.427 260.444 148.89 259.076 150.535 258.47Z" fill="#4D7F3A"/>
<path d="M156.373 247.281C158.087 247.697 158.572 249.013 158.52 249.29C158.468 249.567 157.706 250.745 155.593 250.312C153.48 249.879 154.364 248.32 154.364 248.32C154.364 248.32 154.658 246.865 156.373 247.281Z" fill="#4D7F3A"/>
<path d="M146.899 250.087C147.125 249.896 148.51 249.689 149.705 250.988C150.9 252.287 149.809 253.239 149.809 253.239C149.809 253.239 148.874 254.763 147.454 253.135C146.033 251.507 146.674 250.26 146.899 250.087Z" fill="#4D7F3A"/>
<path d="M145.046 256.876C145.271 256.686 146.656 256.478 147.851 257.76C149.046 259.041 147.938 260.028 147.938 260.028C147.938 260.028 147.02 261.553 145.6 259.925C144.18 258.296 144.82 257.049 145.046 256.876Z" fill="#83BB62"/>
<path d="M152.458 252.148C154.208 251.923 155.126 252.979 155.195 253.257C155.264 253.534 154.952 254.902 152.805 255.248C150.657 255.595 150.934 253.828 150.934 253.828C150.934 253.828 150.709 252.373 152.458 252.148Z" fill="#83BB62"/>
<path d="M151.455 243.817C151.732 243.713 153.117 243.973 153.81 245.601C154.503 247.229 153.152 247.749 153.152 247.749C153.152 247.749 151.784 248.892 150.97 246.883C150.156 244.874 151.195 243.904 151.455 243.817Z" fill="#83BB62"/>
<path d="M133.824 262.609C133.824 262.609 132.473 254.209 124.696 254.382C116.92 254.555 110.754 261.657 113.057 269.797C115.361 277.937 125.285 278.803 126.047 289.022C126.809 299.241 117.318 298.461 117.509 303.709C117.699 308.957 120.592 309.286 120.055 309.892C119.518 310.498 116.643 307.554 116.833 303.709C117.024 299.864 122.653 298.721 124.367 294.599C126.082 290.477 127.277 285.211 120.886 279.721C114.495 274.231 111.655 271.771 112.261 265.242C112.867 258.712 118.046 253.776 124.766 253.776C131.486 253.776 135.227 261.05 133.824 262.609Z" fill="#4D7F3A"/>
<path d="M119.81 305.129C117.714 305.632 118.632 307.173 118.632 307.173C118.632 307.173 118.979 308.593 120.676 308.143C122.373 307.693 122.824 306.359 122.772 306.065C122.72 305.77 121.923 304.644 119.81 305.129Z" fill="#83BB62"/>
<path d="M122.286 298.271C122.286 298.271 121.108 299.137 122.2 300.522C123.291 301.908 124.676 301.821 124.919 301.665C125.161 301.509 125.906 300.314 124.624 298.565C123.343 296.816 122.286 298.271 122.286 298.271Z" fill="#83BB62"/>
<path d="M128.125 289.403C125.978 289.16 126.342 290.927 126.342 290.927C126.342 290.927 126.186 292.382 127.935 292.52C129.684 292.659 130.568 291.568 130.62 291.273C130.672 290.979 130.29 289.645 128.125 289.403Z" fill="#83BB62"/>
<path d="M123.17 278.128C121.178 278.976 122.356 280.327 122.356 280.327C122.356 280.327 122.928 281.696 124.521 280.951C126.114 280.206 126.357 278.82 126.253 278.561C126.149 278.301 125.162 277.296 123.17 278.128Z" fill="#83BB62"/>
<path d="M118.512 270.819C118.356 270.576 117.196 269.797 115.412 271.027C113.628 272.256 115.066 273.348 115.066 273.348C115.066 273.348 115.897 274.56 117.317 273.503C118.737 272.447 118.668 271.061 118.512 270.819Z" fill="#83BB62"/>
<path d="M117.405 263.579C117.63 263.389 118.236 262.142 116.764 260.531C115.292 258.92 114.426 260.496 114.426 260.496C114.426 260.496 113.334 261.501 114.564 262.748C115.794 263.995 117.179 263.77 117.405 263.579Z" fill="#83BB62"/>
<path d="M125.304 258.729C125.564 258.868 126.949 258.937 127.867 256.98C128.785 255.023 127.018 254.798 127.018 254.798C127.018 254.798 125.685 254.174 124.992 255.785C124.299 257.396 125.044 258.591 125.304 258.729Z" fill="#83BB62"/>
<path d="M121.027 301.128C119.451 299.622 118.671 301.232 118.671 301.232C118.671 301.232 117.65 302.306 118.966 303.484C120.282 304.662 121.633 304.315 121.841 304.125C122.049 303.934 122.586 302.618 121.027 301.128Z" fill="#4D7F3A"/>
<path d="M127.138 294.789C125.233 293.785 124.921 295.534 124.921 295.534C124.921 295.534 124.228 296.833 125.804 297.613C127.38 298.392 128.61 297.682 128.766 297.439C128.922 297.197 129.06 295.794 127.138 294.789Z" fill="#4D7F3A"/>
<path d="M126.741 283.705C124.628 284.224 125.581 285.748 125.581 285.748C125.581 285.748 125.945 287.169 127.642 286.684C129.339 286.199 129.772 284.865 129.703 284.588C129.634 284.311 128.837 283.168 126.741 283.705Z" fill="#4D7F3A"/>
<path d="M119.068 275.079C117.509 276.586 119.085 277.418 119.085 277.418C119.085 277.418 120.124 278.474 121.337 277.21C122.549 275.945 122.272 274.56 122.082 274.352C121.891 274.144 120.609 273.573 119.068 275.079Z" fill="#4D7F3A"/>
<path d="M114.632 265.813C112.502 265.467 112.762 267.234 112.762 267.234C112.762 267.234 112.519 268.688 114.269 268.914C116.018 269.139 116.953 268.1 117.005 267.822C117.057 267.545 116.78 266.16 114.632 265.813Z" fill="#4D7F3A"/>
<path d="M120.315 260.167C120.592 260.081 121.648 259.163 120.921 257.119C120.193 255.075 118.773 256.184 118.773 256.184C118.773 256.184 117.388 256.669 118.028 258.314C118.669 259.959 120.038 260.254 120.315 260.167Z" fill="#4D7F3A"/>
<path d="M132.906 260.184C132.906 260.184 132.646 258.73 130.931 259.093C129.217 259.457 128.662 260.739 128.697 261.033C128.732 261.327 129.476 262.505 131.607 262.142C133.737 261.778 132.906 260.184 132.906 260.184Z" fill="#4D7F3A"/>
<path d="M136.128 255.439C135.868 255.318 134.465 255.404 133.582 256.928C132.699 258.452 133.98 259.145 133.98 259.145C133.98 259.145 135.21 260.444 136.249 258.539C137.288 256.634 136.388 255.56 136.128 255.439Z" fill="#83BB62"/>
<path d="M116.521 255.872C118.27 256.08 118.391 254.608 118.391 254.608C118.391 254.608 119.084 252.962 116.919 252.772C114.754 252.581 114.148 253.828 114.13 254.123C114.113 254.417 114.771 255.664 116.521 255.872Z" fill="#83BB62"/>
<path d="M111.445 266.731C111.445 266.731 110.354 265.311 109.124 267.078C107.894 268.844 108.656 270.022 108.899 270.178C109.141 270.334 110.544 270.403 111.601 268.983C112.657 267.563 111.445 266.731 111.445 266.731Z" fill="#83BB62"/>
<path d="M117.943 277.885C117.943 277.885 116.263 277.262 116.159 279.427C116.055 281.592 117.32 282.163 117.614 282.163C117.909 282.163 119.121 281.47 119.26 279.704C119.398 277.937 117.943 277.885 117.943 277.885Z" fill="#83BB62"/>
<path d="M124.835 286.112C124.835 286.112 123.813 284.623 122.497 286.355C121.181 288.087 121.891 289.264 122.133 289.438C122.376 289.611 123.761 289.715 124.887 288.364C126.013 287.013 124.835 286.112 124.835 286.112Z" fill="#83BB62"/>
<path d="M116.523 297.993C114.375 298.288 114.046 299.639 114.098 299.933C114.15 300.228 115.051 301.284 116.8 301.111C118.549 300.938 118.359 299.466 118.359 299.466C118.359 299.466 118.67 297.699 116.523 297.993Z" fill="#83BB62"/>
<path d="M129.267 251.923C128.956 249.775 127.587 249.446 127.31 249.498C127.033 249.55 125.959 250.468 126.15 252.217C126.34 253.967 127.813 253.759 127.813 253.759C127.813 253.759 129.562 254.053 129.267 251.923Z" fill="#4D7F3A"/>
<path d="M113.265 259.249C113.265 259.249 113.074 257.482 111.1 258.348C109.125 259.214 109.177 260.635 109.298 260.894C109.42 261.154 110.597 261.934 112.225 261.258C113.854 260.583 113.265 259.249 113.265 259.249Z" fill="#4D7F3A"/>
<path d="M114.892 275.287C114.927 273.521 113.455 273.555 113.455 273.555C113.455 273.555 111.74 273.018 111.775 275.183C111.81 277.348 113.109 277.851 113.386 277.833C113.663 277.816 114.858 277.054 114.892 275.287Z" fill="#4D7F3A"/>
<path d="M120.99 285.385C121.284 285.419 122.549 284.83 122.826 283.081C123.103 281.332 121.665 281.159 121.665 281.159C121.665 281.159 120.037 280.397 119.76 282.544C119.483 284.692 120.695 285.367 120.99 285.385Z" fill="#4D7F3A"/>
<path d="M121.649 292.52C119.796 293.646 120.038 295.032 120.211 295.274C120.385 295.517 121.632 296.123 123.156 295.257C124.68 294.391 123.918 293.127 123.918 293.127C123.918 293.127 123.485 291.377 121.649 292.52Z" fill="#4D7F3A"/>
<path d="M116.158 305.06C116.158 305.06 114.928 303.778 113.906 305.683C112.884 307.589 113.768 308.645 114.027 308.784C114.287 308.922 115.673 308.818 116.573 307.294C117.474 305.77 116.158 305.06 116.158 305.06Z" fill="#4D7F3A"/>
<path d="M154.104 262.609C154.104 262.609 155.455 254.209 163.214 254.382C170.973 254.555 177.174 261.657 174.87 269.797C172.567 277.937 162.642 278.803 161.88 289.022C161.118 299.241 170.609 298.461 170.402 303.709C170.194 308.957 167.336 309.286 167.856 309.892C168.375 310.498 171.285 307.554 171.094 303.709C170.904 299.864 165.275 298.721 163.56 294.599C161.846 290.477 160.633 285.211 167.024 279.721C173.415 274.231 176.273 271.771 175.667 265.242C175.061 258.712 169.882 253.776 163.162 253.776C156.442 253.776 152.701 261.05 154.104 262.609Z" fill="#4D7F3A"/>
<path d="M168.117 305.129C170.213 305.632 169.295 307.173 169.295 307.173C169.295 307.173 168.949 308.593 167.251 308.143C165.554 307.693 165.086 306.359 165.156 306.065C165.225 305.77 166.004 304.644 168.117 305.129Z" fill="#83BB62"/>
<path d="M165.62 298.271C165.62 298.271 166.815 299.137 165.724 300.522C164.633 301.908 163.247 301.821 163.005 301.665C162.762 301.509 162.017 300.314 163.299 298.565C164.581 296.816 165.62 298.271 165.62 298.271Z" fill="#83BB62"/>
<path d="M159.784 289.403C161.949 289.16 161.585 290.927 161.585 290.927C161.585 290.927 161.741 292.382 159.992 292.52C158.243 292.659 157.359 291.568 157.307 291.273C157.255 290.979 157.636 289.645 159.784 289.403Z" fill="#83BB62"/>
<path d="M164.758 278.128C166.75 278.976 165.572 280.327 165.572 280.327C165.572 280.327 165 281.696 163.407 280.951C161.813 280.206 161.571 278.82 161.675 278.561C161.779 278.301 162.766 277.296 164.758 278.128Z" fill="#83BB62"/>
<path d="M169.417 270.819C169.573 270.576 170.734 269.797 172.517 271.027C174.301 272.256 172.864 273.348 172.864 273.348C172.864 273.348 172.015 274.56 170.612 273.503C169.209 272.447 169.261 271.061 169.417 270.819Z" fill="#83BB62"/>
<path d="M170.524 263.579C170.299 263.389 169.692 262.142 171.147 260.531C172.602 258.92 173.503 260.496 173.503 260.496C173.503 260.496 174.594 261.501 173.347 262.748C172.1 263.995 170.749 263.77 170.524 263.579Z" fill="#83BB62"/>
<path d="M162.628 258.729C162.368 258.868 160.965 258.937 160.047 256.98C159.13 255.023 160.913 254.798 160.913 254.798C160.913 254.798 162.247 254.174 162.94 255.785C163.633 257.396 162.871 258.591 162.628 258.729Z" fill="#83BB62"/>
<path d="M166.904 301.128C168.48 299.622 169.26 301.232 169.26 301.232C169.26 301.232 170.281 302.306 168.965 303.484C167.649 304.662 166.281 304.315 166.073 304.125C165.865 303.934 165.345 302.618 166.904 301.128Z" fill="#4D7F3A"/>
<path d="M160.79 294.789C162.695 293.785 163.007 295.534 163.007 295.534C163.007 295.534 163.7 296.833 162.106 297.613C160.513 298.392 159.318 297.682 159.162 297.439C159.006 297.197 158.868 295.794 160.79 294.789Z" fill="#4D7F3A"/>
<path d="M161.188 283.705C163.284 284.224 162.349 285.748 162.349 285.748C162.349 285.748 161.985 287.169 160.288 286.684C158.59 286.199 158.157 284.865 158.209 284.588C158.261 284.311 159.093 283.168 161.188 283.705Z" fill="#4D7F3A"/>
<path d="M168.862 275.079C170.421 276.586 168.845 277.418 168.845 277.418C168.845 277.418 167.805 278.474 166.593 277.21C165.381 275.945 165.658 274.56 165.848 274.352C166.039 274.144 167.32 273.573 168.862 275.079Z" fill="#4D7F3A"/>
<path d="M173.28 265.813C175.427 265.467 175.168 267.234 175.168 267.234C175.168 267.234 175.393 268.688 173.661 268.914C171.929 269.139 170.976 268.1 170.907 267.822C170.838 267.545 171.149 266.16 173.28 265.813Z" fill="#4D7F3A"/>
<path d="M167.617 260.167C167.34 260.081 166.283 259.163 167.011 257.119C167.738 255.075 169.159 256.184 169.159 256.184C169.159 256.184 170.544 256.669 169.903 258.314C169.262 259.959 167.877 260.254 167.617 260.167Z" fill="#4D7F3A"/>
<path d="M155.021 260.184C155.021 260.184 155.263 258.73 156.995 259.093C158.727 259.457 159.264 260.739 159.212 261.033C159.16 261.327 158.45 262.505 156.32 262.142C154.189 261.778 155.021 260.184 155.021 260.184Z" fill="#4D7F3A"/>
<path d="M151.802 255.439C152.062 255.318 153.447 255.404 154.348 256.928C155.249 258.452 153.95 259.145 153.95 259.145C153.95 259.145 152.703 260.444 151.681 258.539C150.659 256.634 151.542 255.56 151.802 255.439Z" fill="#83BB62"/>
<path d="M171.407 255.872C169.657 256.08 169.536 254.608 169.536 254.608C169.536 254.608 168.843 252.962 170.991 252.772C173.139 252.581 173.779 253.828 173.797 254.123C173.814 254.417 173.156 255.664 171.407 255.872Z" fill="#83BB62"/>
<path d="M176.481 266.731C176.481 266.731 177.555 265.311 178.802 267.078C180.049 268.844 179.27 270.022 179.027 270.178C178.785 270.334 177.382 270.403 176.325 268.983C175.269 267.563 176.481 266.731 176.481 266.731Z" fill="#83BB62"/>
<path d="M169.986 277.885C169.986 277.885 171.666 277.262 171.77 279.427C171.874 281.592 170.592 282.163 170.315 282.163C170.038 282.163 168.809 281.47 168.653 279.704C168.497 277.937 169.986 277.885 169.986 277.885Z" fill="#83BB62"/>
<path d="M163.092 286.112C163.092 286.112 164.097 284.623 165.431 286.355C166.764 288.087 166.037 289.264 165.794 289.438C165.552 289.611 164.166 289.715 163.041 288.364C161.915 287.013 163.092 286.112 163.092 286.112Z" fill="#83BB62"/>
<path d="M171.407 297.993C173.555 298.288 173.884 299.639 173.832 299.933C173.78 300.228 172.88 301.284 171.13 301.111C169.381 300.938 169.572 299.466 169.572 299.466C169.572 299.466 169.26 297.699 171.407 297.993Z" fill="#83BB62"/>
<path d="M158.661 251.923C158.973 249.775 160.324 249.446 160.618 249.498C160.912 249.55 161.969 250.468 161.778 252.217C161.588 253.967 160.116 253.759 160.116 253.759C160.116 253.759 158.349 254.053 158.661 251.923Z" fill="#4D7F3A"/>
<path d="M174.663 259.249C174.663 259.249 174.854 257.482 176.828 258.348C178.803 259.214 178.751 260.635 178.612 260.894C178.474 261.154 177.331 261.934 175.685 261.258C174.04 260.583 174.663 259.249 174.663 259.249Z" fill="#4D7F3A"/>
<path d="M173.036 275.287C173.001 273.521 174.474 273.555 174.474 273.555C174.474 273.555 176.188 273.018 176.154 275.183C176.119 277.348 174.82 277.851 174.526 277.833C174.231 277.816 173.071 277.054 173.036 275.287Z" fill="#4D7F3A"/>
<path d="M166.94 285.385C166.645 285.419 165.381 284.83 165.087 283.081C164.792 281.332 166.264 281.159 166.264 281.159C166.264 281.159 167.892 280.397 168.169 282.544C168.447 284.692 167.217 285.367 166.94 285.385Z" fill="#4D7F3A"/>
<path d="M166.281 292.52C168.135 293.646 167.892 295.032 167.719 295.274C167.546 295.517 166.299 296.123 164.775 295.257C163.25 294.391 164.013 293.127 164.013 293.127C164.013 293.127 164.446 291.377 166.281 292.52Z" fill="#4D7F3A"/>
<path d="M171.755 305.06C171.755 305.06 173.002 303.778 174.024 305.683C175.046 307.589 174.163 308.645 173.903 308.784C173.643 308.922 172.24 308.818 171.357 307.294C170.473 305.77 171.755 305.06 171.755 305.06Z" fill="#4D7F3A"/>
<path d="M189.231 257.102C187.724 249.221 183.896 245.445 183.394 245.532C182.892 245.618 181.575 250.97 183.29 258.002C185.005 265.034 187.811 267.199 187.811 267.199L189.525 266.939C189.525 266.939 190.738 264.999 189.231 257.102Z" fill="#83BB62"/>
<path d="M184.015 247.662C184.015 247.662 185.037 251.992 186.492 257.569C187.947 263.146 188.865 266.281 188.674 266.402C188.484 266.523 187.964 263.943 187.167 260.808L184.743 251.421C184.275 249.637 183.513 247.628 184.015 247.662Z" fill="#4D7F3A"/>
<path d="M182.892 246.034C182.892 246.034 181.888 250.78 182.841 255.82C183.793 260.86 185.473 264.688 187.448 267.06C187.448 267.06 186.945 267.407 184.954 263.094C182.962 258.781 182.477 254.001 182.304 251.403C182.13 248.805 182.685 246.086 182.892 246.034Z" fill="#6E9952"/>
<path d="M192.726 257.102C194.233 249.221 198.061 245.445 198.563 245.532C199.065 245.618 200.382 250.97 198.667 258.002C196.952 265.034 194.146 267.199 194.146 267.199L192.432 266.939C192.432 266.939 191.219 264.999 192.726 257.102Z" fill="#3C522E"/>
<path d="M197.942 247.662C197.942 247.662 196.92 251.992 195.465 257.569C194.01 263.146 193.092 266.281 193.283 266.402C193.473 266.523 193.993 263.943 194.79 260.808L197.214 251.421C197.682 249.637 198.444 247.628 197.942 247.662Z" fill="#83BB62"/>
<path d="M199.087 246.034C199.087 246.034 200.074 250.78 199.121 255.82C198.169 260.86 196.489 264.688 194.514 267.06C194.514 267.06 195.016 267.407 197.008 263.094C199 258.781 199.485 254.001 199.658 251.403C199.831 248.805 199.277 246.086 199.087 246.034Z" fill="#395B2B"/>
<path d="M189.711 242.293C189.226 242.345 187.65 249.585 188.239 257.361C188.828 265.138 189.711 267.355 189.711 267.355H192.136C192.136 267.355 193.383 265.328 193.383 256.668C193.383 248.009 190.179 242.258 189.711 242.293Z" fill="#4D7F3A"/>
<path d="M189.973 245.116C189.973 245.116 190.441 248.961 190.752 256.374C191.064 263.787 191.324 266.714 191.099 266.766C190.874 266.818 190.752 260.132 190.752 260.132C190.752 260.132 190.285 252.719 190.302 250.78C190.319 248.84 189.661 245.203 189.973 245.116Z" fill="#3C522E"/>
<path d="M191.29 245.047C191.29 245.047 192.797 247.645 193.299 254.209C193.801 260.773 192.399 267.06 192.399 267.06C192.399 267.06 192.624 267.857 193.178 262.661C193.732 257.465 193.455 254.157 192.987 250.503C192.52 246.848 191.55 244.891 191.29 245.047Z" fill="#385B2A"/>
<path d="M199.222 273.018C199.204 269.502 199.153 266.835 199.014 266.714C198.581 266.35 181.781 266.714 181.781 266.714C181.348 267.13 181.608 291.083 181.781 291.291C181.954 291.498 198.927 291.377 199.014 291.152C199.101 290.927 199.101 288.052 199.153 284.172C201.144 284.19 205.786 283.618 205.786 277.85C205.786 272.083 201.248 272.551 199.222 273.018ZM199.17 281.747C199.204 279.548 199.222 277.21 199.222 275.062C200.503 275.097 202.582 275.616 202.582 278.474C202.582 281.332 200.452 281.765 199.17 281.747V281.747Z" fill="#F8EEE4"/>
<path d="M189.54 283.912C185.521 283.86 182.612 283.912 182.612 283.912C180.88 289.108 184.257 289.195 191.064 289.195C197.87 289.195 198.113 286.718 197.992 284.952C197.87 283.185 193.575 283.947 189.54 283.912Z" fill="#F4E5D7"/>
<path d="M190.46 283.168C195.57 283.341 194.877 281.349 194.877 280.708C194.877 280.067 191.413 280.483 189.681 280.448C187.949 280.414 186.944 280.448 186.944 280.448C186.338 280.656 185.351 282.994 190.46 283.168Z" fill="#F4E5D7"/>
<path d="M201.284 275.651L202.184 272.828C202.184 272.828 200.625 272.568 199.223 273.018V275.062C199.951 275.062 200.665 275.266 201.284 275.651V275.651Z" fill="#F4E5D7"/>
<path d="M199.155 284.172C199.787 284.166 200.418 284.114 201.043 284.016L201.354 281.21C200.687 281.578 199.934 281.763 199.172 281.747L199.155 284.172Z" fill="#F4E5D7"/>
<path d="M195.219 266.991H193.505C192.916 267.909 193.747 268.411 195.773 268.377C197.8 268.342 197.592 267.476 197.557 267.164C197.523 266.853 196.258 266.991 195.219 266.991Z" fill="white"/>
<path d="M205.095 275.114C204.368 273.798 203.467 273.798 203.207 274.491C203.514 274.931 203.786 275.394 204.021 275.876C204.35 276.552 204.489 277.244 204.87 277.21C205.251 277.175 205.805 276.448 205.095 275.114Z" fill="white"/>
<path d="M205.784 276.032C205.282 273.538 202.078 271.615 200.519 272.759C200.519 272.759 205.784 271.702 205.784 277.851C205.784 283.999 201.35 284.172 200.242 284.172C200.242 284.172 200.242 284.796 203.013 283.774C205.784 282.752 206.269 278.509 205.784 276.032Z" fill="#EFD9C7"/>
<path d="M181.54 268.221C181.02 268.428 181.297 274.612 181.297 274.612C181.297 274.612 181.523 280.241 181.488 286.008C181.453 291.776 181.73 290.754 181.73 290.754C181.73 290.754 181.626 286.995 181.54 281.02C181.453 275.045 181.54 268.221 181.54 268.221Z" fill="#EFD9C7"/>
<path d="M184.207 289.905C183.809 289.801 183.843 290.061 183.843 290.061C183.843 290.061 183.739 290.2 184.086 290.303C184.432 290.407 184.432 290.234 184.432 290.234C184.432 290.234 184.588 290.026 184.207 289.905Z" fill="#F7D7BA"/>
<path d="M183.582 289.005C183.582 289.005 183.426 288.97 183.495 289.334C183.565 289.697 183.703 289.611 183.703 289.611C183.703 289.611 183.946 289.663 183.876 289.264C183.807 288.866 183.582 289.005 183.582 289.005Z" fill="#F7D7BA"/>
<path d="M185.021 289.056C185.021 289.056 185.004 288.797 184.64 288.97C184.276 289.143 184.467 289.316 184.467 289.316C184.467 289.316 184.484 289.489 184.813 289.333C185.142 289.178 185.021 289.056 185.021 289.056Z" fill="#F7D7BA"/>
<path d="M185.694 289.541C185.694 289.541 185.59 289.403 185.399 289.715C185.209 290.026 185.382 290.061 185.382 290.061C185.382 290.061 185.555 290.269 185.746 289.922C185.936 289.576 185.694 289.541 185.694 289.541Z" fill="#F7D7BA"/>
<path d="M185.732 288.294C185.576 287.913 185.386 288.086 185.386 288.086C185.386 288.086 185.213 288.086 185.351 288.433C185.49 288.779 185.611 288.658 185.611 288.658C185.611 288.658 185.871 288.658 185.732 288.294Z" fill="#F7D7BA"/>
<path d="M193.213 280.518C192.832 280.414 192.85 280.656 192.85 280.656C192.85 280.656 192.746 280.795 193.109 280.899C193.473 281.003 193.439 280.83 193.439 280.83C193.439 280.83 193.594 280.622 193.213 280.518Z" fill="#F7D7BA"/>
<path d="M192.608 279.6C192.608 279.6 192.435 279.565 192.504 279.929C192.574 280.293 192.712 280.206 192.712 280.206C192.712 280.206 192.972 280.258 192.903 279.86C192.833 279.461 192.608 279.6 192.608 279.6Z" fill="#F7D7BA"/>
<path d="M194.028 279.652C194.028 279.652 194.011 279.392 193.647 279.565C193.283 279.738 193.474 279.929 193.474 279.929C193.474 279.929 193.491 280.102 193.82 279.929C194.149 279.756 194.028 279.652 194.028 279.652Z" fill="#F7D7BA"/>
<path d="M194.702 280.137C194.702 280.137 194.598 279.998 194.408 280.327C194.217 280.656 194.408 280.674 194.408 280.674C194.408 280.674 194.564 280.864 194.754 280.518C194.945 280.171 194.702 280.137 194.702 280.137Z" fill="#F7D7BA"/>
<path d="M194.738 278.89C194.6 278.526 194.409 278.699 194.409 278.699C194.409 278.699 194.236 278.682 194.357 279.046C194.478 279.409 194.617 279.271 194.617 279.271C194.617 279.271 194.877 279.271 194.738 278.89Z" fill="#F7D7BA"/>
<path d="M192.709 269.676C192.311 269.554 192.346 269.814 192.346 269.814C192.346 269.814 192.242 269.953 192.588 270.057C192.934 270.16 192.934 269.987 192.934 269.987C192.934 269.987 193.09 269.779 192.709 269.676Z" fill="#F7D7BA"/>
<path d="M192.087 268.758C192.087 268.758 191.931 268.723 192.001 269.087C192.07 269.45 192.208 269.364 192.208 269.364C192.208 269.364 192.451 269.416 192.382 269.017C192.312 268.619 192.087 268.758 192.087 268.758Z" fill="#F7D7BA"/>
<path d="M193.526 268.81C193.526 268.81 193.509 268.55 193.145 268.723C192.781 268.896 192.972 269.069 192.972 269.069C192.972 269.069 192.989 269.243 193.318 269.087C193.647 268.931 193.526 268.81 193.526 268.81Z" fill="#F7D7BA"/>
<path d="M194.199 269.295C194.199 269.295 194.095 269.156 193.905 269.485C193.714 269.814 193.887 269.832 193.887 269.832C193.887 269.832 194.06 270.022 194.251 269.676C194.441 269.329 194.199 269.295 194.199 269.295Z" fill="#F7D7BA"/>
<path d="M194.235 268.048C194.079 267.667 193.888 267.84 193.888 267.84C193.888 267.84 193.715 267.84 193.853 268.186C193.992 268.533 194.113 268.411 194.113 268.411C194.113 268.411 194.373 268.411 194.235 268.048Z" fill="#F7D7BA"/>
<path d="M203.603 278.232C203.222 278.128 203.239 278.387 203.239 278.387C203.239 278.387 203.136 278.526 203.499 278.613C203.863 278.699 203.846 278.543 203.846 278.543C203.846 278.543 203.984 278.336 203.603 278.232Z" fill="#F7D7BA"/>
<path d="M202.998 277.331C202.998 277.331 202.825 277.296 202.894 277.66C202.963 278.024 203.102 277.937 203.102 277.937C203.102 277.937 203.362 277.972 203.292 277.591C203.223 277.21 202.998 277.331 202.998 277.331Z" fill="#F7D7BA"/>
<path d="M204.436 277.383C204.436 277.383 204.401 277.123 204.055 277.296C203.709 277.47 203.882 277.643 203.882 277.643C203.882 277.643 203.882 277.816 204.228 277.66C204.575 277.504 204.436 277.383 204.436 277.383Z" fill="#F7D7BA"/>
<path d="M205.093 277.851C205.093 277.851 204.99 277.712 204.816 278.041C204.643 278.37 204.799 278.388 204.799 278.388C204.799 278.388 204.955 278.595 205.163 278.249C205.371 277.903 205.093 277.851 205.093 277.851Z" fill="#F7D7BA"/>
<path d="M205.127 276.621C204.989 276.24 204.798 276.413 204.798 276.413C204.798 276.413 204.625 276.413 204.764 276.759C204.902 277.106 205.024 276.984 205.024 276.984C205.024 276.984 205.283 276.984 205.127 276.621Z" fill="#F7D7BA"/>
<path d="M229.946 268.03C228.388 268.152 229.34 269.935 228.162 271.009C227.435 271.685 226.327 271.771 225.565 271.737C225.097 268.948 223.434 266.333 218.827 266.333C208.903 266.333 212.644 278.509 212.644 278.509H225.028C225.504 276.801 225.732 275.034 225.703 273.261C226.881 273.763 229.202 274.508 230.674 273.347C232.718 271.754 231.505 267.892 229.946 268.03Z" fill="#4D7F3A"/>
<path d="M214.933 273.365C215.713 273.313 215.418 271.719 215.574 269.987C215.73 268.255 215.834 267.892 215.834 267.892C215.141 267.389 213.548 267.736 213.132 270.455C212.716 273.174 214.154 273.434 214.933 273.365Z" fill="#426B32"/>
<path d="M215.676 276.032C215.572 275.131 215.433 273.798 215.433 273.798C214.221 273.399 213.078 273.832 213.164 276.378C213.251 278.924 215.191 278.128 215.676 277.937C216.161 277.747 215.797 276.915 215.676 276.032Z" fill="#426B32"/>
<path d="M222.638 268.238C222.638 268.238 222.967 268.688 223.314 269.208C223.66 269.728 223.712 270.161 224.076 270.005C224.439 269.849 224.595 269.156 224.076 268.602C223.556 268.048 222.794 267.58 222.638 268.238Z" fill="#6BA851"/>
<path d="M230.78 271.442C230.469 271.304 230.209 271.91 229.828 272.239C229.447 272.568 229.014 272.932 229.014 272.932C228.945 273.555 229.689 273.642 230.521 273.036C231.352 272.43 231.11 271.564 230.78 271.442Z" fill="#6BA851"/>
<path d="M212.836 276.032C212.576 275.963 212.593 276.136 212.593 276.136C212.593 276.136 212.524 276.223 212.766 276.292C213.009 276.361 212.991 276.24 212.991 276.24C212.991 276.24 213.095 276.101 212.836 276.032Z" fill="#2E4923"/>
<path d="M212.42 275.426C212.42 275.426 212.316 275.408 212.351 275.651C212.385 275.893 212.507 275.824 212.507 275.824C212.507 275.824 212.663 275.859 212.628 275.599C212.593 275.339 212.42 275.426 212.42 275.426Z" fill="#2E4923"/>
<path d="M213.372 275.46C213.372 275.46 213.372 275.287 213.13 275.408C212.887 275.53 213.008 275.634 213.008 275.634C213.008 275.634 213.026 275.755 213.251 275.651C213.476 275.547 213.372 275.46 213.372 275.46Z" fill="#2E4923"/>
<path d="M213.826 275.772C213.826 275.772 213.757 275.686 213.636 275.911C213.514 276.136 213.636 276.136 213.636 276.136C213.636 276.136 213.739 276.275 213.878 276.032C214.017 275.79 213.826 275.772 213.826 275.772Z" fill="#2E4923"/>
<path d="M213.857 274.941C213.753 274.698 213.632 274.82 213.632 274.82C213.632 274.82 213.511 274.82 213.597 275.045C213.684 275.27 213.771 275.201 213.771 275.201C213.771 275.201 213.944 275.201 213.857 274.941Z" fill="#2E4923"/>
<path d="M215.622 269.156C215.363 269.087 215.38 269.26 215.38 269.26C215.38 269.26 215.311 269.347 215.553 269.416C215.796 269.485 215.778 269.364 215.778 269.364C215.778 269.364 215.882 269.225 215.622 269.156Z" fill="#2E4923"/>
<path d="M215.228 268.55C215.228 268.55 215.107 268.532 215.159 268.775C215.211 269.017 215.298 268.948 215.298 268.948C215.298 268.948 215.471 268.983 215.419 268.723C215.367 268.463 215.228 268.55 215.228 268.55Z" fill="#2E4923"/>
<path d="M216.177 268.585C216.177 268.585 216.16 268.411 215.918 268.533C215.675 268.654 215.814 268.758 215.814 268.758C215.814 268.758 215.814 268.879 216.039 268.775C216.264 268.671 216.177 268.585 216.177 268.585Z" fill="#2E4923"/>
<path d="M216.633 268.914C216.633 268.914 216.564 268.81 216.443 269.035C216.321 269.26 216.425 269.26 216.425 269.26C216.425 269.26 216.529 269.399 216.668 269.156C216.806 268.914 216.633 268.914 216.633 268.914Z" fill="#2E4923"/>
<path d="M216.647 268.082C216.543 267.822 216.422 267.944 216.422 267.944C216.422 267.944 216.301 267.944 216.404 268.169C216.508 268.394 216.578 268.325 216.578 268.325C216.578 268.325 216.751 268.325 216.647 268.082Z" fill="#2E4923"/>
<path d="M222.727 270.386C222.467 270.317 222.484 270.49 222.484 270.49C222.484 270.49 222.415 270.576 222.657 270.646C222.9 270.715 222.882 270.594 222.882 270.594C222.882 270.594 222.986 270.455 222.727 270.386Z" fill="#2E4923"/>
<path d="M222.326 269.78C222.326 269.78 222.205 269.745 222.257 270.005C222.309 270.265 222.395 270.178 222.395 270.178C222.395 270.178 222.569 270.213 222.517 269.953C222.465 269.693 222.326 269.78 222.326 269.78Z" fill="#2E4923"/>
<path d="M223.28 269.814C223.28 269.814 223.263 269.641 223.021 269.762C222.778 269.883 222.899 269.987 222.899 269.987C222.899 269.987 222.917 270.109 223.142 269.987C223.367 269.866 223.28 269.814 223.28 269.814Z" fill="#2E4923"/>
<path d="M223.731 270.126C223.731 270.126 223.645 270.039 223.523 270.265C223.402 270.49 223.523 270.49 223.523 270.49C223.523 270.49 223.627 270.628 223.766 270.386C223.904 270.143 223.731 270.126 223.731 270.126Z" fill="#2E4923"/>
<path d="M223.748 269.295C223.644 269.052 223.523 269.173 223.523 269.173C223.523 269.173 223.402 269.156 223.488 269.399C223.575 269.641 223.679 269.554 223.679 269.554C223.679 269.554 223.835 269.554 223.748 269.295Z" fill="#2E4923"/>
<path d="M228.959 272.395C228.699 272.326 228.717 272.499 228.717 272.499C228.717 272.499 228.647 272.585 228.89 272.655C229.132 272.724 229.115 272.603 229.115 272.603C229.115 272.603 229.219 272.464 228.959 272.395Z" fill="#2E4923"/>
<path d="M228.562 271.789C228.562 271.789 228.441 271.771 228.493 272.014C228.545 272.256 228.631 272.187 228.631 272.187C228.631 272.187 228.804 272.222 228.752 271.962C228.7 271.702 228.562 271.789 228.562 271.789Z" fill="#2E4923"/>
<path d="M229.517 271.823C229.517 271.823 229.5 271.65 229.257 271.771C229.015 271.893 229.153 271.996 229.153 271.996C229.153 271.996 229.153 272.118 229.379 272.014C229.604 271.91 229.517 271.823 229.517 271.823Z" fill="#2E4923"/>
<path d="M229.964 272.135C229.964 272.135 229.895 272.049 229.773 272.274C229.652 272.499 229.756 272.499 229.756 272.499C229.756 272.499 229.86 272.637 229.998 272.395C230.137 272.152 229.964 272.135 229.964 272.135Z" fill="#2E4923"/>
<path d="M229.984 271.304C229.88 271.061 229.759 271.183 229.759 271.183C229.759 271.183 229.637 271.183 229.741 271.408C229.845 271.633 229.914 271.564 229.914 271.564C229.914 271.564 230.088 271.564 229.984 271.304Z" fill="#2E4923"/>
<path d="M213.582 267.909C212.092 269.762 211.469 272.758 211.832 275.686C212.196 278.613 212.542 278.145 212.542 278.145C212.542 278.145 211.157 275.339 212.248 270.853C213.339 266.367 217.461 266.419 217.461 266.419C217.548 266.142 215.071 266.073 213.582 267.909Z" fill="#385B2A"/>
<path d="M231.351 268.879C231.351 268.879 232.373 270.715 231.351 272.551C230.33 274.387 227.403 274.335 226.294 273.486C226.294 273.486 225.982 273.971 227.87 274.213C229.758 274.456 231.559 273.555 231.802 271.581C232.044 269.606 231.681 268.619 231.351 268.879Z" fill="#385B2A"/>
<path d="M213.719 268.204C213.32 267.944 213.199 268.567 213.199 268.567C213.199 268.567 213.026 268.048 212.662 268.394C212.298 268.74 213.078 269.173 213.078 269.173C213.078 269.173 214.1 268.463 213.719 268.204Z" fill="#83BB62"/>
<path d="M215.956 271.962C215.557 271.702 215.436 272.325 215.436 272.325C215.436 272.325 215.263 271.806 214.899 272.17C214.536 272.533 215.332 272.932 215.332 272.932C215.332 272.932 216.337 272.221 215.956 271.962Z" fill="#83BB62"/>
<path d="M220.005 268.204C219.624 267.944 219.485 268.567 219.485 268.567C219.485 268.567 219.312 268.048 218.965 268.394C218.619 268.74 219.381 269.173 219.381 269.173C219.381 269.173 220.403 268.463 220.005 268.204Z" fill="#83BB62"/>
<path d="M223.367 271.771C222.986 271.512 222.848 272.135 222.848 272.135C222.848 272.135 222.674 271.615 222.328 271.962C221.982 272.308 222.744 272.741 222.744 272.741C222.744 272.741 223.766 272.014 223.367 271.771Z" fill="#83BB62"/>
<path d="M225.773 269.416C225.375 269.173 225.253 269.797 225.253 269.797C225.253 269.797 225.08 269.277 224.716 269.624C224.353 269.97 225.149 270.403 225.149 270.403C225.149 270.403 226.154 269.676 225.773 269.416Z" fill="#83BB62"/>
<path d="M232.27 270.576C231.889 270.316 231.75 270.94 231.75 270.94C231.75 270.94 231.577 270.42 231.231 270.784C230.884 271.148 231.646 271.546 231.646 271.546C231.646 271.546 232.668 270.836 232.27 270.576Z" fill="#83BB62"/>
<path d="M227.263 273.001C226.882 272.741 226.743 273.365 226.743 273.365C226.743 273.365 226.57 272.845 226.223 273.192C225.877 273.538 226.639 273.971 226.639 273.971C226.639 273.971 227.661 273.261 227.263 273.001Z" fill="#83BB62"/>
<path d="M224.768 276.881C224.387 276.621 224.249 277.244 224.249 277.244C224.249 277.244 224.076 276.725 223.729 277.088C223.383 277.452 224.145 277.851 224.145 277.851C224.145 277.851 225.167 277.14 224.768 276.881Z" fill="#83BB62"/>
<path d="M219.832 274.75C219.451 274.49 219.313 275.114 219.313 275.114C219.313 275.114 219.139 274.594 218.793 274.958C218.447 275.322 219.209 275.72 219.209 275.72C219.209 275.72 220.231 275.01 219.832 274.75Z" fill="#83BB62"/>
<path d="M214.258 277.088C213.859 276.846 213.738 277.469 213.738 277.469C213.738 277.469 213.565 276.95 213.201 277.296C212.837 277.643 213.617 278.076 213.617 278.076C213.617 278.076 214.639 277.348 214.258 277.088Z" fill="#83BB62"/>
<path d="M219.488 262.765C219.488 262.765 217.462 262.436 217.462 264.93C217.462 267.424 219.488 266.939 219.488 266.939C219.488 266.939 221.307 267.008 221.307 264.878C221.307 262.748 219.488 262.765 219.488 262.765Z" fill="#FBBF3A"/>
<path d="M219.14 262.696C219.14 262.696 217.425 262.609 217.46 264.982C217.494 267.355 219.59 267.216 220.508 266.645C220.508 266.645 220.664 266.991 219.036 267.06C217.408 267.13 217.096 264.74 217.581 263.631C218.066 262.523 219.209 262.471 219.14 262.696Z" fill="#F9B121"/>
<path d="M227.434 278.093C227.451 277.781 209.768 278.093 209.768 278.093C209.768 278.093 209.681 281.453 209.768 281.886C209.785 281.938 210.097 281.99 210.634 282.007C210.582 284.796 210.443 292.174 210.651 292.261C210.859 292.347 226.326 292.105 226.326 292.105C226.326 292.105 226.36 284.432 226.291 281.834L227.382 281.799C227.382 281.799 227.434 278.387 227.434 278.093Z" fill="#E68D4F"/>
<path d="M210.637 282.007L210.619 282.561L226.294 283.912V281.834L210.637 282.007Z" fill="#E28242"/>
<path d="M217.652 288.537C214.361 288.502 211.365 288.537 211.365 288.537C210.377 290.009 210.983 291.533 218.015 291.568C225.047 291.603 224.753 289.541 224.666 288.883C224.58 288.225 220.942 288.589 217.652 288.537Z" fill="#E28242"/>
<path d="M220.545 286.458C220.458 285.991 218.639 286.199 217.652 286.199H214.881C214.361 286.805 214.275 287.983 217.704 288.017C221.133 288.052 220.631 286.943 220.545 286.458Z" fill="#E28242"/>
<path d="M210.514 278.405H212.056C212.922 278.405 214.134 278.266 214.151 278.561C214.169 278.855 214.463 279.461 212.333 279.496C210.202 279.531 210.064 278.751 210.514 278.405Z" fill="#F7AA77"/>
<path d="M211.794 280.934C211.413 280.83 211.431 281.089 211.431 281.089C211.431 281.089 211.327 281.211 211.69 281.315C212.054 281.419 212.019 281.245 212.019 281.245C212.019 281.245 212.175 281.037 211.794 280.934Z" fill="#E27124"/>
<path d="M211.192 280.033C211.192 280.033 211.019 279.981 211.088 280.362C211.158 280.743 211.296 280.622 211.296 280.622C211.296 280.622 211.556 280.674 211.487 280.275C211.417 279.877 211.192 280.033 211.192 280.033Z" fill="#E27124"/>
<path d="M212.613 280.068C212.613 280.068 212.596 279.825 212.232 279.998C211.869 280.171 212.076 280.345 212.076 280.345C212.076 280.345 212.076 280.518 212.423 280.345C212.769 280.171 212.613 280.068 212.613 280.068Z" fill="#E27124"/>
<path d="M213.286 280.552C213.286 280.552 213.182 280.414 212.992 280.743C212.801 281.072 212.992 281.089 212.992 281.089C212.992 281.089 213.148 281.297 213.356 280.934C213.564 280.57 213.286 280.552 213.286 280.552Z" fill="#E27124"/>
<path d="M213.322 279.305C213.183 278.942 212.993 279.115 212.993 279.115C212.993 279.115 212.819 279.115 212.958 279.461C213.096 279.808 213.218 279.686 213.218 279.686C213.218 279.686 213.478 279.686 213.322 279.305Z" fill="#E27124"/>
<path d="M223.401 284.727C223.019 284.623 223.037 284.882 223.037 284.882C223.037 284.882 222.933 285.021 223.297 285.125C223.66 285.229 223.626 285.038 223.626 285.038C223.626 285.038 223.782 284.848 223.401 284.727Z" fill="#E27124"/>
<path d="M222.795 283.826C222.795 283.826 222.622 283.791 222.691 284.155C222.761 284.519 222.899 284.432 222.899 284.432C222.899 284.432 223.159 284.467 223.09 284.086C223.021 283.705 222.795 283.826 222.795 283.826Z" fill="#E27124"/>
<path d="M224.213 283.878C224.213 283.878 224.196 283.618 223.832 283.791C223.469 283.965 223.676 284.138 223.676 284.138C223.676 284.138 223.676 284.311 224.023 284.155C224.369 283.999 224.213 283.878 224.213 283.878Z" fill="#E27124"/>
<path d="M224.893 284.345C224.893 284.345 224.789 284.207 224.598 284.536C224.408 284.865 224.598 284.882 224.598 284.882C224.598 284.882 224.754 285.09 224.962 284.744C225.17 284.397 224.893 284.345 224.893 284.345Z" fill="#E27124"/>
<path d="M224.925 283.116C224.786 282.735 224.596 282.908 224.596 282.908C224.596 282.908 224.422 282.908 224.561 283.254C224.7 283.601 224.821 283.479 224.821 283.479C224.821 283.479 225.081 283.479 224.925 283.116Z" fill="#E27124"/>
<path d="M214.584 288.952C214.203 288.849 214.221 289.091 214.221 289.091C214.221 289.091 214.117 289.23 214.48 289.333C214.844 289.437 214.809 289.264 214.809 289.264C214.809 289.264 214.965 289.056 214.584 288.952Z" fill="#E27124"/>
<path d="M213.979 288.035C213.979 288.035 213.806 288 213.875 288.364C213.944 288.728 214.083 288.641 214.083 288.641C214.083 288.641 214.343 288.693 214.256 288.295C214.17 287.896 213.979 288.035 213.979 288.035Z" fill="#E27124"/>
<path d="M215.396 288.086C215.396 288.086 215.379 287.827 215.015 288.017C214.651 288.208 214.842 288.364 214.842 288.364C214.842 288.364 214.859 288.537 215.188 288.364C215.517 288.19 215.396 288.086 215.396 288.086Z" fill="#E27124"/>
<path d="M216.076 288.572C216.076 288.572 215.972 288.433 215.782 288.762C215.591 289.091 215.782 289.108 215.782 289.108C215.782 289.108 215.938 289.299 216.128 288.953C216.319 288.606 216.076 288.572 216.076 288.572Z" fill="#E27124"/>
<path d="M216.109 287.324C215.97 286.961 215.78 287.134 215.78 287.134C215.78 287.134 215.607 287.116 215.728 287.48C215.849 287.844 215.988 287.705 215.988 287.705C215.988 287.705 216.248 287.705 216.109 287.324Z" fill="#E27124"/>
<path d="M210.641 282.371C210.641 282.371 210.589 283.497 210.572 286.389C210.554 289.282 210.572 291.88 210.572 291.88C210.572 291.88 210.485 292.364 210.433 289.541C210.381 286.718 210.433 283.618 210.433 283.618C210.433 283.618 210.381 282.371 210.641 282.371Z" fill="#E27A34"/>
<path d="M242.503 267.32C242.503 267.32 240.564 262.627 239.559 254.954C238.554 247.281 237.238 242.432 237.723 242.137C238.208 241.843 240.91 246.64 242.798 255.872C244.686 265.103 243.924 267.563 243.924 267.563" fill="#3C522E"/>
<path d="M248.223 267.32C248.223 267.32 247.582 252.702 247.808 245.896C248.033 239.089 248.223 236.474 248.57 236.37C248.916 236.266 250.648 242.293 251.566 254.486C252.484 266.679 250.163 267.459 250.163 267.459" fill="#3C522E"/>
<path d="M256.57 267.32C256.57 267.32 256.674 262.211 257.124 256.824C257.574 251.438 259.999 244.856 260.449 244.787C260.9 244.718 262.493 250.797 261.211 258.21C259.93 265.623 259.012 267.32 259.012 267.32" fill="#3C522E"/>
<path d="M263.634 267.597C263.634 267.597 264.864 263.215 266.353 260.843C267.843 258.47 269.921 256.617 270.389 256.824C270.856 257.032 266.526 264.012 265.626 267.805" fill="#3C522E"/>
<path d="M240.288 267.026C240.288 267.026 240.132 263.406 239.249 260.756C238.365 258.106 236.495 254.919 236.01 254.954C235.525 254.988 235.161 258.418 236.01 261.57C236.858 264.722 238.781 267.32 238.781 267.32" fill="#4D7F3A"/>
<path d="M240.291 268.134C239.534 266.766 238.957 265.304 238.576 263.787C237.883 261.137 237.52 257.725 237.866 257.5C238.213 257.275 241.053 258.539 241.694 261.761C242.073 263.793 242.073 265.877 241.694 267.909" fill="#83BB62"/>
<path d="M246.505 258.989C245.812 253.101 242.591 248.84 242.019 249.117C241.448 249.394 240.79 252.581 242.106 259.162C243.422 265.744 245.483 267.32 245.483 267.32H246.505C246.505 267.32 247.198 264.878 246.505 258.989Z" fill="#83BB62"/>
<path d="M250.751 258.816C250.474 258.816 249.608 259.924 249.435 262.8C249.262 265.675 249.435 267.32 249.435 267.32L250.959 267.597C250.959 267.597 252.258 266.956 252.552 263.839C252.847 260.721 251.046 258.816 250.751 258.816Z" fill="#83BB62"/>
<path d="M264.259 256.149C263.792 256.236 262.856 259.093 262.51 262.8C262.163 266.506 262.51 267.597 262.51 267.597H264.259C264.259 267.597 265.281 266.749 265.575 262.8C265.87 258.851 264.709 256.062 264.259 256.149Z" fill="#83BB62"/>
<path d="M252.845 267.32C252.845 267.32 251.338 257.673 251.338 250.139C251.338 242.605 252.221 239.227 252.568 239.141C252.914 239.054 254.317 243.73 254.75 253.222C255.183 262.713 253.971 267.32 253.971 267.32" fill="#4D7F3A"/>
<path d="M255.429 267.32C255.429 267.32 253.767 262.696 253.992 254.608C254.217 246.519 256.365 237.634 256.901 237.582C257.438 237.53 258.46 247.801 258.045 255.3C257.629 262.8 256.901 267.32 256.901 267.32" fill="#83BB62"/>
<path d="M246.781 267.32C246.781 267.32 245.569 264.081 245.708 259.613C245.846 255.144 246.972 246.363 247.388 246.328C247.803 246.294 250.089 253.655 249.916 258.816C249.743 263.977 248.738 267.32 248.738 267.32" fill="#4D7F3A"/>
<path d="M259.828 267.32C259.828 267.32 260.088 261.743 260.728 257.274C261.369 252.806 263.378 249.827 263.777 249.792C264.175 249.758 264.712 253.551 263.552 259.266C262.391 264.982 260.867 267.459 260.867 267.459" fill="#4D7F3A"/>
<path d="M237.549 266.853C237.549 266.853 266.491 266.437 266.75 266.853C267.01 267.268 263.979 291.516 263.546 291.741C263.113 291.966 240.684 291.707 240.338 291.274C239.991 290.841 236.735 267.303 237.549 266.853Z" fill="#D58303"/>
<path d="M263.515 284.709C263.515 283.098 260.224 284.051 252.084 284.224C243.943 284.397 240.705 284.64 240.705 284.64C238.869 287.758 240.653 290.581 252.447 290.459C264.242 290.338 263.515 286.303 263.515 284.709Z" fill="#C47206"/>
<path d="M252.082 283.497C258.854 283.809 259.01 281.055 258.888 280.016C258.767 278.976 255.892 279.669 252.446 279.6C248.999 279.531 246.765 279.6 246.765 279.6C245.725 280.708 245.327 283.185 252.082 283.497Z" fill="#C47206"/>
<path d="M238.695 267.545C238.695 267.545 239.162 267.58 240.808 267.545C242.453 267.511 244.41 267.06 244.445 267.563C244.48 268.065 245.224 269.572 242.245 269.658C239.266 269.745 237.69 269.537 238.695 267.545Z" fill="#FF970D"/>
<path d="M240.891 271.633C240.302 271.46 240.336 271.858 240.336 271.858C240.336 271.858 240.163 272.066 240.717 272.222C241.272 272.377 241.254 272.118 241.254 272.118C241.254 272.118 241.479 271.806 240.891 271.633Z" fill="#A05D05"/>
<path d="M239.959 270.23C239.959 270.23 239.682 270.161 239.786 270.732C239.89 271.304 240.115 271.165 240.115 271.165C240.115 271.165 240.513 271.234 240.409 270.628C240.305 270.022 239.959 270.23 239.959 270.23Z" fill="#A05D05"/>
<path d="M242.161 270.299C242.161 270.299 242.127 269.901 241.572 270.178C241.018 270.455 241.313 270.715 241.313 270.715C241.313 270.715 241.33 270.992 241.85 270.732C242.369 270.472 242.161 270.299 242.161 270.299Z" fill="#A05D05"/>
<path d="M243.2 271.044C243.2 271.044 243.044 270.836 242.75 271.338C242.455 271.841 242.732 271.875 242.732 271.875C242.732 271.875 242.992 272.187 243.304 271.633C243.616 271.079 243.2 271.044 243.2 271.044Z" fill="#A05D05"/>
<path d="M243.248 269.121C243.023 268.55 242.728 268.81 242.728 268.81C242.728 268.81 242.468 268.81 242.676 269.346C242.884 269.883 243.075 269.693 243.075 269.693C243.075 269.693 243.473 269.693 243.248 269.121Z" fill="#A05D05"/>
<path d="M258.217 279.617C257.628 279.461 257.663 279.86 257.663 279.86C257.663 279.86 257.49 280.068 258.061 280.223C258.633 280.379 258.581 280.119 258.581 280.119C258.581 280.119 258.823 279.79 258.217 279.617Z" fill="#A05D05"/>
<path d="M257.277 278.214C257.277 278.214 257.017 278.162 257.121 278.734C257.225 279.305 257.45 279.149 257.45 279.149C257.45 279.149 257.831 279.236 257.727 278.612C257.623 277.989 257.277 278.214 257.277 278.214Z" fill="#A05D05"/>
<path d="M259.494 278.301C259.494 278.301 259.46 277.902 258.905 278.162C258.351 278.422 258.628 278.716 258.628 278.716C258.628 278.716 258.646 278.976 259.165 278.734C259.685 278.491 259.494 278.301 259.494 278.301Z" fill="#A05D05"/>
<path d="M260.535 279.046C260.535 279.046 260.362 278.821 260.085 279.323C259.808 279.825 260.068 279.86 260.068 279.86C260.068 279.86 260.31 280.171 260.622 279.635C260.934 279.098 260.535 279.046 260.535 279.046Z" fill="#A05D05"/>
<path d="M260.589 277.123C260.364 276.534 260.07 276.811 260.07 276.811C260.07 276.811 259.793 276.794 260.001 277.348C260.208 277.903 260.416 277.695 260.416 277.695C260.416 277.695 260.815 277.695 260.589 277.123Z" fill="#A05D05"/>
<path d="M245.068 289.818C244.479 289.645 244.514 290.044 244.514 290.044C244.514 290.044 244.341 290.251 244.912 290.407C245.484 290.563 245.432 290.303 245.432 290.303C245.432 290.303 245.674 289.992 245.068 289.818Z" fill="#A05D05"/>
<path d="M244.134 288.416C244.134 288.416 243.874 288.346 243.978 288.918C244.082 289.49 244.307 289.351 244.307 289.351C244.307 289.351 244.688 289.42 244.584 288.814C244.48 288.208 244.134 288.416 244.134 288.416Z" fill="#A05D05"/>
<path d="M246.348 288.485C246.348 288.485 246.314 288.087 245.76 288.364C245.205 288.641 245.482 288.901 245.482 288.901C245.482 288.901 245.5 289.178 246.019 288.918C246.539 288.658 246.348 288.485 246.348 288.485Z" fill="#A05D05"/>
<path d="M247.389 289.23C247.389 289.23 247.216 289.022 246.939 289.524C246.662 290.026 246.922 290.061 246.922 290.061C246.922 290.061 247.164 290.373 247.476 289.836C247.788 289.299 247.389 289.23 247.389 289.23Z" fill="#A05D05"/>
<path d="M247.44 287.307C247.215 286.736 246.921 286.995 246.921 286.995C246.921 286.995 246.644 286.995 246.852 287.532C247.059 288.069 247.267 287.879 247.267 287.879C247.267 287.879 247.666 287.879 247.44 287.307Z" fill="#A05D05"/>
<path d="M237.413 270.316C236.98 270.386 237.829 274.906 237.829 274.906C237.829 274.906 238.66 280.362 239.353 285.818C240.045 291.273 240.08 290.632 240.08 290.632C240.08 290.632 239.768 288.225 238.902 282.094C238.036 275.963 237.413 270.316 237.413 270.316Z" fill="#B26509"/>
<path d="M266.754 267.805C266.754 267.805 266.459 270.957 265.853 275.738C265.247 280.518 264.779 284.19 264.779 284.19C264.779 284.19 264.814 284.865 265.247 281.678C265.68 278.491 266.425 272.048 266.425 272.048C266.425 272.048 267.152 267.892 266.754 267.805Z" fill="#B26509"/>
<path d="M268.276 292.572C268.726 291.429 268.328 286.684 268.328 286.684C268.328 286.684 268.588 280.951 268.432 279.531C269.09 279.513 269.471 279.479 269.454 279.375C269.402 278.855 256.984 278.768 256.984 278.768C256.984 278.768 233.723 277.331 234.295 278.82H235.455C235.299 279.583 235.369 282.094 235.334 286.095C235.317 289.507 235.317 291.152 235.334 291.81C234.606 291.914 234.225 292.07 234.295 292.278C234.364 292.486 245.535 292.174 252.463 292.278C259.391 292.382 269.523 293.352 269.454 292.832C269.454 292.728 269.004 292.642 268.276 292.572ZM260.43 286.32C260.43 286.32 260.69 280.57 260.517 279.15C263.686 279.323 266.579 279.513 268.172 279.531C268.016 280.362 268.103 282.839 268.068 286.718C268.034 290.338 268.051 291.966 268.051 292.555C266.198 292.399 262.872 292.313 260.344 292.261C260.846 291.221 260.43 286.32 260.43 286.32ZM235.611 291.758C235.975 290.373 235.594 286.025 235.594 286.025C235.594 286.025 235.871 280.102 235.698 278.803L243.318 278.768C243.197 279.669 243.266 282.129 243.232 285.904C243.197 289.316 243.214 290.962 243.214 291.62C240.08 291.55 237.204 291.568 235.611 291.758ZM243.492 291.62C243.873 290.303 243.492 285.852 243.492 285.852C243.492 285.852 243.751 280.31 243.595 278.768C246.384 278.768 249.363 278.768 251.874 278.803C251.701 279.565 251.788 282.077 251.753 286.077C251.718 289.767 251.736 291.377 251.736 291.932C249.294 291.81 246.297 291.689 243.492 291.62ZM251.944 291.949C252.429 290.823 252.013 286.025 252.013 286.025C252.013 286.025 252.273 280.119 252.099 278.803H252.463C254.871 278.838 257.659 278.976 260.274 279.115C260.119 279.946 260.205 282.423 260.17 286.337C260.136 290.252 260.153 291.724 260.153 292.243L256.984 292.191L251.944 291.949Z" fill="#883E21"/>
<path d="M93.0328 77.7672H93.016L28.1848 73.7576C28.1405 73.7553 28.0975 73.7414 28.0602 73.7173C28.0228 73.6932 27.9924 73.6598 27.972 73.6204C27.9507 73.5818 27.9395 73.5385 27.9395 73.4944C27.9395 73.4503 27.9507 73.407 27.972 73.3684L57.8732 21.7784C58.197 21.2235 58.6637 20.7656 59.2246 20.4524C59.7855 20.1392 60.4202 19.9821 61.0624 19.9976C61.7055 20.0079 62.3337 20.1925 62.88 20.5317C63.4264 20.871 63.8705 21.3522 64.1648 21.924L93.2624 77.3864C93.2831 77.426 93.2932 77.4702 93.2918 77.5149C93.2904 77.5595 93.2776 77.603 93.2545 77.6413C93.2315 77.6795 93.199 77.7112 93.1602 77.7332C93.1213 77.7553 93.0775 77.767 93.0328 77.7672V77.7672ZM28.6328 73.2648L92.5848 77.2212L63.7056 22.1648C63.45 21.6784 63.0689 21.2693 62.6019 20.9798C62.1349 20.6903 61.599 20.5311 61.0497 20.5185C60.5004 20.5059 59.9577 20.6405 59.478 20.9083C58.9982 21.1761 58.5988 21.5674 58.3212 22.0416L28.6328 73.2648Z" fill="#725943"/>
<path d="M47.7232 73.5112H47.6644C47.6312 73.5036 47.5999 73.4895 47.5722 73.4698C47.5445 73.45 47.521 73.425 47.503 73.3961C47.4851 73.3672 47.473 73.335 47.4675 73.3014C47.4621 73.2678 47.4633 73.2335 47.4712 73.2004L59.752 20.1992C59.7674 20.1321 59.8087 20.0738 59.8669 20.037C59.9252 20.0003 59.9956 19.9881 60.0628 20.0032C60.1301 20.0192 60.1885 20.0611 60.2252 20.1198C60.2618 20.1785 60.2739 20.2493 60.2588 20.3168L47.978 73.3096C47.9647 73.3671 47.9322 73.4184 47.8859 73.455C47.8396 73.4916 47.7822 73.5115 47.7232 73.5112V73.5112Z" fill="#725943"/>
<path d="M77.21 68.992L78.7388 73.4804L58.842 132.74L93.03 77.5068L91.2464 72.3156L77.21 68.992Z" fill="#CEAA85"/>
<path d="M32.046 68.992L27.902 73.4804H78.7388L93.03 77.5068L91.2464 72.3156L77.21 68.992H32.046Z" fill="#CEAA85"/>
<path d="M27.902 73.4804L58.842 132.74L78.7388 73.4804H27.902Z" fill="#FFDFBB"/>
<path d="M44.1112 67.8692C44.1112 67.8692 32.5668 53.7208 14.7308 55.44C14.7308 55.44 28.5152 49.56 46.8664 67.8776L44.1112 67.8692Z" fill="#314329"/>
<path d="M57.2796 67.8692C57.2796 67.8692 62.8068 25.1776 42.2156 7C42.2156 7 63.4956 18.242 59.4888 67.8692H57.2796Z" fill="#314329"/>
<path d="M61.4908 67.8692C61.4908 67.8692 60.718 48.8712 80.6176 48.8712C80.6176 48.8712 62.9132 47.9024 62.9132 67.8692H61.4908Z" fill="#7F9F69"/>
<path d="M96.3844 36.2712C96.3844 36.2712 79.3324 43.4448 67.0488 67.8692H68.922C68.922 67.8692 78.68 45.7044 96.3844 36.2712Z" fill="#465B31"/>
<path d="M40.6644 25.3512C40.6644 25.3512 41.8712 33.278 46.0908 39.2224C50.3104 45.1668 54.4488 52.6624 54.4488 67.8692H52.2956C52.2956 67.8692 52.8976 52.6064 45.1444 40.8604C39.4576 32.2448 40.6644 25.3512 40.6644 25.3512Z" fill="#7F9F69"/>
<path d="M93.7356 22.9376C93.7356 22.9376 87.5756 35 80.6176 39.9112C73.6596 44.8224 64.1844 55.8488 64.1844 67.8692H65.9064C65.9064 67.8692 66.7464 54.1128 80.6176 41.8936C92.358 31.5532 93.7356 22.9376 93.7356 22.9376Z" fill="#314329"/>
<path d="M65.6488 45.4048C65.6488 45.4048 59.4888 52.6624 59.4888 67.8692H61.4908C61.4908 67.8692 59.6176 60.9756 65.6488 45.4048Z" fill="#465B31"/>
<path d="M70.2576 67.8692C70.2576 67.8692 72.6264 59.556 76.9776 59.4244C76.9776 59.4244 71.96 63.3024 71.96 67.8692H70.2576Z" fill="#314329"/>
<path d="M50.96 67.8692C50.96 67.8692 47.2108 52.36 37.2596 55.9804C37.2596 55.9804 45.92 62.44 45.92 67.8692H50.96Z" fill="#465B31"/>
<path d="M33.2556 69.678C33.2556 69.678 30.6068 55.44 40.2332 55.44C40.2332 55.44 42.0196 55.496 43.0752 56.0644C43.0752 56.056 34.3532 57.7892 33.2556 69.678Z" fill="#7F9F69"/>
<path d="M52.2956 67.8692C52.2956 67.8692 51.4332 62.5492 58.6712 62.5492C58.6712 62.5492 56.518 64.806 56.518 67.8692H52.2956Z" fill="#465B31"/>
<path d="M54.0904 63.7168C53.8524 63.8624 58.4108 62.3168 60.48 66.5336C60.48 66.5336 60.2952 62.4904 58.6712 62.5548C57.0472 62.6192 55.8712 62.6136 54.0904 63.7168Z" fill="#7F9F69"/>
<path d="M76.3224 67.8692C76.3224 67.8692 85.2824 50.078 125.269 50.078C125.269 50.078 86.4976 51.8 79.52 67.8692H76.3224Z" fill="#314329"/>
<path d="M62.9132 67.8692C62.9132 67.8692 63.77 65.8224 66.654 64.5428C68.3331 63.8411 70.1407 63.4997 71.96 63.5404C71.96 63.5404 67.438 65.6068 67.438 67.8692H62.9132Z" fill="#465B31"/>
<path d="M78.9376 73.4272C78.9376 73.4272 76.6976 62.3868 66.654 64.5428C66.654 64.5428 77.0644 58.3688 78.9376 73.4272Z" fill="#7F9F69"/>
<path d="M74.7824 67.8692C76.7437 65.9722 79.1161 64.5531 81.7152 63.7224C84.5686 62.7947 87.6174 62.642 90.5492 63.28C90.5492 63.28 82.7092 63.6972 80.6176 67.858L74.7824 67.8692Z" fill="#465B31"/>
<path d="M112.689 82.2136C112.689 82.2136 101.469 74.158 96.9248 69.678C92.3804 65.198 84.9772 63.1316 82.334 63.5404C82.334 63.5404 90.7788 59.9312 98.294 68.7736C105.809 77.616 112.689 82.2136 112.689 82.2136Z" fill="#7F9F69"/>
<path d="M60.9028 25.27C62.2868 25.27 63.4088 24.148 63.4088 22.764C63.4088 21.38 62.2868 20.258 60.9028 20.258C59.5188 20.258 58.3968 21.38 58.3968 22.764C58.3968 24.148 59.5188 25.27 60.9028 25.27Z" fill="#CEAA85"/>
<path d="M76.2328 66.6904L83.1908 68.3032L84.0028 70.602L77.21 68.992L76.2328 66.6904Z" fill="#CEAA85"/>
<path d="M60.9028 25.1244C62.0688 25.1244 63.014 24.1792 63.014 23.0132C63.014 21.8472 62.0688 20.902 60.9028 20.902C59.7368 20.902 58.7916 21.8472 58.7916 23.0132C58.7916 24.1792 59.7368 25.1244 60.9028 25.1244Z" fill="#FFDFBB"/>
<path d="M37.9988 68.992L39.6872 66.6904H76.2328L77.21 68.992H37.9988Z" fill="#FFDFBB"/>
<path d="M77.21 68.992L78.7388 73.4804L93.03 77.5068L91.2464 72.3156L77.21 68.992Z" fill="#725943"/>
<path d="M94.36 79.2736C94.2013 79.2699 94.0446 79.2367 93.898 79.1756C93.3156 78.9488 92.9404 78.6296 92.778 78.232C92.7096 78.0596 92.6865 77.8726 92.7108 77.6888L78.68 73.7296C78.6139 73.711 78.5579 73.667 78.5243 73.6071C78.4907 73.5472 78.4822 73.4765 78.5008 73.4104C78.5194 73.3443 78.5634 73.2883 78.6233 73.2547C78.6832 73.2211 78.7539 73.2126 78.82 73.2312L93.114 77.2576C93.1499 77.2695 93.1831 77.2885 93.2115 77.3135C93.2399 77.3385 93.2629 77.369 93.2792 77.4032C93.2958 77.4372 93.3044 77.4746 93.3044 77.5124C93.3044 77.5502 93.2958 77.5876 93.2792 77.6216C93.2507 77.6899 93.236 77.7632 93.236 77.8372C93.236 77.9112 93.2507 77.9845 93.2792 78.0528C93.4548 78.3577 93.7419 78.5826 94.08 78.68C94.2704 78.7556 94.416 78.764 94.472 78.7052C94.528 78.6464 94.5728 78.316 94.4328 77.9772C94.2928 77.6384 94.0352 77.3248 93.7412 77.322C93.6721 77.322 93.6059 77.2946 93.5571 77.2457C93.5082 77.1969 93.4808 77.1307 93.4808 77.0616C93.4808 76.9925 93.5082 76.9263 93.5571 76.8775C93.6059 76.8286 93.6721 76.8012 93.7412 76.8012V76.8012C94.3012 76.8012 94.7156 77.3108 94.9088 77.7784C95.0796 78.1956 95.1496 78.7528 94.8388 79.0692C94.7771 79.1341 94.7028 79.1856 94.6205 79.2208C94.5382 79.2559 94.4495 79.2739 94.36 79.2736V79.2736Z" fill="#725943"/>
<path d="M78.0276 75.8016C77.9239 75.7998 77.8218 75.7759 77.728 75.7316C77.6199 75.6862 77.5245 75.615 77.4503 75.5242C77.3761 75.4334 77.3253 75.3258 77.3024 75.2108C77.1624 74.4968 78.0696 73.4972 78.2516 73.3012C78.2878 73.2657 78.333 73.2407 78.3823 73.2288C78.4316 73.217 78.4832 73.2188 78.5316 73.234C78.5786 73.2492 78.6202 73.2777 78.6515 73.3159C78.6827 73.3541 78.7024 73.4005 78.708 73.4496C78.7612 73.878 78.8928 75.306 78.3636 75.6896C78.2667 75.7623 78.1488 75.8016 78.0276 75.8016V75.8016ZM78.2292 74.1468C77.9744 74.4996 77.77 74.8888 77.812 75.11C77.812 75.1576 77.8428 75.2108 77.9436 75.2584C77.9688 75.2584 78.022 75.292 78.0472 75.278C78.1844 75.1744 78.2404 74.6844 78.2292 74.1468V74.1468Z" fill="#725943"/>
<path d="M58.842 133C58.7947 132.999 58.7484 132.986 58.708 132.962C58.6676 132.937 58.6346 132.902 58.6124 132.86L27.7508 74.1188C26.4236 74.1608 25.8552 73.7296 25.7656 73.2956C25.7383 73.1272 25.7744 72.9547 25.867 72.8114C25.9596 72.6681 26.102 72.5643 26.2668 72.52C26.8268 72.3128 27.6052 72.7412 28.1512 73.136C28.21 73.1752 28.2548 73.2116 28.2912 73.2396L78.4 73.22L63.686 22.12C63.6728 22.0862 63.6667 22.0501 63.6683 22.0138C63.6698 21.9776 63.6789 21.942 63.695 21.9095C63.711 21.877 63.7337 21.8482 63.7616 21.8249C63.7894 21.8017 63.8218 21.7845 63.8567 21.7745C63.8916 21.7645 63.9281 21.762 63.9641 21.7669C64 21.7719 64.0345 21.7843 64.0654 21.8034C64.0962 21.8225 64.1228 21.8478 64.1433 21.8777C64.1638 21.9077 64.1778 21.9415 64.1844 21.9772L78.988 73.4076C78.998 73.4466 78.9993 73.4874 78.9921 73.527C78.9848 73.5666 78.9691 73.6042 78.946 73.6372C78.9217 73.6691 78.8904 73.6951 78.8544 73.713C78.8185 73.731 78.779 73.7405 78.7388 73.7408L28.2016 73.7576C28.1821 73.7604 28.1623 73.7604 28.1428 73.7576L58.8 132.079L77.602 75.4124C77.6277 75.3525 77.6749 75.3043 77.7343 75.2775C77.7937 75.2507 77.861 75.2472 77.9229 75.2676C77.9848 75.288 78.0368 75.3308 78.0687 75.3877C78.1005 75.4446 78.1098 75.5114 78.0948 75.5748L59.08 132.821C59.065 132.87 59.0356 132.913 58.9956 132.945C58.9557 132.977 58.907 132.996 58.856 133H58.842ZM26.6 72.9848C26.5506 72.9843 26.5014 72.9918 26.4544 73.0072C26.362 73.0408 26.264 73.108 26.2836 73.192C26.3088 73.318 26.6644 73.668 27.8964 73.5924L27.846 73.556C27.49 73.2563 27.0594 73.0589 26.6 72.9848V72.9848Z" fill="#725943"/>
<path d="M58.842 133C58.7946 132.999 58.7484 132.985 58.7076 132.961C58.6787 132.943 58.6535 132.92 58.6336 132.892C58.6137 132.865 58.5995 132.834 58.5916 132.8C58.5838 132.767 58.5826 132.733 58.5881 132.7C58.5936 132.666 58.6057 132.634 58.6236 132.605L92.344 78.12C92.3811 78.0613 92.4401 78.0198 92.5078 78.0046C92.5755 77.9894 92.6465 78.0017 92.7052 78.0388C92.7639 78.0759 92.8054 78.1348 92.8206 78.2026C92.8358 78.2703 92.8235 78.3413 92.7864 78.4L59.0632 132.877C59.0399 132.914 59.0073 132.946 58.9686 132.967C58.9299 132.989 58.8863 133 58.842 133Z" fill="#725943"/>
<path d="M41.902 88.0068C41.902 88.0068 47.348 104.247 50.162 108.424C50.162 108.424 43.3552 90.1852 41.902 88.0068Z" fill="#725943"/>
<path d="M46.6228 94.3208C46.6228 94.3208 50.2964 105.283 52.1948 108.102C52.1948 108.102 47.6 95.7908 46.6228 94.3208Z" fill="#725943"/>
<path d="M51.9624 99.6296C51.9624 99.6296 54.1016 106.014 55.2076 107.654C55.2076 107.654 52.5336 100.484 51.9624 99.6296Z" fill="#725943"/>
<path d="M55.4568 101.455C55.4568 101.455 56.9744 105.98 57.7584 107.142C57.7584 107.142 55.8628 102.063 55.4568 101.455Z" fill="#725943"/>
<path d="M47.7232 106.156C47.7232 106.156 56.56 105.165 58.3968 104.3C58.3968 104.3 48.8264 105.61 47.7232 106.156Z" fill="#725943"/>
<path d="M46.7936 104.3C46.7936 104.3 53.8636 103.505 55.3364 102.813C55.3364 102.813 47.6756 103.863 46.7936 104.3Z" fill="#725943"/>
<path d="M45.5308 102.026C45.5308 102.026 50.1284 101.511 51.0832 101.06C51.0832 101.06 46.102 101.744 45.5308 102.026Z" fill="#725943"/>
<path d="M44.1084 99.4868C44.1084 99.4868 47.1716 99.1424 47.8072 98.8428C47.8072 98.84 44.4892 99.2992 44.1084 99.4868Z" fill="#725943"/>
</svg>
