<svg width="632" height="485" viewBox="0 0 632 485" fill="none" xmlns="http://www.w3.org/2000/svg">
<g clip-path="url(#clip0_1686_1726)">
<path d="M428.025 72.9299C409.847 85.7361 409.847 97.4571 400.267 114.387L427.288 113.953L428.025 72.9299Z" fill="#DE375B"/>
<path d="M479.002 193.905C464.719 235.557 422.362 316.951 404.385 393.834C401.923 404.073 360.798 398.866 362.029 388.627C367.939 333.959 393.304 245.449 412.019 195.12C412.674 193.253 414.19 191.592 416.33 190.399C418.469 189.205 421.111 188.546 423.84 188.525C443.54 186.616 479.002 193.905 479.002 193.905Z" fill="#023271"/>
<path d="M416.002 214.79C427.33 225.244 453.928 235.35 455.406 239.706C464.764 264.099 490.623 320.725 510.326 389.549C513.035 399.132 552.439 399.132 550.961 389.549C539.386 309.4 520.669 225.767 513.281 195.798C512.296 191.616 507.617 189.177 500.228 187.957C479.295 184.647 436.689 187.783 436.689 187.783L416.002 214.79Z" fill="#023271"/>
<path d="M428.015 72.9301C416.716 100.279 430.963 122.201 412.294 177.116C402.222 206.853 528.24 207.07 516.94 177.767C495.814 122.853 485.251 76.8371 507.36 69.8913C499.499 66.4185 487.217 61.6433 478.865 58.1704C475.671 66.8526 460.932 72.496 453.563 67.2867V61.6433C453.563 61.6433 435.63 67.5037 428.015 72.9301Z" fill="#DE375B"/>
<path d="M453.574 61.6433C453.574 61.6433 435.642 67.5037 428.027 72.9301C416.727 100.279 430.975 122.201 412.306 177.116C402.725 205.333 516.46 207.07 517.689 181.674C503.932 200.558 412.06 197.519 420.658 172.775C438.099 121.333 420.903 100.062 431.466 74.4495C438.505 70.3926 445.898 66.8362 453.574 63.8138V61.6433ZM478.876 58.1704C476.42 64.8991 464.629 68.372 457.259 67.7208L455.54 68.1549C462.418 73.1472 480.104 69.4572 483.052 61.4262C488.702 63.1627 503.687 68.589 507.371 69.8913C499.511 66.4185 487.228 61.6433 478.876 58.1704Z" fill="#CB3253"/>
<path d="M423.112 101.798C422.866 114.387 423.603 128.713 419.918 148.248H455.292C456.79 148.248 458.227 147.722 459.287 146.786C460.346 145.849 460.941 144.58 460.941 143.256V106.79C460.941 105.466 460.346 104.197 459.287 103.26C458.227 102.324 456.79 101.798 455.292 101.798H423.112Z" fill="#B82E4B"/>
<path d="M452.834 99.6277H384.789C381.669 99.6277 379.139 101.863 379.139 104.62V140.998C379.139 143.755 381.669 145.99 384.789 145.99H452.834C455.954 145.99 458.483 143.755 458.483 140.998V104.62C458.483 101.863 455.954 99.6277 452.834 99.6277Z" fill="#899999"/>
<path d="M419.671 99.6277L458.729 108.961V104.62C458.729 103.296 458.134 102.026 457.074 101.09C456.015 100.154 454.578 99.6277 453.079 99.6277H419.671ZM384.789 99.6277C383.291 99.6277 381.854 100.154 380.794 101.09C379.734 102.026 379.139 103.296 379.139 104.62V109.395L458.729 128.062V113.736L398.791 99.6277H384.789Z" fill="#9CA9A9"/>
<path d="M379.63 102.884C379.325 103.424 379.157 104.016 379.139 104.62V141.085C379.2 142.392 379.814 143.631 380.861 144.556C381.908 145.481 383.31 146.024 384.789 146.077H453.079C454.087 146.07 455.073 145.824 455.937 145.366C456.801 144.908 457.51 144.255 457.992 143.473C448.412 146.729 405.423 144.124 390.93 141.085C380.859 139.132 380.122 120.031 379.63 102.884Z" fill="#7B8989"/>
<path d="M387.248 128.93C384.301 127.628 378.159 130.015 376.685 132.837C373.001 139.132 376.44 149.55 383.809 150.201C386.757 150.636 390.933 147.163 391.67 144.775C392.407 142.388 392.898 131.318 387.248 128.93Z" fill="#FDC097"/>
<path d="M477.646 41.24L453.572 56.8679V67.2865C460.941 72.4958 475.68 66.8524 478.874 58.1702L477.646 41.24Z" fill="#FDC097"/>
<path d="M447.679 31.4727C447.679 31.4727 428.764 29.3022 430.238 14.9766C430.975 7.59673 438.099 10.8525 443.012 8.89905C447.925 6.94556 447.188 0.868045 456.031 -0.000171818C464.874 -0.868389 463.646 3.03859 467.577 4.12386C471.507 5.20913 478.385 2.82153 482.07 5.64324C485.755 8.46494 483.052 11.9378 485.263 14.5425C487.474 17.1471 492.387 15.8448 493.861 18.8835C495.335 21.9223 489.439 27.3487 489.439 30.1704C489.439 32.9921 492.878 35.8138 491.404 38.4184C489.931 41.0231 484.772 42.3254 482.07 44.9301C480.51 46.6659 479.19 48.5605 478.139 50.5735L447.679 31.4727Z" fill="#000B30"/>
<path d="M445.954 27.3486C445.954 27.3486 442.27 48.4029 448.902 55.7827C455.535 63.1626 475.923 55.7827 477.152 43.8448C477.152 42.5424 478.625 44.93 480.591 44.2789C482.556 43.6277 485.504 29.0851 479.362 30.6045C477.643 31.0386 477.397 33.2091 474.941 33.4262C472.484 33.6432 477.397 25.3952 471.747 27.3486C466.097 29.3021 445.954 27.3486 445.954 27.3486Z" fill="#FDC097"/>
<path d="M476.661 116.558L467.818 109.178C464.133 106.139 458.238 107.225 451.114 108.961C443.99 110.697 444.236 123.07 449.886 127.628C455.536 132.186 458.483 125.457 461.923 126.542C464.613 127.821 467.025 129.511 469.046 131.535L476.661 116.558Z" fill="#FDC097"/>
<path d="M471.506 140.868C484.279 149.55 496.562 156.279 512.283 165.395C511.055 162.356 510.072 159.101 509.09 156.062C507.562 155.903 506.07 155.537 504.668 154.977C493.138 151.203 482.035 146.479 471.506 140.868Z" fill="#89102A"/>
<path d="M531.68 140.832L531.68 140.832L531.679 140.843C531.445 145.497 527.974 150.033 522.878 152.857C517.797 155.673 511.19 156.731 504.831 154.505L504.83 154.504C496.723 151.682 479.086 145.187 467.591 138.272C466.62 137.655 465.969 137.161 465.561 136.728C465.16 136.301 465.028 135.972 465.018 135.676C465.007 135.361 465.13 134.986 465.443 134.458C465.754 133.935 466.211 133.329 466.797 132.553L466.806 132.541C469.164 129.416 473.197 124.035 475.921 112.549L475.922 112.544C475.956 112.394 476.025 112.299 476.131 112.227C476.25 112.146 476.442 112.077 476.735 112.049C477.327 111.993 478.181 112.117 479.248 112.408C481.367 112.985 484.127 114.162 486.885 115.489C489.637 116.813 492.361 118.273 494.398 119.403C495.416 119.968 496.262 120.45 496.853 120.791C497.149 120.961 497.38 121.096 497.538 121.188C497.617 121.234 497.677 121.27 497.718 121.293L497.764 121.32L497.775 121.327L497.778 121.329L497.779 121.329C497.779 121.329 497.779 121.329 498.034 120.899L497.779 121.329L498.772 121.918L498.522 120.791C495.939 109.164 493.625 97.6782 494.264 88.5114C494.583 83.9357 495.636 79.9823 497.723 76.8895C499.763 73.8653 502.818 71.6252 507.244 70.4407C521.509 82.5646 533.871 110.496 531.68 140.832Z" fill="#DE375B" stroke="#CB3253"/>
</g>
<rect x="46" y="220" width="586" height="27" rx="13.5" fill="#C79977"/>
<mask id="mask0_1686_1726" style="mask-type:alpha" maskUnits="userSpaceOnUse" x="86" y="246" width="506" height="239">
<rect x="86" y="246" width="506" height="239" fill="#463A4D"/>
</mask>
<g mask="url(#mask0_1686_1726)">
<rect x="86" y="246" width="506" height="239" fill="#463A4D"/>
<path d="M77 271H408.5C493.276 271 562 339.724 562 424.5C562 509.276 493.276 578 408.5 578H77V271Z" fill="#514657"/>
</g>
<mask id="mask1_1686_1726" style="mask-type:alpha" maskUnits="userSpaceOnUse" x="218" y="90" width="144" height="130">
<path fill-rule="evenodd" clip-rule="evenodd" d="M218 94C218 92.1144 218 91.1716 218.586 90.5858C219.172 90 220.114 90 222 90H358C359.886 90 360.828 90 361.414 90.5858C362 91.1716 362 92.1144 362 94V182C362 183.886 362 184.828 361.414 185.414C360.828 186 359.886 186 358 186H300V214H307C309.761 214 312 216.239 312 219V220H269V219C269 216.239 271.239 214 274 214H281V186H222C220.114 186 219.172 186 218.586 185.414C218 184.828 218 183.886 218 182V94Z" fill="#656B7B"/>
</mask>
<g mask="url(#mask1_1686_1726)">
<path fill-rule="evenodd" clip-rule="evenodd" d="M218 94C218 92.1144 218 91.1716 218.586 90.5858C219.172 90 220.114 90 222 90H358C359.886 90 360.828 90 361.414 90.5858C362 91.1716 362 92.1144 362 94V182C362 183.886 362 184.828 361.414 185.414C360.828 186 359.886 186 358 186H300V214H307C309.761 214 312 216.239 312 219V220H269V219C269 216.239 271.239 214 274 214H281V186H222C220.114 186 219.172 186 218.586 185.414C218 184.828 218 183.886 218 182V94Z" fill="#656B7B"/>
<path d="M212 102H300C323.196 102 342 120.804 342 144C342 167.196 323.196 186 300 186H212V102Z" fill="#757988"/>
</g>
<g filter="url(#filter0_d_1686_1726)">
<path fill-rule="evenodd" clip-rule="evenodd" d="M272 160C270.895 160 270 160.895 270 162V175C270 176.105 270.895 177 272 177H281L281 197H300V177H308C309.105 177 310 176.105 310 175V162C310 160.895 309.105 160 308 160H272Z" fill="#656B7B"/>
</g>
<path d="M52.6994 351.493C51.6961 351.493 49.9936 394.178 49.9936 394.178C49.9936 394.178 48.8079 406.095 47.835 418.256C46.3453 413.027 38.4103 390.347 34.1844 375.997C29.4112 359.762 25.8845 346.294 25.8845 346.294C24.8508 346.689 26.0669 350.155 27.4046 354.411C28.7423 358.668 37.1334 387.428 39.5656 394.938C41.7241 401.656 46.5277 416.219 47.7742 418.925C46.8013 431.451 46.1021 444.037 47.1966 443.977C47.1966 443.977 48.291 419.594 49.9936 399.741C51.6961 379.888 53.7026 351.493 52.6994 351.493Z" fill="#4D7F3A"/>
<path d="M26.466 353.955C26.466 353.955 25.8276 346.963 15.7948 342.281C5.76204 337.599 0.441635 339.453 0.137612 340C-0.166412 340.548 3.42106 347.236 12.1769 350.611C20.9328 353.986 26.5876 354.594 26.466 353.955Z" fill="#83BB62"/>
<path d="M26.0106 353.712C23.6977 351.307 21.117 349.175 18.3188 347.358C13.5153 344.226 9.07653 342.463 8.92452 342.737C8.77251 343.01 14.1841 344.926 18.5621 347.875C22.94 350.824 25.737 354.442 26.0106 353.712Z" fill="#4D7F3A"/>
<path d="M0.138045 341.065C0.138045 341.065 3.39109 347.084 11.995 350.55C20.5988 354.016 24.6727 354.168 24.6727 354.168C24.6727 354.168 25.2504 354.685 18.045 352.982C10.8397 351.28 5.27604 347.358 2.23581 344.348C-0.804427 341.338 0.138045 341.065 0.138045 341.065Z" fill="#6E9952"/>
<path d="M38.2049 384.631C38.2049 384.631 33.9486 379.037 38.1745 368.792C42.4005 358.546 47.5689 356.327 48.1465 356.54C48.7241 356.752 50.6395 364.079 46.4744 372.501C42.3093 380.922 38.5394 385.179 38.2049 384.631Z" fill="#83BB62"/>
<path d="M38.3828 384.145C38.4392 380.81 38.8882 377.494 39.7205 374.264C41.1494 368.7 43.2168 364.383 43.5512 364.474C43.8856 364.566 41.119 369.673 39.9029 374.811C38.6868 379.949 39.0517 384.479 38.3828 384.145Z" fill="#4D7F3A"/>
<path d="M48.8699 357.33C48.8699 357.33 50.542 363.958 46.5593 372.318C42.5766 380.679 39.658 383.567 39.658 383.567C39.658 383.567 39.5972 384.327 43.7319 378.186C47.1237 373.114 49.1356 367.246 49.5692 361.161C49.782 356.904 48.8699 357.33 48.8699 357.33Z" fill="#6E9952"/>
<path d="M33.943 378.368C33.943 378.368 33.6085 371.345 23.7886 366.238C13.9686 361.13 8.55702 362.772 8.25299 363.319C7.94897 363.866 11.202 370.676 19.8059 374.416C28.4097 378.155 34.0342 379.007 33.943 378.368Z" fill="#3C522E"/>
<path d="M33.4929 378.095C31.2969 375.596 28.8177 373.362 26.1051 371.436C21.4231 368.092 17.0756 366.146 16.8932 366.42C16.7108 366.694 22.092 368.822 26.3179 371.953C30.5438 375.085 33.1888 378.794 33.4929 378.095Z" fill="#4D7F3A"/>
<path d="M8.19228 364.383C8.19228 364.383 11.1717 370.524 19.6236 374.355C28.0754 378.186 32.1493 378.52 32.1493 378.52C32.1493 378.52 32.6966 379.037 25.5824 377.031C19.7178 375.33 14.3958 372.135 10.138 367.758C7.21941 364.657 8.19228 364.383 8.19228 364.383Z" fill="#395B2B"/>
<path d="M30.7849 361.89C30.7849 361.89 27.015 355.962 32.001 346.111C36.987 336.261 42.3682 334.406 42.9458 334.68C43.5235 334.954 44.8004 342.372 39.9968 350.459C35.1932 358.546 31.0889 362.468 30.7849 361.89Z" fill="#3C522E"/>
<path d="M31.0261 361.404C31.3445 358.087 32.0589 354.821 33.1543 351.675C35.0088 346.233 37.4106 342.129 37.7146 342.22C38.0187 342.311 34.9176 347.206 33.2759 352.222C31.6342 357.239 31.6646 361.799 31.0261 361.404Z" fill="#4D7F3A"/>
<path d="M43.6118 335.501C43.6118 335.501 44.7367 342.25 40.1156 350.277C35.4944 358.303 32.3326 360.948 32.3326 360.948C32.3326 360.948 32.211 361.708 36.8321 355.901C41.4533 350.094 43.4294 343.618 43.9767 339.392C44.5239 335.167 43.6118 335.501 43.6118 335.501Z" fill="#395B2B"/>
<path d="M40.2696 398.768C40.2696 398.768 39.8744 391.776 30.024 386.729C20.1736 381.682 14.762 383.385 14.458 383.932C14.154 384.479 17.4678 391.259 26.1021 394.968C34.7364 398.677 40.3608 399.407 40.2696 398.768Z" fill="#83BB62"/>
<path d="M39.8149 398.525C37.5997 396.032 35.0997 393.808 32.3663 391.897C27.654 388.614 23.276 386.698 23.124 386.972C22.972 387.246 28.3228 389.343 32.5791 392.444C36.8355 395.545 39.5109 399.224 39.8149 398.525Z" fill="#4D7F3A"/>
<path d="M14.3949 384.996C14.3949 384.996 17.4351 391.137 25.9174 394.877C34.3996 398.616 38.4735 398.951 38.4735 398.951C38.4735 398.951 39.0208 399.468 31.8762 397.522C26.0048 395.861 20.6632 392.708 16.371 388.371C13.4524 385.27 14.3949 384.996 14.3949 384.996Z" fill="#6E9952"/>
<path d="M53.7067 380.466C53.7067 380.466 51.3049 373.869 58.3583 365.356C65.4116 356.843 71.0664 356.235 71.5529 356.6C72.0393 356.965 71.6745 364.535 65.1988 371.345C58.7231 378.155 53.8587 381.104 53.7067 380.466Z" fill="#3C522E"/>
<path d="M54.012 380.071C55.0702 376.909 56.4881 373.879 58.2379 371.041C61.2477 366.146 64.5312 362.65 64.7744 362.833C65.0176 363.015 60.9437 367.059 58.2379 371.588C55.5321 376.118 54.5896 380.588 54.012 380.071Z" fill="#4D7F3A"/>
<path d="M72.0085 357.573C72.0085 357.573 71.6436 364.414 65.3503 371.193C59.0571 377.973 55.4088 379.919 55.4088 379.919C55.4088 379.919 55.1352 380.618 60.9116 375.966C65.6516 372.127 69.3087 367.118 71.522 361.434C72.9813 357.451 72.0085 357.573 72.0085 357.573Z" fill="#395B2B"/>
<path d="M51.8838 404.21C51.8838 404.21 49.8468 397.491 57.3562 389.374C64.8656 381.257 70.49 380.922 70.9765 381.317C71.4629 381.713 70.6724 389.252 63.8623 395.728C57.0522 402.204 52.0358 404.849 51.8838 404.21Z" fill="#83BB62"/>
<path d="M52.2461 403.815C53.4546 400.712 55.0262 397.762 56.9281 395.029C60.1811 390.286 63.647 387.002 63.8902 387.185C64.1334 387.367 59.8467 391.198 56.8977 395.606C53.9486 400.015 52.7629 404.362 52.2461 403.815Z" fill="#4D7F3A"/>
<path d="M71.3994 382.32C71.3994 382.32 70.6698 389.131 64.0117 395.576C57.3535 402.021 53.6445 403.754 53.6445 403.754C53.6445 403.754 53.31 404.423 59.3297 400.106C64.266 396.519 68.1845 391.71 70.7002 386.151C72.3723 382.229 71.3994 382.32 71.3994 382.32Z" fill="#6E9952"/>
<path d="M49.2043 428.106C49.2043 428.106 48.2618 421.144 56.9873 414.334C65.7128 407.524 71.3372 408.132 71.7324 408.588C72.1277 409.044 70.1515 416.371 62.3989 421.631C54.6463 426.89 49.2347 428.745 49.2043 428.106Z" fill="#3C522E"/>
<path d="M49.5994 427.772C51.3088 424.906 53.3385 422.244 55.6494 419.837C59.6321 415.702 63.5844 412.996 63.7973 413.24C64.0101 413.483 59.1457 416.553 55.5278 420.414C51.9099 424.276 50.025 428.38 49.5994 427.772Z" fill="#4D7F3A"/>
<path d="M71.9814 409.622C71.9814 409.622 70.1573 416.219 62.5567 421.509C54.9561 426.799 51.0038 427.924 51.0038 427.924C51.0038 427.924 50.5782 428.532 57.2059 425.249C63.8336 421.965 68.3939 416.918 70.6741 413.301C72.9543 409.683 71.9814 409.622 71.9814 409.622Z" fill="#395B2B"/>
<path d="M45.3173 434.612C45.3173 434.612 45.9862 427.62 37.0479 421.144C28.1096 414.669 22.4852 415.459 22.09 415.915C21.6947 416.371 23.9445 423.668 31.9099 428.623C39.8753 433.579 45.2869 435.251 45.3173 434.612Z" fill="#3C522E"/>
<path d="M44.8898 434.309C43.0921 431.505 40.9695 428.923 38.5661 426.617C34.4314 422.604 30.3879 420.05 30.175 420.293C29.9622 420.536 34.9482 423.425 38.6877 427.164C42.4272 430.903 44.4945 434.947 44.8898 434.309Z" fill="#4D7F3A"/>
<path d="M21.8736 416.979C21.8736 416.979 23.941 423.516 31.724 428.532C39.507 433.549 43.4897 434.491 43.4897 434.491C43.4897 434.491 43.9457 435.099 37.2268 432.059C30.5079 429.019 25.7347 424.124 23.3329 420.597C20.9312 417.07 21.8736 416.979 21.8736 416.979Z" fill="#395B2B"/>
<path d="M89.3963 442.183C88.7274 441.575 5.42503 442.183 5.42503 442.183C3.7529 442.213 -3.39165 484.746 48.4443 484.746C98.0001 484.746 90.0955 442.791 89.3963 442.183Z" fill="#448078"/>
<path d="M16.0711 445.071C13.3349 441.636 4.48785 444.919 6.03837 454.496C7.58889 464.072 12.6053 464.528 15.4631 463.92C18.3209 463.312 16.8616 459.451 16.6488 454.587C16.436 449.723 16.0711 445.071 16.0711 445.071Z" fill="#3B6B63"/>
<path d="M32.4869 468.572C28.3218 466.748 21.5421 462.917 21.5421 462.917C15.7656 464.528 16.5865 476.051 29.2339 479.213C41.8812 482.375 44.6478 477.085 44.2222 474.166C43.7966 471.247 36.6216 470.396 32.4869 468.572Z" fill="#3B6B63"/>
<path d="M72.7075 472.129C72.0995 470.214 65.715 472.433 60.7594 472.828C55.8038 473.223 48.7809 474.166 48.7809 474.166C46.7743 478.513 48.5985 484.29 62.1579 481.766C75.7174 479.243 73.3156 474.044 72.7075 472.129Z" fill="#3B6B63"/>
<path d="M85.9037 444.554C85.9037 444.554 85.8429 446.53 85.9037 448.871C85.9645 451.212 85.9037 453.128 86.6638 453.28C87.4238 453.432 89.7952 453.371 89.3392 448.202C88.8832 443.034 86.5118 443.794 85.9037 444.554Z" fill="#61AFA2"/>
<path d="M16.0347 451.516C15.001 451.243 15.0618 451.942 15.0618 451.942C15.0618 451.942 14.7578 452.307 15.7611 452.58C16.7644 452.854 16.6732 452.398 16.6732 452.398C16.6732 452.398 17.0988 451.82 16.0347 451.516Z" fill="#274943"/>
<path d="M14.3963 449.054C14.3963 449.054 13.9402 448.962 14.1227 449.966C14.3051 450.969 14.7003 450.695 14.7003 450.695C14.7003 450.695 15.3692 450.847 15.1867 449.753C15.0043 448.658 14.3963 449.054 14.3963 449.054Z" fill="#274943"/>
<path d="M18.2833 449.206C18.2833 449.206 18.2225 448.506 17.2193 448.962C16.216 449.418 16.7632 449.935 16.7632 449.935C16.7632 449.935 16.7936 450.391 17.7057 449.935C18.6178 449.479 18.2833 449.206 18.2833 449.206Z" fill="#274943"/>
<path d="M20.1098 450.513C20.1098 450.513 19.8058 450.118 19.3193 450.999C18.8329 451.881 19.2889 451.942 19.2889 451.942C19.2889 451.942 19.7146 452.489 20.2618 451.547C20.8091 450.604 20.1098 450.513 20.1098 450.513Z" fill="#274943"/>
<path d="M20.2023 447.108C19.8071 446.104 19.2902 446.591 19.2902 446.591C19.2902 446.591 18.8038 446.561 19.1686 447.503C19.5335 448.445 19.8679 448.141 19.8679 448.141C19.8679 448.141 20.5671 448.141 20.2023 447.108Z" fill="#274943"/>
<path d="M32.697 480.976C31.6634 480.672 31.7242 481.371 31.7242 481.371C31.7242 481.371 31.4201 481.736 32.393 482.01C33.3659 482.283 33.3355 481.827 33.3355 481.827C33.3355 481.827 33.7611 481.25 32.697 480.976Z" fill="#274943"/>
<path d="M31.0569 478.483C31.0569 478.483 30.6009 478.392 30.7833 479.395C30.9657 480.398 31.361 480.125 31.361 480.125C31.361 480.125 32.0298 480.277 31.8474 479.213C31.665 478.149 31.0569 478.483 31.0569 478.483Z" fill="#274943"/>
<path d="M34.9174 478.635C34.9174 478.635 34.8566 477.936 33.8837 478.422C32.9108 478.909 33.4277 479.365 33.4277 479.365C33.4277 479.365 33.4581 479.821 34.3702 479.395C35.2822 478.97 34.9174 478.635 34.9174 478.635Z" fill="#274943"/>
<path d="M36.74 479.942C36.74 479.942 36.4664 479.578 35.98 480.459C35.4935 481.341 35.9496 481.402 35.9496 481.402C35.9496 481.402 36.3752 481.919 36.9225 480.976C37.4697 480.034 36.74 479.942 36.74 479.942Z" fill="#274943"/>
<path d="M36.8308 476.568C36.4355 475.534 35.9187 476.02 35.9187 476.02C35.9187 476.02 35.4627 476.021 35.8275 476.963C36.1923 477.905 36.5268 477.571 36.5268 477.571C36.5268 477.571 37.226 477.571 36.8308 476.568Z" fill="#274943"/>
<path d="M83.564 455.894C82.4999 455.59 82.5911 456.289 82.5911 456.289C82.5911 456.289 82.2871 456.654 83.26 456.928C84.2328 457.202 84.172 456.745 84.172 456.745C84.172 456.745 84.5977 456.168 83.564 455.894Z" fill="#274943"/>
<path d="M81.889 453.401C81.889 453.401 81.4329 453.31 81.6153 454.313C81.7977 455.317 82.193 455.043 82.193 455.043C82.193 455.043 82.8922 455.195 82.6794 454.131C82.4666 453.067 81.889 453.401 81.889 453.401Z" fill="#274943"/>
<path d="M85.7841 453.553C85.7841 453.553 85.7233 452.854 84.7504 453.34C83.7775 453.827 84.2944 454.283 84.2944 454.283C84.2944 454.283 84.3248 454.739 85.2369 454.313C86.1489 453.888 85.7841 453.553 85.7841 453.553Z" fill="#274943"/>
<path d="M87.6043 454.86C87.6043 454.86 87.3306 454.496 86.8138 455.377C86.297 456.259 86.7834 456.32 86.7834 456.32C86.7834 456.32 87.2394 456.837 87.7563 455.894C88.2731 454.952 87.6043 454.86 87.6043 454.86Z" fill="#274943"/>
<path d="M87.6936 451.486C87.2983 450.452 86.7815 450.939 86.7815 450.939C86.7815 450.939 86.3255 450.939 86.6903 451.881C87.0551 452.824 87.3895 452.489 87.3895 452.489C87.3895 452.489 88.0888 452.489 87.6936 451.486Z" fill="#274943"/>
<path d="M14.3681 474.196C1.44711 462.4 4.15292 444.767 4.15292 444.767C2.08556 445.162 4.66976 459.816 7.16275 465.38C9.65574 470.943 18.8068 481.645 34.16 483.986C49.5132 486.327 49.9996 484.746 49.9996 484.746C45.8345 484.928 27.3195 485.962 14.3681 474.196Z" fill="#31564F"/>
<path d="M90.2808 444.007C90.2808 444.007 91.3145 450.057 89.3383 458.509C87.3622 466.961 82.8626 473.193 80.3088 474.744C80.3088 474.744 81.0993 476.477 86.5413 467.113C91.9833 457.749 91.3449 443.369 90.2808 444.007Z" fill="#31564F"/>
<path d="M15.4267 457.627C15.4267 457.627 11.8696 457.05 11.8696 461.428C11.8696 465.805 15.4267 464.954 15.4267 464.954C15.4267 464.954 18.6189 465.076 18.6189 461.306C18.6189 457.536 15.4267 457.627 15.4267 457.627Z" fill="#F8EEE4"/>
<path d="M33.0956 444.493C33.0956 444.493 29.5386 443.946 29.5386 448.294C29.5386 452.641 33.0956 451.851 33.0956 451.851C33.0956 451.851 36.2879 451.942 36.2879 448.203C36.2879 444.463 33.0956 444.493 33.0956 444.493Z" fill="#F8EEE4"/>
<path d="M28.4128 471.186C28.4128 471.186 24.8557 470.609 24.8557 474.987C24.8557 479.365 28.4128 478.513 28.4128 478.513C28.4128 478.513 31.605 478.635 31.605 474.896C31.605 471.156 28.4128 471.186 28.4128 471.186Z" fill="#F8EEE4"/>
<path d="M44.3781 457.627C44.3781 457.627 40.821 457.05 40.821 461.428C40.821 465.805 44.3781 464.954 44.3781 464.954C44.3781 464.954 47.5704 465.076 47.5704 461.306C47.5704 457.536 44.3781 457.627 44.3781 457.627Z" fill="#F8EEE4"/>
<path d="M63.3729 443.642C63.3729 443.642 59.8462 443.095 59.8462 447.442C59.8462 451.79 63.3729 450.999 63.3729 450.999C63.3729 450.999 66.5955 451.091 66.5955 447.351C66.5955 443.612 63.3729 443.642 63.3729 443.642Z" fill="#F8EEE4"/>
<path d="M58.3303 469.454C58.3303 469.454 54.7732 468.907 54.7732 473.254C54.7732 477.602 58.3303 476.811 58.3303 476.811C58.3303 476.811 61.5225 476.902 61.5225 473.163C61.5225 469.423 58.3303 469.454 58.3303 469.454Z" fill="#F8EEE4"/>
<path d="M78.608 457.627C78.608 457.627 75.0813 457.05 75.0813 461.428C75.0813 465.805 78.608 464.954 78.608 464.954C78.608 464.954 81.8306 465.076 81.8306 461.306C81.8306 457.536 78.608 457.627 78.608 457.627Z" fill="#F8EEE4"/>
<path d="M112.443 440.642C112.443 440.642 102.049 408.143 110.903 405.283C119.756 402.424 126.08 421.89 123.056 440.642" fill="#3C522E"/>
<path d="M145.273 440.642C145.273 440.642 156.766 405.503 145.273 405.009C133.78 404.514 131.305 425.85 134.99 440.642" fill="#3C522E"/>
<path d="M106.724 440.642C106.724 440.642 93.6368 421.615 99.5208 416.666C105.405 411.717 117.722 424.035 114.863 440.642" fill="#4D7F3A"/>
<path d="M150.276 440.642C150.276 440.642 163.363 421.615 157.479 416.666C151.595 411.717 139.278 424.035 142.137 440.642" fill="#4D7F3A"/>
<path d="M123.771 440.642C123.771 440.642 116.183 414.962 125.311 413.532C134.439 412.102 136.584 431.789 133.944 440.642" fill="#4D7F3A"/>
<path d="M119.868 440.532C119.868 440.532 109.31 424.09 114.864 419.306C120.417 414.522 125.917 430.029 124.707 440.532" fill="#83BB62"/>
<path d="M132.515 440.532C132.515 440.532 131.965 418.591 139.664 418.371C147.362 418.151 145.328 432.118 138.179 440.532" fill="#83BB62"/>
<path d="M155.391 439.597C155.391 438.662 99.3014 439.597 99.3014 439.597C99.3014 439.597 99.0264 450.32 99.3014 451.695C99.3014 451.86 100.346 452.025 102.051 452.08C101.886 460.878 101.446 484.359 102.106 484.634C102.766 484.909 151.872 484.139 151.872 484.139C151.872 484.139 151.982 459.779 151.762 451.53L155.226 451.42C155.226 451.42 155.391 440.587 155.391 439.597Z" fill="#FBBF3A"/>
<path d="M102.05 452.08L101.995 453.84L151.761 458.129V451.53L102.05 452.08Z" fill="#F7B32B"/>
<path d="M124.266 472.811C113.818 472.701 104.36 472.811 104.36 472.811C101.171 477.485 103.095 482.324 125.476 482.434C147.857 482.544 146.812 476.001 146.537 473.911C146.262 471.821 134.714 472.976 124.266 472.811Z" fill="#F7B32B"/>
<path d="M133.505 466.212C133.23 464.728 127.456 465.388 124.266 465.388H115.468C113.818 467.312 113.543 471.052 124.486 471.162C135.429 471.272 133.78 467.752 133.505 466.212Z" fill="#F7B32B"/>
<path d="M101.664 440.642H106.559C109.308 440.642 113.157 440.202 113.212 441.137C113.267 442.072 114.202 443.996 107.438 444.106C100.675 444.216 100.235 441.742 101.664 440.642Z" fill="#F9CB70"/>
<path d="M105.735 448.67C104.525 448.34 104.58 449.165 104.58 449.165C104.58 449.165 104.25 449.55 105.405 449.88C106.56 450.21 106.45 449.66 106.45 449.66C106.45 449.66 106.945 449 105.735 448.67Z" fill="#F7AA11"/>
<path d="M103.81 445.756C103.81 445.756 103.26 445.646 103.48 446.856C103.7 448.066 104.14 447.681 104.14 447.681C104.14 447.681 104.965 447.846 104.69 446.581C104.415 445.316 103.81 445.756 103.81 445.756Z" fill="#F7AA11"/>
<path d="M108.319 445.921C108.319 445.921 108.264 445.096 107.109 445.701C105.955 446.306 106.559 446.801 106.559 446.801C106.559 446.801 106.614 447.351 107.659 446.801C108.704 446.251 108.319 445.921 108.319 445.921Z" fill="#F7AA11"/>
<path d="M110.464 447.461C110.464 447.461 110.134 447.021 109.529 448.066C108.924 449.111 109.529 449.166 109.529 449.166C109.529 449.166 110.024 449.77 110.629 448.671C111.234 447.571 110.464 447.461 110.464 447.461Z" fill="#F7AA11"/>
<path d="M110.574 443.501C110.134 442.347 109.53 442.897 109.53 442.897C109.53 442.897 108.98 442.897 109.365 443.996C109.749 445.096 110.189 444.711 110.189 444.711C110.189 444.711 111.014 444.711 110.574 443.501Z" fill="#F7AA11"/>
<path d="M142.578 460.713C141.369 460.383 141.424 461.208 141.424 461.208C141.424 461.208 141.094 461.648 142.248 461.923C143.403 462.198 143.293 461.703 143.293 461.703C143.293 461.703 143.788 461.043 142.578 460.713Z" fill="#F7AA11"/>
<path d="M140.653 457.854C140.653 457.854 140.103 457.744 140.323 458.899C140.543 460.053 140.983 459.779 140.983 459.779C140.983 459.779 141.808 459.889 141.533 458.679C141.258 457.469 140.653 457.854 140.653 457.854Z" fill="#F7AA11"/>
<path d="M145.162 458.019C145.162 458.019 145.107 457.194 143.953 457.744C142.798 458.294 143.403 458.844 143.403 458.844C143.403 458.844 143.458 459.394 144.503 458.899C145.547 458.404 145.162 458.019 145.162 458.019Z" fill="#F7AA11"/>
<path d="M147.307 459.504C147.307 459.504 146.977 459.064 146.372 460.108C145.767 461.153 146.372 461.208 146.372 461.208C146.372 461.208 146.867 461.868 147.472 460.768C148.077 459.669 147.307 459.504 147.307 459.504Z" fill="#F7AA11"/>
<path d="M147.418 455.599C146.978 454.389 146.373 454.939 146.373 454.939C146.373 454.939 145.823 454.939 146.208 456.039C146.593 457.139 147.033 456.754 147.033 456.754C147.033 456.754 147.858 456.754 147.418 455.599Z" fill="#F7AA11"/>
<path d="M114.588 474.131C113.323 473.801 113.433 474.571 113.433 474.571C113.433 474.571 113.103 475.011 114.203 475.341C115.303 475.671 115.303 475.121 115.303 475.121C115.303 475.121 115.797 474.461 114.588 474.131Z" fill="#F7AA11"/>
<path d="M112.607 471.217C112.607 471.217 112.112 471.107 112.277 472.261C112.442 473.416 112.992 473.141 112.992 473.141C112.992 473.141 113.762 473.306 113.542 472.041C113.322 470.777 112.607 471.217 112.607 471.217Z" fill="#F7AA11"/>
<path d="M117.171 471.381C117.171 471.381 117.116 470.557 115.961 471.107C114.807 471.656 115.412 472.261 115.412 472.261C115.412 472.261 115.467 472.811 116.511 472.261C117.556 471.711 117.171 471.381 117.171 471.381Z" fill="#F7AA11"/>
<path d="M119.316 472.921C119.316 472.921 118.986 472.481 118.381 473.526C117.776 474.571 118.326 474.626 118.326 474.626C118.326 474.626 118.876 475.231 119.481 474.131C120.086 473.031 119.316 472.921 119.316 472.921Z" fill="#F7AA11"/>
<path d="M119.426 468.962C118.931 467.807 118.326 468.357 118.326 468.357C118.326 468.357 117.776 468.302 118.216 469.457C118.656 470.612 119.041 470.172 119.041 470.172C119.041 470.172 119.866 470.172 119.426 468.962Z" fill="#F7AA11"/>
<path d="M101.995 453.235C101.995 453.235 101.885 456.809 101.83 465.992C101.775 475.176 101.83 483.424 101.83 483.424C101.83 483.424 101.555 484.964 101.39 476.001C101.225 467.037 101.39 457.194 101.39 457.194C101.39 457.194 101.17 453.235 101.995 453.235Z" fill="#F4A61C"/>
<path d="M389.512 343.17C385.354 343.539 380.993 345.382 377.71 348.148C374.73 350.662 372.844 353.243 371.379 356.813C368.618 363.584 369.46 371.26 373.669 377.495C374.763 379.104 377.727 382.071 379.276 383.077C380.942 384.166 382.458 384.97 383.788 385.473L384.933 385.892L384.798 384.183C384.209 376.557 385.572 369.501 388.485 365.227C389.815 363.266 392.223 361.036 394.748 359.411C395.371 359.008 395.843 358.657 395.792 358.623C395.691 358.506 394.142 359.092 392.56 359.83C388.182 361.858 385.337 364.908 383.67 369.316C383.165 370.657 382.323 373.573 382.054 374.914C381.818 376.071 381.801 376.071 380.724 374.009C377.525 367.858 378.501 361.875 383.417 357.332C385.556 355.355 389.125 353.947 392.997 353.528C395.422 353.26 399.867 353.427 401.87 353.863C403.302 354.181 405.12 354.818 405.12 355.003C405.12 355.053 404.867 355.556 404.564 356.126C403.352 358.338 402.729 360.55 402.005 365.109C401.483 368.327 401.214 369.467 400.625 371.009C399.395 374.193 395.708 377.076 391.398 378.199C390.758 378.384 389.428 378.568 388.468 378.635L386.717 378.736L386.818 380.278C386.936 381.97 387.29 383.864 387.795 385.574L388.132 386.697L389.967 386.898C394.883 387.434 400.709 385.825 404.783 382.825C409.295 379.49 412.158 375.115 413.471 369.551C413.875 367.858 413.925 362.629 413.555 360.919C411.703 352.137 405.322 345.567 396.752 343.572C395.658 343.321 392.442 342.969 391.566 343.002C391.297 343.019 390.371 343.086 389.512 343.17Z" fill="#8F7C9A"/>
<path d="M418.928 364.506V385.389H421.791H424.653L424.687 367.489L424.737 349.606L429.115 349.556C431.522 349.539 434.082 349.589 434.805 349.673C438.021 350.058 440.362 352.17 441.22 355.489C441.557 356.779 441.557 357.684 441.237 359.042C440.783 360.953 439.823 362.327 438.206 363.366C436.674 364.338 436.018 364.439 431.27 364.439H427.01V365.914V367.389L429.418 370.238C430.731 371.813 434.115 375.869 436.927 379.238L442.045 385.389H445.817C447.871 385.389 449.571 385.356 449.571 385.322C449.571 385.289 446.659 381.803 443.089 377.579L436.607 369.903L437.819 369.601C443.055 368.243 446.507 364.305 447.231 358.874C447.652 355.573 446.608 351.584 444.588 348.835C443.678 347.595 441.793 345.952 440.513 345.282C439.89 344.946 438.695 344.477 437.87 344.209L436.354 343.756L427.65 343.689L418.928 343.639V364.506Z" fill="#8F7C9A"/>
<path d="M228 364.606V385.389H230.946H233.893V376.339V367.288H242.143H250.393V364.523V361.757H242.143H233.893V355.64V349.522H243.237H252.582V346.673V343.823H240.291H228V364.606Z" fill="#8F7C9A"/>
<path d="M307.048 353.042C305.904 353.193 304.153 353.762 303.277 354.265C302.098 354.936 299.91 356.88 299.893 357.265C299.893 357.349 299.826 357.399 299.724 357.399C299.623 357.399 299.556 356.679 299.556 355.556V353.712H296.778H294V369.551V385.389H296.778H299.556V376.356C299.556 366.282 299.607 365.713 300.65 363.5C301.374 362.009 303.024 360.215 304.456 359.36C306.156 358.355 307.57 357.986 309.658 358.003C310.635 358.02 311.628 358.103 311.897 358.204L312.352 358.405V355.908V353.41L311.561 353.243C310.332 352.975 308.177 352.891 307.048 353.042Z" fill="#8F7C9A"/>
<path d="M268.14 353.292C262.802 354.114 258.475 357.047 256.169 361.421C254.855 363.885 254.266 366.366 254.266 369.315C254.266 377.612 259.368 383.931 267.315 385.473C272.803 386.528 278.73 385.204 281.676 382.271C282.266 381.685 282.788 381.199 282.821 381.199C282.855 381.199 282.889 382.137 282.889 383.294V385.389H285.667H288.445V369.466V353.544H285.667H282.889V355.656V357.767L281.912 356.762C279.016 353.829 273.578 352.438 268.14 353.292ZM274.571 358.505C278.932 359.745 281.878 362.946 282.636 367.204C282.956 369.047 282.956 369.919 282.636 371.612C282.282 373.472 281.878 374.478 280.834 376.02C278.764 379.137 274.42 381.115 270.311 380.796C265.782 380.461 262.28 377.813 260.63 373.472C260.108 372.098 260.092 371.98 260.075 369.382C260.075 367.019 260.125 366.567 260.462 365.528C261.237 363.231 262.415 361.539 264.099 360.282C266.22 358.723 268.173 358.103 271.12 358.086C272.753 358.069 273.342 358.136 274.571 358.505Z" fill="#8F7C9A"/>
<path d="M316.559 369.216V385.389H319.404H322.266L322.317 375.618C322.384 364.875 322.367 365.076 323.478 362.83C324.017 361.724 325.331 360.282 326.324 359.679C327.755 358.791 328.681 358.539 330.718 358.439C332.267 358.388 332.857 358.422 333.53 358.64C335.163 359.193 336.662 360.601 337.436 362.344C338.244 364.171 338.278 364.808 338.278 375.4V385.389H341.14H344.002V376.456C344.002 367.389 344.103 365.243 344.575 363.852C345.484 361.238 347.235 359.478 349.761 358.723C350.72 358.422 351.242 358.388 352.892 358.439C354.61 358.489 354.963 358.556 355.704 358.941C357.236 359.729 358.196 360.953 358.869 362.93C359.223 364.003 359.24 364.238 359.29 374.696L359.341 385.389H362.203H365.048V375.45C365.048 367.405 364.998 365.227 364.796 363.936C363.887 358.271 361.058 354.802 356.31 353.511C354.559 353.025 350.838 352.991 349.154 353.444C346.309 354.198 344.12 355.69 342.672 357.869L342.218 358.556L341.511 357.483C339.44 354.366 335.651 352.824 330.752 353.092C327.536 353.26 325.566 354.098 323.596 356.109L322.283 357.433V355.237V353.042H319.421H316.559V369.216Z" fill="#8F7C9A"/>
<defs>
<filter id="filter0_d_1686_1726" x="260" y="150" width="60" height="57" filterUnits="userSpaceOnUse" color-interpolation-filters="sRGB">
<feFlood flood-opacity="0" result="BackgroundImageFix"/>
<feColorMatrix in="SourceAlpha" type="matrix" values="0 0 0 0 0 0 0 0 0 0 0 0 0 0 0 0 0 0 127 0" result="hardAlpha"/>
<feOffset/>
<feGaussianBlur stdDeviation="5"/>
<feComposite in2="hardAlpha" operator="out"/>
<feColorMatrix type="matrix" values="0 0 0 0 0 0 0 0 0 0 0 0 0 0 0 0 0 0 0.05 0"/>
<feBlend mode="normal" in2="BackgroundImageFix" result="effect1_dropShadow_1686_1726"/>
<feBlend mode="normal" in="SourceGraphic" in2="effect1_dropShadow_1686_1726" result="shape"/>
</filter>
<clipPath id="clip0_1686_1726">
<rect width="254" height="476" fill="white" transform="translate(330)"/>
</clipPath>
</defs>
</svg>
