<svg width="577" height="164" viewBox="0 0 577 164" fill="none" xmlns="http://www.w3.org/2000/svg">
<rect x="163" y="79" width="414" height="83" fill="#463A4D"/>
<rect x="163" y="79" width="414" height="3" fill="#987DA7"/>
<rect x="163" y="84" width="414" height="3" fill="#987DA7"/>
<rect x="163" y="89" width="414" height="3" fill="#987DA7"/>
<rect x="163" y="94" width="414" height="3" fill="#987DA7"/>
<rect x="163" y="99" width="414" height="3" fill="#987DA7"/>
<rect x="163" y="104" width="414" height="3" fill="#987DA7"/>
<rect x="163" y="109" width="414" height="3" fill="#987DA7"/>
<rect x="163" y="114" width="414" height="3" fill="#987DA7"/>
<rect x="163" y="119" width="414" height="3" fill="#987DA7"/>
<rect x="163" y="124" width="414" height="3" fill="#987DA7"/>
<rect x="163" y="129" width="414" height="3" fill="#987DA7"/>
<rect x="163" y="134" width="414" height="3" fill="#987DA7"/>
<rect x="163" y="139" width="414" height="3" fill="#987DA7"/>
<rect x="163" y="144" width="414" height="3" fill="#987DA7"/>
<rect x="163" y="149" width="414" height="3" fill="#987DA7"/>
<rect x="163" y="154" width="414" height="3" fill="#987DA7"/>
<rect x="163" y="159" width="414" height="3" fill="#987DA7"/>
<line x1="227.5" x2="227.5" y2="79" stroke="#463A4D" stroke-width="3"/>
<line x1="515.5" x2="515.5" y2="79" stroke="#463A4D" stroke-width="3"/>
<path d="M258.938 148L264.25 93H282.906L288.125 148H277.719L276.938 139.125H270.312L269.625 148H258.938ZM271.094 130.344H276.094L273.688 102.375H273.188L271.094 130.344ZM291.5 148V93H306.406C310.406 93 313.312 93.9792 315.125 95.9375C316.958 97.875 317.875 101.083 317.875 105.562V107.969C317.875 110.552 317.406 112.646 316.469 114.25C315.552 115.854 314.146 116.906 312.25 117.406C314.729 118.031 316.385 119.5 317.219 121.812C318.073 124.104 318.5 126.906 318.5 130.219C318.5 133.781 318.167 136.896 317.5 139.562C316.833 142.229 315.625 144.302 313.875 145.781C312.125 147.26 309.635 148 306.406 148H291.5ZM302.25 113.719H304.5C305.521 113.719 306.177 113.323 306.469 112.531C306.76 111.74 306.906 110.792 306.906 109.688V104.156C306.906 102.385 306.125 101.5 304.562 101.5H302.25V113.719ZM303.344 138.312C306.198 138.312 307.625 136.958 307.625 134.25V127.375C307.625 125.812 307.385 124.583 306.906 123.688C306.448 122.771 305.573 122.312 304.281 122.312H302.25V138.25C302.708 138.292 303.073 138.312 303.344 138.312ZM335.25 148.5C330.854 148.5 327.49 147.177 325.156 144.531C322.844 141.865 321.688 138.021 321.688 133V106.875C321.688 102.167 322.833 98.5938 325.125 96.1562C327.438 93.7188 330.812 92.5 335.25 92.5C339.688 92.5 343.052 93.7188 345.344 96.1562C347.656 98.5938 348.812 102.167 348.812 106.875V133C348.812 138.021 347.646 141.865 345.312 144.531C343 147.177 339.646 148.5 335.25 148.5ZM335.344 138.375C337.01 138.375 337.844 136.76 337.844 133.531V106.688C337.844 103.979 337.031 102.625 335.406 102.625C333.573 102.625 332.656 104.01 332.656 106.781V133.594C332.656 135.302 332.865 136.531 333.281 137.281C333.698 138.01 334.385 138.375 335.344 138.375ZM365.969 148.5C361.385 148.5 358.01 147.219 355.844 144.656C353.677 142.073 352.594 138.281 352.594 133.281V93H363.281V132.844C363.281 133.76 363.333 134.646 363.438 135.5C363.542 136.333 363.781 137.021 364.156 137.562C364.531 138.104 365.135 138.375 365.969 138.375C366.823 138.375 367.438 138.115 367.812 137.594C368.188 137.052 368.417 136.354 368.5 135.5C368.604 134.646 368.656 133.76 368.656 132.844V93H379.344V133.281C379.344 138.281 378.26 142.073 376.094 144.656C373.927 147.219 370.552 148.5 365.969 148.5ZM388.281 148V103.562H381.75V93H405.812V103.562H399.281V148H388.281ZM436.594 148.5C432.01 148.5 428.635 147.219 426.469 144.656C424.302 142.073 423.219 138.281 423.219 133.281V93H433.906V132.844C433.906 133.76 433.958 134.646 434.062 135.5C434.167 136.333 434.406 137.021 434.781 137.562C435.156 138.104 435.76 138.375 436.594 138.375C437.448 138.375 438.062 138.115 438.438 137.594C438.812 137.052 439.042 136.354 439.125 135.5C439.229 134.646 439.281 133.76 439.281 132.844V93H449.969V133.281C449.969 138.281 448.885 142.073 446.719 144.656C444.552 147.219 441.177 148.5 436.594 148.5ZM467.25 148.5C462.229 148.5 458.604 147.25 456.375 144.75C454.167 142.25 453.062 138.271 453.062 132.812V127.438H463.938V134.312C463.938 135.583 464.125 136.583 464.5 137.312C464.896 138.021 465.573 138.375 466.531 138.375C467.531 138.375 468.219 138.083 468.594 137.5C468.99 136.917 469.188 135.958 469.188 134.625C469.188 132.938 469.021 131.531 468.688 130.406C468.354 129.26 467.771 128.177 466.938 127.156C466.125 126.115 464.99 124.906 463.531 123.531L458.594 118.844C454.906 115.365 453.062 111.385 453.062 106.906C453.062 102.219 454.146 98.6458 456.312 96.1875C458.5 93.7292 461.656 92.5 465.781 92.5C470.823 92.5 474.396 93.8438 476.5 96.5312C478.625 99.2188 479.688 103.302 479.688 108.781H468.5V105C468.5 104.25 468.281 103.667 467.844 103.25C467.427 102.833 466.854 102.625 466.125 102.625C465.25 102.625 464.604 102.875 464.188 103.375C463.792 103.854 463.594 104.479 463.594 105.25C463.594 106.021 463.802 106.854 464.219 107.75C464.635 108.646 465.458 109.677 466.688 110.844L473.031 116.938C474.302 118.146 475.469 119.427 476.531 120.781C477.594 122.115 478.448 123.677 479.094 125.469C479.74 127.24 480.062 129.406 480.062 131.969C480.062 137.135 479.104 141.188 477.188 144.125C475.292 147.042 471.979 148.5 467.25 148.5Z" fill="#FDFBFF"/>
<g filter="url(#filter0_d_1686_1630)">
<circle cx="19.5" cy="141.5" r="9.5" fill="#FFC260"/>
</g>
<path fill-rule="evenodd" clip-rule="evenodd" d="M21 115H22V119H24V121.939C25.6121 122.635 27.0934 123.706 28.3388 125.101C30.683 127.726 32 131.287 32 135H30.2708C33.7792 138.026 36 142.504 36 147.5C36 156.107 29.4097 163.175 21 163.933V164H20V163.993C19.8339 163.998 19.6673 164 19.5 164C10.3873 164 3 156.613 3 147.5C3 142.504 5.22084 138.026 8.72924 135H7C7 131.287 8.31696 127.726 10.6612 125.101C11.9066 123.706 13.3879 122.635 15 121.939V119H17V115H18L18 0H21L21 115ZM21 162.928C28.8566 162.174 35 155.554 35 147.5C35 142.369 32.5073 137.821 28.6669 135H21V162.928ZM20 135H19.5H10.3331C6.49271 137.821 4 142.369 4 147.5C4 156.06 10.9396 163 19.5 163C19.6673 163 19.834 162.997 20 162.992V135Z" fill="#514657"/>
<g filter="url(#filter1_d_1686_1630)">
<circle cx="99.5" cy="82.5" r="9.5" fill="#FFC260"/>
</g>
<path fill-rule="evenodd" clip-rule="evenodd" d="M101 56H102V60H104V62.9387C105.612 63.6354 107.093 64.7056 108.339 66.1005C110.683 68.726 112 72.287 112 76H110.271C113.779 79.0258 116 83.5035 116 88.5C116 97.1071 109.41 104.175 101 104.933V105H100V104.993C99.8339 104.998 99.6673 105 99.5 105C90.3873 105 83 97.6127 83 88.5C83 83.5035 85.2208 79.0258 88.7292 76H87C87 72.287 88.317 68.726 90.6612 66.1005C91.9066 64.7056 93.3879 63.6354 95 62.9387V60H97V56H98L98 -59H101L101 56ZM101 103.928C108.857 103.174 115 96.5544 115 88.5C115 83.3695 112.507 78.8211 108.667 76H101V103.928ZM100 76H99.5H90.3331C86.4927 78.8211 84 83.3695 84 88.5C84 97.0604 90.9396 104 99.5 104C99.6673 104 99.834 103.997 100 103.992V76Z" fill="#514657"/>
<defs>
<filter id="filter0_d_1686_1630" x="0" y="124" width="39" height="39" filterUnits="userSpaceOnUse" color-interpolation-filters="sRGB">
<feFlood flood-opacity="0" result="BackgroundImageFix"/>
<feColorMatrix in="SourceAlpha" type="matrix" values="0 0 0 0 0 0 0 0 0 0 0 0 0 0 0 0 0 0 127 0" result="hardAlpha"/>
<feOffset dy="2"/>
<feGaussianBlur stdDeviation="5"/>
<feComposite in2="hardAlpha" operator="out"/>
<feColorMatrix type="matrix" values="0 0 0 0 1 0 0 0 0 0.760784 0 0 0 0 0.376471 0 0 0 1 0"/>
<feBlend mode="normal" in2="BackgroundImageFix" result="effect1_dropShadow_1686_1630"/>
<feBlend mode="normal" in="SourceGraphic" in2="effect1_dropShadow_1686_1630" result="shape"/>
</filter>
<filter id="filter1_d_1686_1630" x="80" y="65" width="39" height="39" filterUnits="userSpaceOnUse" color-interpolation-filters="sRGB">
<feFlood flood-opacity="0" result="BackgroundImageFix"/>
<feColorMatrix in="SourceAlpha" type="matrix" values="0 0 0 0 0 0 0 0 0 0 0 0 0 0 0 0 0 0 127 0" result="hardAlpha"/>
<feOffset dy="2"/>
<feGaussianBlur stdDeviation="5"/>
<feComposite in2="hardAlpha" operator="out"/>
<feColorMatrix type="matrix" values="0 0 0 0 1 0 0 0 0 0.760784 0 0 0 0 0.376471 0 0 0 1 0"/>
<feBlend mode="normal" in2="BackgroundImageFix" result="effect1_dropShadow_1686_1630"/>
<feBlend mode="normal" in="SourceGraphic" in2="effect1_dropShadow_1686_1630" result="shape"/>
</filter>
</defs>
</svg>
