<svg width="40" height="40" viewBox="0 0 40 40" fill="none" xmlns="http://www.w3.org/2000/svg">
<rect x="2.54993" y="2.55017" width="34.95" height="34.95" rx="1.75" fill="#EDEEFF"/>
<path d="M20.025 5.64984C12.0986 5.64984 5.65002 12.0984 5.65002 20.0248C5.65002 27.9513 12.0986 34.3998 20.025 34.3998C27.9515 34.3998 34.4 27.9513 34.4 20.0248C34.4 12.0984 27.9515 5.64984 20.025 5.64984V5.64984ZM20.025 33.1764C12.7731 33.1764 6.87343 27.2768 6.87343 20.0248C6.87343 12.7729 12.7731 6.87325 20.025 6.87325C27.277 6.87325 33.1766 12.7729 33.1766 20.0248C33.1766 27.2768 27.277 33.1764 20.025 33.1764V33.1764ZM23.2215 25.0583C22.9655 22.7143 21.0158 21.4233 17.731 21.4233L17.655 21.4248L17.5865 21.4233C14.3016 21.4233 12.3521 22.7143 12.0965 25.0602C12.0901 25.1199 12.0876 25.2287 12.0801 25.7073L12.076 25.9403C12.0758 25.9552 12.0788 25.9691 12.0797 25.9838C12.0809 26.0045 12.0816 26.0256 12.0848 26.0461C12.0882 26.0665 12.0933 26.0864 12.0989 26.106C12.1038 26.1246 12.108 26.1427 12.1149 26.1609C12.1219 26.1801 12.1309 26.1982 12.1396 26.2167C12.1479 26.2342 12.1565 26.2515 12.1665 26.2684C12.1769 26.2854 12.1889 26.3008 12.2008 26.317C12.2128 26.333 12.2241 26.3486 12.2375 26.3631C12.2523 26.3791 12.2687 26.393 12.2847 26.4075C12.2954 26.4166 12.3039 26.4277 12.3156 26.4365C12.3214 26.4412 12.3276 26.4444 12.3333 26.4486C12.3361 26.4508 12.3389 26.4529 12.3417 26.4548C13.84 27.596 15.6287 28.1761 17.6595 28.1761C19.6404 28.1761 21.4777 27.5807 22.9766 26.4551C22.9796 26.4529 22.9828 26.451 22.9856 26.4489C22.9903 26.4452 22.995 26.4425 22.9997 26.4391C23.0112 26.4305 23.0199 26.4194 23.0308 26.41C23.0479 26.3953 23.0648 26.381 23.0801 26.3648C23.0933 26.3505 23.1042 26.3349 23.116 26.3198C23.1281 26.3034 23.1407 26.2876 23.1514 26.2699C23.1614 26.2534 23.1695 26.2366 23.178 26.2191C23.187 26.2005 23.1964 26.1824 23.2034 26.1628C23.2098 26.1446 23.2145 26.1267 23.2194 26.1084C23.225 26.0885 23.2305 26.0689 23.2337 26.0484C23.2373 26.0273 23.238 26.0055 23.2393 25.9842C23.2399 25.9693 23.2433 25.9552 23.2429 25.9403L23.2393 25.7295C23.2305 25.2345 23.228 25.1225 23.2213 25.0583L23.2215 25.0583ZM17.6594 26.9524C16.0019 26.9524 14.541 26.506 13.305 25.6369C13.308 25.4357 13.3112 25.2349 13.3134 25.1906C13.4973 23.5028 14.9337 22.6471 17.6114 22.6471H17.6148L17.6748 22.6479C17.6767 22.6479 17.7296 22.6464 17.7313 22.6464C20.383 22.6464 21.8211 23.5026 22.0039 25.1729C22.0075 25.2305 22.0107 25.4325 22.0137 25.6348C20.7703 26.4943 19.274 26.9524 17.6593 26.9524L17.6594 26.9524ZM17.6594 21.2985C19.4033 21.2985 20.8225 19.6157 20.8225 17.5468C20.8225 15.5685 19.5217 14.1873 17.6594 14.1873C15.7971 14.1873 14.4964 15.5689 14.4964 17.5468C14.4962 19.6157 15.9152 21.2985 17.6594 21.2985ZM17.6594 15.4109C18.8379 15.4109 19.5992 16.2491 19.5992 17.5468C19.5992 18.9408 18.7289 20.075 17.6594 20.075C16.5899 20.075 15.7197 18.9408 15.7197 17.5468C15.7197 16.2491 16.4809 15.4109 17.6594 15.4109V15.4109ZM28.1048 15.6664H26.1473V13.709C26.1473 13.3713 25.8732 13.0974 25.5357 13.0974C25.198 13.0974 24.924 13.3715 24.924 13.709V15.6664H22.9668C22.6291 15.6664 22.3552 15.9406 22.3552 16.2781C22.3552 16.6158 22.6293 16.8897 22.9668 16.8897H24.924V18.8472C24.924 19.1849 25.1982 19.4588 25.5357 19.4588C25.8734 19.4588 26.1473 19.1847 26.1473 18.8472V16.8897H28.1048C28.4425 16.8897 28.7164 16.6156 28.7164 16.2781C28.7164 15.9406 28.4425 15.6664 28.1048 15.6664Z" fill="#575DC2"/>
</svg>
