<svg width="40" height="40" viewBox="0 0 40 40" fill="none" xmlns="http://www.w3.org/2000/svg">
<rect x="3" y="3" width="34" height="34" rx="1.59091" fill="#EDEEFF"/>
<path fill-rule="evenodd" clip-rule="evenodd" d="M29.2272 15.5243H24.6996L24.6996 15.5243C24.0633 15.5243 23.5476 15.112 23.5476 14.6036V10.9828C23.5476 10.6216 23.8083 10.3098 24.1868 10.1587C24.1893 8.34009 24.2759 6.35828 26.9936 6.35828C27.9651 6.35828 28.6611 6.58321 29.1205 7.04607C29.8182 7.74914 29.8104 8.81726 29.8022 9.9481C29.8015 10.0258 29.8013 10.1056 29.8011 10.1846V10.1847C30.1459 10.3438 30.3788 10.6412 30.3788 10.9828V14.6034C30.3788 15.1118 29.8633 15.5243 29.2272 15.5243ZM28.3473 7.8135C28.103 7.56715 27.66 7.4475 26.9936 7.4475L26.9936 7.44746C25.4781 7.44746 25.291 8.09424 25.2771 10.0615L28.7122 10.0612L28.7126 9.94C28.7197 9.00338 28.7256 8.19478 28.3473 7.8135ZM26.9633 11.5524C26.5629 11.5524 26.2382 11.8771 26.2382 12.2776C26.2382 12.5059 26.3446 12.7087 26.5103 12.8416C26.5431 12.868 26.5773 12.8927 26.6146 12.9132L26.1766 13.7935H27.7505L27.3125 12.9132C27.3499 12.8927 27.3841 12.868 27.4169 12.8416C27.5819 12.7087 27.6885 12.5061 27.6885 12.2776C27.6885 11.8769 27.3638 11.5524 26.9633 11.5524ZM31.0104 12.8422H32.9175L32.9178 12.8422C34.2768 12.8422 35.3823 13.9477 35.3823 15.3067L35.3821 30.4808C35.3821 31.8395 34.2766 32.9453 32.9176 32.9453H7.98351C6.62479 32.9453 5.51904 31.8398 5.51904 30.4808V15.3067C5.51904 13.9477 6.62479 12.8422 7.98351 12.8422H22.9155V14.2919H7.98351C7.42401 14.2919 6.96889 14.747 6.96889 15.3068V17.5778L33.9321 17.578V15.307C33.9321 14.7475 33.477 14.2921 32.9175 14.2921H31.0104V12.8422ZM32.9177 31.4955C33.4768 31.4955 33.9323 31.0402 33.9323 30.4807H33.9316V21.0567H6.96843V30.4807C6.96843 31.04 7.42356 31.4955 7.98305 31.4955H32.9177Z" fill="#575DC2"/>
</svg>
