<svg width="40" height="40" viewBox="0 0 40 40" fill="none" xmlns="http://www.w3.org/2000/svg">
<rect x="2.54993" y="2.54999" width="34.95" height="34.95" rx="1.75" fill="#EDEEFF"/>
<path fill-rule="evenodd" clip-rule="evenodd" d="M27.2705 21.9806C27.3541 21.0878 27.3942 20.1884 27.3942 19.2889L27.3942 19.289C27.3942 18.9747 27.3909 18.657 27.3842 18.3528C27.3641 17.7409 27.3273 17.129 27.2671 16.5204L27.2421 16.293L27.217 16.0657C27.2136 16.0322 27.2095 15.9996 27.2053 15.967C27.2011 15.9344 27.1969 15.9018 27.1936 15.8684C27.1899 15.8501 27.1812 15.7726 27.1769 15.7337L27.1769 15.7336C27.1733 15.7016 27.1727 15.6959 27.1802 15.7714C27.1563 15.5356 27.1138 15.2972 27.0717 15.0608L27.0565 14.9756C26.8993 14.0661 26.6853 13.1533 26.3376 12.2973L26.3075 12.2271L26.3136 12.2443C26.2993 12.2121 26.285 12.1812 26.2707 12.1502C26.2373 12.0766 26.2005 12.0031 26.1637 11.9295C26.0868 11.7824 26.0066 11.6386 25.9163 11.5015C25.8993 11.4761 25.8812 11.4513 25.8631 11.4265C25.8401 11.395 25.8171 11.3636 25.7969 11.3313L25.8371 11.3963L25.849 11.4157L25.8436 11.4077C25.8279 11.3842 25.7817 11.3152 25.7525 11.2842C25.709 11.234 25.6622 11.1872 25.612 11.1438C25.6042 11.1359 25.5958 11.1291 25.5873 11.1224L25.5722 11.1137L27.2705 21.9806ZM26.3335 26.2893L26.3343 26.2873L26.4045 26.1067C26.6385 25.4948 26.8057 24.8562 26.9395 24.2142C27.0164 23.8397 27.0832 23.4652 27.1401 23.0874C27.1451 23.0556 27.1493 23.0238 27.1535 22.9921C27.1576 22.9603 27.1618 22.9285 27.1668 22.8968C27.1688 22.8857 27.1721 22.8664 27.175 22.849C27.186 22.7675 27.1948 22.688 27.2036 22.6059L27.2037 22.6053C27.2271 22.3981 27.2504 22.191 27.2705 21.9806L25.1685 27.4191L24.9865 27.2365L24.7729 21.1977C24.7135 21.2908 24.6489 21.3813 24.5792 21.4689C24.3819 21.7163 24.1211 21.9404 23.8335 22.0775C23.7334 22.1245 23.6354 22.1626 23.5373 22.1928C23.5589 22.4018 23.5831 22.6104 23.6097 22.8187C23.6107 22.8191 23.6213 22.8988 23.6248 22.9301L23.6265 22.9429C23.6284 22.9548 23.6301 22.9664 23.6316 22.9778L23.6326 22.9837C23.6402 23.037 23.6478 23.0883 23.6554 23.1392L23.6652 23.203L23.6978 23.4L23.7329 23.6123C23.7797 23.8832 23.8332 24.1507 23.8934 24.4181C24.0004 24.903 24.1308 25.3845 24.2913 25.8526C24.3059 25.8917 24.3202 25.9313 24.3344 25.971C24.3592 26.0398 24.3841 26.1091 24.4116 26.1769C24.42 26.1987 24.4292 26.2212 24.4384 26.2438L24.4464 26.2636C24.4485 26.2655 24.4528 26.2752 24.4598 26.2969L24.4651 26.3107C24.4697 26.3226 24.4722 26.3296 24.4732 26.3329L24.4752 26.3374C24.5487 26.5079 24.6323 26.6751 24.7226 26.8356C24.7567 26.8963 24.7992 26.9557 24.8419 27.0153L24.842 27.0153C24.8785 27.0663 24.9151 27.1173 24.9465 27.1694C24.9153 27.1221 24.9139 27.1523 24.9466 27.1901C24.9533 27.1967 24.9592 27.2043 24.965 27.2118C24.9699 27.2181 24.9748 27.2244 24.9802 27.2302C24.9699 27.2097 24.9586 27.1895 24.9465 27.1694C24.9554 27.1828 24.9667 27.2026 24.9803 27.2303L24.9804 27.2304L24.9867 27.2436L24.9865 27.2371L24.9913 27.2425C25.0114 27.2656 25.0295 27.2863 25.0503 27.3071C25.0737 27.3305 25.0979 27.353 25.1221 27.3755L25.1221 27.3756C25.1377 27.39 25.1532 27.4045 25.1685 27.4191L25.1857 27.4258C25.2183 27.4383 25.2509 27.4509 25.2843 27.4642C25.304 27.4715 25.3246 27.4781 25.3453 27.4847L25.3454 27.4847C25.383 27.4968 25.4211 27.509 25.4551 27.5255C25.4394 27.5304 25.4279 27.5349 25.4199 27.5389L25.423 27.5394L25.4447 27.5343L25.4638 27.5298L25.4659 27.5309L25.4706 27.5281L25.485 27.5244C25.495 27.5227 25.5042 27.5186 25.5134 27.5144C25.5215 27.5107 25.5296 27.507 25.5383 27.5051L25.5418 27.5044L25.5588 27.4783L25.5652 27.4743C25.5689 27.4719 25.5726 27.4693 25.5763 27.4666L25.5567 27.4861C25.5674 27.4756 25.5787 27.4657 25.5902 27.456C25.5947 27.4525 25.5991 27.4489 25.6033 27.4452L25.6087 27.4408C25.6271 27.4258 25.6455 27.4107 25.6622 27.394C25.699 27.3606 25.7324 27.3238 25.7658 27.287C25.7782 27.2711 25.8194 27.2199 25.8433 27.1912L25.8475 27.1853L25.8476 27.1852C25.8678 27.157 25.889 27.1274 25.8962 27.1165C25.9096 27.0948 25.923 27.0739 25.9363 27.053C25.9497 27.0321 25.9631 27.0112 25.9765 26.9894C26.03 26.8992 26.0835 26.8055 26.1336 26.7119C26.1972 26.5882 26.2574 26.4611 26.3142 26.3341C26.3242 26.3141 26.3342 26.2908 26.3442 26.2674L26.3335 26.2893ZM26.2995 26.3619C26.2929 26.3743 26.2975 26.3628 26.3335 26.2893C26.3248 26.3112 26.3062 26.3492 26.2995 26.3619ZM25.5538 27.4813L26.3335 26.2893L25.5588 27.4783L25.5538 27.4813ZM25.4941 27.5148C25.4789 27.5185 25.466 27.5221 25.4551 27.5255L25.4638 27.5298L25.4706 27.5281L25.4821 27.5215L25.4941 27.5148ZM25.4941 27.5148L25.5101 27.506L25.5101 27.506C25.5247 27.4981 25.5392 27.4901 25.5538 27.4813L25.5383 27.5051C25.5291 27.5069 25.5204 27.5087 25.5123 27.5105L25.4941 27.5148ZM25.6033 27.4452C25.6234 27.428 25.6402 27.411 25.6457 27.4042C25.6535 27.3945 25.6382 27.4056 25.5763 27.4666C25.581 27.4633 25.5856 27.4597 25.5902 27.456L25.6033 27.4452ZM24.9865 27.2371L24.9865 27.2365L24.9804 27.2304L24.9834 27.2335L24.9865 27.2371ZM26.3309 12.2839C26.3251 12.2705 26.3194 12.2573 26.3136 12.2443C26.3663 12.3924 26.347 12.3226 26.3309 12.2839ZM23.4294 20.744C23.4588 20.7162 23.4873 20.687 23.5158 20.6563C23.5258 20.6463 23.535 20.6354 23.5442 20.6246L23.5442 20.6246L23.5442 20.6245C23.5534 20.6137 23.5626 20.6028 23.5726 20.5928C23.5826 20.5817 23.59 20.5687 23.5948 20.5588L23.5894 20.576L23.5806 20.6014C23.5782 20.6084 23.5772 20.6114 23.5773 20.6114C23.5774 20.6115 23.5788 20.6082 23.581 20.603C23.5876 20.5869 23.6021 20.5519 23.6128 20.5359C23.6248 20.5191 23.6351 20.5022 23.6462 20.4841L23.6596 20.4624C23.6963 20.4022 23.7298 20.342 23.7599 20.2818C23.7666 20.2684 23.7732 20.2542 23.7799 20.24L23.7927 20.2131C23.8174 20.1513 23.8416 20.0892 23.8602 20.0243C23.9025 19.8909 23.929 19.7575 23.955 19.6209L23.9588 19.5813L23.9638 19.5295C23.9705 19.4492 23.9739 19.369 23.9739 19.2887L23.9739 19.2888C23.9739 19.2019 23.9705 19.1116 23.9572 19.028C23.9572 19.0225 23.9562 18.9935 23.9542 18.9675L23.9505 18.9477C23.9237 18.8107 23.8936 18.6702 23.8502 18.5365C23.8432 18.5155 23.8325 18.4921 23.8215 18.4678L23.8215 18.4678C23.8028 18.4267 23.7829 18.383 23.7777 18.3444L23.7666 18.3208C23.7599 18.3066 23.7532 18.2924 23.7465 18.279C23.7164 18.2188 23.683 18.1586 23.6462 18.1018C23.6378 18.0901 23.6295 18.0776 23.6211 18.065C23.6128 18.0525 23.6044 18.0399 23.596 18.0282C23.5891 18.0183 23.5833 18.0063 23.5792 17.9962L23.5827 18.0082C23.576 17.9981 23.5659 17.9848 23.5559 17.9747L23.5485 17.966L23.5484 17.966C23.5316 17.9462 23.5166 17.9287 23.4991 17.9112C23.4773 17.8858 23.4536 17.8624 23.429 17.8394C23.3805 18.8061 23.3816 19.7768 23.4294 20.744ZM23.6008 20.5432C23.6009 20.5422 23.5989 20.5464 23.5948 20.5588C23.5987 20.5504 23.6008 20.5443 23.6008 20.5432ZM23.5394 16.3791C23.6428 16.4109 23.7457 16.4518 23.8502 16.5035C24.1311 16.6439 24.3785 16.8613 24.5758 17.1054C24.5945 17.1287 24.6128 17.1522 24.6307 17.1759L24.4575 12.28L24.4451 12.3107C24.4359 12.3332 24.4267 12.3558 24.4183 12.3776C24.2445 12.8156 24.1074 13.2704 23.9937 13.7284C23.8566 14.2667 23.7529 14.8151 23.666 15.3635C23.6606 15.4064 23.6543 15.4484 23.648 15.4899C23.6426 15.526 23.6372 15.5618 23.6326 15.5975C23.6292 15.6243 23.5958 15.8617 23.6158 15.7146C23.5991 15.8583 23.5824 15.9988 23.5657 16.1392C23.5565 16.2192 23.5478 16.2991 23.5394 16.3791ZM23.7866 18.3626C23.8225 18.4344 23.7862 18.3831 23.7781 18.3452L23.7866 18.3626ZM23.7773 18.3407C23.7768 18.3378 23.7766 18.3351 23.7766 18.3325L23.7773 18.3407ZM22.7319 25.3222C22.7765 25.4941 22.8244 25.665 22.8764 25.8347C22.9625 26.1176 23.0593 26.3985 23.1691 26.6738C22.5935 26.4659 22.0178 26.2574 21.4422 26.0488L21.4408 26.0483L21.4394 26.0478L21.438 26.0473L21.4367 26.0468C20.8143 25.8214 20.192 25.5959 19.5697 25.3713C18.8481 25.1103 18.1274 24.8493 17.4066 24.5883C16.7147 24.3377 16.0227 24.0871 15.3299 23.8365C14.8082 23.6469 14.2856 23.4582 13.763 23.2695L13.7629 23.2694L13.7628 23.2694L13.7627 23.2693L13.7621 23.2691L13.7615 23.2689L13.7609 23.2687C13.2427 23.0815 12.7244 22.8943 12.2069 22.7064C12.0376 22.6454 11.8685 22.5843 11.6995 22.523C11.6575 22.5014 11.6116 22.4844 11.5617 22.473C11.4614 22.4366 11.3611 22.4001 11.2608 22.3637L11.2607 22.3636C11.0368 22.2823 10.8128 22.2009 10.5886 22.1198V20.3558V16.8082V16.4537C10.916 16.3356 11.2429 16.2175 11.5683 16.0993C12.1554 15.8864 12.7417 15.6744 13.328 15.4623L13.329 15.462C13.921 15.2478 14.513 15.0337 15.1058 14.8187C15.8202 14.5611 16.5336 14.3027 17.2471 14.0442C17.9597 13.7861 18.6723 13.5279 19.3858 13.2706C19.9067 13.0815 20.4277 12.8929 20.9483 12.7044L20.9487 12.7042L20.9497 12.7039L20.95 12.7038C21.662 12.446 22.3734 12.1885 23.0838 11.9298L23.1572 11.9033C23.0629 12.1513 22.981 12.4 22.9066 12.6387C22.6368 13.5029 22.4562 14.3959 22.329 15.2951C22.1412 16.5701 22.0617 17.8646 22.0545 19.1486C22.0475 20.413 22.1137 21.6855 22.2804 22.9423C22.3834 23.7453 22.528 24.5432 22.7319 25.3222ZM7.68586 23.2503C7.5123 23.2499 7.33872 23.2491 7.16514 23.2478C6.22222 23.241 5.4699 22.4988 5.45318 21.5559C5.45095 21.3708 5.4517 21.1858 5.45244 21.0008C5.45281 20.9083 5.45318 20.8158 5.45318 20.7233V17.5468C5.45318 17.4903 5.45242 17.433 5.45165 17.3753C5.44758 17.071 5.44335 16.7545 5.55015 16.4735C5.74739 15.9485 6.17875 15.5172 6.73715 15.3901C6.93443 15.3433 7.13171 15.3399 7.33232 15.3399H9.73431L9.74274 15.3369C9.74776 15.3352 9.75194 15.3335 9.75612 15.3319C9.7603 15.3302 9.76448 15.3285 9.76949 15.3269C10.1611 15.1781 10.5542 15.0379 10.9469 14.8979C11.1543 14.8239 11.3615 14.75 11.5684 14.6748C12.2792 14.416 12.9911 14.1583 13.7035 13.9004C14.2243 13.7119 14.7454 13.5232 15.2665 13.334C15.9797 13.0768 16.6922 12.8187 17.4046 12.5606L17.405 12.5605C18.1185 12.302 18.832 12.0435 19.5464 11.7859C20.1396 11.5708 20.7319 11.3566 21.3243 11.1423C21.9105 10.9303 22.4968 10.7182 23.084 10.5053C23.5451 10.3379 24.0093 10.1705 24.4736 10.0031C24.8889 9.72573 25.4026 9.60461 25.8896 9.7863C26.3745 9.96349 26.7222 10.3213 27.0131 10.7359C27.3307 11.1873 27.5481 11.7089 27.7353 12.2238C27.956 12.8324 28.1165 13.4676 28.2469 14.1029C28.5946 15.8049 28.7284 17.5536 28.7317 19.289C28.7317 19.312 28.7306 19.3346 28.7283 19.3568C28.7274 19.7848 28.7174 20.2155 28.6983 20.6432C28.6281 22.2582 28.4408 23.8933 28.0162 25.4581C27.8524 26.0566 27.6484 26.6485 27.3776 27.2102C27.1736 27.6315 26.9128 28.0595 26.5651 28.3771C26.3678 28.5577 26.1605 28.6915 25.9097 28.7884C25.8395 28.8152 25.7726 28.8352 25.7024 28.8486C25.6154 28.8653 25.5252 28.8787 25.4382 28.882H25.3914C25.339 28.882 25.2879 28.8763 25.2384 28.8649C25.1017 28.8519 24.9511 28.7831 24.8176 28.7222L24.8176 28.7222L24.8176 28.7221L24.8172 28.722C24.7684 28.6997 24.7219 28.6784 24.6792 28.6614C24.6196 28.6377 24.5626 28.6101 24.508 28.5792C24.0888 28.4438 23.6736 28.2874 23.2598 28.1315C23.036 28.0471 22.8126 27.9629 22.5892 27.8823C21.2918 27.4142 19.9911 26.9427 18.6904 26.4713C17.2928 25.9631 15.8985 25.4582 14.5008 24.9533C14.1244 24.8169 13.7485 24.681 13.3729 24.5452L13.372 24.5449L13.3716 24.5447L13.3713 24.5446L13.371 24.5445L13.3707 24.5444L13.3703 24.5443C12.8805 24.3672 12.3913 24.1903 11.9021 24.0127C11.8215 24.4676 11.7399 24.9221 11.6582 25.3767C11.5755 25.8371 11.4928 26.2977 11.4112 26.7588C11.3541 27.0816 11.2969 27.4035 11.2397 27.7254C11.1832 28.0438 11.1267 28.3622 11.0702 28.6814C11.0585 28.7481 11.0481 28.8161 11.0376 28.8846C10.9788 29.2687 10.9177 29.6677 10.6255 29.9487C10.3178 30.2462 9.92664 30.3298 9.51537 30.263C9.44515 30.2529 9.37493 30.2396 9.30472 30.2262C8.97033 30.166 8.63261 30.1058 8.2949 30.0456C8.23172 30.0348 8.16825 30.0245 8.10466 30.0142C7.95286 29.9896 7.80038 29.9649 7.64956 29.9319C7.24161 29.845 6.93399 29.5373 6.79021 29.1562C6.70328 28.9322 6.72 28.7115 6.75678 28.4841C6.8718 27.7692 7.00203 27.0573 7.13209 26.3464C7.19485 26.0033 7.25757 25.6605 7.31851 25.3176C7.41243 24.7939 7.50536 24.2692 7.59838 23.744C7.62752 23.5795 7.65667 23.4149 7.68586 23.2503ZM9.04842 23.249C8.95442 23.8205 8.84836 24.3904 8.7423 24.9604C8.67579 25.3179 8.60928 25.6753 8.54574 26.0332C8.4889 26.3558 8.43123 26.6793 8.37355 27.0028C8.31587 27.3263 8.25819 27.6498 8.20134 27.9725C8.18222 28.0765 8.16565 28.1818 8.14906 28.2873C8.12955 28.4113 8.11 28.5356 8.08619 28.6584C8.09782 28.6604 8.10951 28.6624 8.12125 28.6644C8.1533 28.6698 8.18568 28.6752 8.21806 28.6814L9.18104 28.8519C9.25795 28.8653 9.33402 28.8787 9.41009 28.892C9.48616 28.9054 9.56222 28.9188 9.63913 28.9322C9.64899 28.9337 9.65991 28.935 9.67152 28.9363C9.78776 28.2976 9.90053 27.6579 10.0133 27.0183C10.091 26.5771 10.1688 26.136 10.2477 25.6955C10.3748 24.9846 10.502 24.2716 10.6291 23.5582C10.5767 23.5393 10.5243 23.5204 10.472 23.5015C10.2384 23.4172 10.0048 23.3329 9.77042 23.2479H9.59806C9.41497 23.2481 9.23174 23.2485 9.04842 23.249ZM8.06277 28.737C8.06452 28.7408 8.06608 28.7442 8.06744 28.7473C8.06713 28.749 8.0668 28.7508 8.06646 28.7527C8.06503 28.7495 8.06355 28.7461 8.06212 28.7425C8.06232 28.7406 8.06254 28.7388 8.06277 28.737ZM7.981 28.6384C7.97574 28.6351 7.97006 28.6316 7.96394 28.6279C7.97002 28.6319 7.97503 28.6352 7.97911 28.638C7.97974 28.6381 7.98038 28.6383 7.981 28.6384ZM7.92048 28.6212C7.92048 28.6191 7.93282 28.6244 7.94738 28.6309C7.93229 28.6272 7.92048 28.6236 7.92048 28.6212ZM8.06094 28.7616C8.06092 28.7627 8.06091 28.7638 8.06091 28.765C8.06091 28.7692 8.06108 28.7737 8.06136 28.7782C8.05588 28.8029 8.05017 28.8274 8.04419 28.8519C8.05163 28.8222 8.05722 28.7979 8.06136 28.7783C8.06377 28.8166 8.07458 28.8564 8.06257 28.7727C8.06231 28.7739 8.06204 28.7751 8.06178 28.7763C8.06204 28.775 8.0623 28.7738 8.06255 28.7726C8.06205 28.7691 8.06152 28.7655 8.06094 28.7616ZM8.06679 28.7534C8.06984 28.7601 8.07265 28.7654 8.07437 28.768C8.07749 28.7728 8.07702 28.7688 8.06789 28.7483C8.06752 28.75 8.06715 28.7517 8.06679 28.7534ZM8.06178 28.7763C8.06164 28.7769 8.0615 28.7776 8.06136 28.7782C8.06136 28.7782 8.06136 28.7782 8.06136 28.7783C8.0615 28.7776 8.06164 28.777 8.06178 28.7763ZM9.25122 21.7634V21.907H7.42255C7.3892 21.907 7.35585 21.9073 7.3225 21.9077L7.32225 21.9077C7.25537 21.9085 7.1885 21.9092 7.12162 21.907C7.11689 21.907 7.11028 21.9062 7.10294 21.9052C7.06865 21.8936 7.03068 21.881 6.99462 21.8747C6.99101 21.8725 6.98852 21.8708 6.98788 21.8702L6.9734 21.8613L6.97339 21.8613L6.97338 21.8613C6.96012 21.8531 6.94558 21.844 6.93104 21.8368L6.92619 21.8341C6.90803 21.816 6.88736 21.7942 6.8759 21.782L6.87585 21.782L6.86751 21.7732L6.86451 21.7705L6.86417 21.7699C6.86079 21.7648 6.84291 21.7367 6.82691 21.7097C6.82468 21.696 6.81927 21.6815 6.81372 21.6667C6.80875 21.6534 6.80366 21.6397 6.80064 21.6261C6.79962 21.621 6.79861 21.6141 6.79751 21.6066L6.79642 21.5992L6.79562 21.5876C6.79478 21.5759 6.79395 21.5642 6.79395 21.5525V21.5325V21.4255V20.9774V17.9113C6.79395 17.8143 6.79358 17.7172 6.7932 17.6203L6.7932 17.6202C6.79246 17.4266 6.79172 17.2335 6.79395 17.0419V17.0219V16.978C6.79638 16.9661 6.79886 16.9545 6.80064 16.9483C6.80301 16.9388 6.81125 16.9164 6.81897 16.8953L6.82601 16.876L6.83855 16.853C6.84523 16.8407 6.85108 16.8299 6.85414 16.8246C6.85502 16.8237 6.85775 16.8194 6.86137 16.8135L6.87012 16.8038L6.87014 16.8038L6.87017 16.8038C6.88268 16.7899 6.90032 16.7704 6.91676 16.7531C6.92585 16.7484 6.9343 16.743 6.94274 16.7377L6.94275 16.7377C6.95194 16.7318 6.96114 16.726 6.97116 16.7209C6.97952 16.7159 6.98956 16.7109 6.99959 16.7059C7.00677 16.7023 7.01395 16.6987 7.02052 16.6951C7.03822 16.6906 7.0571 16.6863 7.07149 16.6831L7.08862 16.6791C7.10187 16.6783 7.11505 16.6775 7.12163 16.6775H7.21525H9.25122V18.2158V21.7634ZM7.04472 21.9003C7.04472 21.9023 7.02616 21.8926 7.01022 21.8837C7.03022 21.8898 7.04853 21.8965 7.04472 21.9003ZM6.96113 21.8635C6.959 21.8646 6.94941 21.8565 6.93711 21.8447C6.95133 21.854 6.96325 21.8625 6.96113 21.8635ZM6.80064 21.6562C6.80436 21.6537 6.81037 21.6715 6.81596 21.6909C6.80546 21.6723 6.79814 21.6574 6.80064 21.6562ZM6.89092 16.7711C6.89597 16.7724 6.88334 16.7865 6.86892 16.8012C6.87833 16.7859 6.889 16.7692 6.89092 16.7711ZM6.96113 16.7143C6.965 16.7168 6.94845 16.7279 6.9307 16.7388C6.94636 16.723 6.95881 16.7119 6.96113 16.7143ZM6.96782 16.7143C6.96782 16.7103 6.98629 16.7042 7.00918 16.6981C6.98952 16.7093 6.96917 16.7196 6.96782 16.7143ZM30.8746 19.9038H33.5496H33.9308C34.2818 19.9038 34.6162 19.5962 34.5995 19.235C34.5828 18.8739 34.3053 18.5663 33.9308 18.5663H31.2558H30.8746C30.5235 18.5663 30.1892 18.8739 30.2059 19.235C30.2226 19.5995 30.5001 19.9038 30.8746 19.9038ZM31.6739 13.5179L31.6715 13.5197C31.3153 13.7866 30.9592 14.0535 30.6039 14.3204C30.303 14.5444 29.8683 14.3572 29.6878 14.0796C29.4771 13.752 29.651 13.3741 29.9285 13.1635C29.9786 13.1251 30.0296 13.0867 30.0805 13.0482L30.0809 13.048C30.1318 13.0096 30.1827 12.9712 30.2328 12.9328C30.5889 12.6653 30.9458 12.3978 31.3028 12.1303C31.6597 11.8628 32.0166 11.5953 32.3727 11.3278C32.6737 11.1038 33.1117 11.291 33.2889 11.5686C33.4995 11.8962 33.3257 12.2741 33.0481 12.4847C32.998 12.5231 32.9471 12.5615 32.8962 12.5999L32.8958 12.6002L32.8957 12.6003C32.8448 12.6387 32.7939 12.677 32.7439 12.7154C32.3886 12.9823 32.0324 13.2492 31.6763 13.5161L31.6739 13.5179ZM30.9969 26.109L30.9985 26.1102C31.3554 26.3776 31.7123 26.6451 32.0683 26.9125C32.1185 26.951 32.1696 26.9895 32.2206 27.028C32.2716 27.0664 32.3225 27.1048 32.3726 27.1432C32.6535 27.3539 33.1316 27.1967 33.2887 26.9025C33.4726 26.5514 33.3489 26.2137 33.048 25.9864C32.6919 25.7189 32.3349 25.4514 31.978 25.1839C31.6211 24.9164 31.2641 24.6489 30.908 24.3814C30.8578 24.3429 30.8068 24.3044 30.7558 24.2659C30.7048 24.2275 30.6539 24.1891 30.6038 24.1507C30.3229 23.94 29.8447 24.0972 29.6876 24.3914C29.5037 24.7459 29.6274 25.0836 29.9284 25.3076C30.284 25.5747 30.6405 25.8419 30.9969 26.109Z" fill="#575DC2"/>
</svg>
