<svg width="40" height="40" viewBox="0 0 40 40" fill="none" xmlns="http://www.w3.org/2000/svg">
<rect x="2.54993" y="2.54993" width="34.95" height="34.95" rx="1.75" fill="#EDEEFF"/>
<path d="M5.93579 22.3258H9.28743C9.55562 22.3258 9.7732 22.5433 9.7732 22.8113V23.449C11.7543 23.4605 12.1061 23.5644 14.3083 24.2172C15.272 24.5029 16.6069 24.899 18.6643 25.4554H22.9431C23.5109 25.4554 24.033 25.6446 24.416 25.9479C24.8293 26.2756 25.0871 26.7387 25.0871 27.2551C25.0871 27.34 25.0805 27.4222 25.0688 27.5017L31.9867 25.2591C32.4089 25.1223 32.8084 25.1103 33.1837 25.2061L33.2079 25.2117C33.603 25.3172 33.9596 25.5401 34.2775 25.858C34.3068 25.8883 34.3333 25.9222 34.3552 25.9605L34.4352 26.1166C34.6119 26.5093 34.6449 26.9539 34.5418 27.3532C34.4365 27.7574 34.193 28.1203 33.8195 28.3481L33.6507 28.4387L21.9227 33.775C21.5662 33.9376 21.2151 34.0453 20.8576 34.0993C20.5022 34.1532 20.1353 34.1548 19.7462 34.1049L9.77314 32.8396V33.9145C9.77314 34.1826 9.55556 34.4 9.28737 34.4H5.93573C5.66753 34.4 5.44995 34.1826 5.44995 33.9145V22.8117C5.44995 22.5437 5.66753 22.3262 5.93573 22.3262L5.93579 22.3258ZM22.2275 5.60049L25.0448 5.60004C25.313 5.60004 25.5306 5.8175 25.5306 6.08554L25.6349 7.76224C25.8837 7.8345 26.1273 7.92099 26.3639 8.01876L26.3887 8.02983C26.619 8.12625 26.8433 8.23442 27.0604 8.35365L28.344 7.22117C28.5365 7.05113 28.8275 7.0622 29.0069 7.2415L31.0002 9.23163C31.1895 9.42086 31.1895 9.72911 31.0002 9.91835L29.887 11.1786C30.0117 11.4049 30.1238 11.638 30.2221 11.8748C30.3199 12.111 30.406 12.3542 30.4783 12.6024L32.1846 12.7088C32.4422 12.7237 32.641 12.9378 32.641 13.1925L32.6422 16.0087C32.6422 16.2767 32.4246 16.4942 32.1564 16.4942L30.4787 16.5985C30.406 16.8467 30.3203 17.0899 30.2225 17.3258L30.2114 17.3502C30.115 17.5812 30.0063 17.8057 29.887 18.0232L31.0194 19.306C31.1895 19.4984 31.1785 19.7893 30.9991 19.9686L29.008 21.9607C28.8187 22.15 28.5103 22.15 28.3209 21.9607L27.0611 20.8481C26.8347 20.9728 26.6015 21.0848 26.364 21.1835L26.3381 21.1934C26.1074 21.2878 25.8724 21.3705 25.6349 21.44L25.5285 23.1444C25.5136 23.4019 25.2994 23.6006 25.0445 23.6006L22.2272 23.6017C21.9591 23.6017 21.7415 23.3843 21.7415 23.1162L21.6373 21.44C21.3885 21.3677 21.1457 21.2817 20.9093 21.1839L20.8849 21.1728C20.6538 21.0764 20.429 20.9676 20.2112 20.8481L18.928 21.9799C18.7355 22.1499 18.4445 22.1389 18.2651 21.9596L16.2716 19.9697C16.0822 19.7804 16.0822 19.4722 16.2716 19.283L17.3853 18.0231C17.2617 17.798 17.15 17.5654 17.0509 17.326C16.9521 17.09 16.866 16.8468 16.7937 16.5984L15.0879 16.4921C14.8303 16.4772 14.6315 16.2631 14.6315 16.0084L14.6303 13.1922C14.6303 12.9242 14.8479 12.7067 15.1161 12.7067L16.7938 12.6024C16.8661 12.3558 16.9517 12.1132 17.0498 11.877C17.1489 11.6372 17.2612 11.4039 17.3853 11.1784L16.2524 9.89505C16.0823 9.70266 16.0933 9.4118 16.2727 9.2325L18.264 7.24011C18.4533 7.05088 18.7617 7.05088 18.9511 7.24011L20.2116 8.35317C20.4378 8.22897 20.6703 8.11696 20.9075 8.0185L20.9335 8.00857C21.1642 7.91418 21.3994 7.83153 21.6376 7.76198L21.7435 6.05707C21.7584 5.79964 21.9726 5.60092 22.2275 5.60025L22.2275 5.60049ZM25.5222 12.7162C25.0403 12.2345 24.3726 11.9353 23.636 11.9353C22.9098 11.9353 22.2519 12.2239 21.7729 12.6916L21.7499 12.716C21.2675 13.1981 20.9685 13.8649 20.9685 14.6013C20.9685 15.3372 21.2672 16.0045 21.7499 16.4866C22.2318 16.9683 22.8995 17.2675 23.636 17.2675C24.3733 17.2675 25.0409 16.9692 25.5229 16.4876C26.0048 16.0059 26.3033 15.3381 26.3033 14.6013C26.3033 13.8654 26.0046 13.1981 25.5219 12.716L25.5222 12.7162ZM9.77364 24.4214V31.8655L19.8682 33.1461C20.1606 33.1831 20.4398 33.1815 20.7132 33.1404C20.9859 33.0991 21.2523 33.0176 21.5205 32.8956C25.1654 31.237 29.9185 29.381 33.3225 27.5192C33.4655 27.4293 33.5613 27.2802 33.6045 27.1127C33.6537 26.9196 33.6377 26.7055 33.5525 26.5177L33.5433 26.4996C33.3568 26.3244 33.161 26.2035 32.9576 26.1493L32.942 26.1448C32.7434 26.0958 32.5247 26.1051 32.2866 26.1823L23.8301 28.9224C23.7738 28.9404 23.7169 28.9476 23.6611 28.9449C23.4223 29.0179 23.176 29.0554 22.9433 29.0554H15.8351C15.5669 29.0554 15.3493 28.8379 15.3493 28.5699C15.3493 28.3018 15.5669 28.0844 15.8351 28.0844H22.9433C23.2506 28.0844 23.5899 27.9827 23.8317 27.7915C23.9993 27.6573 24.1154 27.4756 24.1154 27.2561C24.1154 27.0503 23.9989 26.8552 23.8125 26.7073C23.5951 26.5352 23.2871 26.4275 22.9433 26.4275H18.6029C18.5487 26.4275 18.4965 26.4187 18.4477 26.4022C16.4017 25.849 15.0271 25.4414 14.0354 25.1474C11.9633 24.5334 11.6248 24.4332 9.77343 24.4214L9.77364 24.4214ZM8.80185 23.2979H6.42177V33.4301H8.80185V23.2979Z" fill="#575DC2"/>
</svg>
