<svg width="40" height="40" viewBox="0 0 40 40" fill="none" xmlns="http://www.w3.org/2000/svg">
<rect x="2.55005" y="2.54987" width="34.95" height="34.95" rx="1.75" fill="#EDEEFF"/>
<path d="M31.3161 17.3516H30.9118V16.9478C30.9118 13.0543 28.8321 9.45704 25.4558 7.51028C22.0795 5.56339 17.9196 5.56339 14.5435 7.51028C11.1672 9.45689 9.08746 13.0545 9.08746 16.9478V17.3516H8.68318C7.82557 17.3516 7.00325 17.6917 6.39708 18.2973C5.79067 18.9029 5.44983 19.7241 5.44983 20.5803V25.0203C5.44983 25.8768 5.79067 26.698 6.39708 27.3037C7.0032 27.909 7.82557 28.2494 8.68318 28.2494H11.5122C11.7268 28.2494 11.9323 28.1643 12.084 28.0129C12.2356 27.8614 12.3208 27.6561 12.3208 27.4422V18.1589C12.3208 17.9446 12.2356 17.7394 12.084 17.5879C11.9323 17.4367 11.7268 17.3517 11.5122 17.3517H10.704V16.9479C10.704 13.6313 12.4759 10.5668 15.352 8.90866C18.2278 7.25035 21.7715 7.25035 24.6476 8.90866C27.5238 10.567 29.2956 13.6315 29.2956 16.9479V17.3517H28.4874C28.0408 17.3517 27.6788 17.7129 27.6788 18.1589V27.4422C27.6788 27.6561 27.764 27.8614 27.9156 28.0128C28.0673 28.1643 28.2728 28.2493 28.4874 28.2493H29.999H29.9987C29.8197 28.9419 29.4154 29.5557 28.849 29.9941C28.2829 30.4324 27.5869 30.6706 26.8705 30.6709H23.0917C22.8354 29.947 22.2505 29.3873 21.5152 29.1626C20.7799 28.9377 19.9816 29.0745 19.3633 29.5312C18.7451 29.9879 18.3806 30.7103 18.3806 31.4784C18.3806 32.2461 18.7451 32.9686 19.3633 33.4253C19.9816 33.8819 20.78 34.0188 21.5152 33.7941C22.2505 33.5691 22.8354 33.0094 23.0917 32.2856H26.8705C28.0165 32.2853 29.1253 31.8799 30.0007 31.1411C30.8758 30.4023 31.4607 29.3778 31.6519 28.2493C32.45 28.1663 33.1886 27.7896 33.7243 27.1927C34.2597 26.5961 34.554 25.8216 34.5498 25.0203V20.5803C34.5498 19.7241 34.2089 18.9029 33.6025 18.2973C32.9964 17.6917 32.174 17.3516 31.3164 17.3516L31.3161 17.3516ZM10.7039 26.6349L8.68312 26.6346C8.25432 26.6346 7.84326 26.4645 7.53993 26.1619C7.23687 25.8589 7.06658 25.4484 7.06658 25.0202V20.5802C7.06658 20.1523 7.23687 19.7415 7.53993 19.4388C7.84327 19.1359 8.25431 18.9658 8.68312 18.9658H10.7039V26.6349ZM20.8079 32.2854C20.4812 32.2854 20.1863 32.0886 20.0611 31.7871C19.9359 31.4853 20.0053 31.1381 20.2364 30.9073C20.4676 30.6764 20.8152 30.6074 21.1172 30.7324C21.4194 30.8572 21.6162 31.1516 21.6162 31.4783C21.6162 31.6922 21.531 31.8975 21.3796 32.049C21.2279 32.2004 21.0224 32.2855 20.8079 32.2855L20.8079 32.2854ZM32.9327 25.0202C32.9327 25.4485 32.7624 25.859 32.4594 26.1619C32.156 26.4646 31.745 26.6346 31.3162 26.6346H29.2954V18.9658H31.3162C31.745 18.9658 32.156 19.1359 32.4594 19.4388C32.7624 19.7415 32.9327 20.1522 32.9327 20.5802V25.0202Z" fill="#575DC2"/>
</svg>
