<svg width="40" height="40" viewBox="0 0 40 40" fill="none" xmlns="http://www.w3.org/2000/svg">
<rect x="2.55005" y="2.55023" width="34.95" height="34.95" rx="1.75" fill="#EDEEFF"/>
<path fill-rule="evenodd" clip-rule="evenodd" d="M32.6615 5.49988H7.25732C6.27064 5.49988 5.49988 6.30141 5.49988 7.25732V32.6924C5.49988 33.6791 6.30141 34.4499 7.25732 34.4499H32.6924C33.6791 34.4499 34.4499 33.6483 34.4499 32.6924L34.4497 7.25732C34.4497 6.27064 33.6481 5.49988 32.6615 5.49988ZM33.2784 32.6615C33.2784 33.0006 33.0009 33.278 32.6618 33.278L7.25754 33.2783C6.9184 33.2783 6.64099 33.0008 6.64099 32.6617L6.64077 7.25743C6.64077 6.91828 6.9182 6.64087 7.25733 6.64087H32.6924C33.0316 6.64087 33.309 6.9183 33.309 7.25743L33.2785 32.6617L33.2784 32.6615ZM29.7329 10.4328H18.0174C17.709 10.4328 17.4315 10.7102 17.4315 11.0187V13.9168C17.4315 14.2252 17.7089 14.5026 18.0174 14.5026H29.7329C30.0413 14.5026 30.3188 14.2252 30.3188 13.9168V11.0187C30.3188 10.6795 30.0413 10.4328 29.7329 10.4328ZM29.1781 13.3309H18.6032V11.6045H29.1472L29.1781 13.3309ZM10.2173 12.4367C10.2173 11.3578 11.0805 10.4328 12.2211 10.4328C13.3618 10.4328 14.225 11.3578 14.225 12.4367C14.225 13.5156 13.3003 14.4406 12.2211 14.4406C11.1422 14.4406 10.2173 13.5159 10.2173 12.4367ZM11.3579 12.4677C11.3579 12.9301 11.7278 13.3309 12.2211 13.3309C12.7143 13.3309 13.0844 12.9301 13.0844 12.4677C13.0844 12.0053 12.7145 11.6044 12.2211 11.6044C11.7588 11.6044 11.3579 12.0053 11.3579 12.4677ZM29.7329 17.8319H18.0174C17.709 17.8319 17.4315 18.1093 17.4315 18.4177V21.3159C17.4315 21.6243 17.7089 21.9017 18.0174 21.9017H29.7329C30.0413 21.9017 30.3188 21.6243 30.3188 21.3159V18.4177C30.3188 18.0786 30.0413 17.8319 29.7329 17.8319ZM29.1781 20.73H18.6032V19.0036H29.1472L29.1781 20.73ZM10.2173 19.8358C10.2173 18.7569 11.0805 17.8319 12.2211 17.8319C13.3618 17.8319 14.225 18.7261 14.225 19.8358C14.225 20.9147 13.3003 21.8396 12.2211 21.8396C11.1422 21.8396 10.2173 20.9764 10.2173 19.8358ZM11.3579 19.8668C11.3579 20.3292 11.7278 20.73 12.2211 20.73C12.7143 20.73 13.0844 20.3291 13.0844 19.8668C13.0844 19.4044 12.7145 19.0035 12.2211 19.0035C11.7588 19.0035 11.3579 19.3734 11.3579 19.8668ZM29.7329 25.4472H18.0174C17.709 25.4472 17.4315 25.7247 17.4315 26.0331V28.9312C17.4315 29.2396 17.7089 29.517 18.0174 29.517H29.7329C30.0413 29.517 30.3188 29.2396 30.3188 28.9312V26.0331C30.3188 25.6939 30.0413 25.4472 29.7329 25.4472ZM29.1781 28.3454H18.6032V26.6189H29.1472L29.1781 28.3454ZM10.2173 27.4511C10.2173 26.3722 11.0805 25.4472 12.2211 25.4472C13.3618 25.4472 14.225 26.3722 14.225 27.4511C14.225 28.53 13.3003 29.455 12.2211 29.455C11.1422 29.455 10.2173 28.5303 10.2173 27.4511ZM11.3579 27.4821C11.3579 27.9445 11.7278 28.3454 12.2211 28.3454C12.7143 28.3454 13.0844 27.9445 13.0844 27.4821C13.0844 27.0197 12.7145 26.6188 12.2211 26.6188C11.7588 26.6188 11.3579 26.9888 11.3579 27.4821Z" fill="#575DC2"/>
</svg>
