<svg width="40" height="40" viewBox="0 0 40 40" fill="none" xmlns="http://www.w3.org/2000/svg">
<rect x="2.55005" y="2.55023" width="34.95" height="34.95" rx="1.75" fill="#EDEEFF"/>
<path fill-rule="evenodd" clip-rule="evenodd" d="M33.0525 5.69854L34.5098 16.7887H34.5099C34.6247 17.5601 34.4002 18.3435 33.8945 18.9371C33.4662 19.4328 32.842 19.715 32.1872 19.7093V34.2257C32.1872 34.3797 32.126 34.5274 32.0172 34.6363C31.9083 34.7452 31.7605 34.8063 31.6066 34.8063H8.38042C8.22644 34.8063 8.07869 34.7452 7.96981 34.6363C7.86094 34.5274 7.79977 34.3797 7.79977 34.2257V19.7093C7.13278 19.7254 6.49381 19.4421 6.0578 18.9371C5.56451 18.3378 5.35273 17.555 5.47715 16.7887L6.92308 5.69854C6.96118 5.4077 7.21029 5.19073 7.50373 5.19332H32.4718C32.765 5.19073 33.0144 5.4077 33.0525 5.69854ZM29.3654 16.9161L28.384 6.35418L25.9626 6.35394L26.5432 16.8057C26.5414 17.2409 26.7024 17.6609 26.9948 17.9833C27.2869 18.3058 27.6895 18.507 28.1227 18.5477C28.4532 18.5471 28.7679 18.4056 28.9879 18.1586C29.284 17.8166 29.4211 17.3651 29.3654 16.9161ZM24.7956 6.35418H22.3685L22.5657 16.8522C22.552 17.2716 22.6987 17.6806 22.9761 17.9956C23.2535 18.3105 23.6402 18.5081 24.0581 18.5477C24.3964 18.5456 24.7183 18.4026 24.9465 18.1529C25.2567 17.8097 25.412 17.354 25.3762 16.8929L24.7956 6.35418ZM21.2072 6.35418H18.7802L18.5826 16.8697C18.5694 17.3407 18.7426 17.7974 19.0645 18.1414C19.3085 18.3926 19.6436 18.5344 19.9936 18.5344C20.3435 18.5344 20.6787 18.3926 20.9226 18.1414C21.2445 17.7974 21.4177 17.3407 21.4045 16.8697H21.4047L21.2072 6.35418ZM17.6188 6.35418H15.1918L14.6051 16.8931C14.5691 17.3542 14.7246 17.8099 15.0346 18.1531C15.2643 18.4043 15.5886 18.5474 15.929 18.5479C16.3468 18.5083 16.7336 18.3107 17.011 17.9958C17.2883 17.6808 17.4351 17.2718 17.4213 16.8524L17.6188 6.35418ZM13.4496 16.8059H13.4498L14.0302 6.35442H11.6031L10.6277 16.9163C10.5717 17.3653 10.7088 17.8169 11.0051 18.1588C11.2249 18.4058 11.5396 18.5474 11.8701 18.5479C12.3035 18.5072 12.7059 18.306 12.9983 17.9836C13.2904 17.6611 13.4516 17.2412 13.4496 16.8059ZM6.63856 16.9337C6.56546 17.3733 6.68393 17.8233 6.96362 18.1704L6.96355 18.1701C7.17147 18.4154 7.47865 18.5538 7.79982 18.5476C8.23946 18.5027 8.64853 18.3029 8.95389 17.9835C9.25926 17.6644 9.44097 17.2468 9.46637 16.8056H9.46611L10.4358 6.35385H8.02045L6.63856 16.9337ZM11.2838 22.6126V33.645H17.0904V22.6126H11.2838ZM18.2517 33.645H31.026L31.0261 19.4187C30.665 19.2227 30.3487 18.9537 30.097 18.6291C30.0263 18.7383 29.9488 18.843 29.8648 18.9425C29.4202 19.4351 28.7864 19.714 28.1228 19.7091C27.3009 19.6876 26.5343 19.2891 26.0441 18.6292C25.9713 18.7417 25.8896 18.8485 25.8002 18.9485C25.3512 19.4341 24.7195 19.7099 24.0583 19.7091C23.2429 19.6963 22.4816 19.3005 22.0026 18.6406C21.9238 18.7554 21.8364 18.864 21.7413 18.9659C21.2859 19.44 20.657 19.708 19.9993 19.708C19.342 19.708 18.7128 19.44 18.2574 18.9659C18.1625 18.864 18.0752 18.7554 17.9961 18.6406C17.521 19.3034 16.7617 19.7033 15.9464 19.7207C15.2851 19.7215 14.6534 19.4457 14.2045 18.9599C14.115 18.8601 14.0334 18.7533 13.9605 18.6405C13.4704 19.3007 12.7039 19.6989 11.8819 19.7207C11.2185 19.7256 10.5845 19.4467 10.1399 18.9541C10.0562 18.8546 9.9784 18.7499 9.90764 18.6405C9.64969 18.963 9.32748 19.2279 8.9612 19.4187V33.645H10.1225V22.032C10.1225 21.7113 10.3825 21.4513 10.7032 21.4513H17.671C17.825 21.4513 17.9727 21.5125 18.0816 21.6214C18.1905 21.7302 18.2517 21.878 18.2517 22.032V33.645ZM32.1873 18.5479C32.5086 18.5541 32.8157 18.4157 33.0236 18.1704L33.0235 18.1707C33.3032 17.8236 33.4217 17.3736 33.3486 16.934L31.9664 6.35415H29.5511L30.5208 16.8059C30.5462 17.2471 30.7279 17.6647 31.0333 17.9838C31.3387 18.3032 31.7477 18.503 32.1873 18.5479ZM19.9936 21.4516H29.2841C29.4381 21.4516 29.5858 21.5128 29.6947 21.6217C29.8036 21.7305 29.8647 21.8783 29.8647 22.0323V27.8388C29.8647 27.9928 29.8036 28.1405 29.6947 28.2494C29.5858 28.3583 29.4381 28.4195 29.2841 28.4195H19.9936C19.8397 28.4195 19.6919 28.3583 19.583 28.2494C19.4742 28.1406 19.413 27.9928 19.413 27.8388V22.0323C19.413 21.7116 19.673 21.4516 19.9936 21.4516ZM20.5743 27.2582H28.7034V22.6129H20.5743V27.2582Z" fill="#575DC2"/>
<path fill-rule="evenodd" clip-rule="evenodd" d="M33.0525 5.69854L34.5098 16.7887H34.5099C34.6247 17.5601 34.4002 18.3435 33.8945 18.9371C33.4662 19.4328 32.842 19.715 32.1872 19.7093V34.2257C32.1872 34.3797 32.126 34.5274 32.0172 34.6363C31.9083 34.7452 31.7605 34.8063 31.6066 34.8063H8.38042C8.22644 34.8063 8.07869 34.7452 7.96981 34.6363C7.86094 34.5274 7.79977 34.3797 7.79977 34.2257V19.7093C7.13278 19.7254 6.49381 19.4421 6.0578 18.9371C5.56451 18.3378 5.35273 17.555 5.47715 16.7887L6.92308 5.69854C6.96118 5.4077 7.21029 5.19073 7.50373 5.19332H32.4718C32.765 5.19073 33.0144 5.4077 33.0525 5.69854ZM29.3654 16.9161L28.384 6.35418L25.9626 6.35394L26.5432 16.8057C26.5414 17.2409 26.7024 17.6609 26.9948 17.9833C27.2869 18.3058 27.6895 18.507 28.1227 18.5477C28.4532 18.5471 28.7679 18.4056 28.9879 18.1586C29.284 17.8166 29.4211 17.3651 29.3654 16.9161ZM24.7956 6.35418H22.3685L22.5657 16.8522C22.552 17.2716 22.6987 17.6806 22.9761 17.9956C23.2535 18.3105 23.6402 18.5081 24.0581 18.5477C24.3964 18.5456 24.7183 18.4026 24.9465 18.1529C25.2567 17.8097 25.412 17.354 25.3762 16.8929L24.7956 6.35418ZM21.2072 6.35418H18.7802L18.5826 16.8697C18.5694 17.3407 18.7426 17.7974 19.0645 18.1414C19.3085 18.3926 19.6436 18.5344 19.9936 18.5344C20.3435 18.5344 20.6787 18.3926 20.9226 18.1414C21.2445 17.7974 21.4177 17.3407 21.4045 16.8697H21.4047L21.2072 6.35418ZM17.6188 6.35418H15.1918L14.6051 16.8931C14.5691 17.3542 14.7246 17.8099 15.0346 18.1531C15.2643 18.4043 15.5886 18.5474 15.929 18.5479C16.3468 18.5083 16.7336 18.3107 17.011 17.9958C17.2883 17.6808 17.4351 17.2718 17.4213 16.8524L17.6188 6.35418ZM13.4496 16.8059H13.4498L14.0302 6.35442H11.6031L10.6277 16.9163C10.5717 17.3653 10.7088 17.8169 11.0051 18.1588C11.2249 18.4058 11.5396 18.5474 11.8701 18.5479C12.3035 18.5072 12.7059 18.306 12.9983 17.9836C13.2904 17.6611 13.4516 17.2412 13.4496 16.8059ZM6.63856 16.9337C6.56546 17.3733 6.68393 17.8233 6.96362 18.1704L6.96355 18.1701C7.17147 18.4154 7.47865 18.5538 7.79982 18.5476C8.23946 18.5027 8.64853 18.3029 8.95389 17.9835C9.25926 17.6644 9.44097 17.2468 9.46637 16.8056H9.46611L10.4358 6.35385H8.02045L6.63856 16.9337ZM11.2838 22.6126V33.645H17.0904V22.6126H11.2838ZM18.2517 33.645H31.026L31.0261 19.4187C30.665 19.2227 30.3487 18.9537 30.097 18.6291C30.0263 18.7383 29.9488 18.843 29.8648 18.9425C29.4202 19.4351 28.7864 19.714 28.1228 19.7091C27.3009 19.6876 26.5343 19.2891 26.0441 18.6292C25.9713 18.7417 25.8896 18.8485 25.8002 18.9485C25.3512 19.4341 24.7195 19.7099 24.0583 19.7091C23.2429 19.6963 22.4816 19.3005 22.0026 18.6406C21.9238 18.7554 21.8364 18.864 21.7413 18.9659C21.2859 19.44 20.657 19.708 19.9993 19.708C19.342 19.708 18.7128 19.44 18.2574 18.9659C18.1625 18.864 18.0752 18.7554 17.9961 18.6406C17.521 19.3034 16.7617 19.7033 15.9464 19.7207C15.2851 19.7215 14.6534 19.4457 14.2045 18.9599C14.115 18.8601 14.0334 18.7533 13.9605 18.6405C13.4704 19.3007 12.7039 19.6989 11.8819 19.7207C11.2185 19.7256 10.5845 19.4467 10.1399 18.9541C10.0562 18.8546 9.9784 18.7499 9.90764 18.6405C9.64969 18.963 9.32748 19.2279 8.9612 19.4187V33.645H10.1225V22.032C10.1225 21.7113 10.3825 21.4513 10.7032 21.4513H17.671C17.825 21.4513 17.9727 21.5125 18.0816 21.6214C18.1905 21.7302 18.2517 21.878 18.2517 22.032V33.645ZM32.1873 18.5479C32.5086 18.5541 32.8157 18.4157 33.0236 18.1704L33.0235 18.1707C33.3032 17.8236 33.4217 17.3736 33.3486 16.934L31.9664 6.35415H29.5511L30.5208 16.8059C30.5462 17.2471 30.7279 17.6647 31.0333 17.9838C31.3387 18.3032 31.7477 18.503 32.1873 18.5479ZM19.9936 21.4516H29.2841C29.4381 21.4516 29.5858 21.5128 29.6947 21.6217C29.8036 21.7305 29.8647 21.8783 29.8647 22.0323V27.8388C29.8647 27.9928 29.8036 28.1405 29.6947 28.2494C29.5858 28.3583 29.4381 28.4195 29.2841 28.4195H19.9936C19.8397 28.4195 19.6919 28.3583 19.583 28.2494C19.4742 28.1406 19.413 27.9928 19.413 27.8388V22.0323C19.413 21.7116 19.673 21.4516 19.9936 21.4516ZM20.5743 27.2582H28.7034V22.6129H20.5743V27.2582Z" fill="#575DC2"/>
</svg>
