<svg width="1237" height="532" viewBox="0 0 1237 532" fill="none" xmlns="http://www.w3.org/2000/svg">
<g style="mix-blend-mode:multiply" opacity="0.4">
<path d="M16.7526 204.864C16.9567 204.736 17.2813 204.496 17.5816 204.268L18.7663 204.178L18.2655 203.747L18.378 203.667C18.8506 203.635 19.4722 203.586 19.6839 203.545C20.3347 203.401 20.9319 203.077 21.4071 202.61C21.4071 202.61 21.4458 202.578 21.4975 202.529L21.5 202.527C21.6513 202.384 21.9163 202.095 21.7054 202C21.6987 201.997 21.6775 201.993 21.6673 201.99C21.8551 201.947 22.0115 201.902 22.1397 201.864C23.1709 201.555 24.179 200.69 23.234 200.445C22.2108 200.26 21.1685 200.202 20.1312 200.274C19.1476 200.302 18.1675 200.403 17.199 200.576C16.3476 200.795 15.5232 201.108 14.7411 201.509C14.5476 201.59 14.3732 201.71 14.2291 201.862C13.9136 201.886 13.6459 201.91 13.4872 201.934C12.5618 202.12 11.648 202.359 10.75 202.65L10.9414 202.669C10.309 202.831 9.69888 203.07 9.12468 203.381C9.09648 203.46 9.26059 203.57 9.50719 203.687L7.78728 203.82L7.51445 203.871L8.29955 204.84C8.25295 204.861 8.21055 204.881 8.17845 204.9C7.89085 205.097 7.62911 205.33 7.39928 205.592C7.14277 205.818 6.87342 206.028 6.59258 206.222L6.62279 206.224L6.64238 206.225L6.71916 206.23L6.72429 206.231L6.33776 206.546C5.99398 206.652 5.65708 206.779 5.32897 206.927C4.95617 207.203 4.89658 207.744 4.39958 208.021C4.22206 208.097 4.03963 208.16 3.85356 208.211C3.54132 208.217 3.23168 208.269 2.9345 208.365C2.8377 208.417 3.00456 208.663 3.00456 208.663C3.30796 208.991 3.7151 209.205 4.1574 209.268C4.4839 209.278 4.90874 209.543 5.14464 209.487C5.38134 209.431 5.07097 208.928 5.07097 208.928C5.11872 208.76 5.20169 208.604 5.31438 208.47C6.53187 207.767 7.79128 207.14 9.0855 206.592L9.63616 206.293C9.83916 206.292 10.0378 206.291 10.2306 206.29L9.91405 206.556C9.57041 206.661 9.23362 206.788 8.90557 206.935C8.53237 207.212 8.47318 207.753 7.97588 208.03C7.79851 208.106 7.61623 208.169 7.43028 208.22H7.42986C7.13504 208.214 6.84126 208.257 6.56047 208.347C6.4742 208.405 6.39557 208.474 6.32646 208.551L6.13359 208.707L6.37145 208.769L6.58129 208.673C6.58129 208.673 6.5362 209 6.6444 209.087C6.99089 209.223 7.36116 209.287 7.73314 209.276C8.06044 209.287 8.75037 208.595 8.89067 208.479C10.108 207.776 11.3674 207.149 12.6617 206.6L13.4228 206.188C13.8449 206.164 14.083 206.145 14.083 206.145C14.083 206.145 16.4449 205.057 16.7526 204.864ZM19.7275 202.863L19.1415 203.356L18.7895 203.378L19.419 202.937L20.3598 202.712L19.7275 202.863ZM10.9222 203.301L12.5655 202.833L12.6828 202.845L13.2124 202.719L12.2564 203.425L12.1803 203.48L11.465 203.535C11.2909 203.442 11.1093 203.364 10.9222 203.301V203.301Z" fill="#939598"/>
</g>
<path d="M6.84924 176.213H2.70703V180.81H6.84924V176.213Z" fill="#6D2611"/>
<path d="M7.26068 208.355C7.26068 208.355 7.91708 209.306 7.82508 209.53C7.73328 209.754 7.3002 209.739 7.0611 209.704C6.64591 209.595 6.28852 209.331 6.06348 208.966C5.84226 208.432 5.65086 207.887 5.49018 207.332L5.4325 208.355H5.3169L5.15845 206.856C5.15845 206.856 5.05976 206.257 5.05976 206.048C5.05236 205.985 5.05818 205.922 5.07678 205.861C5.09539 205.8 5.1264 205.744 5.16785 205.697C5.2093 205.649 5.26026 205.61 5.31751 205.583C5.37476 205.556 5.43704 205.541 5.50037 205.539L7.26068 208.355Z" fill="#DD625B"/>
<path d="M4.76937 208.355C4.76937 208.355 5.42639 209.306 5.33419 209.53C5.24209 209.754 4.80898 209.739 4.57028 209.704C4.15504 209.595 3.79763 209.331 3.57241 208.966C3.35121 208.432 3.1596 207.887 2.99856 207.332L2.94167 208.355H2.82607L2.66702 206.856C2.61936 206.624 2.5866 206.39 2.56899 206.155C2.56275 206.018 2.60276 205.883 2.68264 205.771C2.76253 205.659 2.87764 205.578 3.00948 205.539L4.76937 208.355Z" fill="#DD625B"/>
<path d="M7.05707 196.633V199.098C6.84937 201.574 6.77788 204.06 6.84302 206.544C6.89512 207.006 7.26056 208.355 7.26056 208.355C7.14322 208.422 7.01057 208.457 6.87561 208.457C6.74065 208.457 6.608 208.422 6.49066 208.355C5.94456 207.819 5.56102 207.138 5.38422 206.393C5.44003 205.853 5.524 205.315 5.63574 204.783C5.62594 203.685 4.97576 201.55 4.88086 200.457C4.9086 199.948 4.98024 199.443 5.09497 198.947L4.88086 197.086L7.05707 196.633Z" fill="#FFC083"/>
<path d="M4.56635 196.633V199.098C4.35904 201.574 4.28771 204.06 4.35272 206.544C4.40482 207.006 4.76971 208.355 4.76971 208.355C4.6524 208.422 4.51978 208.457 4.38483 208.457C4.24988 208.457 4.11726 208.422 3.99994 208.355C3.4536 207.819 3.07002 207.139 2.89343 206.393C2.94931 205.853 3.03333 205.315 3.14514 204.783C3.13534 203.685 2.48543 201.55 2.39062 200.457C2.41792 199.948 2.48925 199.443 2.60382 198.947L2.39062 196.978L4.56635 196.633Z" fill="#FFC083"/>
<path d="M5.57953 178.268H3.80273V182.398H5.57953V178.268Z" fill="#FF8A54"/>
<path d="M7.45929 197.287C6.48234 197.735 5.41476 197.952 4.34021 197.919C3.67215 197.946 3.00428 197.86 2.36499 197.664C2.36499 197.664 2.22432 195.794 2.12012 195.174C2.02172 194.592 1.78341 193.021 1.77441 192.432C1.97347 190.799 2.33142 189.19 2.8432 187.627H7.27008C7.27008 187.627 7.62281 191.057 7.67291 192.205C7.70671 192.972 7.45929 197.287 7.45929 197.287Z" fill="#203C61"/>
<path d="M2.85968 192.68C3.06924 190.963 3.44587 189.271 3.98419 187.627H2.8432C2.33142 189.19 1.97347 190.799 1.77441 192.432C1.78341 193.021 2.02172 194.592 2.12012 195.174C2.22432 195.794 2.36499 197.664 2.36499 197.664C2.71894 197.78 3.08608 197.852 3.45782 197.878C3.41122 197.299 3.30662 196.056 3.22382 195.564C3.12072 194.952 2.86948 193.3 2.85968 192.68Z" fill="#112944"/>
<path d="M2.84302 188.054L2.47729 183.781L2.27124 184.282L0.682617 183.532C0.880992 182.542 1.2111 181.582 1.66412 180.679C2.32283 180.254 3.04435 179.936 3.80212 179.736L5.32611 181.95L5.57892 179.736C6.25308 180.017 6.88227 180.396 7.44623 180.86C7.75385 181.63 7.94679 182.442 8.01892 183.269L7.4231 183.681L7.0578 184.575L7.31384 188.054H2.84302Z" fill="#DD625B"/>
<path d="M2.28003 192.545L0.124023 188.178L5.88306 185.119L8.19305 189.482L2.28003 192.545Z" fill="#6BB29F"/>
<path d="M3.1875 176.818C3.1875 178.055 3.89958 179.439 4.77808 179.439C5.65678 179.439 6.36938 178.055 6.36938 176.818C6.36938 175.58 5.65678 174.957 4.77808 174.957C3.89958 174.957 3.1875 175.58 3.1875 176.818Z" fill="#FFA969"/>
<path d="M6.51845 174.712C6.23561 174.443 5.89536 174.241 5.52334 174.122C5.15131 174.003 4.75722 173.971 4.37069 174.026C3.98415 174.082 3.61523 174.225 3.29177 174.443C2.96831 174.662 2.69872 174.951 2.50326 175.289C2.15011 176.492 1.97759 177.74 1.99135 178.994C1.88912 180.021 2.16888 181.051 2.77724 181.885C3.11743 182.202 3.56157 182.384 4.02639 182.397C3.76334 182.105 3.53766 181.781 3.35457 181.433C3.2352 180.13 3.2352 178.818 3.35457 177.514C3.86093 177.195 4.28689 176.764 4.59945 176.253C4.76048 175.951 4.89851 175.637 5.01229 175.313C5.14739 175.643 5.34224 176.032 5.43984 176.236C5.61879 176.622 5.89587 176.954 6.24337 177.2C6.24337 177.2 6.44999 178.701 6.49349 179.175C6.60346 180.026 6.47607 180.891 6.12539 181.674C7.17979 181.674 7.43376 180.854 7.57326 180.319C7.89386 179.091 7.48665 175.667 6.51845 174.712Z" fill="#9B482A"/>
<path d="M5.92938 187.494L6.15076 187.303L6.35071 187.206L6.33105 187.147L6.25818 187.169L5.93011 187.389C5.86522 187.458 5.78997 187.517 5.70709 187.562C5.66852 187.576 5.62631 187.575 5.5885 187.559C5.55069 187.544 5.51992 187.515 5.50208 187.478L5.71338 187.256L6.0481 186.989L6.25421 186.875L6.23499 186.837L6.0387 186.944L5.74121 187.109C5.66714 187.176 5.58248 187.229 5.49078 187.268C5.37708 187.279 5.34491 187.136 5.34491 187.136L5.57928 186.928L5.95166 186.661L6.16687 186.552L6.14569 186.513L5.93518 186.58L5.61456 186.798C5.61456 186.798 5.47039 186.959 5.38489 186.954C5.32179 186.951 5.2959 186.831 5.2959 186.831L5.57928 186.543L5.9729 186.289L6.38599 186.249L6.90527 186.445L7.40186 186.234L7.1781 184.283L7.42346 183.682L8.01929 183.27C8.01929 183.27 8.47709 186.169 8.01929 186.974C7.86049 187.252 6.91827 187.627 6.91827 187.627L6.51837 187.481L6.24597 187.522C6.17508 187.601 6.09493 187.671 6.00726 187.731C5.97194 187.743 5.93393 187.745 5.89734 187.738C5.86075 187.73 5.82704 187.712 5.79999 187.686L5.92938 187.494Z" fill="#FFA969"/>
<path d="M0.840611 183.607L2.17649 184.233L1.63437 186.101C2.51678 187.219 3.2864 188.422 3.93198 189.692C4.08008 189.955 4.80686 189.934 5.09806 190.016C5.26544 190.089 5.42646 190.175 5.57938 190.274C5.57938 190.274 5.58247 190.394 5.54837 190.428C5.46887 190.507 5.21015 190.438 5.02945 190.422C4.96196 190.414 4.89365 190.427 4.8339 190.46C4.8339 190.46 5.30896 191.122 5.22666 191.351C5.20689 191.378 5.18129 191.399 5.15183 191.414C5.12237 191.429 5.08984 191.436 5.05686 191.437C5.00596 191.43 4.94801 191.271 4.90531 191.299C4.86491 191.325 4.98286 191.439 4.96396 191.483C4.94062 191.515 4.91017 191.541 4.87503 191.558C4.8399 191.576 4.80108 191.585 4.76175 191.585C4.71625 191.575 4.68567 191.418 4.64377 191.439C4.60147 191.46 4.70729 191.58 4.68729 191.623C4.66614 191.648 4.63985 191.669 4.61014 191.684C4.58044 191.699 4.54799 191.707 4.5148 191.709C4.4643 191.705 4.39056 191.564 4.34946 191.593C4.31256 191.619 4.4161 191.725 4.4 191.767C4.38118 191.797 4.35539 191.823 4.3248 191.841C4.29421 191.86 4.25966 191.871 4.22397 191.874C3.97467 191.827 3.60709 191.07 3.60709 191.07L3.26047 190.197C3.26047 190.197 0.78338 187.554 0.48978 186.432C0.450446 185.478 0.569004 184.523 0.840611 183.607V183.607Z" fill="#FFA969"/>
<path d="M3.80194 179.324L3.37891 179.871L3.4859 181.05H3.95593L3.8269 181.661L5.4469 182.46L6.11694 181.027L5.89294 180.892L6.27594 180.076L5.57892 179.324L5.2959 181.907L3.80194 179.324Z" fill="white"/>
<path d="M0.682617 183.533L0.778625 183.131L2.42963 183.896L2.27063 184.283L0.682617 183.533Z" fill="white"/>
<path d="M7.4234 183.682L7.31543 183.27L7.97742 182.941L8.01941 183.27L7.4234 183.682Z" fill="white"/>
<path d="M7.31549 183.27L7.06348 182.211L7.59546 183.131L7.31549 183.27Z" fill="#BF3936"/>
<path d="M3.62885 183.707C3.29135 183.515 2.79907 182.396 2.79907 182.396L2.14258 183.762L2.42987 183.895L2.48596 183.749L2.73474 186.792L3.31256 186.486C3.31256 186.486 3.17817 184.833 3.48187 184.674C3.92557 184.441 5.70075 184.759 6.36865 184.482C6.50594 184.425 6.62405 184.33 6.70911 184.208C6.79417 184.086 6.84263 183.942 6.84875 183.794C6.84875 183.794 4.32895 184.104 3.62885 183.707Z" fill="#BF3936"/>
<path d="M0.123962 188.18L0 188.383L1.94598 192.547H2.27997L0.123962 188.18Z" fill="#8BD2CA"/>
<g style="mix-blend-mode:multiply" opacity="0.4">
<path d="M1153.75 432.864C1153.96 432.736 1154.28 432.496 1154.58 432.268L1155.77 432.178L1155.27 431.747L1155.38 431.667C1155.85 431.635 1156.47 431.586 1156.68 431.545C1157.33 431.401 1157.93 431.077 1158.41 430.61C1158.41 430.61 1158.45 430.578 1158.5 430.529L1158.5 430.527C1158.65 430.384 1158.92 430.095 1158.71 430C1158.7 429.997 1158.68 429.993 1158.67 429.99C1158.86 429.947 1159.01 429.902 1159.14 429.864C1160.17 429.555 1161.18 428.69 1160.23 428.445C1159.21 428.26 1158.17 428.202 1157.13 428.274C1156.15 428.302 1155.17 428.403 1154.2 428.576C1153.35 428.795 1152.52 429.108 1151.74 429.509C1151.55 429.59 1151.37 429.71 1151.23 429.862C1150.91 429.886 1150.65 429.91 1150.49 429.934C1149.56 430.12 1148.65 430.359 1147.75 430.65L1147.94 430.669C1147.31 430.831 1146.7 431.07 1146.12 431.381C1146.1 431.46 1146.26 431.57 1146.51 431.687L1144.79 431.82L1144.51 431.871L1145.3 432.84C1145.25 432.861 1145.21 432.881 1145.18 432.9C1144.89 433.097 1144.63 433.33 1144.4 433.592C1144.14 433.818 1143.87 434.028 1143.59 434.222L1143.62 434.224L1143.64 434.225L1143.72 434.23L1143.72 434.231L1143.34 434.546C1142.99 434.652 1142.66 434.779 1142.33 434.927C1141.96 435.203 1141.9 435.744 1141.4 436.021C1141.22 436.097 1141.04 436.16 1140.85 436.211C1140.54 436.217 1140.23 436.269 1139.93 436.365C1139.84 436.417 1140 436.663 1140 436.663C1140.31 436.991 1140.72 437.205 1141.16 437.268C1141.48 437.278 1141.91 437.543 1142.14 437.487C1142.38 437.431 1142.07 436.928 1142.07 436.928C1142.12 436.76 1142.2 436.604 1142.31 436.47C1143.53 435.767 1144.79 435.14 1146.09 434.592L1146.64 434.293C1146.84 434.292 1147.04 434.291 1147.23 434.29L1146.91 434.556C1146.57 434.661 1146.23 434.788 1145.91 434.935C1145.53 435.212 1145.47 435.753 1144.98 436.03C1144.8 436.106 1144.62 436.169 1144.43 436.22H1144.43C1144.14 436.214 1143.84 436.257 1143.56 436.347C1143.47 436.405 1143.4 436.474 1143.33 436.551L1143.13 436.707L1143.37 436.769L1143.58 436.673C1143.58 436.673 1143.54 437 1143.64 437.087C1143.99 437.223 1144.36 437.287 1144.73 437.276C1145.06 437.287 1145.75 436.595 1145.89 436.479C1147.11 435.776 1148.37 435.149 1149.66 434.6L1150.42 434.188C1150.84 434.164 1151.08 434.145 1151.08 434.145C1151.08 434.145 1153.44 433.057 1153.75 432.864ZM1156.73 430.863L1156.14 431.356L1155.79 431.378L1156.42 430.937L1157.36 430.712L1156.73 430.863ZM1147.92 431.301L1149.57 430.833L1149.68 430.845L1150.21 430.719L1149.26 431.425L1149.18 431.48L1148.46 431.535C1148.29 431.442 1148.11 431.364 1147.92 431.301V431.301Z" fill="#939598"/>
</g>
<path d="M1143.85 404.213H1139.71V408.81H1143.85V404.213Z" fill="#6D2611"/>
<path d="M1144.26 436.355C1144.26 436.355 1144.92 437.306 1144.83 437.53C1144.73 437.754 1144.3 437.739 1144.06 437.704C1143.65 437.595 1143.29 437.331 1143.06 436.966C1142.84 436.432 1142.65 435.887 1142.49 435.332L1142.43 436.355H1142.32L1142.16 434.856C1142.16 434.856 1142.06 434.257 1142.06 434.048C1142.05 433.985 1142.06 433.922 1142.08 433.861C1142.1 433.8 1142.13 433.744 1142.17 433.697C1142.21 433.649 1142.26 433.61 1142.32 433.583C1142.37 433.556 1142.44 433.541 1142.5 433.539L1144.26 436.355Z" fill="#F24FBB"/>
<path d="M1141.77 436.355C1141.77 436.355 1142.43 437.306 1142.33 437.53C1142.24 437.754 1141.81 437.739 1141.57 437.704C1141.16 437.595 1140.8 437.331 1140.57 436.966C1140.35 436.432 1140.16 435.887 1140 435.332L1139.94 436.355H1139.83L1139.67 434.856C1139.62 434.624 1139.59 434.39 1139.57 434.155C1139.56 434.018 1139.6 433.883 1139.68 433.771C1139.76 433.659 1139.88 433.578 1140.01 433.539L1141.77 436.355Z" fill="#F24FBB"/>
<path d="M1144.06 424.633V427.098C1143.85 429.574 1143.78 432.06 1143.84 434.544C1143.9 435.006 1144.26 436.355 1144.26 436.355C1144.14 436.422 1144.01 436.457 1143.88 436.457C1143.74 436.457 1143.61 436.422 1143.49 436.355C1142.94 435.819 1142.56 435.138 1142.38 434.393C1142.44 433.853 1142.52 433.315 1142.64 432.783C1142.63 431.685 1141.98 429.55 1141.88 428.457C1141.91 427.948 1141.98 427.443 1142.09 426.947L1141.88 425.086L1144.06 424.633Z" fill="#FFC083"/>
<path d="M1141.57 424.633V427.098C1141.36 429.574 1141.29 432.06 1141.35 434.544C1141.4 435.006 1141.77 436.355 1141.77 436.355C1141.65 436.422 1141.52 436.457 1141.38 436.457C1141.25 436.457 1141.12 436.422 1141 436.355C1140.45 435.819 1140.07 435.139 1139.89 434.393C1139.95 433.853 1140.03 433.315 1140.15 432.783C1140.14 431.685 1139.49 429.55 1139.39 428.457C1139.42 427.948 1139.49 427.443 1139.6 426.947L1139.39 424.978L1141.57 424.633Z" fill="#FFC083"/>
<path d="M1142.58 406.268H1140.8V410.398H1142.58V406.268Z" fill="#FF8A54"/>
<path d="M1144.46 425.287C1143.48 425.735 1142.41 425.952 1141.34 425.919C1140.67 425.946 1140 425.86 1139.36 425.664C1139.36 425.664 1139.22 423.794 1139.12 423.174C1139.02 422.592 1138.78 421.021 1138.77 420.432C1138.97 418.799 1139.33 417.19 1139.84 415.627H1144.27C1144.27 415.627 1144.62 419.057 1144.67 420.205C1144.71 420.972 1144.46 425.287 1144.46 425.287Z" fill="#203C61"/>
<path d="M1139.86 420.68C1140.07 418.963 1140.45 417.271 1140.98 415.627H1139.84C1139.33 417.19 1138.97 418.799 1138.77 420.432C1138.78 421.021 1139.02 422.592 1139.12 423.174C1139.22 423.794 1139.36 425.664 1139.36 425.664C1139.72 425.78 1140.09 425.852 1140.46 425.878C1140.41 425.299 1140.31 424.056 1140.22 423.564C1140.12 422.952 1139.87 421.3 1139.86 420.68Z" fill="#112944"/>
<path d="M1139.84 416.054L1139.48 411.781L1139.27 412.282L1137.68 411.532C1137.88 410.542 1138.21 409.582 1138.66 408.679C1139.32 408.254 1140.04 407.936 1140.8 407.736L1142.33 409.95L1142.58 407.736C1143.25 408.017 1143.88 408.396 1144.45 408.86C1144.75 409.63 1144.95 410.442 1145.02 411.269L1144.42 411.681L1144.06 412.575L1144.31 416.054H1139.84Z" fill="#F24FBB"/>
<path d="M1139.28 420.545L1137.12 416.178L1142.88 413.119L1145.19 417.482L1139.28 420.545Z" fill="#6BB29F"/>
<path d="M1140.19 404.818C1140.19 406.055 1140.9 407.439 1141.78 407.439C1142.66 407.439 1143.37 406.055 1143.37 404.818C1143.37 403.58 1142.66 402.957 1141.78 402.957C1140.9 402.957 1140.19 403.58 1140.19 404.818Z" fill="#FFA969"/>
<path d="M1143.52 402.712C1143.24 402.443 1142.9 402.241 1142.52 402.122C1142.15 402.003 1141.76 401.971 1141.37 402.026C1140.98 402.082 1140.62 402.225 1140.29 402.443C1139.97 402.662 1139.7 402.951 1139.5 403.289C1139.15 404.492 1138.98 405.74 1138.99 406.994C1138.89 408.021 1139.17 409.051 1139.78 409.885C1140.12 410.202 1140.56 410.384 1141.03 410.397C1140.76 410.105 1140.54 409.781 1140.35 409.433C1140.24 408.13 1140.24 406.818 1140.35 405.514C1140.86 405.195 1141.29 404.764 1141.6 404.253C1141.76 403.951 1141.9 403.637 1142.01 403.313C1142.15 403.643 1142.34 404.032 1142.44 404.236C1142.62 404.622 1142.9 404.954 1143.24 405.2C1143.24 405.2 1143.45 406.701 1143.49 407.175C1143.6 408.026 1143.48 408.891 1143.13 409.674C1144.18 409.674 1144.43 408.854 1144.57 408.319C1144.89 407.091 1144.49 403.667 1143.52 402.712Z" fill="#9B482A"/>
<path d="M1142.93 415.494L1143.15 415.303L1143.35 415.206L1143.33 415.147L1143.26 415.169L1142.93 415.389C1142.87 415.458 1142.79 415.517 1142.71 415.562C1142.67 415.576 1142.63 415.575 1142.59 415.559C1142.55 415.544 1142.52 415.515 1142.5 415.478L1142.71 415.256L1143.05 414.989L1143.25 414.875L1143.23 414.837L1143.04 414.944L1142.74 415.109C1142.67 415.176 1142.58 415.229 1142.49 415.268C1142.38 415.279 1142.34 415.136 1142.34 415.136L1142.58 414.928L1142.95 414.661L1143.17 414.552L1143.15 414.513L1142.94 414.58L1142.61 414.798C1142.61 414.798 1142.47 414.959 1142.38 414.954C1142.32 414.951 1142.3 414.831 1142.3 414.831L1142.58 414.543L1142.97 414.289L1143.39 414.249L1143.91 414.445L1144.4 414.234L1144.18 412.283L1144.42 411.682L1145.02 411.27C1145.02 411.27 1145.48 414.169 1145.02 414.974C1144.86 415.252 1143.92 415.627 1143.92 415.627L1143.52 415.481L1143.25 415.522C1143.18 415.601 1143.09 415.671 1143.01 415.731C1142.97 415.743 1142.93 415.745 1142.9 415.738C1142.86 415.73 1142.83 415.712 1142.8 415.686L1142.93 415.494Z" fill="#FFA969"/>
<path d="M1137.84 411.607L1139.18 412.233L1138.63 414.101C1139.52 415.219 1140.29 416.422 1140.93 417.692C1141.08 417.955 1141.81 417.934 1142.1 418.016C1142.27 418.089 1142.43 418.175 1142.58 418.274C1142.58 418.274 1142.58 418.394 1142.55 418.428C1142.47 418.507 1142.21 418.438 1142.03 418.422C1141.96 418.414 1141.89 418.427 1141.83 418.46C1141.83 418.46 1142.31 419.122 1142.23 419.351C1142.21 419.378 1142.18 419.399 1142.15 419.414C1142.12 419.429 1142.09 419.436 1142.06 419.437C1142.01 419.43 1141.95 419.271 1141.91 419.299C1141.86 419.325 1141.98 419.439 1141.96 419.483C1141.94 419.515 1141.91 419.541 1141.88 419.558C1141.84 419.576 1141.8 419.585 1141.76 419.585C1141.72 419.575 1141.69 419.418 1141.64 419.439C1141.6 419.46 1141.71 419.58 1141.69 419.623C1141.67 419.648 1141.64 419.669 1141.61 419.684C1141.58 419.699 1141.55 419.707 1141.51 419.709C1141.46 419.705 1141.39 419.564 1141.35 419.593C1141.31 419.619 1141.42 419.725 1141.4 419.767C1141.38 419.797 1141.36 419.823 1141.32 419.841C1141.29 419.86 1141.26 419.871 1141.22 419.874C1140.97 419.827 1140.61 419.07 1140.61 419.07L1140.26 418.197C1140.26 418.197 1137.78 415.554 1137.49 414.432C1137.45 413.478 1137.57 412.523 1137.84 411.607V411.607Z" fill="#FFA969"/>
<path d="M1140.8 407.324L1140.38 407.871L1140.49 409.05H1140.96L1140.83 409.661L1142.45 410.46L1143.12 409.027L1142.89 408.892L1143.28 408.076L1142.58 407.324L1142.3 409.907L1140.8 407.324Z" fill="white"/>
<path d="M1137.68 411.533L1137.78 411.131L1139.43 411.896L1139.27 412.283L1137.68 411.533Z" fill="white"/>
<path d="M1144.42 411.682L1144.32 411.27L1144.98 410.941L1145.02 411.27L1144.42 411.682Z" fill="white"/>
<path d="M1144.32 411.27L1144.06 410.211L1144.6 411.131L1144.32 411.27Z" fill="#9C2273"/>
<path d="M1140.63 411.707C1140.29 411.515 1139.8 410.396 1139.8 410.396L1139.14 411.762L1139.43 411.895L1139.49 411.749L1139.73 414.792L1140.31 414.486C1140.31 414.486 1140.18 412.833 1140.48 412.674C1140.93 412.441 1142.7 412.759 1143.37 412.482C1143.51 412.425 1143.62 412.33 1143.71 412.208C1143.79 412.086 1143.84 411.942 1143.85 411.794C1143.85 411.794 1141.33 412.104 1140.63 411.707Z" fill="#9C2273"/>
<path d="M1137.12 416.18L1137 416.383L1138.95 420.547H1139.28L1137.12 416.18Z" fill="#8BD2CA"/>
<g style="mix-blend-mode:multiply" opacity="0.4">
<path d="M1235.73 30.7018C1235.97 30.5918 1236.69 30.357 1236.54 30.2614C1235.74 30.1028 1234.93 29.9941 1234.11 29.9359C1234.07 29.9306 1234.03 29.9223 1233.99 29.9151L1234.2 29.8853L1232.72 29.6535L1232.32 29.5715H1232.32L1232.48 29.4746C1232.79 29.4267 1233.06 29.3774 1233.2 29.3389C1233.3 29.3131 1233.4 29.277 1233.5 29.2376C1233.79 29.2377 1234.07 29.1944 1234.34 29.1093C1234.55 29.0342 1234.54 28.968 1234.33 28.9534C1234.71 28.868 1235.07 28.7252 1235.41 28.5298C1235.76 28.2616 1235.04 28.1635 1232.53 28.1574C1231.4 28.0642 1230.25 28.2172 1229.18 28.6058C1229.03 28.6765 1228.91 28.7927 1228.82 28.9384C1228.79 28.9375 1228.77 28.9347 1228.74 28.9356C1228.52 28.9257 1228.3 28.9805 1228.11 29.0932C1228.04 29.1737 1228.21 29.2327 1228.48 29.2255L1228.49 29.2251C1228.45 29.2615 1228.42 29.2939 1228.42 29.3185C1228.42 29.3783 1228.64 29.4596 1228.91 29.5267L1228.53 29.7201L1225.85 29.9751L1225.86 30.0164C1224.87 30.0974 1223.81 30.193 1223.33 30.2693C1221.73 30.5244 1220.54 31.1907 1219.27 31.4877C1219.05 31.5374 1218.43 31.6139 1218.24 31.6656C1217.98 31.7373 1217.66 31.8963 1217.68 31.9672C1217.92 32.1103 1218.19 32.1899 1218.47 32.1986C1218.76 32.2257 1219.58 32.2016 1219.95 32.2026C1220.16 32.203 1220.79 32.2043 1220.79 32.2043L1219.13 32.7517L1217.43 33.3973L1217.65 33.4012L1217.65 33.4008L1218.2 33.4092L1215.46 34.7403C1215.46 34.7403 1212.37 36.9847 1212.24 37.0417C1212.17 37.0736 1211.5 37.1619 1211.5 37.1619L1212.45 37.6618C1212.45 37.6618 1214.22 37.7 1214.75 37.6307C1214.93 37.6059 1215 37.553 1215.01 37.4989L1215.27 37.5011C1215.37 37.3308 1215.52 37.1902 1215.69 37.0923C1215.8 37.0456 1216.3 36.9604 1216.35 36.9141C1216.38 36.8818 1216.13 36.8067 1216.13 36.8067L1219.42 35.2501L1220.95 34.4673L1222.26 33.7579L1224.19 33.7547L1221.82 35.4365L1221.2 36.4097L1221.1 36.942C1221.1 36.942 1220.26 37.1136 1220.11 37.1774C1220.05 37.2044 1220 37.2534 1219.97 37.3147H1219.97L1219.97 37.3174C1219.96 37.3377 1219.95 37.3588 1219.94 37.3804C1219.92 37.4425 1219.88 37.4958 1219.83 37.5325C1219.72 37.5877 1220.15 37.8564 1220.58 37.8581C1221.27 37.8598 1221.96 37.8233 1222.64 37.749C1222.89 37.7062 1223.13 37.5991 1223.33 37.438C1223.6 37.3276 1223.84 37.1579 1224.04 36.9413L1225.88 35.7908L1228.67 34.1508L1229.89 33.4476L1230.38 33.4461L1231.38 32.1985C1231.38 32.1985 1233.65 31.5943 1234.28 31.3864C1234.78 31.1861 1235.26 30.9576 1235.73 30.7018V30.7018Z" fill="#939598"/>
</g>
<path d="M1215.81 6.21074L1215.84 5.08774L1218.22 4.92773L1218.31 6.92073L1216.42 7.74474L1215.81 6.21074Z" fill="#FFA969"/>
<path d="M1216 5.5694C1216.29 5.78328 1216.65 5.89189 1217.01 5.8779C1217.38 5.8639 1217.73 5.7281 1218.01 5.49219C1218.01 5.49219 1218 6.54711 1217.19 6.62711C1216.13 6.73111 1215.84 5.4395 1216 5.5694Z" fill="#FF8A54"/>
<path d="M1215.22 1.66016C1215.1 2.64523 1215.1 3.64118 1215.22 4.62625C1215.48 5.15131 1215.89 5.58378 1216.41 5.86465C1216.76 5.97385 1217.14 5.97385 1217.5 5.86465C1217.96 5.57876 1218.34 5.15876 1218.56 4.65915C1218.72 3.66745 1218.77 2.66243 1218.72 1.66016H1215.22Z" fill="#FFA969"/>
<path d="M1215.49 2.12041C1215.95 1.97117 1216.44 1.90259 1216.93 1.91762C1217.44 1.87056 1217.95 1.87976 1218.46 1.94503C1218.79 2.11913 1218.71 3.51451 1218.71 3.51451C1218.99 2.86323 1219.11 2.15376 1219.06 1.44612C1218.96 0.383924 1218.34 0.00401553 1216.59 0.00401553C1216.35 -0.0127116 1216.11 0.0229538 1215.89 0.108508C1215.66 0.194062 1215.46 0.327435 1215.3 0.499285C1215.13 0.671136 1215 0.877312 1214.92 1.10335C1214.85 1.32939 1214.82 1.56982 1214.84 1.80782C1214.86 2.38638 1214.95 2.96015 1215.12 3.51451C1215.12 3.51451 1215.12 2.30391 1215.49 2.12041Z" fill="#403023"/>
<path d="M1215.38 3.62934C1215.43 3.94604 1215.33 4.22786 1215.15 4.25846C1214.97 4.28956 1214.77 4.05833 1214.72 3.74143C1214.67 3.42513 1214.77 3.14326 1214.95 3.11216C1215.13 3.08116 1215.33 3.31284 1215.38 3.62934Z" fill="#FFA969"/>
<path d="M1218.4 3.62934C1218.34 3.94604 1218.45 4.22786 1218.63 4.25846C1218.81 4.28956 1219 4.05833 1219.06 3.74143C1219.11 3.42513 1219.01 3.14326 1218.83 3.11216C1218.64 3.08116 1218.45 3.31284 1218.4 3.62934Z" fill="#FFA969"/>
<path d="M1219.58 36.2544C1219.67 36.5359 1219.73 36.8235 1219.76 37.1144C1219.76 37.3334 1219.48 37.7809 1219.58 37.9731C1219.73 38.234 1220.4 38.39 1220.7 38.3929C1221.17 38.3955 1221.63 38.2358 1221.99 37.9408C1222.25 37.5716 1221.99 36.1309 1221.99 36.1309L1219.58 36.2544Z" fill="#414042"/>
<path d="M1211 37.2613C1210.97 37.4118 1211.25 37.679 1211.39 37.7461C1212.08 37.8837 1212.8 37.8837 1213.49 37.7461C1213.83 37.7156 1214.82 37.698 1214.82 37.698C1214.82 37.698 1216.09 37.8318 1216.37 37.5524C1216.6 37.3132 1216.14 36.4208 1216.14 36.4208L1213.52 35.7344C1213.11 36.0913 1212.68 36.427 1212.23 36.7404C1211.94 36.9097 1211.08 36.9378 1211 37.2613Z" fill="#414042"/>
<path d="M1213.39 19.97L1213.17 26.1431L1213.39 34.4818C1213.39 34.4818 1213.9 35.0265 1213.88 35.2538C1213.87 35.4546 1213.36 35.8715 1213.36 35.8715C1213.74 36.2398 1214.17 36.5626 1214.62 36.8336C1215.26 36.9667 1215.91 37.0342 1216.56 37.0351C1216.44 36.504 1216.37 35.9634 1216.34 35.4194C1216.35 35.2334 1216.59 34.8924 1216.56 34.7082C1216.49 34.5526 1216.39 34.4104 1216.27 34.2878L1216.56 28.1146L1216.63 25.0119V22.2L1217.96 22.1677L1218.47 28.8258L1219.28 32.672L1219.89 34.7726C1219.73 35.0696 1219.6 35.3841 1219.5 35.7102C1219.53 36.0395 1219.6 36.3647 1219.7 36.6795C1220.11 36.6372 1220.52 36.6181 1220.93 36.6223C1221.29 36.6863 1221.64 36.7702 1221.99 36.8736C1222.19 36.4883 1222.34 36.074 1222.41 35.6454C1222.3 35.3205 1222.13 35.0153 1221.93 34.7405L1221.73 30.1834L1221.57 23.6867L1221.51 20.1316L1215.95 18.6426L1213.39 19.97Z" fill="#231F20"/>
<path d="M1215.69 6.71426C1214.69 7.15136 1213.75 7.72811 1212.91 8.42737C1212.13 9.45017 1212.16 12.0905 1211.65 13.2748C1211.56 13.4731 1211.23 13.7809 1211.17 13.9865C1211.07 14.3788 1211.07 14.7898 1211.17 15.1822C1211.35 15.5581 1211.64 15.8723 1212.01 16.0873C1212.35 16.1391 1212.7 16.1391 1213.04 16.0873H1213.62L1213.3 17.9619L1212.81 20.8253L1215.48 21.0192L1216.19 19.1942L1216.92 21.0518L1221.86 20.89L1220.96 15.9576C1220.96 15.9576 1221.76 13.552 1221.93 12.726C1222.02 11.824 1222.06 10.9177 1222.06 10.011C1222.08 9.57535 1222.28 8.64076 1222.06 8.26566C1221.72 7.70216 1220.5 7.37335 1219.96 7.00555C1219.6 6.76325 1218.63 5.90625 1218.63 5.90625L1216.81 8.22754L1215.69 6.71426Z" fill="#58595B"/>
<path d="M1215.69 6.71539C1215.69 6.71539 1215.55 8.30558 1215.59 8.76788C1215.66 9.74478 1216.29 12.4417 1216.29 12.4417C1216.29 12.4417 1217.16 9.68679 1217.53 8.79999C1217.76 8.26189 1218.43 7.27939 1218.58 6.71539C1218.62 6.44768 1218.64 6.1775 1218.63 5.90738L1218.25 5.58789L1216.63 7.19687L1215.81 6.21249L1215.69 6.71539Z" fill="white"/>
<path d="M1218.63 5.90625L1219.96 6.80405L1218.63 8.22665L1219.41 8.75327C1219.41 8.75327 1218.25 10.1527 1217.87 10.6313C1217.46 11.1708 1216.25 12.6562 1216.25 12.6562C1216.25 12.6562 1217.07 9.91506 1217.46 8.98236C1217.67 8.45576 1218.33 7.50205 1218.5 6.95645C1218.57 6.61009 1218.61 6.25907 1218.63 5.90625V5.90625Z" fill="#231F20"/>
<path d="M1220.65 8.98242L1219.8 10.8374L1219.48 13.7454L1219.91 14.4564L1217.79 14.9364L1216.91 14.8224L1215.84 13.4684L1214.16 13.2644L1213.17 12.2344L1213.1 10.6084L1212.97 9.44041L1214.16 11.9594L1215.21 12.9674L1218.63 12.8304L1219.46 10.5854L1220.65 8.98242Z" fill="#414042"/>
<path d="M1216.1 7.74532L1216.63 7.19531L1217.15 7.79132L1216.77 8.44632L1217.06 9.67131L1216.91 10.5163L1216.25 12.6563L1215.71 9.54932L1216.33 8.46931L1216.1 7.74532Z" fill="#DD625B"/>
<path d="M1214.16 13.264L1213.39 12.257L1212.48 11.959L1212.11 12.883L1212.58 13.54L1214.16 13.264Z" fill="#FFA969"/>
<path d="M1216.52 13.5415L1216.8 14.6866H1217.62L1219.13 13.7016V13.0605H1217.99L1216.52 13.5415Z" fill="#FFA969"/>
<path d="M1221.38 18.8787L1221.09 16.8387H1221.12L1220.96 15.9567L1219.91 16.4477L1215.97 16.0867V15.5547L1213.62 16.0867L1213.17 18.2607L1212.81 20.8247L1212.97 20.8387L1213.4 19.3957L1214.11 16.6217L1216.25 16.8387H1219.74L1220.26 17.3767L1220.99 20.9177L1221.86 20.8897L1221.38 18.8787Z" fill="#414042"/>
<path d="M1215.81 6.21094L1214.28 7.24142L1214.81 8.61542L1214.17 8.75284C1214.35 9.41074 1214.58 10.0572 1214.84 10.6889C1215.27 11.3739 1215.74 12.0349 1216.25 12.669C1216.25 12.669 1215.73 9.60332 1215.69 8.56952C1215.67 7.97962 1215.81 6.21094 1215.81 6.21094Z" fill="#231F20"/>
<path d="M1215.84 13.4316L1215.95 15.2636L1217 15.1486L1216.63 13.4316H1215.84Z" fill="#8BD2CA"/>
<g style="mix-blend-mode:multiply" opacity="0.4">
<path d="M1073.82 525.773L1075.77 525.402L1073.78 525.14L1076.11 525.403L1078.24 524.981L1077.89 524.942C1078.08 524.895 1078.26 524.853 1078.36 524.823C1079.34 524.567 1080.29 524.216 1081.2 523.776C1081.81 523.328 1082.1 522.27 1081.02 521.93C1079.47 521.727 1077.92 521.609 1076.37 521.576L1075.48 521.387L1075.71 521.201C1076.2 521.13 1076.63 521.053 1076.85 520.995C1076.99 520.958 1077.12 520.914 1077.25 520.863C1077.62 520.863 1077.98 520.807 1078.33 520.696C1078.61 520.598 1078.6 520.513 1078.33 520.493C1078.82 520.382 1079.29 520.197 1079.73 519.942C1080.19 519.593 1079.25 519.465 1075.98 519.457C1073.24 519.45 1072.04 519.819 1071.63 520.041C1071.43 520.133 1071.26 520.284 1071.15 520.474C1071.12 520.473 1071.08 520.469 1071.04 520.47C1070.76 520.457 1070.47 520.529 1070.23 520.676C1070.14 520.78 1070.36 520.857 1070.71 520.847L1070.73 520.847C1070.67 520.895 1070.63 520.937 1070.63 520.969C1070.63 521.05 1070.94 521.163 1071.32 521.252L1070.91 521.475L1069.74 521.681C1069.74 521.681 1065.26 521.938 1064.16 522.136C1062.39 522.457 1061.46 523.312 1060.48 523.665C1060.1 523.802 1059.33 524.078 1059.07 524.217C1058.73 524.437 1058.41 524.699 1058.13 524.996L1057.59 525.019L1057.88 525.506L1058.39 525.46L1058.38 525.46L1058.64 525.737C1058.64 525.737 1055.68 527.44 1054.35 528.062C1053.94 528.82 1053.68 529.655 1053.6 530.516C1054 530.462 1054.39 530.386 1054.77 530.289C1054.99 530.197 1054.4 530.03 1054.68 529.941C1054.82 529.896 1055.47 529.856 1055.65 529.814C1057.5 529.381 1058.38 528.396 1059.47 527.926C1060.53 527.467 1064.14 526.156 1064.14 526.156L1067.09 526.163C1066.56 526.999 1065.96 527.789 1065.3 528.527C1064.95 528.849 1063.53 529.522 1063.68 529.825C1063.71 529.879 1064.15 529.965 1064.05 530.024C1063.94 530.083 1063.06 530.161 1062.95 530.22C1062.83 530.281 1063.3 530.429 1063.3 530.429L1063.37 530.431C1063.12 530.536 1062.72 530.717 1062.75 530.788C1063.1 531.025 1063.52 531.151 1063.95 531.151C1064.78 531.186 1065.62 531.163 1066.46 531.083C1066.76 531.038 1066.63 530.904 1066.67 530.845C1066.72 530.723 1066.72 530.59 1066.68 530.466L1066.9 530.468C1067.32 530.403 1067.72 530.305 1068.12 530.173C1068.14 530.124 1067.45 530.092 1067.46 530.042C1067.84 529.912 1068.23 529.813 1068.63 529.747C1068.74 529.718 1069.68 528.685 1070.11 528.331C1070.9 527.67 1073.82 525.845 1073.82 525.845L1073.82 525.773H1073.82ZM1062.63 524.157L1065.04 523.368C1064.94 523.482 1064.83 523.585 1064.71 523.676C1064.35 523.888 1062.8 524.525 1062.8 524.525L1062.39 524.832H1062.39L1061.55 525.045L1060.98 525.18L1061.28 524.869L1062.63 524.157ZM1073.75 524.87C1074.04 524.607 1074.34 524.368 1074.67 524.157C1075.14 523.905 1077.19 523.158 1077.19 523.158C1077.19 523.158 1077.44 523.69 1077.26 523.886C1076.78 524.203 1076.27 524.475 1075.73 524.699V524.699L1073.77 525.137L1073.77 525.077H1073.77L1073.75 524.87Z" fill="#939598"/>
</g>
<path d="M1052.84 528.414C1052.59 529.08 1052.37 529.761 1052.2 530.452C1052.18 530.588 1052.1 530.904 1052.2 531.001C1052.55 531.167 1052.94 531.253 1053.32 531.253C1053.71 531.253 1054.1 531.167 1054.45 531.001C1054.83 530.653 1055.1 530.204 1055.23 529.707C1055.28 529.277 1055.28 528.844 1055.23 528.414H1052.84Z" fill="#2B271B"/>
<path d="M1061.95 528.102C1061.87 528.677 1061.87 529.26 1061.95 529.835C1062.22 530.434 1062.67 530.931 1063.24 531.256C1063.52 531.325 1063.82 531.334 1064.1 531.284C1064.39 531.233 1064.66 531.124 1064.9 530.963C1065.05 530.782 1064.79 530.252 1064.74 530.022C1064.64 529.512 1064.11 528.102 1064.11 528.102H1061.95V528.102Z" fill="#2B271B"/>
<path d="M1054.1 506.421L1052.65 509.95C1052.65 509.95 1052.77 516.699 1052.65 519.165C1052.62 519.746 1052.44 520.897 1052.41 521.478C1052.34 522.769 1051.97 525.434 1052.41 526.651C1052.5 526.887 1053.05 527.184 1053.04 527.435C1053.03 527.657 1052.45 527.843 1052.41 528.062C1052.38 528.243 1052.72 528.728 1052.72 528.728L1055.12 529.042C1055.4 528.716 1055.62 528.345 1055.78 527.945C1055.82 527.58 1055.19 526.93 1055.27 526.572C1055.31 526.397 1055.71 526.229 1055.78 526.064C1056.51 524.338 1055.86 520.444 1056.02 518.577C1056.17 516.754 1057 511.547 1057 511.547H1059.05C1059.05 511.547 1060.5 518.469 1060.83 520.89C1061 522.165 1060.87 524.835 1061.36 526.024C1061.45 526.241 1061.87 526.575 1061.87 526.807C1061.87 527.042 1061.36 527.358 1061.36 527.592C1061.36 527.833 1061.87 528.415 1061.87 528.415L1064.42 528.532C1064.42 528.532 1064.97 527.663 1064.89 527.357C1064.84 527.162 1064.32 527.042 1064.26 526.847C1064.18 526.545 1064.65 525.789 1064.69 525.671C1064.73 525.553 1064.07 521.472 1063.91 520.067C1063.61 517.45 1063.31 510.224 1063.31 510.224L1062.01 506.383L1054.1 506.421Z" fill="#3B4966"/>
<path d="M1053.78 507.195L1054.09 506.344L1062.01 506.383L1062.29 507.195C1060.98 507.659 1059.62 507.932 1058.23 508.006C1056.72 507.906 1055.23 507.633 1053.78 507.195V507.195Z" fill="#DDA137"/>
<path d="M1055.7 493.017V491.841L1058.66 491.645L1058.76 492.625L1057.19 493.6L1055.7 493.017Z" fill="#FFC083"/>
<path d="M1055.86 491.858C1056.27 492.157 1056.77 492.308 1057.28 492.289C1057.79 492.269 1058.28 492.079 1058.66 491.75C1058.66 491.75 1058.65 493.222 1057.52 493.334C1056.05 493.48 1055.63 491.676 1055.86 491.858Z" fill="#FF8A54"/>
<path d="M1054.86 487.16C1054.71 488.442 1054.71 489.738 1054.86 491.019C1055.2 491.702 1055.74 492.265 1056.41 492.631C1056.87 492.773 1057.36 492.773 1057.82 492.631C1058.43 492.259 1058.91 491.712 1059.21 491.062C1059.41 489.772 1059.48 488.464 1059.41 487.16H1054.86Z" fill="#FFA969"/>
<path d="M1055.21 487.759C1055.81 487.564 1056.45 487.475 1057.08 487.495C1057.74 487.434 1058.41 487.446 1059.07 487.531C1059.51 487.757 1059.4 489.572 1059.4 489.572C1059.77 488.725 1059.92 487.802 1059.86 486.881C1059.73 485.499 1058.91 485.005 1056.64 485.005C1056.33 484.983 1056.02 485.03 1055.73 485.141C1055.44 485.252 1055.17 485.426 1054.96 485.649C1054.74 485.873 1054.58 486.141 1054.47 486.435C1054.37 486.73 1054.34 487.043 1054.37 487.352C1054.39 488.105 1054.51 488.851 1054.73 489.572C1054.73 489.572 1054.73 487.998 1055.21 487.759Z" fill="#403023"/>
<path d="M1055.07 489.721C1055.14 490.134 1055 490.5 1054.77 490.54C1054.53 490.581 1054.28 490.28 1054.21 489.868C1054.14 489.456 1054.27 489.09 1054.51 489.049C1054.75 489.008 1055 489.31 1055.07 489.721Z" fill="#FFA969"/>
<path d="M1059 489.721C1058.93 490.134 1059.06 490.5 1059.3 490.54C1059.54 490.581 1059.78 490.28 1059.85 489.868C1059.92 489.456 1059.79 489.09 1059.55 489.049C1059.32 489.008 1059.07 489.31 1059 489.721Z" fill="#FFA969"/>
<path d="M1065.78 501.992C1065.63 500.213 1064.48 496.041 1063.29 494.709C1062.54 493.872 1059.47 493.33 1059.47 493.33L1055.15 493.839C1055.15 493.839 1052.38 494.895 1051.87 495.69C1051.05 496.974 1051.5 500.357 1051.27 501.756C1051.14 502.482 1051.05 503.215 1051 503.952C1051 504.929 1051.47 507.831 1051.47 507.831L1052.06 508.733L1052.99 508.169C1052.82 507.348 1052.69 506.518 1052.61 505.684C1052.58 504.717 1053.32 501.781 1053.38 500.816C1053.44 499.74 1052.81 497.724 1053.08 497.524C1053.6 497.135 1054.44 498.978 1054.64 499.593C1055.05 500.783 1054.64 503.362 1054.64 504.618V506.603C1055.66 506.919 1056.72 507.121 1057.78 507.205C1059.04 507.306 1060.31 507.112 1061.49 506.638V506.638C1061.49 506.638 1061.27 504.185 1061.27 503.364C1061.25 502.104 1061.31 500.844 1061.46 499.593C1061.6 498.857 1061.93 496.74 1062.37 496.74C1062.92 496.74 1062.84 498.897 1063.07 499.593C1063.45 500.346 1063.8 501.121 1064.09 501.913C1064.13 503.288 1064.03 504.663 1063.82 506.021L1062.98 507.64L1064.21 508.281C1064.56 507.586 1064.87 506.873 1065.15 506.146C1065.55 504.796 1065.76 503.399 1065.78 501.992V501.992Z" fill="white"/>
<path d="M1054.64 504.618C1054.64 503.362 1055.05 500.783 1054.64 499.593C1054.44 498.979 1053.6 497.136 1053.08 497.524C1052.81 497.724 1053.44 499.74 1053.38 500.816C1053.32 501.782 1052.58 504.717 1052.61 505.684C1052.69 506.519 1052.82 507.348 1052.99 508.169L1053.35 507.95L1053.39 503.677L1054.06 500.542C1054.06 500.542 1054.2 501.451 1054.21 501.757C1054.24 502.601 1053.98 505.127 1053.98 505.127L1054.1 506.42C1054.1 506.42 1054.3 506.497 1054.64 506.604V504.618Z" fill="#F1F2F2"/>
<path d="M1064.09 501.913C1063.8 501.121 1063.46 500.346 1063.07 499.593C1062.84 498.898 1062.92 496.74 1062.37 496.74C1061.93 496.74 1061.6 498.857 1061.46 499.593C1061.31 500.844 1061.25 502.104 1061.27 503.364C1061.28 504.185 1061.49 506.638 1061.49 506.638C1061.67 506.565 1061.85 506.479 1062.01 506.382C1062.01 506.382 1061.74 504.273 1061.74 503.56C1061.74 502.556 1062.21 499.593 1062.21 499.593C1062.6 500.526 1062.93 501.485 1063.19 502.462C1063.25 503.625 1063.24 504.79 1063.15 505.95L1062.6 507.44L1062.98 507.64L1063.82 506.021C1064.03 504.663 1064.13 503.288 1064.09 501.913Z" fill="#F1F2F2"/>
<path d="M1051 507.128L1053.36 506.5L1053.59 507.911L1051.82 509.048L1051 507.128Z" fill="white"/>
<path d="M1062.37 507.44L1063.17 505.684L1065.27 506.774L1064.23 508.597L1062.37 507.44Z" fill="white"/>
<path d="M1055.7 493.017L1055.15 493.84L1056.09 495.486L1057.19 494.075L1058.99 494.977L1059.65 493.391L1058.76 492.625L1057.19 493.6L1055.7 493.017Z" fill="#F1F2F2"/>
<path d="M1056.96 495.487L1056.29 497.721V505.285L1057.4 506.344L1058.92 505.089L1058.39 497.604L1057.6 495.213L1058.12 494.539L1057.19 494.076L1056.55 494.901L1056.96 495.487Z" fill="#DD625B"/>
<path d="M1062.37 507.443L1061.58 507.774L1060.6 508.46C1060.6 508.46 1060.82 508.837 1060.95 508.862C1061.17 508.904 1061.74 508.46 1061.74 508.46L1063.21 509.942L1064.09 508.46L1062.37 507.443Z" fill="#FFC083"/>
<path d="M1053.59 507.773L1054.64 508.46C1054.64 508.46 1054.6 508.808 1054.51 508.861C1054.31 508.981 1053.59 508.693 1053.59 508.693L1052.65 509.949L1052.11 508.861L1053.59 507.773Z" fill="#FFC083"/>
<path d="M1055.45 507.773L1055.57 506.734L1055.92 506.817V507.938L1055.45 507.773Z" fill="#3B4966"/>
<path d="M1059.92 508.006L1059.73 506.949L1060.07 506.824C1060.21 507.189 1060.33 507.561 1060.43 507.939C1060.39 507.939 1059.92 508.006 1059.92 508.006Z" fill="#3B4966"/>
</svg>
