<svg width="1058" height="672" viewBox="0 0 1058 672" fill="none" xmlns="http://www.w3.org/2000/svg">
<g style="mix-blend-mode:multiply" opacity="0.4">
<path d="M351.07 665.797C351.253 665.722 351.427 665.628 351.589 665.516L351.653 665.517L351.989 665.386L351.936 665.387L354.023 664.435C354.023 664.435 354.636 664.076 354.496 663.974C354.09 663.863 353.676 663.781 353.258 663.729L352.913 663.651L352.462 663.481L352.468 663.478C353.05 663.399 353.626 663.278 354.191 663.115C354.515 663.122 354.839 663.083 355.151 662.998C355.413 662.919 355.407 662.844 355.139 662.829C355.084 662.827 355.018 662.828 354.952 662.831C355.595 662.571 355.544 662.368 355.064 662.246C355.15 662.226 355.234 662.198 355.314 662.161C355.596 662.007 355.057 661.881 354.109 661.879C353.357 661.847 352.605 661.939 351.884 662.152C351.856 662.164 351.832 662.185 351.816 662.211C351.04 662.272 350.282 662.478 349.582 662.817C349.512 662.813 349.442 662.812 349.372 662.815C349.054 662.828 348.772 662.902 348.742 662.982C348.713 663.061 348.945 663.115 349.263 663.103C349.283 663.102 349.301 663.099 349.32 663.098C349.262 663.243 349.386 663.373 349.671 663.466L349.369 663.63L348.754 663.709L348.465 663.763C348.003 663.832 347.492 663.911 347.264 663.956C346.85 664.037 346.229 664.219 345.87 664.305C345.512 664.39 344.658 664.561 344.48 664.649C344.48 664.649 344.399 664.696 344.392 664.748L343.46 665.199H343.414L343.343 665.257L341.993 665.912L339.353 666.875L338.608 667.057L338.602 667.07L338.585 667.069L338.395 667.307L338.099 667.306L337.271 667.549L335.177 667.527L331 669.257L336.337 669.23C335.663 669.728 335.071 670.328 334.582 671.007L335.378 670.782L334.807 671.092L335.087 671.093L335.872 670.77C336.013 670.703 336.147 670.623 336.273 670.53C336.362 670.401 336.145 670.399 336.139 670.399C336.16 670.386 336.183 670.374 336.206 670.364C337.003 670.036 339.14 669.394 339.911 669.066C340.221 668.933 340.606 668.666 340.892 668.533C341.058 668.456 341.505 668.277 341.783 668.167C341.991 668.173 342.193 668.178 342.416 668.183C342.59 668.186 342.83 668.188 343.101 668.19C343.002 668.288 342.9 668.402 342.906 668.456C342.922 668.587 343.438 668.816 343.507 668.943C343.569 669.157 343.574 669.384 343.519 669.601C343.465 669.818 343.354 670.016 343.198 670.176C342.79 670.468 342.363 670.734 341.921 670.971L341.287 671.152L341.283 671.153L340.465 671.375C340.928 671.444 341.399 671.457 341.866 671.414C342.375 671.413 342.879 671.327 343.36 671.159C343.849 670.916 344.307 670.615 344.725 670.262C344.603 669.976 346.321 669.342 346.508 669.041C346.604 668.886 346.232 668.592 346.264 668.44C346.294 668.354 346.333 668.271 346.38 668.194C346.59 668.194 346.719 668.193 346.719 668.193C347.715 667.662 348.683 667.081 349.619 666.45C349.715 666.353 349.796 666.241 349.859 666.119C350.384 665.992 350.843 665.873 351.07 665.797ZM338.403 667.438L338.724 667.438L338.762 667.41L338.997 667.421L338.731 667.565L338.016 667.557L338.403 667.438Z" fill="#939598"/>
</g>
<path d="M334.672 645.174L334.487 650.028L333.888 653.855L333.604 654.58L333.933 655.912H334.781L335.322 646.029L334.672 645.174Z" fill="#FFA969"/>
<path d="M334.681 645.104L334.588 647.41L335.323 647.511L335.199 645.301L334.681 645.104Z" fill="#3D5666"/>
<path d="M333.57 655.568L333.29 656.599L333.274 656.66L333.804 656.684L333.985 655.937L334.827 656.114L334.932 655.568H333.57Z" fill="#BF3936"/>
<path d="M338.928 635.099C338.949 635.34 338.896 635.581 338.777 635.791C338.658 636.001 338.478 636.17 338.261 636.276C338.044 636.382 337.801 636.421 337.562 636.386C337.323 636.351 337.1 636.245 336.923 636.082C336.745 635.919 336.621 635.706 336.566 635.47C336.512 635.235 336.529 634.989 336.617 634.764C336.705 634.539 336.858 634.346 337.057 634.21C337.257 634.074 337.492 634.001 337.734 634.001C338.038 633.989 338.334 634.098 338.558 634.303C338.782 634.509 338.915 634.796 338.928 635.099V635.099Z" fill="#231F20"/>
<path d="M334.723 656.601L331.828 656.469L331.144 663.338L336.585 663.101L336.828 657.383L334.723 656.601Z" fill="#BF3936"/>
<path d="M340.696 670.714L340.412 671.598C340.556 671.708 340.725 671.778 340.904 671.802C341.083 671.827 341.265 671.804 341.433 671.736C342.058 671.528 342.072 670.982 342.142 670.714C342.242 670.055 342.298 669.39 342.31 668.723L342.456 669.861H342.651L342.602 668.57C342.623 668.202 342.579 667.834 342.473 667.482C342.443 667.424 342.403 667.372 342.353 667.33C342.304 667.287 342.247 667.255 342.185 667.235C342.123 667.215 342.058 667.207 341.994 667.212C341.929 667.218 341.866 667.235 341.808 667.265L340.696 670.714Z" fill="#231F20"/>
<path d="M334.058 670.635L333.519 671.42C333.699 671.552 333.908 671.64 334.129 671.675C334.35 671.711 334.576 671.694 334.789 671.625C335.072 671.495 335.318 671.297 335.505 671.049C335.693 670.801 335.816 670.509 335.863 670.202L336.128 669.309V670.536H336.323L336.453 669.253C336.465 668.936 336.456 668.619 336.425 668.304C336.321 667.787 336.163 667.787 336.163 667.787L334.058 670.635Z" fill="#231F20"/>
<path d="M337.076 660.382C337.1 659.926 337.271 658.565 337.271 658.565L334.708 657.852V659.571C334.708 661.826 335.053 666.362 334.708 668.59C334.532 669.284 334.315 669.967 334.059 670.635C334.059 670.635 334.758 670.885 334.999 670.7C335.552 670.039 335.951 669.263 336.167 668.429C336.208 668.238 336.147 667.844 336.167 667.649C336.3 666.347 336.962 663.795 337.076 662.491C337.122 661.966 337.048 660.909 337.076 660.382Z" fill="#FFC083"/>
<path d="M338.081 658.34C338.142 658.919 338.239 659.493 338.373 660.059C338.551 660.574 339.201 661.472 339.411 661.974C340.016 663.55 340.472 665.179 340.774 666.84C340.891 667.619 340.904 669.988 340.904 669.988L340.68 670.77C340.68 670.77 341.441 670.948 341.65 670.77C342.081 670.401 342.042 669.087 342.137 668.528C342.236 668.235 342.291 667.929 342.299 667.62C342.264 667.479 341.996 667.299 341.942 667.165C341.492 666.038 341.872 663.518 341.618 662.331C341.486 661.719 340.853 660.564 340.68 659.962C340.581 659.618 340.352 658.567 340.352 658.567L338.081 658.34Z" fill="#FFC083"/>
<path d="M338.639 639.748H336.685V641.834C336.132 642.361 335.672 642.977 335.323 643.657C335.387 644.361 335.568 645.05 335.86 645.695H337.51L337.57 643.657H338.639V639.748Z" fill="#FFA969"/>
<path d="M339.515 637.744C339.515 639.279 338.69 640.838 337.673 640.838C336.655 640.838 335.83 639.279 335.83 637.744C335.83 636.208 336.655 635.277 337.673 635.277C338.69 635.277 339.515 636.208 339.515 637.744Z" fill="#FFA969"/>
<path d="M334.34 658.245C335.413 658.65 336.539 658.899 337.684 658.984C338.43 659.049 340.68 658.984 340.68 658.984C340.68 658.984 340.67 653.793 340.463 652.079C340.394 651.506 339.985 649.82 339.985 649.82H334.73L334.34 653.251V658.245Z" fill="#566978"/>
<path d="M339.367 659.009C340.049 659.001 340.648 658.984 340.648 658.984C340.648 658.984 340.637 653.793 340.431 652.079C340.361 651.506 339.953 649.82 339.953 649.82H338.639C338.639 649.82 339.068 651.59 339.14 652.193C339.32 653.684 339.359 657.679 339.367 659.009Z" fill="#3D5666"/>
<path d="M338.639 640.525L339.508 641.307C339.942 641.569 340.337 641.891 340.681 642.262C340.853 642.855 340.94 643.469 340.941 644.086L340.681 648.342H339.464C339.464 648.342 339.339 649.656 338.987 649.819C337.612 650.318 336.106 650.318 334.731 649.819C334.9 649.394 335.038 648.958 335.143 648.513C335.157 647.644 335.117 646.775 335.024 645.91C334.817 645.651 334.672 645.349 334.6 645.026C334.715 644.548 334.891 644.086 335.122 643.652C335.262 643.308 335.46 642.585 335.643 642.262C335.964 641.806 336.312 641.369 336.685 640.954L336.772 641.654L335.947 643.695L338.292 641.437L338.639 640.525Z" fill="#3D5666"/>
<path d="M337.673 634.934C336.482 634.934 335.743 635.939 335.792 637.826C336.21 637.729 336.602 637.546 336.946 637.29C337.289 637.034 337.576 636.71 337.789 636.338C338.101 637.323 339.513 637.913 339.516 637.913C339.792 636.088 338.798 634.934 337.673 634.934Z" fill="#231F20"/>
<path d="M336.161 638.213C336.242 638.527 336.142 638.824 335.937 638.876C335.733 638.929 335.502 638.717 335.422 638.404C335.341 638.09 335.441 637.793 335.646 637.74C335.85 637.688 336.081 637.9 336.161 638.213Z" fill="#FFA969"/>
<path d="M339.146 638.213C339.065 638.527 339.166 638.824 339.37 638.876C339.574 638.929 339.805 638.717 339.886 638.404C339.966 638.09 339.866 637.793 339.662 637.74C339.458 637.688 339.227 637.9 339.146 638.213Z" fill="#FFA969"/>
<path d="M333.604 654.631L333.87 656.086H334.172L334.057 654.698L333.604 654.631Z" fill="#FFC083"/>
<path d="M336.894 640.484C336.995 640.583 337.115 640.659 337.247 640.709C337.379 640.759 337.52 640.781 337.661 640.774C337.802 640.767 337.94 640.732 338.067 640.669C338.194 640.606 338.306 640.518 338.397 640.41C338.397 640.41 338.389 641.418 337.784 641.494C336.995 641.593 336.774 640.36 336.894 640.484Z" fill="#FF8A54"/>
<path d="M338.639 640.338L339.168 641.003L339.052 641.896L338.297 642.269L338.545 642.901L335.83 643.822L335.905 642.342L336.205 642.01L335.965 641.916L336.36 641.275L336.685 640.956L336.772 641.656L336.195 643.273L338.292 641.439L338.639 640.338Z" fill="#253C49"/>
<path d="M339.366 649.725L339.205 648.343C339.205 648.343 339.079 646.394 339.098 645.743C339.114 645.186 339.318 643.518 339.118 643.518C338.872 643.517 338.555 644.712 338.14 644.924C336.97 645.112 335.779 645.146 334.6 645.026C334.599 645.186 334.631 645.344 334.694 645.49C334.757 645.637 334.851 645.768 334.968 645.876L335.197 648.343L335.496 646.007C336.196 646.046 337.423 645.947 337.771 646.35C338.382 647.058 338.186 650.09 338.186 650.09L339.366 649.725Z" fill="#253C49"/>
<path d="M340.634 648.344H339.195L337.966 653.213L337.671 653.643L337.12 654.822L337.029 655.586L337.083 656.161C337.083 656.161 337.236 656.172 337.279 656.135C337.363 656.065 337.334 655.78 337.334 655.78L337.453 654.964L337.558 654.656H337.595L337.518 654.988L337.428 655.671L337.479 656.236C337.479 656.236 337.653 656.248 337.702 656.199C337.778 656.125 337.765 655.78 337.765 655.78L337.886 654.964L337.99 654.656H338.027L337.95 654.988L337.878 655.53L337.936 656.096C337.981 656.094 338.025 656.084 338.066 656.064C338.106 656.045 338.143 656.017 338.172 655.983C338.206 655.839 338.221 655.691 338.216 655.543L338.345 654.925L338.45 654.617H338.487L338.44 654.898L338.34 655.314L338.415 655.7C338.448 655.714 338.485 655.716 338.52 655.706C338.554 655.696 338.585 655.675 338.605 655.646C338.671 655.568 338.644 655.294 338.644 655.294L338.806 654.921C338.853 654.782 338.911 654.646 338.977 654.514C339.078 654.293 339.155 654.062 339.206 653.824C339.206 653.631 339.173 653.439 339.11 653.255C339.71 652.039 340.22 650.779 340.634 649.487C340.662 649.106 340.662 648.724 340.634 648.344V648.344Z" fill="#FFA969"/>
<path d="M339.088 648.376H340.681L340.746 647.857L339.005 647.968L339.088 648.376Z" fill="#253C49"/>
<path d="M334.587 647.434L335.177 647.512L335.146 647.207H334.562L334.587 647.434Z" fill="#253C49"/>
<g style="mix-blend-mode:multiply" opacity="0.4">
<path d="M1049.89 34.8116C1050.12 34.6675 1050.49 34.3969 1050.83 34.1405L1052.17 34.0385L1051.6 33.5516L1051.73 33.4624C1052.26 33.4257 1052.96 33.3704 1053.2 33.3245C1053.93 33.1624 1054.61 32.7969 1055.14 32.2697C1055.14 32.2697 1055.19 32.2338 1055.25 32.1785L1055.25 32.1759C1055.42 32.0141 1055.72 31.6893 1055.48 31.5819C1055.47 31.5783 1055.45 31.5746 1055.44 31.5711C1055.65 31.5208 1055.83 31.4712 1055.97 31.4279C1057.13 31.0804 1058.27 30.1034 1057.21 29.8276C1056.05 29.6188 1054.88 29.5543 1053.71 29.6356C1052.6 29.6674 1051.49 29.7809 1050.4 29.9752C1049.44 30.2226 1048.51 30.5757 1047.63 31.0282C1047.41 31.1191 1047.21 31.2547 1047.05 31.4262C1046.69 31.4528 1046.39 31.4806 1046.21 31.5075C1045.17 31.7174 1044.14 31.9869 1043.12 32.3147L1043.34 32.3369C1042.63 32.5194 1041.94 32.7888 1041.29 33.1389C1041.26 33.2281 1041.44 33.3523 1041.72 33.4844L1039.78 33.6347L1039.48 33.6922L1040.36 34.7842C1040.31 34.808 1040.26 34.8311 1040.22 34.8524C1039.9 35.0751 1039.6 35.3373 1039.34 35.6331C1039.06 35.8874 1038.75 36.1244 1038.44 36.343L1038.47 36.3461L1038.49 36.3469L1038.58 36.3536H1038.58L1038.15 36.709C1037.76 36.8287 1037.38 36.9719 1037.01 37.1379C1036.59 37.45 1036.52 38.0606 1035.96 38.3723C1035.76 38.4579 1035.56 38.5299 1035.35 38.588C1034.99 38.5944 1034.64 38.6524 1034.31 38.7603C1034.2 38.8204 1034.39 39.0971 1034.39 39.0971C1034.73 39.4671 1035.19 39.7078 1035.69 39.7784C1036.06 39.7895 1036.54 40.0892 1036.8 40.026C1037.07 39.9628 1036.72 39.396 1036.72 39.396C1036.77 39.2061 1036.87 39.0299 1036.99 38.8788C1038.37 38.0864 1039.79 37.379 1041.25 36.7608L1041.87 36.4234C1042.1 36.4234 1042.32 36.4225 1042.54 36.4199L1042.18 36.7197C1041.79 36.8393 1041.41 36.9823 1041.04 37.148C1040.62 37.4596 1040.56 38.0707 1040 38.3832C1039.8 38.4682 1039.59 38.5399 1039.38 38.5977H1039.38C1039.05 38.5907 1038.72 38.6388 1038.4 38.7401C1038.3 38.8058 1038.21 38.8832 1038.14 38.9707L1037.92 39.1458L1038.19 39.2166L1038.42 39.1069C1038.42 39.1069 1038.37 39.4769 1038.49 39.5755C1038.89 39.7273 1039.3 39.7998 1039.72 39.7886C1040.09 39.7996 1040.87 39.0207 1041.03 38.8893C1042.4 38.0967 1043.82 37.3892 1045.28 36.7709L1046.14 36.3046C1046.62 36.2776 1046.88 36.2567 1046.88 36.2567C1046.88 36.2567 1049.55 35.03 1049.89 34.8116ZM1053.25 32.5548L1052.59 33.1113L1052.19 33.1361L1052.9 32.6375L1053.96 32.3846L1053.25 32.5548ZM1043.32 33.0495L1045.17 32.5216L1045.3 32.5344L1045.9 32.3926L1044.82 33.1892L1044.74 33.251L1043.93 33.3138C1043.73 33.209 1043.53 33.1205 1043.32 33.0495V33.0495Z" fill="#939598"/>
</g>
<path d="M1038.72 2.49805H1034.05V7.68378H1038.72V2.49805Z" fill="#6D2611"/>
<path d="M1039.19 38.7495C1039.19 38.7495 1039.93 39.8211 1039.83 40.0744C1039.72 40.3268 1039.23 40.3092 1038.96 40.2694C1038.49 40.1475 1038.09 39.8494 1037.84 39.4374C1037.59 38.8357 1037.37 38.2206 1037.19 37.5948L1037.13 38.7495H1037L1036.82 37.0576C1036.82 37.0576 1036.71 36.3817 1036.71 36.1474C1036.7 36.0764 1036.7 36.0044 1036.72 35.936C1036.75 35.8677 1036.78 35.8044 1036.83 35.7503C1036.87 35.6962 1036.93 35.6524 1037 35.6218C1037.06 35.5911 1037.13 35.5742 1037.2 35.5723L1039.19 38.7495Z" fill="#5BA6DD"/>
<path d="M1036.38 38.7495C1036.38 38.7495 1037.12 39.8211 1037.02 40.0744C1036.91 40.3268 1036.42 40.3092 1036.15 40.2694C1035.69 40.1475 1035.28 39.8494 1035.03 39.4374C1034.78 38.8356 1034.56 38.2205 1034.38 37.5948L1034.32 38.7495H1034.19L1034.01 37.0576C1033.95 36.7969 1033.92 36.533 1033.9 36.2676C1033.89 36.1128 1033.93 35.96 1034.02 35.8339C1034.11 35.7078 1034.24 35.6157 1034.39 35.5723L1036.38 38.7495Z" fill="#5BA6DD"/>
<path d="M1038.96 25.5273V28.308C1038.72 31.1008 1038.64 33.9043 1038.72 36.7059C1038.78 37.2266 1039.19 38.7493 1039.19 38.7493C1039.06 38.8244 1038.91 38.8638 1038.75 38.8638C1038.6 38.8638 1038.45 38.8244 1038.32 38.7493C1037.7 38.1436 1037.27 37.3765 1037.07 36.5361C1037.13 35.926 1037.23 35.3196 1037.35 34.7192C1037.34 33.4813 1036.61 31.0737 1036.5 29.8403C1036.53 29.2668 1036.62 28.6971 1036.74 28.1375L1036.5 26.0375L1038.96 25.5273Z" fill="#FFC083"/>
<path d="M1036.15 25.5273V28.308C1035.91 31.1008 1035.83 33.9043 1035.91 36.7059C1035.97 37.2266 1036.38 38.7493 1036.38 38.7493C1036.25 38.8244 1036.1 38.8638 1035.94 38.8638C1035.79 38.8638 1035.64 38.8244 1035.51 38.7493C1034.89 38.1436 1034.46 37.3765 1034.26 36.5361C1034.32 35.926 1034.42 35.3195 1034.55 34.7192C1034.53 33.4813 1033.8 31.0737 1033.69 29.8403C1033.73 29.2668 1033.81 28.6971 1033.94 28.1375L1033.69 25.9174L1036.15 25.5273Z" fill="#FFC083"/>
<path d="M1037.29 4.8125H1035.29V9.47119H1037.29V4.8125Z" fill="#FF8A54"/>
<path d="M1039.41 26.2662C1038.31 26.7719 1037.11 27.0157 1035.89 26.9784C1035.14 27.0091 1034.39 26.9122 1033.67 26.6915C1033.67 26.6915 1033.51 24.5819 1033.39 23.8825C1033.28 23.2273 1033.01 21.4555 1033 20.7905C1033.22 18.9491 1033.63 17.134 1034.21 15.3711H1039.2C1039.2 15.3711 1039.6 19.2406 1039.65 20.5346C1039.69 21.3989 1039.41 26.2662 1039.41 26.2662Z" fill="#203C61"/>
<path d="M1034.22 21.0699C1034.46 19.1335 1034.89 17.2249 1035.49 15.3711H1034.21C1033.63 17.134 1033.22 18.9491 1033 20.7905C1033.01 21.4555 1033.28 23.2273 1033.39 23.8825C1033.51 24.5819 1033.67 26.6915 1033.67 26.6915C1034.07 26.8228 1034.48 26.9037 1034.9 26.9324C1034.85 26.2804 1034.73 24.8776 1034.63 24.3219C1034.52 23.6332 1034.24 21.7698 1034.22 21.0699Z" fill="#112944"/>
<path d="M1034.21 15.8512L1033.79 11.0329L1033.56 11.5971L1031.77 10.7518C1031.99 9.63454 1032.37 8.5523 1032.88 7.53387C1033.62 7.05459 1034.43 6.69578 1035.29 6.4707L1037.01 8.96661L1037.29 6.4707C1038.05 6.78747 1038.76 7.21417 1039.4 7.73718C1039.75 8.60649 1039.96 9.52212 1040.04 10.4547L1039.37 10.9207L1038.96 11.9286L1039.25 15.8512H1034.21Z" fill="#5BA6DD"/>
<path d="M1033.57 20.9169L1031.14 15.9929L1037.63 12.543L1040.24 17.463L1033.57 20.9169Z" fill="#6BB29F"/>
<path d="M1034.59 3.17908C1034.59 4.57528 1035.4 6.1358 1036.39 6.1358C1037.38 6.1358 1038.18 4.57528 1038.18 3.17908C1038.18 1.78298 1037.38 1.08008 1036.39 1.08008C1035.4 1.08008 1034.59 1.78298 1034.59 3.17908Z" fill="#FFA969"/>
<path d="M1038.35 0.802682C1038.03 0.499002 1037.65 0.271654 1037.23 0.137765C1036.81 0.00387579 1036.36 -0.0330443 1035.93 0.0297325C1035.49 0.0925092 1035.08 0.25335 1034.71 0.500191C1034.35 0.747033 1034.04 1.07342 1033.82 1.45478C1033.42 2.81094 1033.23 4.21867 1033.24 5.63197C1033.13 6.79112 1033.45 7.95206 1034.13 8.89369C1034.51 9.25103 1035.02 9.45628 1035.54 9.47108C1035.24 9.14164 1034.99 8.77664 1034.78 8.38441C1034.65 6.91389 1034.65 5.43409 1034.78 3.96357C1035.35 3.60404 1035.83 3.11751 1036.19 2.54188C1036.37 2.20051 1036.52 1.84597 1036.65 1.48127C1036.8 1.85297 1037.02 2.29161 1037.13 2.52241C1037.34 2.95759 1037.65 3.33219 1038.04 3.60896C1038.04 3.60896 1038.27 5.30219 1038.32 5.83619C1038.45 6.79622 1038.3 7.77179 1037.91 8.6554C1039.1 8.6554 1039.38 7.73008 1039.54 7.12708C1039.9 5.74248 1039.44 1.88048 1038.35 0.802682Z" fill="#9B482A"/>
<path d="M1037.69 15.2198L1037.94 15.0046L1038.16 14.8954L1038.14 14.829L1038.06 14.8539L1037.69 15.1022C1037.61 15.1798 1037.53 15.2454 1037.44 15.2968C1037.39 15.312 1037.35 15.3108 1037.3 15.2934C1037.26 15.276 1037.23 15.2435 1037.2 15.2021L1037.44 14.952L1037.82 14.6505L1038.05 14.5214L1038.03 14.4785L1037.81 14.6L1037.47 14.7858C1037.39 14.8609 1037.3 14.9215 1037.19 14.9651C1037.06 14.9775 1037.03 14.8168 1037.03 14.8168L1037.29 14.5823L1037.71 14.2809L1037.96 14.1584L1037.93 14.1133L1037.69 14.1899L1037.33 14.436C1037.33 14.436 1037.17 14.6165 1037.07 14.6107C1037 14.6072 1036.97 14.4728 1036.97 14.4728L1037.29 14.1473L1037.74 13.8614L1038.2 13.8154L1038.79 14.0369L1039.35 13.799L1039.1 11.5975L1039.37 10.9211L1040.04 10.4551C1040.04 10.4551 1040.56 13.7261 1040.04 14.6328C1039.87 14.9467 1038.8 15.3698 1038.8 15.3698L1038.35 15.2048L1038.04 15.2516C1037.96 15.3407 1037.87 15.4199 1037.77 15.4874C1037.73 15.5013 1037.69 15.5039 1037.65 15.4949C1037.61 15.4859 1037.57 15.4657 1037.54 15.4365L1037.69 15.2198Z" fill="#FFA969"/>
<path d="M1031.95 10.8359L1033.45 11.5423L1032.84 13.6475C1033.84 14.909 1034.71 16.2657 1035.43 17.6979C1035.6 17.995 1036.42 17.9711 1036.75 18.064C1036.94 18.1457 1037.12 18.243 1037.29 18.3549C1037.29 18.3549 1037.3 18.4902 1037.26 18.529C1037.17 18.617 1036.88 18.5397 1036.67 18.5211C1036.6 18.5126 1036.52 18.5274 1036.45 18.5635C1036.45 18.5635 1036.99 19.3115 1036.89 19.5697C1036.87 19.5996 1036.84 19.624 1036.81 19.6408C1036.78 19.6576 1036.74 19.6664 1036.7 19.6665C1036.64 19.6581 1036.58 19.4795 1036.53 19.5114C1036.49 19.5405 1036.62 19.6683 1036.6 19.7191C1036.57 19.7547 1036.54 19.7835 1036.5 19.8033C1036.46 19.8232 1036.41 19.8334 1036.37 19.8332C1036.32 19.8217 1036.28 19.6457 1036.24 19.6692C1036.19 19.6922 1036.31 19.827 1036.29 19.8765C1036.26 19.9053 1036.23 19.9288 1036.2 19.9455C1036.17 19.9622 1036.13 19.9718 1036.09 19.9737C1036.03 19.9694 1035.95 19.8102 1035.9 19.8429C1035.86 19.8725 1035.98 19.9915 1035.96 20.0383C1035.94 20.0726 1035.91 20.1013 1035.88 20.1222C1035.84 20.1431 1035.8 20.1555 1035.76 20.1585C1035.48 20.1064 1035.07 19.2523 1035.07 19.2523L1034.68 18.2673C1034.68 18.2673 1031.88 15.2868 1031.55 14.0211C1031.51 12.9449 1031.64 11.8687 1031.95 10.8359Z" fill="#FFA969"/>
<path d="M1035.29 6.00391L1034.81 6.62189L1034.93 7.9519H1035.46L1035.32 8.64087L1037.14 9.54089L1037.9 7.92487L1037.65 7.77289L1038.08 6.85187L1037.29 6.00391L1036.97 8.91687L1035.29 6.00391Z" fill="white"/>
<path d="M1031.77 10.7528L1031.88 10.2988L1033.74 11.1618L1033.56 11.5978L1031.77 10.7528Z" fill="white"/>
<path d="M1039.37 10.921L1039.25 10.455L1040 10.084L1040.04 10.455L1039.37 10.921Z" fill="white"/>
<path d="M1039.25 10.4548L1038.97 9.25977L1039.57 10.2978L1039.25 10.4548Z" fill="#316D99"/>
<path d="M1035.09 10.949C1034.71 10.7328 1034.16 9.4707 1034.16 9.4707L1033.42 11.0117L1033.74 11.1612L1033.8 10.9967L1034.08 14.429L1034.74 14.0824C1034.74 14.0824 1034.58 12.2191 1034.93 12.0392C1035.43 11.7766 1037.43 12.1355 1038.18 11.8225C1038.34 11.7583 1038.47 11.6512 1038.57 11.5138C1038.66 11.3764 1038.72 11.2145 1038.72 11.0471C1038.72 11.0471 1035.88 11.3977 1035.09 10.949Z" fill="#316D99"/>
<path d="M1031.14 15.9941L1031 16.2231L1033.19 20.9182H1033.57L1031.14 15.9941Z" fill="#8BD2CA"/>
<g style="mix-blend-mode:multiply" opacity="0.4">
<path d="M501.608 108.45C501.869 108.33 502.65 108.074 502.492 107.97C501.618 107.797 500.734 107.679 499.844 107.615C499.806 107.61 499.758 107.601 499.712 107.593L499.947 107.56L498.329 107.308L497.899 107.219H497.897L498.067 107.113C498.402 107.061 498.695 107.007 498.852 106.965C498.965 106.934 499.076 106.897 499.185 106.855C499.494 106.854 499.801 106.807 500.095 106.715C500.325 106.632 500.313 106.561 500.087 106.545C500.499 106.452 500.895 106.296 501.26 106.083C501.644 105.791 500.857 105.684 498.125 105.677C496.888 105.577 495.645 105.743 494.478 106.166C494.312 106.243 494.174 106.37 494.083 106.528C494.051 106.527 494.025 106.525 493.99 106.526C493.751 106.515 493.513 106.574 493.308 106.697C493.232 106.785 493.414 106.849 493.714 106.842H493.723C493.674 106.88 493.643 106.916 493.644 106.942C493.647 107.007 493.882 107.096 494.181 107.17L493.767 107.38L490.844 107.658L490.86 107.703C489.773 107.792 488.623 107.896 488.103 107.978C486.359 108.256 485.065 108.982 483.673 109.306C483.441 109.36 482.758 109.443 482.555 109.5C482.272 109.578 481.919 109.751 481.949 109.828C482.208 109.985 482.502 110.071 482.805 110.08C483.123 110.109 484.018 110.084 484.423 110.085C484.65 110.085 485.333 110.087 485.333 110.087L483.523 110.683L481.667 111.386L481.911 111.391L481.914 111.39L482.505 111.4L479.528 112.85C479.528 112.85 476.162 115.295 476.021 115.357C475.945 115.392 475.211 115.487 475.211 115.487L476.25 116.033C476.25 116.033 478.178 116.075 478.751 115.998C478.953 115.972 479.022 115.914 479.038 115.855C479.208 115.856 479.316 115.857 479.316 115.857C479.431 115.672 479.591 115.519 479.781 115.412C479.9 115.361 480.445 115.268 480.495 115.217C480.53 115.182 480.254 115.101 480.254 115.101L483.837 113.405L485.509 112.552L486.935 111.779L489.037 111.776L486.459 113.608L485.774 114.668L485.671 115.248C485.671 115.248 484.755 115.435 484.588 115.504C484.522 115.534 484.468 115.588 484.439 115.655H484.438L484.437 115.657C484.427 115.679 484.418 115.702 484.412 115.726C484.388 115.794 484.342 115.852 484.281 115.892C484.17 115.952 484.636 116.244 485.1 116.247C485.852 116.248 486.603 116.208 487.351 116.127C487.626 116.081 487.884 115.964 488.1 115.789C488.395 115.669 488.658 115.483 488.872 115.247L490.879 113.994L493.918 112.207L495.251 111.442L495.779 111.44L496.875 110.08C496.875 110.08 499.341 109.422 500.029 109.196C500.569 108.978 501.096 108.729 501.608 108.45V108.45Z" fill="#939598"/>
</g>
<path d="M479.911 81.7668L479.936 80.5442L482.536 80.3702L482.63 82.5408L480.572 83.439L479.911 81.7668Z" fill="#FFA969"/>
<path d="M480.109 81.0676C480.431 81.3006 480.821 81.4189 481.218 81.4036C481.615 81.3884 481.996 81.2404 482.299 80.9834C482.299 80.9834 482.288 82.1328 481.406 82.2199C480.256 82.3335 479.934 80.9258 480.109 81.0676Z" fill="#FF8A54"/>
<path d="M479.265 76.809C479.135 77.8823 479.135 78.9673 479.265 80.0406C479.547 80.6127 479.999 81.0838 480.558 81.3897C480.944 81.5089 481.357 81.5089 481.743 81.3897C482.253 81.0783 482.658 80.6208 482.905 80.0764C483.073 78.996 483.129 77.901 483.072 76.809H479.265Z" fill="#FFA969"/>
<path d="M479.557 77.3101C480.063 77.1477 480.592 77.073 481.123 77.0893C481.678 77.0379 482.237 77.0479 482.79 77.1192C483.157 77.3086 483.065 78.8286 483.065 78.8286C483.372 78.1192 483.503 77.3464 483.447 76.5756C483.34 75.4177 482.657 75.0044 480.754 75.0044C480.494 74.9861 480.233 75.0249 479.99 75.1181C479.747 75.2113 479.527 75.3566 479.345 75.5439C479.164 75.7311 479.026 75.9557 478.94 76.202C478.855 76.4483 478.825 76.7102 478.851 76.9695C478.87 77.5997 478.972 78.2247 479.153 78.8286C479.153 78.8286 479.155 77.5101 479.557 77.3101Z" fill="#403023"/>
<path d="M479.437 78.9551C479.495 79.3001 479.383 79.6071 479.184 79.641C478.986 79.6744 478.778 79.4229 478.719 79.0776C478.661 78.7326 478.774 78.4255 478.972 78.3917C479.17 78.3583 479.378 78.6104 479.437 78.9551Z" fill="#FFA969"/>
<path d="M482.728 78.9551C482.669 79.3001 482.782 79.6071 482.981 79.641C483.179 79.6744 483.387 79.4229 483.446 79.0776C483.505 78.7326 483.391 78.4255 483.193 78.3917C482.995 78.3583 482.787 78.6104 482.728 78.9551Z" fill="#FFA969"/>
<path d="M484.018 114.498C484.107 114.805 484.172 115.118 484.212 115.435C484.212 115.674 483.903 116.161 484.018 116.37C484.175 116.654 484.909 116.824 485.233 116.828C485.745 116.831 486.243 116.657 486.642 116.335C486.927 115.933 486.642 114.363 486.642 114.363L484.018 114.498Z" fill="#414042"/>
<path d="M474.67 115.596C474.628 115.761 474.94 116.051 475.092 116.125C475.847 116.274 476.625 116.274 477.381 116.125C477.746 116.091 478.824 116.072 478.824 116.072C478.824 116.072 480.215 116.218 480.514 115.913C480.772 115.653 480.268 114.681 480.268 114.681L477.408 113.933C476.96 114.322 476.493 114.687 476.007 115.028C475.694 115.214 474.758 115.244 474.67 115.596Z" fill="#414042"/>
<path d="M477.275 96.757L477.029 103.482L477.275 112.567C477.275 112.567 477.821 113.16 477.803 113.408C477.788 113.627 477.24 114.081 477.24 114.081C477.656 114.482 478.116 114.834 478.613 115.13C479.308 115.275 480.016 115.348 480.726 115.349C480.594 114.77 480.511 114.181 480.479 113.588C480.497 113.386 480.756 113.014 480.726 112.813C480.647 112.644 480.54 112.489 480.409 112.356L480.726 105.63L480.795 102.25V99.1865L482.248 99.1511L482.803 106.405L483.684 110.595L484.352 112.883C484.174 113.207 484.032 113.55 483.93 113.905C483.961 114.264 484.032 114.619 484.141 114.962C484.586 114.915 485.033 114.895 485.48 114.899C485.872 114.969 486.26 115.061 486.642 115.173C486.862 114.753 487.016 114.301 487.099 113.834C486.975 113.481 486.796 113.148 486.571 112.849L486.36 107.884L486.184 100.807L486.113 96.9329L480.057 95.3111L477.275 96.757Z" fill="#231F20"/>
<path d="M479.775 82.3149C479.775 82.3149 477.3 83.4593 476.747 84.1807C475.894 85.2955 475.925 88.1722 475.374 89.4626C475.281 89.6785 474.915 90.0135 474.846 90.2377C474.738 90.6651 474.738 91.1127 474.846 91.5401C475.05 91.9498 475.368 92.2922 475.761 92.5264C476.135 92.5828 476.514 92.5828 476.888 92.5264H477.522L477.17 94.5688L476.641 97.6886L479.545 97.8999L480.319 95.912L481.114 97.9349L486.492 97.7587L485.515 92.3854C485.515 92.3854 486.384 89.7645 486.571 88.8644C486.672 87.8817 486.719 86.8943 486.712 85.9065C486.74 85.4319 486.954 84.4141 486.712 84.005C486.349 83.3912 485.013 83.0328 484.423 82.6319C484.035 82.3682 482.979 81.4345 482.979 81.4345L480.995 83.9638L479.775 82.3149Z" fill="#58595B"/>
<path d="M479.775 82.316C479.775 82.316 479.626 84.0486 479.665 84.5523C479.748 85.6163 480.434 88.5546 480.434 88.5546C480.434 88.5546 481.376 85.5535 481.782 84.5874C482.203 83.8499 482.586 83.0918 482.93 82.316C482.97 82.0243 482.987 81.7299 482.98 81.4356L482.567 81.0878L480.796 82.8408L479.911 81.7679L479.775 82.316Z" fill="white"/>
<path d="M482.98 81.4345L484.423 82.4124L482.98 83.9625L483.828 84.5362C483.828 84.5362 482.562 86.0612 482.156 86.5826C481.698 87.1699 480.385 88.7884 480.385 88.7884C480.385 88.7884 481.284 85.8019 481.701 84.7858C481.937 84.2119 482.658 83.1731 482.837 82.5785C482.913 82.2012 482.96 81.8188 482.98 81.4345V81.4345Z" fill="#231F20"/>
<path d="M485.175 84.7878L484.252 86.8081L483.903 89.9774L484.377 90.7505L482.065 91.2753L481.109 91.1502L479.936 89.6748L478.114 89.4536L477.03 88.3306L476.955 86.5588L476.816 85.2863L478.114 88.0316L479.249 89.1291L482.98 88.9796L483.878 86.5343L485.175 84.7878Z" fill="#414042"/>
<path d="M480.219 83.439L480.796 82.84L481.369 83.4889L480.949 84.2025L481.27 85.538L481.109 86.458L480.385 88.7887L479.799 85.4042L480.474 84.2279L480.219 83.439Z" fill="#DD625B"/>
<path d="M478.114 89.4532L477.266 88.3548L476.278 88.0312L475.871 89.0378L476.385 89.7523L478.114 89.4532Z" fill="#FFA969"/>
<path d="M480.684 89.7508L480.983 90.9988H481.881L483.529 89.9257V89.227H482.28L480.684 89.7508Z" fill="#FFA969"/>
<path d="M485.98 95.569L485.656 93.3468H485.687L485.515 92.3856L484.377 92.92L480.085 92.5264V91.9475L477.522 92.5264L477.029 94.8956L476.641 97.6889L476.816 97.7038L477.278 96.1313L478.051 93.1106L480.384 93.3468H484.184L484.75 93.9327L485.553 97.7904L486.492 97.7589L485.98 95.569Z" fill="#414042"/>
<path d="M479.91 81.7672L478.239 82.8901L478.812 84.3871L478.113 84.5367C478.317 85.2535 478.563 85.9578 478.849 86.646C479.322 87.3924 479.834 88.1125 480.384 88.8034C480.384 88.8034 479.822 85.4633 479.775 84.3373C479.748 83.6944 479.91 81.7672 479.91 81.7672Z" fill="#231F20"/>
<path d="M479.936 89.6333L480.06 91.6299L481.208 91.5049L480.796 89.6333H479.936Z" fill="#8BD2CA"/>
<g style="mix-blend-mode:multiply" opacity="0.4">
<path d="M91.9366 508.85L92.1323 508.669L93.4911 508.192C94.0105 508.175 95.2596 508.073 95.6641 508C95.9898 507.98 96.307 507.888 96.5939 507.733C96.8808 507.577 97.1305 507.361 97.3257 507.1C97.3982 506.973 96.9393 506.628 96.9393 506.628L94.4382 506.42L94.5965 506.111L94.8364 505.981C95.2688 505.921 95.6853 505.851 95.8762 505.8C95.9703 505.775 96.0698 505.741 96.1706 505.703C96.4436 505.703 96.7148 505.661 96.9752 505.579C97.1654 505.512 97.1646 505.453 97.0035 505.433C97.3868 505.341 97.9141 505.186 98.0062 505.021C98.0975 504.855 97.466 504.768 95.0456 504.764C94.0247 504.763 93.0068 504.874 92.0099 505.094C91.8627 505.162 91.7404 505.274 91.6603 505.414C91.6325 505.414 91.6086 505.411 91.5776 505.412C91.3663 505.402 91.1569 505.455 90.9755 505.564C90.9081 505.641 91.0688 505.698 91.3342 505.691L91.3417 505.69C91.2989 505.726 91.2712 505.757 91.272 505.781C91.2735 505.836 91.4662 505.91 91.7164 505.974L91.4625 506.112L90.3935 506.299L87.858 506.381C87.858 506.381 87.4197 506.42 86.9427 506.468L86.9423 506.468C86.9423 506.468 86.8977 506.472 86.8342 506.479C86.5187 506.512 86.2089 506.547 85.998 506.578C85.9397 506.586 85.8876 506.594 85.8516 506.6C85.2098 506.708 84.5991 506.953 84.0618 507.32C83.9426 507.445 83.9776 507.719 84.3527 507.806C84.3527 507.806 83.2521 508.157 83.0455 508.276C82.6206 508.522 83.423 508.647 83.423 508.647L83.1638 508.787C82.6213 508.899 81.569 509.121 81.2585 509.219C79.9053 509.751 78.6062 510.411 77.379 511.19L75.9185 511.938C75.9185 511.938 73.7278 513.857 74.2546 513.828C74.4796 513.815 75.1553 513.775 75.1553 513.775L75.3024 513.674C75.3184 513.673 75.3392 513.672 75.3549 513.67C76.5859 513.475 77.7723 513.062 78.8585 512.451C80.647 511.612 82.4839 510.88 84.3593 510.258C84.5919 510.213 84.8282 510.189 85.0652 510.188C85.7143 510.234 85.1436 510.574 85.0107 510.708C84.5627 511.16 82.2816 512.076 81.6522 512.53C81.2445 512.824 80.0266 513.492 81.1241 513.658L81.1315 513.659L81.1139 513.66L80.8242 513.789C80.8242 513.789 81.3487 513.832 81.5256 513.846C81.9382 513.878 82.7244 513.954 83.1897 513.97C83.6173 513.985 84.3217 513.576 84.1868 513.541C84.3142 513.526 85.0519 513.325 85.0519 513.325C85.0519 513.325 85.0718 513.27 84.9656 513.232L86.3038 512.282L90.7353 509.923C91.1211 509.735 91.4925 509.518 91.8465 509.275C91.9234 509.148 91.9548 508.998 91.9358 508.85H91.9366Z" fill="#939598"/>
</g>
<path d="M74.1877 512.69C74.5797 513.064 75.9347 513.674 76.3537 513.331C77.307 512.552 77.089 509.709 77.2239 508.485C77.4642 506.308 77.4614 502.855 78.2351 499.782C78.2653 499.663 78.5182 499.457 78.6342 499.497C79.1426 499.67 79.1821 501.019 79.262 501.55C79.5282 503.335 79.1171 506.971 79.262 508.77C79.3546 509.932 79.3651 512.582 80.3376 513.224C80.8354 513.553 82.1076 513.045 82.4875 512.552C82.5729 512.335 82.6225 512.105 82.6345 511.872L82.4691 511.688L82.1688 507.744L82.226 498.394C82.2511 497.538 82.2321 496.682 82.1688 495.828C81.9964 495.115 81.7871 494.411 81.5417 493.719H75.6697C75.3139 494.359 75.009 495.026 74.7578 495.714C74.3212 497.618 74.5864 503.525 74.5864 503.525L74.5295 506.49L74.1877 510.538V511.775L73.8691 512.04C73.9157 512.281 74.0257 512.505 74.1877 512.69V512.69Z" fill="#DDA137"/>
<path d="M81.4744 495.331C81.0868 495.245 80.7117 495.11 80.3585 494.928C80.1644 494.728 79.9937 494.506 79.8497 494.267L80.8151 493.914L76.6627 494.023L77.3286 494.267C77.1844 494.506 77.0135 494.728 76.8191 494.928C76.4674 495.109 76.0942 495.244 75.7083 495.33C75.6364 495.528 75.5758 495.729 75.5268 495.934C75.1864 498.537 75.1864 501.174 75.5268 503.778C75.6165 504.268 76.6145 504.676 76.8289 503.813C77.2075 501.868 77.7253 499.953 78.3783 498.082C78.4324 497.965 78.8412 497.965 78.8961 498.082C79.555 499.492 79.6349 503.124 80.3596 504.775C80.496 505.087 81.1276 505.381 81.3902 504.383C81.959 501.725 82.0599 498.988 81.6884 496.295C81.6345 495.97 81.5631 495.648 81.4744 495.331V495.331ZM79.1474 497.1H78.5202V494.318H79.3692L79.1474 497.1Z" fill="#EFBC4F"/>
<path d="M74.5946 485.336C74.921 484.99 75.2949 484.692 75.705 484.451L77.3584 484.103L77.88 483.32L78.8806 484.328L79.968 483.32L80.3159 484.538L82.317 485.336C82.6586 485.929 82.9495 486.549 83.1867 487.191C83.3925 488.114 83.701 489.968 83.1867 490.762C82.8086 491.084 82.3832 491.347 81.9254 491.541L81.5421 493.719L78.1845 494.151L75.5266 493.433C75.3022 493.261 75.1195 493.041 74.9922 492.789C74.8649 492.536 74.7962 492.259 74.7913 491.976C74.8491 491.346 74.9508 490.721 75.0958 490.105C74.763 489.494 74.4875 488.853 74.2732 488.191C74.1357 487.228 74.2463 486.245 74.5946 485.336Z" fill="#8BD2CA"/>
<path d="M75.5264 493.434V493.991L78.5483 494.639L81.6874 494.152L81.5914 493.434L78.8364 493.72L75.5264 493.434Z" fill="#3D5666"/>
<path d="M78.1768 485.119L79.0538 484.842L79.8708 485.336L79.1828 485.97L79.7498 486.883L80.3588 495.108L79.3688 495.934L78.1768 495.014L78.3778 486.883L78.8108 485.97L78.1768 485.119Z" fill="#DD625B"/>
<path d="M74.5946 485.336C74.7687 485.136 74.9655 484.957 75.1812 484.803L77.0424 487.706L81.5041 488.61L80.9788 489.426L77.8593 490.855C76.9013 490.769 75.9659 490.515 75.0958 490.106C74.673 489.542 74.3909 488.886 74.2732 488.191C74.1357 487.228 74.2463 486.245 74.5946 485.336Z" fill="#79C0B0"/>
<path d="M82.3171 485.336C82.0854 485.609 81.8813 485.905 81.7079 486.219C81.5611 487.007 81.4929 487.808 81.5042 488.61L80.9789 489.426L77.8594 490.855C78.3528 491.063 78.8567 491.245 79.3691 491.4C80.2077 491.587 81.0714 491.634 81.9255 491.541C82.4069 491.396 82.8418 491.128 83.1868 490.762C83.7011 489.968 83.3926 488.115 83.1868 487.191C82.9496 486.55 82.6587 485.929 82.3171 485.336V485.336Z" fill="#6BB29F"/>
<path d="M80.0314 482.429V483.544L78.8364 484.843L77.8584 483.437V482.283L80.0314 482.429Z" fill="#FFA969"/>
<path d="M77.3043 479.191C77.1889 480.14 77.1889 481.1 77.3043 482.048C77.5536 482.554 77.9527 482.971 78.4472 483.242C78.7884 483.347 79.1533 483.347 79.4945 483.242C79.9455 482.966 80.3033 482.561 80.5214 482.08C80.6702 481.125 80.7196 480.157 80.6688 479.191H77.3043Z" fill="#FFA969"/>
<path d="M77.7636 479.635C78.04 479.498 78.6385 479.823 78.9462 479.843C79.2174 479.86 79.7763 479.544 80.0174 479.668C80.3419 479.835 80.6637 480.978 80.6637 480.978C81.0053 480.373 81.1247 479.669 81.0015 478.985C80.8522 478.328 80.3035 477.991 78.6208 478C78.0615 478.003 76.9393 478.682 76.9385 479.334C76.9549 479.891 77.0445 480.444 77.205 480.978C77.205 480.978 77.4092 479.812 77.7636 479.635Z" fill="#403023"/>
<path d="M74.4787 512.631C74.327 512.67 74.0523 513.09 74.0523 513.09C73.7703 513.442 73.4252 513.737 73.0347 513.962C72.9265 514.025 73.0971 514.363 73.1985 514.436C73.4596 514.622 74.1636 514.491 74.4787 514.436C74.9266 514.308 75.3654 514.15 75.7918 513.962C75.9317 513.91 76.349 513.746 76.349 513.746L76.3139 513.233C76.3139 513.233 74.9467 512.51 74.4787 512.631Z" fill="#443122"/>
<path d="M82.1683 512.631C82.32 512.67 82.5948 513.09 82.5948 513.09C82.8769 513.442 83.222 513.737 83.6127 513.962C83.7213 514.025 83.5508 514.363 83.4489 514.436C83.1879 514.622 82.4835 514.491 82.1683 514.436C81.7205 514.308 81.2819 514.15 80.8557 513.962C80.7158 513.91 80.2979 513.746 80.2979 513.746L80.3332 513.233C80.3332 513.233 81.7011 512.51 82.1683 512.631Z" fill="#443122"/>
<path d="M76.43 486.771L77.4252 487.023L77.9954 487.9L77.0422 487.706C77.0422 487.706 76.6475 487.908 76.528 487.849C76.3402 487.757 76.2109 487.076 76.2109 487.076L76.43 486.771Z" fill="#FFA969"/>
<path d="M80.9783 489.427L80.6855 488.446C80.6855 488.446 81.3134 488.006 81.5532 488.028C81.7131 488.043 82.071 488.41 82.071 488.41L80.9783 489.427Z" fill="#FFA969"/>
<path d="M77.3574 484.103L77.8794 483.32L78.9924 484.544L80.0314 483.32L80.3154 484.538L80.0314 485.698L78.9764 484.899L77.8584 485.617L77.3574 484.103Z" fill="#6BB29F"/>
<path d="M78.2631 483.142C78.4838 483.302 78.7518 483.383 79.0242 483.372C79.2966 483.362 79.5576 483.26 79.7654 483.084C79.7654 483.084 79.7579 483.873 79.1531 483.932C78.3645 484.01 78.1427 483.045 78.2631 483.142Z" fill="#FF8A54"/>
<path d="M77.4564 481.089C77.5082 481.394 77.4086 481.665 77.233 481.695C77.0578 481.725 76.8732 481.502 76.8214 481.197C76.7693 480.892 76.8697 480.621 77.0448 480.591C77.2201 480.561 77.4047 480.784 77.4564 481.089Z" fill="#FFA969"/>
<path d="M80.3652 481.089C80.3134 481.394 80.4133 481.665 80.5886 481.695C80.7637 481.725 80.948 481.502 80.9998 481.197C81.0519 480.892 80.9516 480.621 80.7767 480.591C80.6016 480.561 80.4177 480.784 80.3652 481.089Z" fill="#FFA969"/>
<path d="M76.1907 493.434L76.0557 494.319L76.3607 494.404L76.4966 493.434H76.1907Z" fill="#DDA137"/>
<path d="M80.5518 493.434L80.7038 494.404H81.0608L80.8738 493.434H80.5518Z" fill="#DDA137"/>
<path d="M80.6854 488.445L80.9784 489.427L80.6854 489.561L80.3584 488.379L80.6854 488.445Z" fill="white"/>
<path d="M73.8691 512.04C73.9872 512 74.1081 511.968 74.2308 511.946C74.8122 512.078 75.3748 512.282 75.9057 512.553C75.9057 512.553 74.7036 511.409 74.2308 511.537C73.9737 511.607 73.8691 512.04 73.8691 512.04Z" fill="#EFBC4F"/>
<path d="M82.6344 511.872C82.5163 511.832 82.3954 511.8 82.2726 511.778C81.6915 511.91 81.1291 512.114 80.5986 512.385C80.5986 512.385 81.8003 511.241 82.2726 511.369C82.5297 511.44 82.6344 511.872 82.6344 511.872Z" fill="#EFBC4F"/>
<g style="mix-blend-mode:multiply" opacity="0.4">
<path d="M17.5778 116.894C17.4524 116.871 17.218 116.814 17.0494 116.771L17.9102 116.714L17.8765 116.538L17.5281 116.561C17.715 116.488 19.3658 115.842 19.9648 115.57C20.7453 115.281 21.5094 114.949 22.2538 114.577C22.4737 114.408 22.4656 114.241 22.5471 114.076C22.845 113.596 23.185 113.143 23.563 112.724L24.0576 112.489L24.8259 112.129C24.8259 112.129 26.2488 111.524 26.5596 111.322C27.1153 110.86 27.6062 110.325 28.0192 109.732L26.8414 109.64L26.7935 109.563L25.6232 109.23L26.6442 109.104L27.3536 108.824C27.5923 108.798 27.8286 108.753 28.0604 108.69C28.3787 108.6 28.4464 108.515 28.2751 108.477C28.5553 108.386 28.8288 108.274 29.0936 108.144C29.2162 108.055 29.0868 107.879 28.8262 107.817C28.2217 107.688 27.6044 107.628 26.9863 107.638C25.5878 107.676 24.1944 107.822 22.8187 108.076C22.7263 108.113 22.644 108.172 22.5786 108.247C22.5131 108.322 22.4664 108.412 22.4421 108.508C22.4092 108.509 22.3786 108.506 22.3433 108.508C21.9466 108.529 21.6389 108.634 21.6566 108.742C21.6738 108.851 22.0084 108.921 22.4059 108.9C22.5294 108.893 22.652 108.876 22.7725 108.848L22.7112 108.958L22.5544 109.043V109.042L21.4888 109.175L20.3345 109.345L16.8292 109.538C16.8292 109.538 14.8526 109.953 14.3865 110.104C13.3568 110.41 12.3916 110.901 11.5386 111.554C11.4351 111.693 11.5778 111.95 11.751 112.178L8.21466 112.529L5.08887 113.185L9.29413 113.869L10.3132 114.001C9.37325 114.322 8.45463 114.702 7.56287 115.14C6.95147 115.515 6.01703 117.409 6.48303 117.422C7.33633 117.447 9.36627 117.228 8.59137 116.973C8.48047 116.931 8.37705 116.871 8.28522 116.796L8.85394 116.753L8.81714 116.587C9.26464 116.455 9.70203 116.291 10.1259 116.095C10.4685 115.889 11.0141 115.485 11.3994 115.279C12.6158 114.813 13.8547 114.409 15.1116 114.067L16.8483 113.742C16.8483 113.742 17.595 114.49 17.2078 114.814C17.1239 114.884 16.609 115.022 16.4678 115.092C15.765 115.442 14.5296 116.244 14.0267 116.577L13.6943 116.55L13.3145 116.756L14.1337 116.81C13.9907 116.874 13.8436 116.93 13.6934 116.975C13.6111 116.996 13.3587 117.03 13.2839 117.052C13.077 117.129 12.8821 117.235 12.705 117.366C12.705 117.366 14.9055 117.388 15.6447 117.393C16.7183 117.399 17.9337 116.962 17.5778 116.894ZM25.3981 109.257L25.1014 109.417L25.3981 109.257Z" fill="#939598"/>
</g>
<path d="M12.3318 96.7364L12.2598 98.1644L12.2168 99.0944L11.0098 98.3854L11.5388 96.5664L12.3318 96.7364Z" fill="#FFA969"/>
<path d="M6.81348 83.6855V85.1655L7.31549 87.9855L9.2865 88.1005L9.8255 86.6275L9.0575 86.0396V84.8505L6.81348 83.6855Z" fill="#FFA969"/>
<path d="M4.78241 104.334L3.78949 103.755L0 101.099L1.3288 98.4813L4.02393 96.5664C4.7152 96.9259 5.37693 97.3396 6.00299 97.8034C6.00299 97.9492 4.78241 104.334 4.78241 104.334Z" fill="#2B271B"/>
<path d="M7.40765 86.8867L9.68768 87.0817L11.2886 92.1517L11.4687 97.8307L8.76666 98.7257L5.47266 97.2217L7.40765 86.8867Z" fill="#5E4735"/>
<path d="M5.22343 115.618C5.26579 115.821 5.29462 116.027 5.30973 116.234C5.29953 116.549 5.00082 117.201 5.16782 117.467C5.35042 117.758 6.04225 117.753 6.38285 117.8C7.22113 117.839 8.06098 117.829 8.89805 117.769C8.93208 117.605 8.93208 117.435 8.89805 117.27C8.70525 116.862 8.13291 117.005 7.26981 116.006C7.08531 115.754 6.92061 115.488 6.77714 115.211L5.22343 115.618Z" fill="#2B271B"/>
<path d="M10.9201 115.102C10.9059 115.392 10.8688 115.68 10.8092 115.963C10.7795 116.048 10.6477 116.185 10.6242 116.272C10.581 116.686 10.581 117.103 10.6242 117.517C10.6242 117.517 12.1776 117.582 12.6953 117.591C13.6972 117.649 14.7017 117.649 15.7036 117.591C15.9705 117.531 16.234 117.457 16.4931 117.369C16.4931 117.369 16.4432 116.895 16.3327 116.795C16.0474 116.538 15.1745 116.677 14.8162 116.536C14.3111 116.278 13.8355 115.966 13.398 115.606C13.2024 115.453 12.671 114.928 12.671 114.928L10.9201 115.102Z" fill="#2B271B"/>
<path d="M6.18243 96.9883C7.32962 97.4164 8.51929 97.7204 9.7312 97.8952C10.2194 97.7953 10.6955 97.6433 11.1513 97.4418C11.2407 97.761 11.3594 98.0712 11.5057 98.3686C11.6632 98.5946 12.17 98.8245 12.2171 99.0957C12.4523 100.458 12.9276 103.122 13.2413 104.441C13.4321 105.09 13.578 105.75 13.6783 106.418C13.6501 107.738 13.5444 109.055 13.3616 110.362C13.289 111.503 12.9308 114.35 12.9308 114.35V114.981H10.5654C10.5654 114.981 10.2737 110.278 10.325 108.508C10.397 108.143 10.4496 107.775 10.4826 107.404C10.1021 105.94 9.55916 104.523 8.86383 103.179L8.0752 104.481C7.59242 106.053 7.24971 107.665 7.05103 109.297C7.04753 110.116 7.1851 111.713 7.2121 112.53C7.15721 113.358 7.02565 114.178 6.81903 114.981L4.88739 115.494C4.88739 115.494 4.28259 110.63 4.21289 108.784C4.33671 106.506 4.61276 104.238 5.03912 101.996C5.03912 101.996 5.40131 100.934 5.51221 100.577C5.74446 100.005 5.91619 99.4101 6.02454 98.8023C5.9779 98.4796 5.89865 98.1624 5.78809 97.8557L6.18243 96.9883Z" fill="#293545"/>
<path d="M4.63135 114.928L5.16235 115.138L6.32031 114.768L6.89435 114.377L7.17133 115.138L5.82831 115.828L4.57031 115.693L4.63135 114.928Z" fill="#4D5C6F"/>
<path d="M10.2656 114.287L11.1046 114.608H12.2136L13.1506 114.201L13.3976 114.891L12.7686 115.175L10.9436 115.323L10.2656 115.103V114.287Z" fill="#4D5C6F"/>
<path d="M6.53469 85.4805L3.47786 86.5966C3.09909 87.3235 2.77484 88.0775 2.50777 88.8525C2.17916 90.752 2.13829 92.6901 2.38655 94.6018C2.86927 96.0553 3.46968 97.4671 4.18178 98.8232L5.68617 97.8039C5.99957 97.5655 6.28431 97.2916 6.53469 96.9878C7.46719 95.2881 7.87167 91.315 8.06337 89.3862C8.09547 89.0603 8.06337 88.076 8.06337 88.076L7.6263 87.9063L6.53469 85.4805Z" fill="#95847C"/>
<path d="M4.4424 87.518C4.0203 87.6544 4.74495 88.8211 4.76375 89.2646C4.79955 90.0989 4.4824 91.7541 4.4424 92.5884C4.37975 93.3148 4.37975 94.0452 4.4424 94.7716C4.68768 95.5762 4.98955 96.3625 5.34585 97.1245L5.75387 97.8808L6.00326 97.5394C5.68176 96.8756 5.39718 96.1944 5.15078 95.4992C4.96572 94.5631 4.85276 93.6143 4.81289 92.6609C4.77209 91.7829 5.3652 90.0354 5.2228 89.1675C5.1491 88.7172 4.8768 87.3781 4.4424 87.518Z" fill="#6B584A"/>
<path d="M3.25977 98.4848L3.96277 99.2118L5.78778 97.8558L5.66077 97.3438L4.30981 97.8048L3.25977 98.4848Z" fill="#BCAEA3"/>
<path d="M11.1517 97.441C11.1517 97.441 10.857 95.1293 10.7558 94.359C10.6488 93.5403 10.5108 91.8873 10.3192 91.0841C10.1201 90.2468 9.18555 87.8333 9.18555 87.8333L9.422 86.4746L11.4833 87.2509C11.4833 87.2509 12.4168 91.9454 12.5027 93.5342C12.5454 94.335 12.3326 96.7365 12.3326 96.7365L11.6777 96.7851L11.4339 98.234L11.1517 97.441Z" fill="#95847C"/>
<path d="M11.1189 88.61C11.5406 88.4948 11.9039 92.3301 12.0169 93.3596C12.0757 94.4925 12.0757 95.6277 12.0169 96.7606L11.677 96.7857C11.677 96.7857 11.5257 93.5811 11.4509 92.5161C11.3822 91.5358 10.7641 88.7072 11.1189 88.61Z" fill="#6B584A"/>
<path d="M5.78815 97.8555L6.24316 98.8235L5.47314 100.7L5.32214 100.327L5.15112 99.3575L4.70312 98.6625L5.78815 97.8555Z" fill="#FFA969"/>
<path d="M6.81317 84.584L6.24316 85.118L5.66113 85.801L6.70416 88.609L7.96613 87.325L7.21417 85.918L6.81317 84.584Z" fill="#BCAEA3"/>
<path d="M9.90674 87.3965C9.90674 87.3965 8.58383 90.2859 8.07733 91.2153C7.26603 92.7028 4.94922 96.2093 4.94922 96.2093L5.26544 96.946C5.26544 96.946 7.89942 93.5471 8.67242 92.1513C9.28072 91.0529 10.5863 87.5076 10.5863 87.5076L9.90674 87.3965Z" fill="#2B271B"/>
<path d="M8.99027 84.3629C8.99027 84.8233 8.88442 86.3666 8.38822 86.3666C7.89122 86.3666 7.03788 85.1908 7.03788 84.7304C7.03788 84.2701 6.64668 82.5723 7.14378 82.5723C7.97063 82.9033 8.63394 83.5466 8.99027 84.3629V84.3629Z" fill="#FF8A54"/>
<path d="M9.05762 85.1641L10.4166 86.5941L11.2886 88.6071H11.0096L9.90662 87.3961L9.18463 87.8331V86.5941L9.05762 86.0381V85.1641Z" fill="#BCAEA3"/>
<path d="M13.081 106.122C12.6485 104.64 12.3007 103.135 12.0395 101.613L11.7153 99.0079L11.0102 98.3867H10.5857L10.5371 97.5135H10.1734L10.1251 98.46L9.6901 98.447L9.97537 99.4588L10.1118 100.338L9.87735 100.7H9.33029L9.56467 100.065L9.41611 99.2778L9.05277 98.4037L8.07749 98.2776L8.18448 97.3438H7.79581L7.62601 98.1652L6.2432 97.8044L6.00296 97.9501L6.71237 98.8237L5.82498 100.982C5.49983 102.15 5.27626 103.343 5.15671 104.549C5.19591 105.459 4.80428 107.035 5.55368 107.553C5.79628 107.721 6.53905 107.624 6.59555 107.335C6.88851 106.21 7.32301 105.128 7.88858 104.112L8.74631 102.945L9.73667 102.099C9.73667 102.099 10.8087 105.269 11.7784 106.256C11.9458 106.426 12.2997 106.92 12.5349 106.878C12.843 106.823 13.193 106.414 13.081 106.122Z" fill="#4D5C6F"/>
<path d="M10.1799 83.1411C10.0549 83.576 9.74848 83.8696 9.49598 83.7972C9.24328 83.7243 9.14017 83.3128 9.26477 82.8779C9.39057 82.4429 9.69626 82.1491 9.94916 82.222C10.202 82.2947 10.3053 82.7062 10.1799 83.1411Z" fill="#FFA969"/>
<path d="M10.0924 81.7664L9.72644 84.7864L9.06744 85.4004H8.04443L6.92444 84.7404L6.52539 82.9734L6.7594 81.0044L9.21143 80.4824L10.0924 81.7664Z" fill="#FFA969"/>
<path d="M9.83691 82.7356C9.83691 82.7356 9.88859 83.0363 9.95959 82.7718C10.097 82.1828 10.1771 81.582 10.1986 80.9776C10.1171 80.5007 9.90847 80.0545 9.5946 79.6863C9.19888 79.2743 8.66087 79.0288 8.09033 79C7.59775 79.1108 7.13479 79.3264 6.73297 79.6321C6.33116 79.9378 5.9999 80.3264 5.76172 80.7716C5.79346 81.3995 5.90435 82.0209 6.09174 82.6211H6.37592L6.78784 83.5873L6.92505 83.4499C6.92505 83.4499 6.74474 82.2736 6.95294 81.9661C7.15004 81.6745 7.37771 81.2367 7.71991 81.1515C8.37276 81.0404 9.04282 81.0891 9.67273 81.2935C9.95293 81.523 9.83691 82.7356 9.83691 82.7356Z" fill="#050001"/>
<path d="M6.70403 83.0938C6.85533 83.5204 6.77623 83.9377 6.52813 84.0249C6.27913 84.1123 5.95735 83.837 5.80645 83.4099C5.65635 82.9831 5.73553 82.5664 5.98333 82.479C6.23133 82.3918 6.55433 82.667 6.70403 83.0938Z" fill="#FFA969"/>
</svg>
