<svg width="1396" height="689" viewBox="0 0 1396 689" fill="none" xmlns="http://www.w3.org/2000/svg">
<g style="mix-blend-mode:multiply" opacity="0.4">
<path d="M752.728 668.702C752.969 668.592 753.685 668.357 753.541 668.262C752.738 668.103 751.926 667.994 751.11 667.936C751.075 667.931 751.031 667.923 750.988 667.915L751.204 667.885L749.719 667.654L749.324 667.572H749.323L749.478 667.475C749.786 667.427 750.055 667.377 750.199 667.339C750.303 667.311 750.405 667.277 750.505 667.237C750.788 667.237 751.07 667.194 751.34 667.11C751.551 667.034 751.54 666.968 751.333 666.954C751.711 666.868 752.074 666.725 752.41 666.53C752.762 666.261 752.04 666.164 749.532 666.157C748.397 666.065 747.255 666.217 746.184 666.605C746.032 666.676 745.906 666.793 745.822 666.938C745.793 666.937 745.768 666.935 745.736 666.936C745.517 666.926 745.299 666.98 745.11 667.093C745.041 667.174 745.208 667.233 745.483 667.226H745.491C745.447 667.261 745.418 667.294 745.419 667.318C745.421 667.378 745.638 667.46 745.911 667.527L745.532 667.72L742.849 667.975L742.864 668.016C741.865 668.098 740.811 668.193 740.332 668.269C738.732 668.524 737.544 669.191 736.267 669.487C736.053 669.537 735.427 669.614 735.24 669.665C734.981 669.737 734.656 669.897 734.684 669.967C734.922 670.111 735.192 670.19 735.47 670.198C735.762 670.225 736.583 670.202 736.955 670.203C737.164 670.203 737.79 670.204 737.79 670.204L736.129 670.751L734.426 671.397L734.65 671.401L734.652 671.401L735.195 671.41L732.462 672.741C732.462 672.741 729.373 674.985 729.243 675.041C729.173 675.074 728.5 675.161 728.5 675.161L729.453 675.662C729.453 675.662 731.223 675.701 731.748 675.63C731.934 675.606 731.998 675.553 732.013 675.499C732.168 675.5 732.267 675.501 732.267 675.501C732.373 675.331 732.52 675.19 732.694 675.092C732.804 675.046 733.304 674.96 733.35 674.914C733.382 674.882 733.128 674.807 733.128 674.807L736.417 673.25L737.952 672.467L739.26 671.758L741.19 671.754L738.824 673.437L738.195 674.41L738.1 674.942C738.1 674.942 737.26 675.114 737.107 675.177C737.046 675.204 736.997 675.253 736.97 675.315H736.969L736.968 675.317C736.959 675.338 736.951 675.359 736.945 675.38C736.923 675.443 736.881 675.496 736.825 675.533C736.723 675.588 737.15 675.856 737.576 675.859C738.266 675.86 738.956 675.823 739.642 675.748C739.895 675.706 740.132 675.599 740.33 675.438C740.601 675.328 740.843 675.158 741.038 674.941L742.88 673.791L745.67 672.151L746.893 671.448L747.378 671.446L748.385 670.198C748.385 670.198 750.648 669.594 751.279 669.386C751.775 669.186 752.259 668.958 752.728 668.702V668.702Z" fill="#939598"/>
</g>
<path d="M732.813 644.212L732.836 643.09L735.224 642.93L735.31 644.922L733.42 645.747L732.813 644.212Z" fill="#FFA969"/>
<path d="M732.996 643.569C733.291 643.783 733.65 643.892 734.014 643.878C734.379 643.864 734.728 643.728 735.006 643.492C735.006 643.492 734.997 644.547 734.187 644.627C733.132 644.731 732.835 643.439 732.996 643.569Z" fill="#FF8A54"/>
<path d="M732.222 639.66C732.102 640.645 732.102 641.641 732.222 642.626C732.48 643.151 732.895 643.584 733.409 643.865C733.763 643.974 734.142 643.974 734.496 643.865C734.964 643.579 735.336 643.159 735.562 642.659C735.717 641.667 735.768 640.662 735.715 639.66H732.222Z" fill="#FFA969"/>
<path d="M732.489 640.12C732.953 639.971 733.439 639.903 733.927 639.918C734.436 639.871 734.949 639.88 735.457 639.945C735.794 640.119 735.709 641.514 735.709 641.514C735.991 640.863 736.111 640.154 736.06 639.446C735.961 638.383 735.335 638.004 733.588 638.004C733.35 637.987 733.11 638.023 732.887 638.108C732.663 638.194 732.461 638.327 732.295 638.499C732.128 638.671 732.002 638.877 731.923 639.103C731.845 639.329 731.817 639.57 731.842 639.808C731.859 640.386 731.952 640.96 732.118 641.514C732.118 641.514 732.121 640.304 732.489 640.12Z" fill="#403023"/>
<path d="M732.379 641.629C732.433 641.946 732.329 642.228 732.147 642.259C731.966 642.289 731.774 642.059 731.72 641.742C731.666 641.425 731.77 641.143 731.952 641.112C732.134 641.081 732.325 641.313 732.379 641.629Z" fill="#FFA969"/>
<path d="M735.4 641.629C735.346 641.946 735.45 642.228 735.632 642.259C735.814 642.289 736.005 642.059 736.059 641.742C736.113 641.425 736.009 641.143 735.827 641.112C735.645 641.081 735.454 641.313 735.4 641.629Z" fill="#FFA969"/>
<path d="M736.584 674.255C736.666 674.536 736.726 674.824 736.762 675.115C736.762 675.334 736.478 675.781 736.584 675.973C736.728 676.234 737.402 676.39 737.7 676.393C738.17 676.396 738.627 676.236 738.993 675.941C739.254 675.572 738.993 674.131 738.993 674.131L736.584 674.255Z" fill="#A84324"/>
<path d="M728.003 675.261C727.966 675.412 728.252 675.679 728.391 675.746C729.085 675.883 729.798 675.883 730.492 675.746C730.828 675.715 731.817 675.697 731.817 675.697C731.817 675.697 733.093 675.831 733.368 675.552C733.605 675.313 733.142 674.421 733.142 674.421L730.517 673.734C730.106 674.091 729.677 674.426 729.231 674.739C728.944 674.909 728.085 674.938 728.003 675.261Z" fill="#A84324"/>
<path d="M730.395 657.97L730.169 664.143L730.395 672.482C730.395 672.482 730.896 673.026 730.88 673.253C730.866 673.455 730.363 673.871 730.363 673.871C730.744 674.239 731.167 674.562 731.623 674.834C732.261 674.967 732.911 675.034 733.563 675.035C733.441 674.504 733.365 673.963 733.336 673.419C733.352 673.233 733.59 672.892 733.563 672.708C733.49 672.552 733.392 672.41 733.272 672.287L733.563 666.114L733.626 663.012V660.2L734.96 660.167L735.469 666.826L736.278 670.671L736.891 672.772C736.727 673.069 736.597 673.384 736.503 673.71C736.532 674.039 736.597 674.365 736.697 674.68C737.105 674.637 737.516 674.618 737.926 674.622C738.286 674.686 738.642 674.77 738.992 674.874C739.195 674.488 739.336 674.073 739.412 673.644C739.298 673.32 739.134 673.015 738.927 672.741L738.734 668.183L738.572 661.687L738.507 658.131L732.948 656.643L730.395 657.97Z" fill="#231F20"/>
<path d="M732.689 644.714C731.687 645.151 730.751 645.728 729.91 646.427C729.127 647.45 729.155 650.091 728.65 651.275C728.565 651.473 728.228 651.781 728.165 651.986C728.066 652.379 728.066 652.79 728.165 653.182C728.353 653.558 728.644 653.872 729.005 654.087C729.348 654.139 729.697 654.139 730.04 654.087H730.621L730.298 655.962L729.813 658.826L732.479 659.019L733.189 657.195L733.918 659.052L738.855 658.89L737.958 653.958C737.958 653.958 738.756 651.552 738.927 650.726C739.02 649.824 739.063 648.918 739.057 648.011C739.083 647.575 739.279 646.641 739.057 646.266C738.723 645.702 737.497 645.373 736.956 645.005C736.6 644.763 735.631 643.906 735.631 643.906L733.81 646.228L732.689 644.714Z" fill="#E97551"/>
<path d="M732.689 644.715C732.689 644.715 732.552 646.306 732.588 646.768C732.664 647.744 733.294 650.441 733.294 650.441C733.294 650.441 734.159 647.687 734.531 646.8C734.917 646.123 735.269 645.427 735.585 644.715C735.622 644.447 735.637 644.177 735.631 643.907L735.252 643.588L733.626 645.197L732.814 644.212L732.689 644.715Z" fill="white"/>
<path d="M735.631 643.906L736.956 644.804L735.631 646.227L736.409 646.753C736.409 646.753 735.247 648.153 734.875 648.632C734.455 649.171 733.249 650.656 733.249 650.656C733.249 650.656 734.075 647.915 734.458 646.982C734.674 646.456 735.335 645.502 735.5 644.956C735.57 644.61 735.613 644.259 735.631 643.906Z" fill="#231F20"/>
<path d="M737.646 646.982L736.799 648.837L736.478 651.746L736.914 652.456L734.791 652.937L733.913 652.822L732.837 651.468L731.165 651.265L730.17 650.234L730.101 648.608L729.974 647.44L731.165 649.96L732.207 650.967L735.632 650.83L736.456 648.585L737.646 646.982Z" fill="#A84324"/>
<path d="M733.097 645.747L733.626 645.197L734.152 645.792L733.766 646.448L734.061 647.673L733.912 648.518L733.248 650.657L732.711 647.55L733.33 646.471L733.097 645.747Z" fill="#DD625B"/>
<path d="M731.164 651.266L730.386 650.258L729.479 649.961L729.105 650.885L729.578 651.541L731.164 651.266Z" fill="#FFA969"/>
<path d="M733.523 651.54L733.798 652.685H734.623L736.134 651.7V651.059H734.989L733.523 651.54Z" fill="#FFA969"/>
<path d="M738.385 656.88L738.088 654.84H738.115L737.958 653.958L736.914 654.448L732.974 654.087V653.555L730.622 654.087L730.169 656.261L729.813 658.826L729.974 658.839L730.398 657.396L731.107 654.623L733.248 654.84H736.737L737.256 655.377L737.992 658.918L738.855 658.89L738.385 656.88Z" fill="#A84324"/>
<path d="M732.813 644.211L731.279 645.242L731.805 646.616L731.164 646.753C731.351 647.411 731.577 648.057 731.839 648.689C732.273 649.374 732.743 650.035 733.248 650.669C733.248 650.669 732.732 647.604 732.689 646.57C732.664 645.98 732.813 644.211 732.813 644.211Z" fill="#231F20"/>
<path d="M732.836 651.432L732.951 653.264L734.003 653.149L733.626 651.432H732.836Z" fill="#8BD2CA"/>
<g style="mix-blend-mode:multiply" opacity="0.4">
<path d="M832.386 111.082C832.386 111.082 833.41 110.356 833.063 110.179C832.654 110.076 832.235 110.014 831.814 109.994C832.274 109.849 832.717 109.652 833.133 109.407C833.16 109.368 833.178 109.323 833.186 109.276C833.194 109.229 833.191 109.181 833.179 109.135C833.166 109.089 833.144 109.047 833.113 109.01C833.082 108.974 833.044 108.945 833 108.925C832.751 108.763 833.081 108.43 831.996 108.29C831.747 108.259 830.629 108.259 830.629 108.259C830.629 108.259 830.002 108.215 829.731 108.224C828.414 108.268 827.105 108.441 825.822 108.742C825.57 108.813 825.055 108.961 824.813 109.032C824.54 109.112 823.914 109.257 823.752 109.341C823.606 109.416 823.598 109.614 823.572 109.628C823.101 109.829 822.605 109.966 822.097 110.034C821.99 110.059 821.886 110.095 821.786 110.142C821.574 110.165 821.389 110.189 821.258 110.212C820.399 110.423 819.568 110.737 818.784 111.148L817.064 112.081L816.102 112.684L815.546 113.324L814.484 113.691L814.978 113.96L815.586 113.962C815.358 114.326 815.049 114.632 814.684 114.857C814.364 115.034 813.507 115.376 813.241 115.553C812.827 115.913 812.528 116.385 812.38 116.913C812.38 116.913 812.42 116.914 812.476 116.915C812.353 116.993 812.219 117.055 812.079 117.098C811.499 117.247 810.372 117.767 810.824 117.742C811.216 117.719 811.844 117.592 812.236 117.57C812.417 117.56 812.238 117.922 812.42 117.913C812.847 117.804 813.265 117.664 813.672 117.494C813.973 117.312 814.257 117.102 814.519 116.867C814.646 116.856 814.738 116.847 814.738 116.847C814.865 116.64 815.046 116.472 815.262 116.361C815.466 116.262 815.823 116.073 815.991 115.973C816.232 115.83 816.48 115.546 816.69 115.403C816.997 115.193 818.139 114.786 818.61 114.58C819.149 114.344 820.019 113.943 820.484 113.729C820.665 113.73 820.83 113.732 820.967 113.733C821.286 113.736 821.739 113.737 822.243 113.739C821.919 113.962 821.269 114.403 820.837 114.65C820.676 114.741 820.247 114.922 820.139 115.013C820.013 115.119 820.106 115.328 819.947 115.434C819.757 115.56 818.959 115.8 818.684 115.924C818.168 116.191 817.672 116.496 817.201 116.837L817.303 116.85C817.087 116.915 816.773 117.01 816.647 117.053C816.264 117.186 815.691 117.461 815.266 117.591C815.134 117.632 815.256 117.727 815.425 117.752C815.796 117.806 814.74 118.837 815.256 118.789C815.484 118.768 818.056 117.649 818.163 117.609C818.332 117.545 818.276 117.412 818.336 117.346C818.425 117.266 818.519 117.194 818.619 117.129C818.786 117.044 818.959 116.97 819.136 116.908L819.207 116.906C819.207 116.906 821.788 116.079 822.541 115.735C823.066 115.494 823.528 115.001 824.033 114.761C824.523 114.527 825.146 114.282 825.732 114.04L825.894 114.067L827.585 113.897L828.33 113.72L829.079 113.217L831.15 111.964L832.386 111.082ZM815.655 113.698L815.767 113.665C815.805 113.665 815.842 113.666 815.883 113.666C815.833 113.706 815.786 113.748 815.741 113.793L815.655 113.698ZM826.719 113.879L825.882 113.977C825.946 113.95 826.01 113.924 826.073 113.897L826.075 113.897L826.834 113.681L827.087 113.68L826.719 113.879ZM827.775 113.182L827.784 113.178L827.776 113.182H827.775ZM829.524 112.319L829.528 112.316L829.526 112.318L829.524 112.319Z" fill="#939598"/>
</g>
<path d="M812.323 115.01C812.323 115.01 812.576 116.988 812.566 117.728C812.565 117.862 812.285 118.001 812.163 118.042C812.049 118.08 811.781 118 811.668 118.043C811.425 118.134 811.152 118.641 810.909 118.733C810.449 118.836 809.969 118.792 809.536 118.608C809.398 118.515 809.292 118.225 809.408 118.127C810.049 117.589 810.576 116.928 810.956 116.182C811.005 115.836 811.014 115.485 810.981 115.136L812.323 115.01Z" fill="#DD625B"/>
<path d="M814.33 114.885C814.33 114.885 814.117 115.689 814.066 115.963C813.97 116.489 813.924 117.579 813.796 118.098C813.802 118.22 813.833 118.338 813.887 118.447C813.942 118.556 814.018 118.652 814.111 118.73C814.345 118.829 814.596 118.881 814.849 118.881C815.103 118.881 815.354 118.829 815.587 118.729C815.725 118.56 815.808 118.354 815.827 118.137C815.791 117.784 815.719 117.437 815.611 117.099C815.575 116.883 815.544 116.458 815.53 116.241C815.542 115.867 815.579 115.493 815.641 115.124L814.33 114.885Z" fill="#DD625B"/>
<path d="M809.166 102.097C809.231 103.702 809.889 105.717 809.898 107.318C809.902 108.017 809.745 109.377 809.788 110.078C810.05 111.893 810.431 113.688 810.929 115.452C811.268 115.482 811.61 115.482 811.949 115.451C812.134 115.374 812.312 115.28 812.479 115.169C812.334 114.537 812.247 113.893 812.221 113.245C812.235 112.851 812.242 112.105 812.231 111.708C812.215 111.14 812.024 110.019 811.986 109.45C812.02 108.358 812.114 107.269 812.266 106.188C812.366 104.864 812.508 102.22 812.508 102.22L813.669 102.283C813.669 102.283 813.878 105.099 813.898 106.438C813.903 106.799 813.838 107.518 813.879 107.881C813.928 108.301 814.259 109.123 814.285 109.543C814.314 110.041 814.066 110.996 814.035 111.488C813.968 112.522 814.174 115.105 814.174 115.105C814.418 115.249 814.679 115.365 814.949 115.449C815.186 115.441 815.421 115.41 815.652 115.355C816.003 113.819 816.275 112.266 816.466 110.702C816.523 109.749 816.213 107.8 816.256 106.844C816.32 105.405 816.576 103.846 816.635 102.406C816.619 102.049 816.586 101.693 816.534 101.34L809.219 101.344C809.219 101.344 809.159 101.906 809.166 102.097Z" fill="#DDA137"/>
<path d="M816.95 97.2767C816.936 96.9002 816.763 95.7812 816.763 95.7812L817.615 95.7396L817.345 92.2512C817.282 91.0346 817.052 89.8326 816.659 88.6794C816.234 88.271 815.717 87.9692 815.152 87.7988L815.372 91.4203L815.787 95.5115L816.818 100.824C816.898 99.5582 816.979 98.019 816.95 97.2767Z" fill="#203C61"/>
<path d="M809.724 96.6754L809.931 91.3595V88.002C809.396 88.1991 808.913 88.5165 808.519 88.9297C808.031 89.687 808 92.6471 808 92.6471V96.3432H809.017C809.017 96.3432 808.55 99.6697 808.537 100.787C808.531 101.235 808.685 102.573 808.685 102.573C808.685 102.573 809.031 102.597 809.529 102.631L809.225 100.247L809.724 96.6754Z" fill="#203C61"/>
<path d="M815.371 91.4197L815.152 87.7982C814.939 87.717 814.763 87.6573 814.665 87.625C814.659 87.9412 814.558 91.2608 812.838 91.3985C810.91 91.5539 810.461 89.0439 810.357 87.8172C810.226 87.8711 810.081 87.9322 809.931 88.0001V91.3576L809.723 96.6735L809.225 100.245L809.529 102.629C810.525 102.696 812.129 102.8 812.817 102.82C813.784 102.849 816.43 102.8 816.43 102.8C816.642 102.16 816.772 101.496 816.818 100.823L815.787 95.5108L815.371 91.4197Z" fill="#DD625B"/>
<path d="M812.839 91.3992C814.559 91.2615 814.66 87.9419 814.665 87.6257L814.583 87.5996H810.928C810.928 87.5996 810.688 87.6829 810.357 87.8179C810.461 89.0446 810.91 91.5546 812.839 91.3992Z" fill="#F2F2FA"/>
<path d="M817.615 95.7402L817.781 100.704L817.905 102.697L817.615 103.403L816.66 104.088L816.369 103.88L816.992 103.341V102.551L816.818 102.558L816.567 103.417L816.224 103.341L816.348 101.783L816.833 100.581L816.942 97.1552L816.763 95.7823L817.615 95.7402Z" fill="#FFC083"/>
<path d="M811.593 85.7731L811.437 87.6006H810.928C810.928 87.6006 810.928 90.2428 812.584 90.2428C814.208 90.2428 814.24 87.6267 814.24 87.6267L813.664 87.6006L813.574 85.7731L813.57 85.6953L811.593 85.7731Z" fill="#FFC083"/>
<path d="M814.036 86.3333C814.071 86.6252 814.017 86.921 813.88 87.1812C813.743 87.4415 813.53 87.6539 813.269 87.7904C813.009 87.9268 812.713 87.9807 812.421 87.9451C812.129 87.9094 811.855 87.7858 811.635 87.5906C811.415 87.3955 811.26 87.1381 811.189 86.8525C811.119 86.5669 811.137 86.2668 811.242 85.9918C811.346 85.7169 811.532 85.4802 811.774 85.3132C812.016 85.1462 812.303 85.0568 812.597 85.0568C812.957 85.0366 813.31 85.1595 813.58 85.3986C813.849 85.6377 814.013 85.9737 814.036 86.3333Z" fill="#FFA969"/>
<path d="M811.088 83.4004H813.953C814.057 83.7797 814.138 84.1649 814.195 84.5539C814.224 85.1795 814.11 85.8035 813.86 86.3781C813.565 86.7802 813.13 87.0585 812.641 87.1591C812.375 87.134 812.116 87.0551 811.881 86.9272C811.646 86.7993 811.439 86.6251 811.274 86.415C810.96 85.8201 810.812 85.1515 810.846 84.4797C810.875 84.1942 811.088 83.4004 811.088 83.4004Z" fill="#FFC083"/>
<path d="M812.518 81.1304C812.303 81.0522 812.078 81.0082 811.85 81C811.365 81.1541 810.924 81.4246 810.568 81.7878C810.211 82.1511 809.948 82.5961 809.803 83.0841C809.718 83.3634 809.552 83.9564 809.475 84.2379C809.322 84.6354 809.207 85.0466 809.133 85.4659C809.186 85.8498 809.267 86.2292 809.376 86.6012C809.376 87.4498 809.173 87.523 808.873 88.22C808.797 88.4258 808.773 88.6468 808.802 88.864C808.831 89.0812 808.913 89.2881 809.04 89.4666C809.417 89.7185 809.862 89.8483 810.314 89.8383C810.767 89.8284 811.206 89.6791 811.571 89.4109C811.914 88.9576 811.519 87.954 811.497 87.4648C811.528 87.1687 811.504 86.8692 811.423 86.5823C810.934 85.5945 810.834 84.4588 811.143 83.4006H813.953C814.146 84.398 814.107 85.4264 813.839 86.4064C813.631 87.1096 813.556 87.8455 813.618 88.5762C813.647 88.8386 813.737 89.4264 813.953 89.5783C814.123 89.699 814.328 89.7608 814.536 89.7541C814.744 89.7474 814.945 89.6727 815.107 89.5413C815.37 89.0665 815.522 88.5386 815.553 87.9967C815.7 87.2181 815.756 86.4253 815.721 85.6338C815.584 84.9685 815.346 84.3284 815.014 83.7358C814.633 83.0978 814.437 81.7817 813.506 81.2419C813.185 81.1542 812.851 81.1166 812.518 81.1304Z" fill="#845827"/>
<path d="M809.931 102.738L809.848 101.803L809.391 100.474L809.017 96.3418H808L808.103 98.7296L808.537 101.262L808.268 102.717L808.956 103.776H809.931V103.485L809.682 103.319L809.931 102.738ZM809.32 103.211L809.09 102.735L809.225 102.217L809.428 102.519L809.32 103.211Z" fill="#FFC083"/>
<g style="mix-blend-mode:multiply" opacity="0.4">
<path d="M265.25 431.253C265.61 431.06 263.728 430.419 263.031 430.16C262.658 430.031 262.274 429.937 261.884 429.877C261.489 429.828 260.38 429.869 259.974 429.822C259.859 429.812 259.75 429.765 259.664 429.687C260.303 429.671 260.877 429.65 261.254 429.62C261.87 429.549 262.479 429.429 263.076 429.262C263.324 429.195 264.088 428.804 263.974 428.774C263.861 428.744 263.607 428.361 263.322 428.224C263.162 428.139 262.987 428.086 262.806 428.069C262.454 428.032 261.407 428.063 261.003 428.04C260.869 428.032 259.272 428.017 259.119 428.031C258.965 428.046 256.542 428.245 255.922 428.398C255.437 428.553 255.005 428.842 254.678 429.233C254.595 429.255 254.182 429.387 254.017 429.431C254.523 429.573 255.039 429.673 255.561 429.732C255.572 429.732 255.897 429.732 256.384 429.73C255.847 429.827 255.304 429.893 254.759 429.926C254.201 429.981 253.142 429.988 252.682 430.069C251.486 430.379 250.322 430.804 249.208 431.339C248.825 431.47 247.717 431.712 247.246 431.838C246.343 432.079 244.575 432.598 243.786 432.814C243.407 432.917 244.163 433.209 244.164 433.209L244.048 433.272L245.385 433.379L246.43 433.375L246.421 433.292L245.708 433.29L245.677 433.287C245.711 433.287 245.752 433.287 245.782 433.285C246.214 433.252 246.641 433.169 247.054 433.037C247.287 432.936 247.394 432.697 246.947 432.653C246.613 432.643 246.278 432.653 245.944 432.685C245.625 432.721 245.309 432.781 244.999 432.865C244.985 432.87 244.975 432.878 244.96 432.884L245.04 432.822C245.04 432.822 249.344 431.965 250.424 431.651C251.128 431.408 251.817 431.121 252.487 430.794C252.41 430.927 252.345 431.067 252.293 431.213H252.286L251.206 431.651H251.206C250.717 431.73 249.843 431.874 249.607 431.935C248.498 432.3 247.487 432.913 246.652 433.727C246.652 433.727 246.918 433.744 247.435 433.763C247.395 433.795 247.355 433.826 247.319 433.851C247.112 433.995 246.439 434.283 246.258 434.427C245.817 434.774 245.675 435.452 245.325 435.798C245.216 435.906 246.193 436.716 246.406 436.625C246.654 436.518 246.589 436.309 246.795 436.202C246.902 436.109 246.995 436 247.07 435.879C247.07 435.879 246.834 435.769 246.856 435.727C247.578 435.285 248.335 434.904 249.119 434.588C249.392 434.422 249.697 434.093 249.981 433.927C250.028 433.898 250.107 433.861 250.195 433.821C250.51 433.823 250.843 433.825 251.202 433.827C251.51 433.827 251.79 433.827 252.058 433.825C252.128 433.959 252.485 434.163 252.492 434.282C252.499 434.397 252.132 434.642 252.139 434.756C251.949 435.414 251.705 436.055 251.408 436.672C251.364 436.751 251.375 436.925 251.715 436.964C253.008 436.001 254.208 434.918 255.299 433.73C255.545 433.709 255.627 433.693 255.627 433.693C256.682 433.312 257.713 432.87 258.717 432.371L258.793 432.354C258.914 432.355 260.069 432.373 260.356 432.323C262.01 432.077 263.645 431.72 265.25 431.253V431.253ZM259.793 432.115C259.629 432.124 259.464 432.124 259.299 432.115L259.3 432.114C259.248 432.112 259.196 432.11 259.143 432.106C259.332 431.966 259.416 431.845 259.332 431.765C259.135 431.684 258.929 431.627 258.718 431.597H258.719L259.048 431.184L261.147 430.551L263.143 431.248C262.062 431.661 260.938 431.952 259.793 432.115V432.115Z" fill="#939598"/>
</g>
<path d="M240.78 422.352V422.849L241.843 423.257L242.563 423.233L242.451 422.906H241.954L240.78 422.352Z" fill="#FFC083"/>
<path d="M244.97 434.719C244.897 435.115 244.845 435.514 244.815 435.915C244.819 436.305 244.886 437.188 245.194 437.428C245.353 437.513 245.53 437.557 245.71 437.557C245.89 437.557 246.068 437.513 246.227 437.428C246.523 437.216 246.669 436.414 246.7 436.051C246.736 435.629 246.424 434.803 246.43 434.38C246.465 434.118 246.477 433.854 246.464 433.59C246.396 433.418 246.31 433.255 246.207 433.102L244.97 434.719Z" fill="#231F20"/>
<path d="M250.816 437.338C250.53 437.187 250.3 436.501 250.229 436.187C250.191 435.661 250.204 435.133 250.267 434.609L251.458 433.305C251.458 433.305 251.898 434.335 251.99 434.696C252.085 435.087 252.138 435.487 252.148 435.889C252.133 436.225 252.108 437.094 251.859 437.321C251.697 437.398 251.519 437.44 251.339 437.442C251.159 437.445 250.981 437.41 250.816 437.338V437.338Z" fill="#231F20"/>
<path d="M242 420.378C241.772 420.337 241.538 420.385 241.345 420.513C241.14 420.709 240.992 420.958 240.92 421.233C240.865 421.746 240.979 422.263 241.247 422.705C241.354 422.784 241.476 422.841 241.605 422.872C241.735 422.903 241.869 422.907 242 422.884C242.269 422.788 242.541 422.175 242.564 421.89C242.597 421.488 242.366 420.548 242 420.378Z" fill="#231F20"/>
<path d="M245.847 402.04C245.41 401.992 244.969 401.987 244.531 402.026C244.443 402.084 243.017 402.895 242.783 403.502C242.484 404.275 243.017 406.721 242.987 406.809C242.958 406.896 242.841 407.423 242.783 407.599C242.724 407.774 244.209 408.769 244.238 408.769C245.522 408.779 246.802 408.612 248.041 408.272C248.441 408.057 248.758 407.101 248.846 406.838C248.948 406.198 248.948 405.546 248.846 404.907C248.729 404.79 248.062 403.279 247.69 402.742C247.552 402.502 247.362 402.295 247.135 402.135C246.844 401.996 246.157 402.126 245.847 402.04Z" fill="#9B482A"/>
<path d="M243.089 420.27C243.089 420.27 243.702 423.884 243.789 425.101C243.83 425.669 243.732 426.814 243.789 427.381C243.928 428.757 244.695 431.432 244.895 432.8C244.968 433.803 244.989 434.809 244.957 435.814C245.156 435.93 245.374 436.01 245.601 436.051C245.855 436.056 246.104 435.974 246.306 435.819C246.306 435.819 246.283 434.758 246.25 434.358C246.279 433.99 246.287 433.62 246.273 433.251C246.222 433.045 245.914 432.713 245.866 432.506C245.612 431.406 246.018 429.119 245.979 427.991C245.956 427.334 245.747 426.03 245.731 425.372C245.722 425.011 245.8 424.289 245.798 423.927C245.795 422.978 245.595 420.135 245.595 420.135L243.089 420.27Z" fill="#FFC083"/>
<path d="M250.431 435.847C250.525 435.977 250.904 435.764 251.063 435.757C251.267 435.748 251.62 435.953 251.757 435.802C252.015 435.519 251.706 434.668 251.65 434.29C251.572 433.77 251.457 433.257 251.306 432.754C251.232 432.545 251.044 432.198 250.973 431.987C250.599 430.872 250.626 428.447 250.313 427.313C250.104 426.562 249.309 425.231 249.144 424.469C248.982 423.082 248.903 421.688 248.907 420.292L246.436 419.908C246.475 421.554 246.657 423.193 246.977 424.807C247.151 425.319 247.754 426.237 247.925 426.749C248.077 427.201 248.135 428.171 248.286 428.623C248.604 429.571 249.821 431.239 250.048 432.213C250.104 432.455 250.015 432.96 250.048 433.206C250.064 433.334 250.158 433.576 250.183 433.703C250.218 434.422 250.3 435.139 250.431 435.847V435.847Z" fill="#FFC083"/>
<path d="M244.89 407.405C244.936 407.795 244.936 408.189 244.89 408.579C244.686 409.211 244.262 409.316 243.93 409.544C243.612 409.764 242.889 409.805 242.672 410.125C241.995 411.125 242.125 413.917 241.887 415.172C241.788 415.691 241.33 416.656 241.164 417.158C240.847 418.12 240.284 420.184 240.013 421.042C239.882 421.456 240.78 422.599 240.78 422.599L241.345 422.848L241.413 422.471L240.983 421.99L240.894 421.064C241.743 419.558 242.49 417.997 243.129 416.391C243.319 415.241 243.432 414.079 243.467 412.914L248.592 412.553L249.156 411.943L251.431 414.675C251.431 414.675 251.021 417.691 250.218 418.129C249.963 418.268 249.089 417.858 249.089 417.858L248.592 418.378L248.411 418.919L248.659 419.032L248.931 418.468L249.428 418.423L249.021 418.807L248.931 419.642L249.473 419.868L249.811 419.078C249.811 419.078 250.73 419.153 250.872 418.942C251.398 418.163 252.894 415.889 252.899 414.675C252.901 413.907 250.778 411.398 249.964 410.385C249.629 409.966 249.24 409.594 248.806 409.279C248.47 409.09 247.754 409.263 247.412 409.082C247.198 408.968 246.941 408.385 246.831 408.167C246.729 407.809 246.675 407.439 246.673 407.066L244.89 407.405Z" fill="#FFC083"/>
<path d="M243.411 411.024C244.248 411.232 245.111 411.318 245.973 411.278C246.844 411.257 247.7 411.045 248.479 410.656L249.156 411.943L248.456 414.675L248.389 415.759C248.785 416.042 249.142 416.376 249.45 416.752C250.295 418.415 249.346 424.395 249.346 424.395C249.346 424.395 249.044 424.965 246.449 424.965C245.345 424.998 244.241 424.883 243.168 424.62C243.168 424.62 242.356 419.139 242.925 417.519C243.19 417.042 243.495 416.589 243.837 416.164L243.896 414.766C243.639 413.831 243.432 412.884 243.275 411.928C243.29 411.623 243.336 411.32 243.411 411.024Z" fill="#2E2119"/>
<path d="M249.107 417.859L248.61 418.378L248.43 418.92L248.677 419.033L248.949 418.469L249.446 418.424L249.039 418.808L248.949 419.642L249.49 419.869L249.829 419.079C249.829 419.079 249.911 419.085 250.029 419.089C249.984 418.753 249.933 418.431 249.875 418.132C249.611 418.065 249.354 417.974 249.107 417.859V417.859Z" fill="#FFC083"/>
<path d="M243.86 414.643L248.511 414.463L248.81 416.094L243.671 416.382L243.86 414.643Z" fill="#DD625B"/>
<path d="M246.609 407.44C246.581 407.592 246.511 407.734 246.406 407.847C246.301 407.961 246.165 408.043 246.016 408.082C245.866 408.122 245.708 408.118 245.56 408.071C245.413 408.024 245.282 407.936 245.182 407.817C245.083 407.698 245.02 407.553 245 407.4C244.98 407.246 245.004 407.09 245.07 406.95C245.136 406.809 245.24 406.691 245.37 406.608C245.501 406.525 245.653 406.48 245.808 406.48C246.04 406.503 246.255 406.617 246.405 406.796C246.555 406.976 246.628 407.207 246.609 407.44V407.44Z" fill="#FF8A54"/>
<path d="M246.239 403.209C245.758 403.265 245.285 403.377 244.829 403.543C244.474 403.819 244.223 404.207 244.116 404.644C243.988 405.326 244.043 406.03 244.276 406.684C244.539 407.111 244.87 407.492 245.256 407.812C245.589 407.815 245.921 407.768 246.239 407.672C246.673 407.332 246.981 406.858 247.117 406.325C247.235 405.786 247.235 405.228 247.117 404.69C247.007 404.481 246.875 404.284 246.723 404.103C246.577 403.895 246.239 403.209 246.239 403.209Z" fill="#FFC083"/>
<g style="mix-blend-mode:multiply" opacity="0.4">
<path d="M1385.17 669.546C1385.17 669.546 1385.99 669.353 1386.23 669.288C1386.52 669.233 1386.81 669.159 1387.1 669.066C1387.55 668.788 1386.91 668.444 1385.81 668.274C1385.23 668.179 1384.63 668.164 1384.05 668.229C1384.05 668.229 1383.1 668.257 1382.92 668.279C1382.44 668.323 1381.98 668.456 1381.55 668.672C1381.17 669.002 1382.01 669.162 1382.01 669.162L1382.01 669.158C1382.01 669.197 1382.02 669.235 1382.03 669.271C1382.05 669.306 1382.07 669.338 1382.1 669.364L1382.04 669.395L1381.79 669.392L1381.36 669.386C1380.2 669.33 1379.48 669.327 1379.06 669.336H1379.05C1378.7 669.343 1378.57 669.359 1378.57 669.359C1378.06 669.372 1377.56 669.421 1377.06 669.507C1376.48 669.619 1374.86 670.098 1374.86 670.098L1373.97 670.409C1373.97 670.409 1373.6 670.616 1373.73 670.68C1373.98 670.791 1374.24 670.879 1374.51 670.942L1372.6 671.473C1372.33 671.509 1372.07 671.611 1371.84 671.769C1371.81 671.807 1371.8 671.9 1371.94 671.924C1372.02 671.937 1372.24 671.901 1372.33 671.909C1372.52 671.956 1372.71 672.023 1372.9 672.11L1372.3 672.421L1371.18 672.867L1369.8 673.672L1369.15 673.934L1368.17 674.449L1366.9 674.987L1366.99 675.257C1366.89 675.333 1366.77 675.396 1366.66 675.444C1366.51 675.489 1366.01 675.559 1366.04 675.616C1366.33 675.719 1366.64 675.78 1366.95 675.798C1367.35 675.852 1367.75 675.875 1368.16 675.865C1368.27 675.844 1368.38 675.789 1368.46 675.708C1368.67 675.607 1368.89 675.517 1369.12 675.44L1369.13 675.442L1369.8 675.379L1371.89 674.282L1372.37 674.154L1373.15 673.618L1375.97 672.78L1376.4 672.825L1375.42 673.736L1375.1 674.133L1375.1 674.34L1374.67 674.896L1374.23 675.423L1374.41 675.929L1373.97 676.034C1373.97 676.034 1374.02 676.043 1374.08 676.055L1373.61 676.177C1373.61 676.177 1373.39 676.231 1373.42 676.261C1374.02 676.399 1374.62 676.488 1375.23 676.528C1375.47 676.569 1375.85 676.684 1376.12 676.713C1377.61 676.874 1377.92 676.582 1377.73 676.531C1377.46 676.474 1377.21 676.364 1376.99 676.207L1377.1 676.2L1377.23 676.078L1377.13 676.029L1377.46 675.721L1377.36 675.482L1377.9 674.614L1377.95 674.421L1378.55 673.901L1379.92 672.908L1380.21 672.69L1380.2 672.716L1380.88 672.612L1381.29 672.507L1381.36 672.527L1381.75 672.448L1382.55 672.211C1382.55 672.211 1383.98 671.789 1384.4 671.613C1384.77 671.422 1385.14 671.21 1385.49 670.98C1385.83 670.833 1386.16 670.641 1386.46 670.41C1386.48 670.33 1386.12 670.149 1386.12 670.149L1385.76 670.064L1385.31 669.957L1385.31 669.955L1384.35 669.725L1384.34 669.73L1384.21 669.698L1384 669.657L1384.08 669.614C1384.42 669.576 1384.76 669.518 1385.1 669.438L1385.09 669.443C1385.01 669.484 1385.17 669.546 1385.17 669.546Z" fill="#939598"/>
</g>
<path d="M1367.99 674.816L1366.68 674.428L1365.88 675.227C1365.92 675.5 1365.92 675.776 1365.91 676.051C1365.85 676.273 1365.55 676.729 1365.66 676.929C1365.79 677.169 1366.44 677.228 1366.71 677.24C1367 677.251 1367.65 677.228 1367.83 677.006C1367.94 676.871 1367.84 676.482 1367.83 676.308C1367.86 675.823 1367.91 675.341 1367.99 674.863V674.816Z" fill="#566978"/>
<path d="M1373.14 675.204L1372.9 675.996C1372.9 675.996 1372.8 676.278 1372.87 676.378C1373.17 676.789 1374.31 676.55 1374.81 676.648C1375.15 676.781 1375.5 676.89 1375.85 676.974C1376.64 677.008 1377.43 676.859 1378.16 676.54C1378.11 676.352 1378.02 676.174 1377.91 676.011C1377.71 675.834 1377.15 675.781 1376.9 675.67C1376.4 675.415 1375.96 675.041 1375.63 674.582L1373.14 675.204Z" fill="#566978"/>
<path d="M1367.97 675.061L1368.43 674.564V669.696L1368.63 669.033L1368.43 666.748L1369.46 662.542H1369.89L1370.52 666.284L1370.88 667.874L1371.21 668.636L1371.74 670.855L1372.21 672.974L1373.17 674.763L1372.97 675.326C1373.51 675.481 1374.06 675.56 1374.62 675.558C1375.07 675.331 1375.48 675.041 1375.85 674.697L1375.76 674.196L1375.62 674.167L1375.39 672.789L1374.92 671.948L1374 668.536L1373.73 667.808L1373.4 665.655L1372.97 661.448L1372.77 659.66L1370.42 659.395L1367.07 658.037L1365.81 660.521V662.674L1365.58 664.761L1365.72 668.272L1365.58 669.497V671.782L1365.38 674.266L1365.88 675.227C1366.28 675.048 1366.71 674.915 1367.14 674.829C1367.42 674.876 1367.7 674.954 1367.97 675.061V675.061Z" fill="#6BB29F"/>
<path d="M1372.58 662.41L1372.44 660.498L1372.03 660.259L1371.56 659.273L1370.4 658.955L1369.92 660.932L1369.43 660.78L1369.67 658.758L1367.85 658.262L1366.81 658.989L1366.04 664.475L1366.43 667.246L1367.12 667.358L1367.71 666.516L1368.94 662.41L1368.13 661.35L1369.11 661.816L1369.92 661.9L1371.15 661.76L1370.36 662.18L1371.82 667.946L1372.37 668.19L1372.97 667.889L1372.58 662.41Z" fill="#8BD2CA"/>
<path d="M1373.57 659.151L1373.3 659.979L1372.9 660.635L1372.37 658.688L1373.57 659.151Z" fill="#FFA969"/>
<path d="M1371.63 647.997L1371.21 647.858L1371.15 646.711L1369.14 646.827V647.672L1368.56 647.904L1368.45 650.007L1371.49 650.769L1371.81 649.013L1371.63 647.997Z" fill="#FFA969"/>
<path d="M1368.41 645.213C1368.41 646.55 1369.22 648.229 1370.22 648.229C1371.23 648.229 1372.04 646.55 1372.04 645.213C1372.04 644.974 1371.99 644.737 1371.9 644.515C1371.81 644.293 1371.68 644.092 1371.51 643.922C1371.34 643.753 1371.14 643.618 1370.92 643.526C1370.7 643.434 1370.46 643.387 1370.22 643.387C1369.98 643.387 1369.75 643.434 1369.53 643.526C1369.3 643.618 1369.1 643.753 1368.94 643.922C1368.77 644.092 1368.63 644.293 1368.54 644.515C1368.45 644.737 1368.41 644.974 1368.41 645.213V645.213Z" fill="#FFA969"/>
<path d="M1373.76 648.83C1374.04 649.065 1374.28 649.345 1374.46 649.658C1374.58 650.481 1374.61 651.313 1374.56 652.142C1374.56 652.142 1374.7 654.266 1374.65 654.907C1374.5 655.893 1374.31 656.872 1374.06 657.839L1373.76 659.031L1373.57 659.477L1372.37 658.833L1372.77 651.148L1373.76 648.83Z" fill="#DD625B"/>
<path d="M1373.76 648.829L1371.45 647.925C1371.45 647.925 1371.61 649.823 1370.62 649.923C1368.97 650.088 1368.56 647.902 1368.56 647.902C1366.6 648.373 1366.18 648.912 1366.18 648.912C1366.54 649.59 1366.83 650.307 1367.04 651.048C1366.96 652.038 1366.77 653.016 1366.48 653.963L1366.04 658.346C1367.31 658.879 1368.63 659.267 1369.99 659.502C1370.58 659.563 1372.6 659.647 1372.6 659.647L1372.7 658.608C1372.84 658.338 1372.96 658.059 1373.06 657.772C1373.32 656.499 1372.94 653.845 1373.2 652.572C1373.28 652.167 1373.59 651.423 1373.66 651.016C1373.75 650.477 1373.76 648.829 1373.76 648.829Z" fill="#203C61"/>
<path d="M1372.78 648.435C1372.78 648.435 1372.82 649.52 1372.77 649.956C1372.6 651.524 1372.35 654.844 1371.41 656.116C1370.38 657.021 1369.25 657.811 1368.05 658.471L1367.93 657.408C1368.98 656.781 1369.94 656.012 1370.78 655.123C1371.47 653.938 1371.45 651.059 1371.54 649.691C1371.58 649.187 1371.61 647.969 1371.61 647.969L1372.78 648.435Z" fill="#3E2D1B"/>
<path d="M1367.93 657.111L1366.71 655.82L1365.38 656.085L1364.56 659.065L1365.15 659.807L1367.93 657.111Z" fill="#6D5548"/>
<path d="M1369.52 655.421C1369.68 655.438 1369.84 655.438 1369.99 655.421C1370.17 655.369 1370.44 655.091 1370.62 655.024C1370.7 655.003 1370.78 654.987 1370.86 654.979L1370.96 655.2L1371.81 655.374C1371.81 655.374 1372.04 655.695 1372.02 655.819C1372.02 655.897 1371.83 656.067 1371.83 656.067C1371.81 656.164 1371.78 656.258 1371.74 656.348C1371.7 656.393 1371.65 656.432 1371.59 656.464C1371.57 656.562 1371.54 656.657 1371.49 656.747C1371.41 656.818 1371.33 656.879 1371.23 656.928C1371.17 656.997 1371.1 657.058 1371.03 657.111C1370.82 657.185 1370.59 657.208 1370.36 657.177C1370.11 657.063 1369.87 656.919 1369.66 656.747L1369.21 656.654L1369.46 655.407L1369.52 655.421Z" fill="#FFA969"/>
<path d="M1368.97 642.579C1369.15 642.35 1369.39 642.178 1369.66 642.083C1369.94 641.988 1370.23 641.974 1370.52 642.044C1371.12 642.134 1371.67 642.418 1372.09 642.853C1372.51 643.289 1372.78 643.85 1372.85 644.453C1372.78 644.855 1372.66 645.247 1372.48 645.616C1372.39 645.95 1372 646.985 1372 646.985C1372 646.985 1371.78 646.819 1371.77 646.637C1371.84 646.24 1371.85 645.836 1371.81 645.437C1371.55 644.781 1370.46 644.147 1370.46 644.147L1370.55 645.07C1370 644.871 1369.47 644.621 1368.97 644.326C1368.74 644.163 1369.17 645.417 1369.17 645.417C1368.96 645.416 1368.77 645.366 1368.59 645.272C1368.43 645.171 1368.75 646.822 1368.75 646.822C1368.42 646.691 1368.13 646.469 1367.93 646.181C1367.72 645.893 1367.6 645.552 1367.58 645.199C1367.53 644.497 1367.72 643.799 1368.1 643.21C1368.37 642.979 1368.66 642.768 1368.97 642.579V642.579Z" fill="#BA632A"/>
<path d="M1366.18 648.914C1365.74 649.194 1365.38 649.589 1365.15 650.056C1364.8 651.055 1364.5 652.072 1364.26 653.104L1364 654.605C1364 654.605 1364.03 655.508 1364.23 655.698C1364.58 655.986 1364.97 656.217 1365.38 656.383C1365.66 656.465 1366.24 656.63 1366.51 656.681C1367.4 656.754 1368.3 656.766 1369.19 656.714L1369.52 655.422L1366.43 654.566C1366.46 654.373 1366.71 653.221 1366.71 653.221C1367.02 652.542 1367.17 651.798 1367.15 651.05C1367 649.37 1366.18 648.914 1366.18 648.914Z" fill="#DD625B"/>
<path d="M1369.56 647.904C1369.66 648.003 1369.78 648.079 1369.91 648.129C1370.04 648.179 1370.18 648.201 1370.32 648.194C1370.46 648.187 1370.6 648.151 1370.73 648.089C1370.86 648.026 1370.97 647.938 1371.06 647.83C1371.06 647.83 1371.05 648.838 1370.45 648.914C1369.66 649.014 1369.44 647.78 1369.56 647.904Z" fill="#FF8A54"/>
<path d="M1373.44 674.793L1374.37 674.887L1375.76 674.197L1375.6 674.057L1374.31 674.584L1373.44 674.793Z" fill="#8BD2CA"/>
<path d="M1365.63 674.257L1366.62 673.865L1368.22 674.471L1366.69 673.438L1365.63 674.257Z" fill="#8BD2CA"/>
<path d="M1368.56 647.902L1368.93 647.756C1368.93 647.756 1369.29 649.764 1370.5 649.581C1371.38 649.448 1371.21 647.856 1371.21 647.856L1371.45 647.925C1371.45 647.925 1371.71 649.903 1370.56 650.014C1368.94 650.17 1368.56 647.902 1368.56 647.902Z" fill="#112944"/>
<path d="M1372.65 659.647L1372.7 658.608C1372.7 658.608 1370.66 658.571 1369.98 658.475C1369.47 658.402 1367.93 657.967 1367.93 657.967L1367.64 658.992C1368.37 659.274 1369.13 659.477 1369.9 659.599C1370.81 659.671 1371.73 659.688 1372.65 659.647V659.647Z" fill="#112944"/>
<path d="M1367.93 657.11C1368.84 657.191 1368.5 658.203 1368.5 658.203C1368.5 658.203 1366.98 661.253 1365.98 661.349C1365.7 661.376 1365.3 660.77 1365.02 660.78C1364.93 660.783 1364.81 661.003 1364.72 660.985C1364.57 660.953 1364.42 660.607 1364.39 660.455C1364.31 659.985 1364.37 659.501 1364.56 659.064C1365.09 658.249 1366.96 657.022 1367.93 657.11Z" fill="#3E2D1B"/>
<path d="M1366.18 648.913L1366.55 648.631C1366.55 648.631 1367.31 648.772 1367.5 650.571C1367.67 651.443 1367.49 652.347 1367 653.088C1366.91 653.15 1366.81 653.195 1366.71 653.22C1367.03 652.372 1367.13 651.46 1367.02 650.561C1366.84 649.229 1366.18 648.913 1366.18 648.913Z" fill="#112944"/>
<path d="M1373.76 648.83C1373.76 648.83 1373.74 650.527 1373.65 651.077C1373.59 651.435 1373.23 652.453 1373.23 652.453C1373.23 652.453 1373.31 650.943 1373.33 650.42C1373.34 650 1373.32 648.658 1373.32 648.658L1373.76 648.83Z" fill="#112944"/>
<g style="mix-blend-mode:multiply" opacity="0.4">
<path d="M346.868 33.0306L346.799 33.0392L346.667 32.981L346.617 32.9865L346.399 32.8956C346.399 32.8956 346.718 32.6667 346.67 32.5989C346.486 32.4684 346.269 32.392 346.044 32.3783C346.021 32.3726 345.997 32.3681 345.974 32.3647C345.951 32.3616 345.923 32.3623 345.899 32.3601C345.877 32.358 345.859 32.3535 345.837 32.3522L345.807 32.3515L345.721 32.2848C345.584 32.2405 345.44 32.2251 345.298 32.2397C345.329 32.2155 345.363 32.1943 345.398 32.1765C345.474 32.1391 345.758 32.0988 345.823 32.0616C345.932 31.9987 346.02 31.9411 346.095 31.8896H346.096C346.186 31.9292 346.586 31.6788 346.444 31.6329C345.036 31.4565 343.612 31.4389 342.199 31.5802C339.845 31.8694 340.422 32.1787 340.481 32.357C340.51 32.444 340.503 32.5961 340.805 32.5635C340.887 32.5531 340.968 32.5367 341.048 32.5143L340.657 32.7264L339.885 32.8193L339.874 32.8105L338.232 32.9252V32.9254C337.552 32.964 336.803 33.0075 336.389 33.0341C336.007 33.0585 335.189 33.0585 334.853 33.1048C334.259 33.233 333.675 33.4029 333.104 33.6133C333.104 33.6133 330.733 34.4722 330.095 34.7614C329.599 34.9864 328.475 35.6646 328.475 35.6646L328.765 35.6653L328.59 35.8153L328.021 36.072L327.74 36.0628L326.955 36.2809L326.429 36.2593L323.852 36.2706L320.595 37.7487L325.912 38.0477L325.736 38.1263C325.736 38.1263 324.26 38.7653 323.941 38.9415C323.609 39.1256 323.769 40.4821 324.279 40.4022C324.806 40.3196 324.847 40.0258 324.846 39.9284L324.865 39.9276C325.148 39.9136 325.765 39.8059 325.765 39.8059C326.046 39.661 326.318 39.4985 326.578 39.3192C326.76 39.2154 326.948 39.1216 327.14 39.0385C327.511 38.8449 329.381 38.1654 329.381 38.1654L329.575 38.0988L330.374 38.0799L331.91 37.3002L332.698 37.0306L333.588 36.7538L334.318 36.7704C334.318 36.7704 333.488 37.4696 333.166 37.6705C332.394 38.0127 331.653 38.4189 330.949 38.8848C330.914 38.9543 330.928 39.0664 330.862 39.1368C330.542 39.2883 330.209 39.4113 329.868 39.5044C329.765 39.5485 329.485 39.6433 329.542 39.6821C329.57 39.7003 329.799 39.7335 329.836 39.7515C331.307 39.6646 332.773 39.4966 334.226 39.2481C334.351 39.1343 334.123 39.0523 334.315 38.9379C334.44 38.8625 335.057 38.5966 335.228 38.5215C335.985 38.1903 337.096 37.5666 337.719 37.2341C338.081 37.0406 339.067 36.4724 339.598 36.1647C340.005 36.1582 340.278 36.1535 340.278 36.1535L343.083 34.29C344.108 34.4436 345.145 34.4948 346.18 34.443C346.18 34.443 347.488 34.2744 347.778 34.2001C348.073 34.124 348.361 33.9543 348.375 33.8764C348.417 33.6364 346.868 33.0306 346.868 33.0306ZM330.953 35.6708L330.756 35.8049L330.757 35.8038L330.953 35.6708ZM327.782 36.1987L327.743 36.2201L329.843 36.2853L329.61 36.3894L327.404 36.2992L327.782 36.1987ZM342.733 32.9527L342.697 32.825L342.735 32.8019C342.891 32.8019 343.046 32.7991 343.151 32.7906C343.414 32.764 343.675 32.7224 343.933 32.666L344.011 32.726C343.991 32.7262 343.971 32.7292 343.951 32.7348C343.834 32.7866 344.053 32.914 344.103 32.9527C344.405 33.0288 344.714 33.0808 345.025 33.1084L345.114 33.1547L345.077 33.1586L345.215 33.2357L345.123 33.2469L345.029 33.5929L344.484 33.2155L342.733 32.9527Z" fill="#939598"/>
</g>
<path d="M330.794 11.1123L330.352 10.5217C330.326 10.1252 330.262 9.73226 330.16 9.34833C329.979 8.936 329.664 8.59628 329.267 8.38321C329.076 8.37322 328.885 8.39284 328.7 8.44138V8.83285C328.904 8.97939 329.087 9.15278 329.245 9.34833C329.349 9.60719 329.387 9.88821 329.353 10.1654C329.335 10.2298 329.264 10.4017 329.199 10.3855C329.076 10.3548 328.76 9.91074 328.637 9.87927C328.577 9.86408 328.453 9.84924 328.449 9.9111C328.524 10.2181 328.654 10.509 328.833 10.7698C329.073 11.0206 329.357 11.2254 329.67 11.374L330.018 11.8956L330.794 11.1123Z" fill="#FFA969"/>
<path d="M324.354 38.3432C324.354 38.3432 324.925 39.9548 324.612 40.3535C324.377 40.512 324.107 40.6115 323.825 40.6435C323.543 40.6756 323.258 40.6392 322.993 40.5375C322.835 40.448 322.736 40.0527 322.698 39.8755C322.639 39.1407 322.639 38.4024 322.698 37.6675L324.354 38.3432Z" fill="#443122"/>
<path d="M329.865 37.7619L330.343 38.2772C330.659 38.6712 331.046 39.0028 331.484 39.2549C331.605 39.3253 331.414 39.7043 331.3 39.7859C331.007 39.9941 330.218 39.8481 329.865 39.7859C329.363 39.6429 328.871 39.4655 328.393 39.2549C328.236 39.1961 327.768 39.0134 327.768 39.0134L327.807 38.438L329.865 37.7619Z" fill="#443122"/>
<path d="M328.887 20.8871H326.447V22.9141H328.887V20.8871Z" fill="white"/>
<path d="M330.032 38.0459C330.072 37.2656 330.072 36.4838 330.032 35.7035C329.899 35.3011 329.787 34.8921 329.697 34.4782C329.688 34.18 329.776 33.1242 329.798 32.8267C329.899 31.5115 329.873 29.0419 329.879 27.7231C329.885 26.6527 329.798 22.6774 329.798 22.6774H323.299L322.713 31.3626C322.713 31.3626 322.506 33.8975 322.51 34.5953C322.576 35.3772 322.53 36.1644 322.373 36.9331C322.301 37.1004 322.258 37.2785 322.245 37.46C322.317 37.667 322.416 37.8639 322.538 38.0459C323.127 38.3126 323.764 38.459 324.411 38.4768C324.59 38.4191 324.88 37.9873 324.88 37.9873C324.88 37.9873 324.892 36.6701 324.821 36.0591C324.788 35.7769 324.849 35.2309 324.853 34.9469C324.862 34.1796 325.29 31.4798 325.29 31.4798L326.139 26.9713L326.402 25.8699L326.929 25.9284C326.929 25.9284 327.247 28.6943 327.28 29.489C327.326 30.5716 327.049 33.2472 327.296 34.3023C327.36 34.5765 327.514 35.0201 327.558 35.2979C327.544 35.7915 327.471 36.2816 327.339 36.7575C327.287 36.9887 327.287 37.2287 327.339 37.46C327.382 37.5337 327.583 37.662 327.632 37.7317C327.737 38.0001 327.797 38.2844 327.808 38.5726L330.032 38.0459Z" fill="#58595B"/>
<path d="M329.292 24.2708L329.016 24.1734L328.595 23.0886L324.535 22.9141C324.535 22.9141 324.145 23.8657 324.115 23.9375C324.093 23.9864 323.894 24.0327 323.767 24.0572L323.959 28.762L325.426 28.2295L326.155 25.3363L327.062 25.5647L328.421 25.2295L327.485 25.7628C327.54 26.3918 327.881 30.0175 328.374 30.6866C328.497 30.8535 328.962 31.0582 329.078 30.8865C329.567 30.1628 329.431 27.0283 329.431 27.0283L329.292 24.2708ZM326.876 24.8708L326.943 23.4043L327.405 23.2817L327.428 24.7804L326.876 24.8708Z" fill="#808285"/>
<path d="M332.975 14.3704C332.389 13.1899 331.676 12.0767 330.85 11.0502L329.916 11.9208L330.367 13.5551L329.433 11.8027L327.884 10.7847L327.707 13.8393L325.627 10.3863C325.627 10.3863 324.128 10.9359 323.589 11.168C323.356 11.2686 322.789 11.2765 322.615 11.4625C322.334 12.1071 322.145 12.7879 322.053 13.4852C322.053 13.4852 321.507 16.8966 321.434 18.045C321.377 18.938 321.465 21.6235 321.465 21.6235H323.191L323.299 23.2818C324.55 23.502 325.812 23.6503 327.08 23.726C327.151 23.7256 327.238 23.7225 327.339 23.717L327.884 21.9204L328.497 23.6231C329.37 23.5392 330.273 23.4346 330.273 23.4346L329.835 16.0549L332.178 16.6283C332.485 16.3395 332.753 16.0121 332.975 15.6543C333.074 15.2321 333.074 14.7927 332.975 14.3704V14.3704Z" fill="#414042"/>
<path d="M330.025 9.78262C330.046 9.82232 330.06 9.86587 330.064 9.91076C330.069 9.95566 330.065 10.001 330.052 10.0443C330.039 10.0875 330.018 10.1278 329.989 10.1628C329.961 10.1979 329.926 10.2269 329.886 10.2484L329.514 10.4501C329.434 10.4934 329.34 10.5032 329.253 10.4772C329.165 10.4511 329.092 10.3915 329.048 10.3112L328.125 8.64812C328.104 8.60848 328.09 8.56496 328.085 8.52009C328.081 8.47521 328.085 8.42984 328.098 8.3866C328.111 8.34335 328.132 8.30309 328.16 8.26809C328.189 8.23308 328.224 8.20405 328.264 8.18264L328.636 7.98104C328.675 7.95956 328.719 7.94612 328.764 7.94145C328.808 7.93678 328.854 7.94099 328.897 7.95385C328.94 7.96671 328.98 7.98796 329.015 8.01639C329.05 8.04481 329.08 8.07984 329.101 8.1195L330.025 9.78262Z" fill="#203C61"/>
<path d="M329.771 9.91589C329.792 9.95556 329.806 9.9991 329.811 10.044C329.815 10.0889 329.811 10.1343 329.798 10.1776C329.786 10.2209 329.764 10.2612 329.736 10.2963C329.707 10.3313 329.672 10.3604 329.632 10.3818L329.261 10.5831C329.181 10.6264 329.087 10.6362 328.999 10.6102C328.912 10.5843 328.838 10.5247 328.795 10.4446L327.871 8.78148C327.828 8.7013 327.818 8.60721 327.844 8.51987C327.87 8.43252 327.93 8.35904 328.01 8.31553L328.381 8.11432C328.421 8.09279 328.465 8.0793 328.51 8.07461C328.554 8.06993 328.6 8.07412 328.643 8.08699C328.686 8.09986 328.727 8.12114 328.762 8.1496C328.797 8.17807 328.826 8.21314 328.848 8.25286L329.771 9.91589Z" fill="#112944"/>
<path d="M326.155 9.91177V8.05057L328.007 8.61431L327.668 9.21673L327.695 10.2795L327.22 10.6482L326.155 9.91177Z" fill="#FF8A54"/>
<path d="M328.803 5.95346L325.708 5.68796C325.708 5.68796 325.376 8.10752 325.708 8.81567C325.785 8.96254 325.883 9.09711 326 9.21497C326 9.21497 326.016 8.77521 326.132 8.72315C326.206 8.69078 326.382 8.79688 326.419 8.86836C326.539 9.10078 326.47 9.54783 326.769 9.85551C326.936 9.97012 327.114 10.0656 327.302 10.1402C327.518 10.2076 327.749 10.2076 327.965 10.1402C328.287 9.96788 328.666 8.94908 328.77 8.60085C328.789 8.29878 328.779 7.99556 328.739 7.69552C328.743 7.54699 328.889 7.38533 328.887 7.23715C328.874 6.5646 328.803 5.95346 328.803 5.95346Z" fill="#FFA969"/>
<path d="M324.288 13.5543C323.669 13.5534 323.646 16.0198 323.646 16.0198L323.191 21.6227L323.299 23.281L323.535 23.3201C323.946 21.247 324.251 19.1543 324.45 17.0501C324.461 16.1734 325.165 13.5549 324.288 13.5543Z" fill="#231F20"/>
<path d="M330.325 13.3403C330.434 13.9283 330.59 14.5063 330.795 15.0682C331.241 16.1976 332.311 16.5046 332.178 16.6267C331.579 17.175 329.835 16.0533 329.835 16.0533L329.433 11.8011L330.325 13.3403Z" fill="#231F20"/>
<path d="M325.626 10.3867L326.154 9.91196L327.219 10.6483L327.694 10.2797L327.884 10.785L327.707 13.8393L325.626 10.3867Z" fill="white"/>
<path d="M326.755 11.8031C326.755 11.8031 327.186 11.1168 327.22 11.1728C327.254 11.2294 327.83 11.7169 327.83 11.7169L327.498 12.2074L327.785 12.4921L327.707 13.8397L326.903 12.5044L327.066 12.1512L326.755 11.8031Z" fill="#DD625B"/>
<path d="M328.77 5.54164C328.34 5.22074 327.825 5.03378 327.289 5.00416C326.754 4.97454 326.221 5.1036 325.758 5.37514C324.497 6.5396 325.292 7.75314 325.561 8.45634C325.692 8.79963 325.881 9.39943 326.05 9.26816C326.129 9.16508 326.187 9.0472 326.22 8.92141C326.253 8.79562 326.261 8.66445 326.243 8.53564C326.114 8.5246 325.993 8.47037 325.899 8.38174C325.805 8.2931 325.744 8.17531 325.726 8.04753C325.675 7.91752 325.675 7.77279 325.728 7.64329C325.78 7.51379 325.88 7.40939 326.008 7.35167C326.082 7.33324 326.214 7.55471 326.281 7.51488C326.355 7.47136 326.322 7.20109 326.345 7.14255C326.452 6.8774 326.562 6.55325 326.84 6.48492C327.139 6.4111 327.787 6.76229 328.094 6.74718C328.333 6.73567 328.687 6.32685 328.857 6.55837C328.969 6.71122 328.926 5.72057 328.77 5.54164Z" fill="#942415"/>
<path d="M321.668 21.6232L321.738 22.2175L323.225 22.1492L323.191 21.6232H321.668Z" fill="white"/>
<path d="M319.035 24.0588L324.283 25.1126L324.055 31.4137L318.667 29.9221L319.035 24.0588Z" fill="#6D5548"/>
<path d="M326.003 25.0446L325.869 31.1335L324.054 31.4158L324.283 25.1147L326.003 25.0446Z" fill="#403023"/>
<path d="M319.035 24.0587L320.807 23.9886L326.003 25.0423L324.283 25.1125L319.035 24.0587Z" fill="#403023"/>
<path d="M321.137 24.2725L321.465 23.2007L323.872 23.5811L323.801 24.7796L323.225 24.6529L323.248 23.9893L321.668 23.7366L321.474 24.3148L321.137 24.2725Z" fill="#403023"/>
<path d="M330.815 11.089L330.646 10.857L329.771 11.5727L329.969 11.8811L330.815 11.089Z" fill="white"/>
<path d="M321.738 22.2168L321.668 23.2804V23.8208L323.225 24.0591L323.379 23.2804L323.225 22.1484L321.738 22.2168Z" fill="#FFA969"/>
<path d="M325.719 10.2504L327.707 13.8379L327.884 10.7836L328.821 11.3995L328.448 12.0046L328.886 12.6178L327.829 15.2127L325.626 13.062L325.906 12.4011L325.065 12.3058L324.727 10.7197L325.719 10.2504Z" fill="#231F20"/>
<path d="M324.283 20.8551L326.003 20.25L326.177 20.6618L324.408 21.2382L324.283 20.8551Z" fill="#231F20"/>
<path d="M328.821 20.25L328.585 20.4991L329.811 21.2382L329.835 20.8551L328.821 20.25Z" fill="#231F20"/>
<path d="M328.006 16.3455C328.006 16.5021 327.93 16.629 327.836 16.629C327.742 16.629 327.666 16.5021 327.666 16.3455C327.666 16.1888 327.742 16.0621 327.836 16.0621C327.93 16.0621 328.006 16.1888 328.006 16.3455Z" fill="#231F20"/>
<path d="M328 17.9851C328 18.1417 327.923 18.2682 327.83 18.2682C327.735 18.2682 327.66 18.1417 327.66 17.9851C327.66 17.8286 327.735 17.7016 327.83 17.7016C327.923 17.7016 328 17.8286 328 17.9851Z" fill="#231F20"/>
<path d="M328 19.4574C328 19.6142 327.923 19.7411 327.83 19.7411C327.735 19.7411 327.66 19.6142 327.66 19.4574C327.66 19.3007 327.735 19.1737 327.83 19.1737C327.923 19.1737 328 19.3007 328 19.4574Z" fill="#231F20"/>
<path d="M328 20.8869C328 21.0438 327.923 21.1708 327.83 21.1708C327.735 21.1708 327.66 21.0438 327.66 20.8869C327.66 20.7302 327.735 20.6033 327.83 20.6033C327.923 20.6033 328 20.7302 328 20.8869Z" fill="#231F20"/>
<path d="M329.378 8.43197C329.509 8.51298 329.574 8.64643 329.523 8.73103C329.471 8.81519 329.322 8.81806 329.19 8.73732C329.058 8.6564 328.993 8.52288 329.045 8.43845C329.097 8.35411 329.245 8.35132 329.378 8.43197Z" fill="#FFA969"/>
<path d="M329.634 8.75202C329.766 8.83268 329.831 8.96627 329.779 9.0507C329.728 9.13522 329.579 9.13811 329.447 9.05737C329.315 8.97672 329.25 8.84293 329.301 8.7585C329.354 8.67416 329.502 8.6711 329.634 8.75202Z" fill="#FFA969"/>
<path d="M329.865 9.09608C329.997 9.17682 330.062 9.31018 330.01 9.39478C329.959 9.47903 329.81 9.48218 329.678 9.40126C329.547 9.32079 329.482 9.18671 329.533 9.10264C329.585 9.01803 329.733 9.01507 329.865 9.09608Z" fill="#FFA969"/>
<path d="M330.046 9.40638C330.177 9.48713 330.242 9.62112 330.191 9.70528C330.139 9.79007 329.991 9.79249 329.858 9.71219C329.727 9.63109 329.662 9.49738 329.714 9.41313C329.765 9.32889 329.914 9.32582 330.046 9.40638Z" fill="#FFA969"/>
<g style="mix-blend-mode:multiply" opacity="0.4">
<path d="M1229.39 275.082C1229.39 275.082 1230.41 274.356 1230.06 274.178C1229.65 274.077 1229.24 274.015 1228.81 273.994C1229.27 273.848 1229.72 273.651 1230.13 273.407C1230.16 273.368 1230.18 273.323 1230.19 273.276C1230.19 273.229 1230.19 273.181 1230.18 273.135C1230.17 273.089 1230.14 273.047 1230.11 273.011C1230.08 272.974 1230.04 272.945 1230 272.925C1229.75 272.763 1230.08 272.43 1229 272.291C1228.75 272.259 1227.63 272.259 1227.63 272.259C1227.63 272.259 1227 272.215 1226.73 272.224C1225.41 272.268 1224.1 272.441 1222.82 272.742C1222.57 272.813 1222.06 272.961 1221.81 273.032C1221.54 273.112 1220.91 273.257 1220.75 273.341C1220.61 273.416 1220.6 273.614 1220.57 273.628C1220.1 273.829 1219.61 273.965 1219.1 274.034C1218.99 274.058 1218.89 274.094 1218.79 274.142C1218.57 274.165 1218.39 274.189 1218.26 274.212C1217.4 274.422 1216.57 274.737 1215.78 275.148L1214.06 276.081L1213.1 276.683L1212.55 277.324L1211.48 277.691L1211.98 277.96L1212.59 277.962C1212.36 278.326 1212.05 278.632 1211.68 278.857C1211.36 279.034 1210.51 279.376 1210.24 279.553C1209.83 279.912 1209.53 280.385 1209.38 280.912C1209.38 280.912 1209.42 280.914 1209.48 280.915C1209.35 280.993 1209.22 281.055 1209.08 281.098C1208.5 281.248 1207.37 281.768 1207.82 281.741C1208.22 281.719 1208.84 281.592 1209.24 281.57C1209.42 281.559 1209.24 281.922 1209.42 281.913C1209.85 281.804 1210.27 281.664 1210.67 281.494C1210.97 281.312 1211.26 281.102 1211.52 280.867L1211.74 280.847C1211.87 280.64 1212.05 280.472 1212.26 280.361C1212.47 280.261 1212.82 280.074 1212.99 279.973C1213.23 279.83 1213.48 279.546 1213.69 279.402C1214 279.193 1215.14 278.786 1215.61 278.58C1216.15 278.344 1217.02 277.944 1217.48 277.728C1217.66 277.73 1217.83 277.732 1217.97 277.734C1218.29 277.736 1218.74 277.737 1219.24 277.739C1218.92 277.962 1218.27 278.403 1217.84 278.65C1217.68 278.74 1217.25 278.921 1217.14 279.013C1217.01 279.12 1217.11 279.328 1216.95 279.434C1216.76 279.56 1215.96 279.801 1215.68 279.925C1215.17 280.192 1214.67 280.497 1214.2 280.838C1214.2 280.838 1214.24 280.843 1214.3 280.85C1214.09 280.915 1213.77 281.01 1213.65 281.053C1213.26 281.186 1212.69 281.461 1212.27 281.591C1212.13 281.632 1212.26 281.727 1212.43 281.752C1212.8 281.806 1211.74 282.837 1212.26 282.789C1212.48 282.768 1215.06 281.649 1215.16 281.608C1215.33 281.545 1215.28 281.412 1215.34 281.346C1215.42 281.266 1215.52 281.194 1215.62 281.129C1215.79 281.044 1215.96 280.97 1216.14 280.908C1216.18 280.907 1216.21 280.905 1216.21 280.905C1216.21 280.905 1218.79 280.079 1219.54 279.734C1220.07 279.494 1220.53 279.001 1221.03 278.761C1221.52 278.527 1222.15 278.282 1222.73 278.04L1222.89 278.067L1224.58 277.897L1225.33 277.72L1226.08 277.217L1228.15 275.964L1229.39 275.082ZM1212.66 277.698L1212.77 277.665C1212.81 277.665 1212.84 277.665 1212.88 277.666C1212.83 277.706 1212.79 277.748 1212.74 277.792L1212.66 277.698ZM1223.72 277.879L1222.88 277.977C1222.95 277.95 1223.01 277.923 1223.07 277.897H1223.07L1223.83 277.681L1224.09 277.68L1223.72 277.879ZM1224.78 277.183L1224.78 277.178L1224.78 277.182L1224.78 277.183ZM1226.52 276.319L1226.53 276.316L1226.53 276.318L1226.52 276.319Z" fill="#939598"/>
</g>
<path d="M1209.32 279.01C1209.32 279.01 1209.58 280.989 1209.57 281.729C1209.56 281.862 1209.29 282.001 1209.16 282.042C1209.05 282.081 1208.78 282 1208.67 282.042C1208.43 282.135 1208.15 282.642 1207.91 282.733C1207.45 282.836 1206.97 282.792 1206.54 282.608C1206.4 282.515 1206.29 282.225 1206.41 282.127C1207.05 281.59 1207.58 280.928 1207.96 280.182C1208.01 279.836 1208.01 279.485 1207.98 279.136L1209.32 279.01Z" fill="#203C61"/>
<path d="M1211.33 278.885C1211.33 278.885 1211.12 279.689 1211.07 279.963C1210.97 280.49 1210.92 281.58 1210.8 282.099C1210.8 282.22 1210.83 282.339 1210.89 282.448C1210.94 282.556 1211.02 282.652 1211.11 282.73C1211.34 282.83 1211.6 282.881 1211.85 282.881C1212.1 282.881 1212.35 282.829 1212.59 282.729C1212.73 282.56 1212.81 282.354 1212.83 282.137C1212.79 281.785 1212.72 281.437 1212.61 281.099C1212.57 280.884 1212.54 280.458 1212.53 280.242C1212.54 279.867 1212.58 279.494 1212.64 279.124L1211.33 278.885Z" fill="#203C61"/>
<path d="M1206.17 266.097C1206.23 267.702 1206.89 269.717 1206.9 271.318C1206.9 272.017 1206.74 273.377 1206.79 274.079C1207.05 275.893 1207.43 277.688 1207.93 279.452C1208.27 279.482 1208.61 279.482 1208.95 279.451C1209.13 279.374 1209.31 279.28 1209.48 279.169C1209.33 278.537 1209.25 277.893 1209.22 277.246C1209.23 276.851 1209.24 276.105 1209.23 275.709C1209.21 275.14 1209.02 274.019 1208.99 273.45C1209.02 272.358 1209.11 271.269 1209.27 270.188C1209.37 268.865 1209.51 266.22 1209.51 266.22L1210.67 266.282C1210.67 266.282 1210.88 269.099 1210.9 270.437C1210.9 270.799 1210.84 271.518 1210.88 271.881C1210.93 272.301 1211.26 273.123 1211.28 273.543C1211.31 274.041 1211.07 274.996 1211.03 275.488C1210.97 276.522 1211.17 279.105 1211.17 279.105C1211.42 279.249 1211.68 279.364 1211.95 279.449C1212.19 279.441 1212.42 279.41 1212.65 279.356C1213 277.82 1213.28 276.267 1213.47 274.703C1213.52 273.749 1213.21 271.8 1213.26 270.844C1213.32 269.405 1213.58 267.846 1213.63 266.406C1213.62 266.049 1213.59 265.693 1213.53 265.34L1206.22 265.344C1206.22 265.344 1206.16 265.906 1206.17 266.097Z" fill="#2E2119"/>
<path d="M1213.95 261.277C1213.94 260.9 1213.76 259.781 1213.76 259.781L1214.61 259.74L1214.34 256.251C1214.28 255.035 1214.05 253.833 1213.66 252.68C1213.23 252.271 1212.72 251.969 1212.15 251.799L1212.37 255.421L1212.79 259.512L1213.82 264.824C1213.9 263.559 1213.98 262.02 1213.95 261.277Z" fill="#009444"/>
<path d="M1206.72 260.676L1206.93 255.359V252.002C1206.4 252.199 1205.91 252.516 1205.52 252.929C1205.03 253.687 1205 256.647 1205 256.647V260.344H1206.02C1206.02 260.344 1205.55 263.67 1205.54 264.787C1205.53 265.235 1205.68 266.573 1205.68 266.573C1205.68 266.573 1206.03 266.598 1206.53 266.631L1206.23 264.248L1206.72 260.676Z" fill="#009444"/>
<path d="M1212.37 255.421L1212.15 251.799C1211.94 251.719 1211.76 251.658 1211.66 251.627C1211.66 251.943 1211.56 255.262 1209.84 255.4C1207.91 255.556 1207.46 253.046 1207.36 251.818C1207.23 251.872 1207.08 251.933 1206.93 252.002V255.359L1206.72 260.675L1206.22 264.247L1206.53 266.63C1207.52 266.698 1209.13 266.802 1209.82 266.822C1210.78 266.851 1213.43 266.801 1213.43 266.801C1213.64 266.161 1213.77 265.497 1213.82 264.825L1212.79 259.512L1212.37 255.421Z" fill="#8BD2CA"/>
<path d="M1209.84 255.399C1211.56 255.261 1211.66 251.942 1211.66 251.626C1211.61 251.609 1211.58 251.6 1211.58 251.6H1207.93C1207.93 251.6 1207.69 251.683 1207.36 251.818C1207.46 253.045 1207.91 255.555 1209.84 255.399Z" fill="#F2F2FA"/>
<path d="M1214.61 259.74L1214.78 264.703L1214.9 266.697L1214.61 267.403L1213.66 268.088L1213.37 267.88L1213.99 267.34V266.55L1213.82 266.558L1213.57 267.417L1213.22 267.34L1213.35 265.782L1213.83 264.58L1213.94 261.154L1213.76 259.781L1214.61 259.74Z" fill="#FFC083"/>
<path d="M1208.59 249.772L1208.44 251.599H1207.93C1207.93 251.599 1207.93 254.242 1209.58 254.242C1211.21 254.242 1211.24 251.626 1211.24 251.626L1210.66 251.599L1210.57 249.771L1210.57 249.693L1208.59 249.772Z" fill="#FFC083"/>
<path d="M1211.04 250.333C1211.07 250.625 1211.02 250.921 1210.88 251.181C1210.74 251.442 1210.53 251.654 1210.27 251.791C1210.01 251.927 1209.71 251.981 1209.42 251.946C1209.13 251.91 1208.85 251.786 1208.63 251.591C1208.41 251.396 1208.26 251.139 1208.19 250.853C1208.12 250.567 1208.14 250.267 1208.24 249.992C1208.35 249.717 1208.53 249.48 1208.77 249.313C1209.01 249.146 1209.3 249.057 1209.6 249.057C1209.96 249.036 1210.31 249.159 1210.58 249.398C1210.85 249.637 1211.01 249.974 1211.04 250.333V250.333Z" fill="#FFA969"/>
<path d="M1208.09 247.4H1210.95C1211.06 247.78 1211.14 248.165 1211.19 248.554C1211.22 249.18 1211.11 249.803 1210.86 250.378C1210.56 250.78 1210.13 251.059 1209.64 251.159C1209.37 251.134 1209.12 251.055 1208.88 250.927C1208.65 250.8 1208.44 250.625 1208.27 250.415C1207.96 249.82 1207.81 249.152 1207.85 248.48C1207.87 248.194 1208.09 247.4 1208.09 247.4Z" fill="#FFC083"/>
<path d="M1209.52 245.13C1209.3 245.052 1209.08 245.008 1208.85 245C1208.36 245.154 1207.92 245.424 1207.57 245.788C1207.21 246.151 1206.95 246.596 1206.8 247.084C1206.72 247.364 1206.55 247.957 1206.47 248.238C1206.32 248.635 1206.21 249.047 1206.13 249.466C1206.19 249.85 1206.27 250.229 1206.38 250.601C1206.38 251.45 1206.17 251.523 1205.87 252.22C1205.8 252.426 1205.77 252.647 1205.8 252.864C1205.83 253.081 1205.91 253.288 1206.04 253.467C1206.42 253.718 1206.86 253.848 1207.31 253.838C1207.77 253.828 1208.21 253.679 1208.57 253.411C1208.91 252.958 1208.52 251.954 1208.5 251.465C1208.53 251.169 1208.5 250.869 1208.42 250.582C1207.93 249.594 1207.83 248.459 1208.14 247.4H1210.95C1211.15 248.398 1211.11 249.426 1210.84 250.406C1210.63 251.11 1210.56 251.846 1210.62 252.577C1210.65 252.838 1210.74 253.427 1210.95 253.579C1211.12 253.699 1211.33 253.761 1211.54 253.754C1211.74 253.747 1211.94 253.672 1212.11 253.541C1212.37 253.067 1212.52 252.539 1212.55 251.997C1212.7 251.218 1212.76 250.425 1212.72 249.633C1212.58 248.968 1212.35 248.328 1212.01 247.736C1211.63 247.098 1211.44 245.782 1210.51 245.242C1210.18 245.154 1209.85 245.117 1209.52 245.13Z" fill="#845827"/>
<path d="M1206.93 266.738L1206.85 265.803L1206.39 264.474L1206.02 260.342H1205L1205.1 262.73L1205.54 265.262L1205.27 266.717L1205.96 267.776H1206.93V267.485L1206.68 267.319L1206.93 266.738ZM1206.32 267.21L1206.09 266.735L1206.23 266.217L1206.43 266.519L1206.32 267.21Z" fill="#FFC083"/>
<g style="mix-blend-mode:multiply" opacity="0.4">
<path d="M31.3664 680.175L31.2895 680.185L31.1422 680.119L31.0869 680.126L30.8451 680.025C30.8451 680.025 31.199 679.77 31.1457 679.695C30.9412 679.55 30.7 679.464 30.4496 679.449C30.4268 679.444 30.4037 679.439 30.3712 679.434C30.3461 679.431 30.3156 679.432 30.2881 679.429C30.2638 679.427 30.2434 679.422 30.2188 679.42L30.1866 679.419L30.0898 679.346C29.9385 679.296 29.7783 679.279 29.6199 679.296C29.6546 679.268 29.6922 679.245 29.7319 679.225C29.8154 679.184 30.1314 679.139 30.2043 679.097C30.3258 679.028 30.423 678.964 30.5061 678.906H30.5084C30.6079 678.95 31.0528 678.671 30.8952 678.62C29.3284 678.424 27.7445 678.405 26.1733 678.562C23.5555 678.883 24.1963 679.227 24.2629 679.426C24.2947 679.523 24.2864 679.692 24.6235 679.655C24.7145 679.644 24.8045 679.626 24.8928 679.601L24.4577 679.837L23.5998 679.94L23.5872 679.93L21.7606 680.058V680.058C21.0046 680.101 20.1713 680.15 19.7115 680.179C19.287 680.206 18.3765 680.206 18.0034 680.257C17.3425 680.4 16.6924 680.589 16.058 680.823C16.058 680.823 13.4218 681.778 12.7111 682.1C12.1593 682.35 10.9089 683.105 10.9089 683.105L11.2319 683.105L11.0374 683.272L10.4045 683.558L10.0917 683.547L9.21881 683.79L8.63397 683.766L5.76758 683.779L2.14551 685.422L8.05896 685.755L7.8634 685.842C7.8634 685.842 6.22107 686.553 5.86707 686.749C5.49757 686.954 5.6755 688.463 6.2431 688.374C6.8295 688.282 6.87409 687.955 6.87329 687.847L6.89447 687.846C7.20957 687.83 7.89557 687.71 7.89557 687.71C8.20826 687.549 8.5104 687.368 8.80017 687.169C9.00241 687.053 9.21096 686.949 9.42487 686.857C9.83767 686.641 11.917 685.886 11.917 685.886L12.1334 685.812L13.022 685.791L14.7297 684.924L15.6061 684.624L16.5959 684.316L17.4076 684.334C17.4076 684.334 16.4849 685.112 16.1267 685.335C15.2687 685.716 14.4439 686.168 13.6609 686.686C13.6221 686.763 13.6373 686.888 13.564 686.966C13.2084 687.135 12.8387 687.272 12.4591 687.375C12.3439 687.424 12.0331 687.529 12.0958 687.573C12.1275 687.593 12.3815 687.63 12.4226 687.65C14.0594 687.553 15.6895 687.366 17.3057 687.09C17.4448 686.964 17.1916 686.872 17.4045 686.745C17.544 686.661 18.2307 686.365 18.4204 686.282C19.2616 685.913 20.4978 685.22 21.1908 684.85C21.5937 684.635 22.6896 684.003 23.2807 683.661C23.7334 683.653 24.0372 683.648 24.0372 683.648L27.1568 681.576C28.2965 681.746 29.4503 681.803 30.6013 681.746C30.6013 681.746 32.0554 681.558 32.3776 681.476C32.7065 681.391 33.0267 681.202 33.042 681.116C33.089 680.849 31.3664 680.175 31.3664 680.175ZM13.6663 683.111L13.4464 683.26L13.4476 683.259L13.6663 683.111ZM10.1383 683.699L10.0948 683.722L12.4305 683.795L12.1718 683.911L9.7182 683.81L10.1383 683.699ZM26.7675 680.088L26.7268 679.946L26.7699 679.921C26.9432 679.921 27.1149 679.917 27.2317 679.908C27.524 679.879 27.8144 679.832 28.1014 679.769L28.1888 679.836C28.1661 679.836 28.1436 679.84 28.1218 679.846C27.9916 679.904 28.2347 680.045 28.2907 680.088C28.6274 680.173 28.9702 680.231 29.316 680.261L29.4156 680.313L29.3741 680.317L29.5273 680.403L29.4258 680.416L29.3204 680.8L28.7148 680.381L26.7675 680.088Z" fill="#939598"/>
</g>
<path d="M13.4897 655.798L12.9974 655.141C12.9691 654.7 12.8977 654.263 12.7842 653.836C12.5825 653.377 12.2328 652.999 11.791 652.763C11.5788 652.751 11.3662 652.773 11.1608 652.827V653.263C11.3875 653.426 11.5913 653.619 11.7664 653.836C11.8826 654.124 11.9241 654.436 11.887 654.745C11.8659 654.816 11.7871 655.007 11.715 654.989C11.5782 654.955 11.2269 654.461 11.0901 654.427C11.0235 654.409 10.8864 654.393 10.8809 654.462C10.9648 654.803 11.1095 655.127 11.3082 655.417C11.575 655.696 11.8906 655.923 12.2394 656.089L12.6262 656.669L13.4897 655.798Z" fill="#FFA969"/>
<path d="M6.32552 686.084C6.32552 686.084 6.96012 687.876 6.61202 688.32C6.3505 688.496 6.05034 688.606 5.73696 688.642C5.42358 688.678 5.10618 688.637 4.81179 688.524C4.63659 688.424 4.52615 687.985 4.48385 687.788C4.41814 686.97 4.41814 686.149 4.48385 685.332L6.32552 686.084Z" fill="#443122"/>
<path d="M12.4555 685.438L12.9877 686.011C13.3392 686.449 13.7694 686.818 14.2561 687.098C14.3917 687.176 14.1793 687.598 14.0515 687.688C13.7266 687.92 12.8486 687.758 12.4555 687.688C11.897 687.53 11.3501 687.332 10.8187 687.098C10.6438 687.033 10.123 686.829 10.123 686.829L10.1673 686.189L12.4555 685.438Z" fill="#443122"/>
<path d="M11.3668 666.67H8.65332V668.924H11.3668V666.67Z" fill="#6BB29F"/>
<path d="M12.6407 685.753C12.6846 684.885 12.6846 684.015 12.6407 683.148C12.5752 682.647 12.2832 682.29 12.2679 681.785C12.2573 681.453 12.3553 680.279 12.3804 679.948C12.4925 678.485 12.4631 675.739 12.4706 674.272C12.4768 673.082 12.3804 668.66 12.3804 668.66H5.15192L4.50049 678.32C4.50049 678.32 4.27002 681.139 4.27472 681.915C4.34809 682.785 4.29677 683.66 4.12231 684.515C4.04222 684.701 3.99392 684.899 3.97949 685.101C4.05993 685.332 4.16942 685.55 4.3053 685.753C4.96107 686.049 5.66944 686.212 6.38892 686.232C6.58732 686.168 6.90979 685.687 6.90979 685.687C6.90979 685.687 6.92361 684.223 6.84521 683.543C6.80841 683.229 6.87574 682.622 6.87964 682.306C6.88984 681.453 7.36609 678.45 7.36609 678.45L8.3103 673.436L8.60309 672.211L9.18951 672.276C9.18951 672.276 9.54302 675.352 9.58032 676.236C9.63042 677.44 9.32283 680.416 9.59753 681.589C9.66883 681.894 9.83933 682.387 9.88843 682.696C9.87391 683.245 9.79226 683.791 9.64532 684.32C9.58734 684.577 9.58734 684.844 9.64532 685.101C9.69352 685.183 9.91688 685.326 9.97058 685.403C10.0882 685.702 10.1545 686.018 10.1667 686.338L12.6407 685.753Z" fill="#203C61"/>
<path d="M11.8181 670.433L11.5107 670.324L11.0427 669.118L6.52655 668.924C6.52655 668.924 6.09303 669.982 6.05933 670.062C6.03623 670.116 5.81395 670.168 5.67285 670.195L5.88684 675.428L7.51782 674.836L8.32831 671.618L9.33771 671.872L10.8491 671.499L9.80762 672.092C9.86952 672.792 10.2485 676.824 10.7965 677.568C10.9329 677.754 11.4511 677.982 11.58 677.79C12.1229 676.986 11.9724 673.499 11.9724 673.499L11.8181 670.433ZM9.13116 671.1L9.20526 669.469L9.71875 669.332L9.74451 670.999L9.13116 671.1Z" fill="#295687"/>
<path d="M15.9144 659.422C15.2627 658.109 14.4702 656.87 13.5508 655.729L12.5126 656.697L13.014 658.515L11.9752 656.565L10.2521 655.433L10.055 658.831L7.74127 654.99C7.74127 654.99 6.07547 655.601 5.47577 655.86C5.21627 655.971 4.58523 655.98 4.39233 656.187C4.07954 656.904 3.869 657.661 3.76678 658.437C3.76678 658.437 3.15928 662.231 3.07898 663.508C3.01588 664.501 3.11267 667.488 3.11267 667.488H5.03284L5.15277 669.332C6.54407 669.577 7.94826 669.742 9.35846 669.826C9.43646 669.826 9.53407 669.822 9.64587 669.817L10.2521 667.818L10.9338 669.712C11.9047 669.619 12.9089 669.502 12.9089 669.502L12.4219 661.295L15.0278 661.932C15.369 661.611 15.667 661.247 15.9144 660.849C16.0245 660.38 16.0245 659.891 15.9144 659.422Z" fill="#EFBC4F"/>
<path d="M12.6329 654.319C12.681 654.409 12.6918 654.513 12.6628 654.611C12.6337 654.708 12.5673 654.79 12.4781 654.838L12.065 655.061C11.9758 655.11 11.8711 655.121 11.7739 655.092C11.6767 655.063 11.5951 654.996 11.5468 654.907L10.5199 653.058C10.4959 653.013 10.4809 652.965 10.4757 652.915C10.4705 652.865 10.4751 652.815 10.4895 652.767C10.5038 652.718 10.5275 652.674 10.5593 652.635C10.591 652.596 10.6301 652.563 10.6743 652.54L11.0874 652.316C11.1315 652.292 11.1799 652.277 11.2299 652.272C11.2798 652.266 11.3302 652.271 11.3783 652.285C11.4265 652.3 11.4713 652.323 11.5103 652.355C11.5493 652.386 11.5817 652.425 11.6056 652.47L12.6329 654.319Z" fill="#203C61"/>
<path d="M12.3498 654.468C12.3739 654.512 12.3889 654.56 12.3942 654.61C12.3994 654.66 12.3947 654.711 12.3804 654.759C12.3661 654.807 12.3425 654.852 12.3108 654.891C12.2791 654.93 12.2401 654.962 12.1959 654.986L11.7826 655.21C11.6935 655.258 11.5889 655.269 11.4917 655.24C11.3945 655.211 11.3128 655.145 11.2645 655.056L10.2375 653.206C10.1893 653.117 10.1784 653.012 10.2072 652.915C10.236 652.818 10.3023 652.736 10.3914 652.688L10.8043 652.464C10.8936 652.416 10.9984 652.405 11.0957 652.434C11.193 652.463 11.2749 652.529 11.3234 652.618L12.3498 654.468Z" fill="#112944"/>
<path d="M8.3291 654.462V652.391L10.3881 653.019L10.0111 653.688L10.0421 654.871L9.51306 655.28L8.3291 654.462Z" fill="#FF8A54"/>
<path d="M11.2754 650.061L7.8321 649.766C7.8321 649.766 7.4628 652.457 7.8321 653.244C7.91769 653.408 8.02719 653.557 8.15699 653.688C8.15699 653.688 8.175 653.2 8.3047 653.142C8.3863 653.105 8.5822 653.224 8.623 653.303C8.7566 653.562 8.68058 654.059 9.01338 654.401C9.19821 654.528 9.39677 654.634 9.6053 654.718C9.84554 654.793 10.103 654.793 10.3433 654.718C10.7004 654.526 11.1221 653.393 11.2381 653.006C11.2596 652.67 11.248 652.332 11.2037 651.998C11.2083 651.833 11.3703 651.654 11.3675 651.489C11.3534 650.741 11.2754 650.061 11.2754 650.061Z" fill="#FFA969"/>
<path d="M6.25275 658.514C5.56335 658.513 5.53864 661.256 5.53864 661.256L5.03223 667.487L5.15216 669.331L5.41437 669.375C5.87146 667.069 6.21118 664.742 6.43225 662.402C6.44445 661.427 7.22715 658.514 6.25275 658.514Z" fill="#D19428"/>
<path d="M12.967 658.277C13.0874 658.93 13.262 659.573 13.4891 660.198C13.9854 661.454 15.1754 661.796 15.0272 661.931C14.3616 662.541 12.4214 661.294 12.4214 661.294L11.9746 656.564L12.967 658.277Z" fill="#D19428"/>
<path d="M7.74121 654.991L8.32922 654.463L9.51318 655.281L10.0422 654.872L10.2522 655.434L10.0552 658.831L7.74121 654.991Z" fill="#6BB29F"/>
<path d="M8.99609 656.566C8.99609 656.566 9.4754 655.803 9.513 655.865C9.5511 655.928 10.1915 656.47 10.1915 656.47L9.823 657.016L10.1417 657.333L10.0547 658.831L9.15991 657.346L9.34174 656.953L8.99609 656.566Z" fill="white"/>
<path d="M11.2368 649.602C10.7587 649.246 10.186 649.038 9.59032 649.005C8.99464 648.972 8.40248 649.115 7.88792 649.417C6.48462 650.712 7.36811 652.062 7.66801 652.844C7.81381 653.226 8.02429 653.893 8.21159 653.747C8.29978 653.632 8.36422 653.501 8.40111 653.361C8.43799 653.221 8.44662 653.076 8.42644 652.932C8.28337 652.92 8.14864 652.86 8.04417 652.761C7.93971 652.663 7.87162 652.532 7.851 652.39C7.79407 652.245 7.7949 652.084 7.85326 651.94C7.91162 651.796 8.02306 651.68 8.1646 651.616C8.2469 651.595 8.39424 651.841 8.46874 651.797C8.55034 651.749 8.51395 651.448 8.54015 651.383C8.65845 651.088 8.78161 650.728 9.09001 650.652C9.42281 650.57 10.1432 650.96 10.4854 650.943C10.7511 650.93 11.1446 650.476 11.3336 650.733C11.4582 650.903 11.4108 649.801 11.2368 649.602Z" fill="#942415"/>
<path d="M3.33789 667.488L3.41589 668.149L5.07092 668.074L5.0329 667.488H3.33789Z" fill="#6BB29F"/>
<path d="M0.410034 670.199L6.24701 671.37L5.99304 678.379L0 676.719L0.410034 670.199Z" fill="#6D5548"/>
<path d="M8.16016 671.291L8.01117 678.063L5.99316 678.378L6.24713 671.369L8.16016 671.291Z" fill="#403023"/>
<path d="M0.410156 670.199L2.38116 670.121L8.16016 671.292L6.24713 671.37L0.410156 670.199Z" fill="#403023"/>
<path d="M2.74805 670.434L3.11304 669.242L5.79004 669.665L5.71204 670.998L5.07104 670.857L5.09503 670.12L3.33801 669.838L3.12305 670.481L2.74805 670.434Z" fill="#403023"/>
<path d="M13.5126 655.772L13.3246 655.514L12.3506 656.31L12.5706 656.654L13.5126 655.772Z" fill="#6BB29F"/>
<path d="M3.41589 668.149L3.33789 669.332V669.933L5.07092 670.199L5.24091 669.332L5.07092 668.074L3.41589 668.149Z" fill="#FFA969"/>
<path d="M7.84521 654.84L10.0552 658.831L10.2522 655.434L11.2942 656.118L10.8802 656.791L11.3672 657.474L10.1922 660.36L7.74121 657.968L8.05322 657.233L7.11719 657.126L6.74219 655.362L7.84521 654.84Z" fill="#D19428"/>
<path d="M6.24707 666.633L8.1601 665.961L8.35309 666.418L6.38611 667.06L6.24707 666.633Z" fill="#D19428"/>
<path d="M11.2942 665.961L11.0332 666.238L12.3972 667.06L12.4222 666.633L11.2942 665.961Z" fill="#D19428"/>
<path d="M10.3874 661.616C10.3874 661.79 10.3027 661.931 10.1981 661.931C10.0934 661.931 10.0088 661.79 10.0088 661.616C10.0088 661.442 10.0934 661.301 10.1981 661.301C10.3027 661.301 10.3874 661.442 10.3874 661.616Z" fill="#D19428"/>
<path d="M10.3802 663.442C10.3802 663.617 10.2956 663.757 10.1913 663.757C10.0863 663.757 10.002 663.617 10.002 663.442C10.002 663.268 10.0863 663.127 10.1913 663.127C10.2956 663.127 10.3802 663.268 10.3802 663.442Z" fill="#D19428"/>
<path d="M10.3802 665.079C10.3802 665.253 10.2956 665.394 10.1913 665.394C10.0863 665.394 10.002 665.253 10.002 665.079C10.002 664.905 10.0863 664.764 10.1913 664.764C10.2956 664.764 10.3802 664.905 10.3802 665.079Z" fill="#D19428"/>
<path d="M10.3802 666.669C10.3802 666.843 10.2956 666.984 10.1913 666.984C10.0863 666.984 10.002 666.843 10.002 666.669C10.002 666.495 10.0863 666.354 10.1913 666.354C10.2956 666.354 10.3802 666.495 10.3802 666.669Z" fill="#D19428"/>
<path d="M11.9135 652.817C12.0597 652.907 12.1322 653.056 12.075 653.149C12.0173 653.243 11.852 653.246 11.7054 653.157C11.5587 653.067 11.4866 652.918 11.5443 652.824C11.6011 652.731 11.7669 652.727 11.9135 652.817Z" fill="#FFA969"/>
<path d="M12.1983 653.173C12.3449 653.262 12.418 653.411 12.3603 653.505C12.3027 653.599 12.1372 653.602 11.9906 653.512C11.844 653.423 11.7719 653.274 11.8292 653.18C11.8867 653.086 12.0518 653.083 12.1983 653.173Z" fill="#FFA969"/>
<path d="M12.4551 653.556C12.6021 653.645 12.6746 653.794 12.6166 653.888C12.5597 653.981 12.3944 653.985 12.2474 653.895C12.1011 653.805 12.0285 653.656 12.0862 653.563C12.1434 653.469 12.3085 653.466 12.4551 653.556Z" fill="#FFA969"/>
<path d="M12.6555 653.901C12.8025 653.991 12.8747 654.14 12.817 654.233C12.7598 654.327 12.5944 654.33 12.4479 654.241C12.3012 654.151 12.2287 654.002 12.2864 653.908C12.3436 653.815 12.5094 653.811 12.6555 653.901Z" fill="#FFA969"/>
<g style="mix-blend-mode:multiply" opacity="0.4">
<path d="M1394.16 432.55L1394.08 432.56L1393.93 432.492L1393.87 432.498L1393.62 432.393C1393.62 432.393 1393.99 432.127 1393.93 432.048C1393.72 431.897 1393.47 431.808 1393.21 431.792C1393.18 431.787 1393.16 431.781 1393.12 431.776C1393.1 431.773 1393.07 431.774 1393.04 431.771C1393.01 431.769 1392.99 431.764 1392.97 431.762L1392.93 431.761L1392.83 431.684C1392.67 431.632 1392.51 431.614 1392.34 431.631C1392.38 431.603 1392.42 431.578 1392.46 431.558C1392.54 431.514 1392.87 431.467 1392.95 431.424C1393.08 431.352 1393.18 431.284 1393.27 431.225H1393.27C1393.37 431.271 1393.84 430.98 1393.67 430.927C1392.04 430.722 1390.38 430.701 1388.74 430.866C1386.01 431.201 1386.68 431.56 1386.75 431.767C1386.78 431.869 1386.77 432.045 1387.12 432.007C1387.22 431.995 1387.31 431.976 1387.41 431.95L1386.95 432.196L1386.06 432.304L1386.04 432.294L1384.14 432.427V432.427C1383.35 432.472 1382.48 432.523 1382 432.554C1381.55 432.582 1380.6 432.582 1380.21 432.636C1379.52 432.785 1378.84 432.982 1378.18 433.226C1378.18 433.226 1375.43 434.223 1374.69 434.559C1374.11 434.821 1372.81 435.608 1372.81 435.608H1373.14L1372.94 435.783L1372.28 436.081L1371.95 436.07L1371.04 436.324L1370.43 436.299L1367.44 436.312L1363.66 438.028L1369.83 438.375L1369.63 438.467C1369.63 438.467 1367.91 439.208 1367.54 439.413C1367.16 439.627 1367.34 441.202 1367.93 441.109C1368.55 441.013 1368.59 440.672 1368.59 440.559L1368.61 440.558C1368.94 440.542 1369.66 440.416 1369.66 440.416C1369.99 440.248 1370.3 440.06 1370.6 439.852C1370.82 439.731 1371.03 439.622 1371.26 439.526C1371.69 439.301 1373.86 438.512 1373.86 438.512L1374.08 438.434L1375.01 438.412L1376.79 437.507L1377.71 437.194L1378.74 436.873L1379.59 436.892C1379.59 436.892 1378.63 437.703 1378.25 437.937C1377.74 438.254 1375.84 439.037 1375.68 439.347C1375.64 439.428 1375.65 439.558 1375.58 439.64C1375.21 439.815 1374.82 439.958 1374.42 440.066C1374.3 440.118 1373.98 440.228 1374.04 440.272C1374.08 440.294 1374.34 440.333 1374.39 440.353C1376.1 440.252 1377.8 440.057 1379.48 439.769C1379.63 439.637 1379.37 439.542 1379.59 439.409C1379.73 439.321 1380.45 439.012 1380.65 438.925C1381.53 438.541 1382.82 437.817 1383.54 437.43C1383.96 437.206 1385.1 436.546 1385.72 436.189C1386.2 436.181 1386.51 436.176 1386.51 436.176L1389.77 434.012C1390.96 434.19 1392.16 434.25 1393.37 434.189C1393.37 434.189 1394.88 433.993 1395.22 433.908C1395.56 433.819 1395.9 433.622 1395.91 433.531C1395.96 433.253 1394.16 432.55 1394.16 432.55ZM1375.68 435.615L1375.46 435.771L1375.46 435.77L1375.68 435.615ZM1372 436.228L1371.96 436.253L1374.39 436.328L1374.12 436.45L1371.56 436.345L1372 436.228ZM1389.36 432.459L1389.32 432.31L1389.36 432.284C1389.55 432.284 1389.73 432.281 1389.85 432.271C1390.15 432.24 1390.46 432.191 1390.76 432.126L1390.85 432.196C1390.82 432.196 1390.8 432.2 1390.78 432.206C1390.64 432.266 1390.89 432.414 1390.95 432.459C1391.3 432.547 1391.66 432.608 1392.02 432.64L1392.13 432.694L1392.08 432.698L1392.24 432.788L1392.14 432.801L1392.03 433.203L1391.4 432.764L1389.36 432.459Z" fill="#939598"/>
</g>
<path d="M1375.5 407.098L1374.99 406.413C1374.96 405.952 1374.88 405.496 1374.76 405.05C1374.55 404.571 1374.19 404.177 1373.73 403.93C1373.5 403.918 1373.28 403.941 1373.07 403.997V404.452C1373.31 404.622 1373.52 404.823 1373.7 405.05C1373.82 405.351 1373.87 405.677 1373.83 405.999C1373.8 406.074 1373.72 406.273 1373.65 406.254C1373.5 406.219 1373.14 405.703 1373 405.666C1372.93 405.648 1372.78 405.632 1372.78 405.704C1372.86 406.06 1373.02 406.398 1373.22 406.701C1373.5 406.992 1373.83 407.23 1374.19 407.402L1374.6 408.008L1375.5 407.098Z" fill="#FFA969"/>
<path d="M1368.02 438.717C1368.02 438.717 1368.68 440.589 1368.32 441.051C1368.05 441.235 1367.73 441.351 1367.41 441.388C1367.08 441.425 1366.75 441.383 1366.44 441.265C1366.26 441.161 1366.14 440.702 1366.1 440.496C1366.03 439.643 1366.03 438.786 1366.1 437.932L1368.02 438.717Z" fill="#443122"/>
<path d="M1374.42 438.043L1374.98 438.642C1375.34 439.099 1375.79 439.484 1376.3 439.776C1376.44 439.858 1376.22 440.298 1376.09 440.393C1375.75 440.635 1374.83 440.465 1374.42 440.393C1373.84 440.227 1373.27 440.021 1372.71 439.776C1372.53 439.708 1371.99 439.497 1371.99 439.497L1372.03 438.828L1374.42 438.043Z" fill="#443122"/>
<path d="M1373.28 418.449H1370.45V420.802H1373.28V418.449Z" fill="white"/>
<path d="M1374.61 438.371C1374.66 437.465 1374.66 436.557 1374.61 435.651C1374.55 435.128 1374.24 434.755 1374.23 434.228C1374.21 433.881 1374.32 432.656 1374.34 432.31C1374.46 430.784 1374.43 427.915 1374.44 426.385C1374.44 425.141 1374.34 420.526 1374.34 420.526H1366.8L1366.12 430.611C1366.12 430.611 1365.88 433.554 1365.88 434.364C1365.96 435.272 1365.9 436.186 1365.72 437.078C1365.64 437.273 1365.59 437.48 1365.57 437.691C1365.66 437.931 1365.77 438.16 1365.91 438.371C1365.91 438.371 1367.55 439.043 1368.09 438.87C1368.29 438.804 1368.63 438.303 1368.63 438.303C1368.63 438.303 1368.65 436.773 1368.56 436.064C1368.53 435.736 1368.6 435.102 1368.6 434.772C1368.61 433.881 1369.11 430.746 1369.11 430.746L1370.09 425.511L1370.4 424.233L1371.01 424.3C1371.01 424.3 1371.38 427.512 1371.42 428.435C1371.47 429.692 1371.15 432.799 1371.44 434.024C1371.51 434.342 1371.69 434.857 1371.74 435.18C1371.73 435.753 1371.64 436.322 1371.49 436.875C1371.43 437.143 1371.43 437.422 1371.49 437.691C1371.54 437.776 1371.77 437.925 1371.83 438.006C1371.95 438.317 1372.02 438.647 1372.03 438.982L1374.61 438.371Z" fill="#58595B"/>
<path d="M1373.76 422.377L1373.43 422.264L1372.95 421.005L1368.23 420.802C1368.23 420.802 1367.78 421.907 1367.74 421.991C1367.72 422.047 1367.49 422.101 1367.34 422.129L1367.56 427.592L1369.27 426.974L1370.11 423.614L1371.17 423.88L1372.74 423.491L1371.66 424.11C1371.72 424.84 1372.12 429.05 1372.69 429.827C1372.83 430.02 1373.37 430.258 1373.51 430.059C1374.07 429.218 1373.92 425.579 1373.92 425.579L1373.76 422.377ZM1370.95 423.074L1371.03 421.371L1371.56 421.229L1371.59 422.969L1370.95 423.074Z" fill="#808285"/>
<path d="M1378.03 410.881C1377.71 409.783 1375.56 407.025 1375.56 407.025L1374.48 408.036L1375 409.933L1373.92 407.899L1372.12 406.717L1371.91 410.264L1369.5 406.254C1369.5 406.254 1367.76 406.893 1367.13 407.162C1366.86 407.279 1366.2 407.288 1366 407.503C1365.68 408.252 1365.46 409.043 1365.35 409.852C1365.35 409.852 1364.71 413.814 1364.63 415.147C1364.56 416.184 1364.67 419.302 1364.67 419.302H1366.67L1366.8 421.228C1368.25 421.483 1369.71 421.655 1371.19 421.744C1371.27 421.743 1371.37 421.739 1371.49 421.733L1372.12 419.647L1372.83 421.624C1373.85 421.526 1374.89 421.405 1374.89 421.405L1374.39 412.836L1377.11 413.502C1377.46 413.167 1377.77 412.787 1378.03 412.371C1378.15 411.881 1378.15 411.371 1378.03 410.881V410.881Z" fill="#414042"/>
<path d="M1374.61 405.555C1374.63 405.601 1374.65 405.651 1374.65 405.703C1374.66 405.756 1374.65 405.808 1374.64 405.859C1374.62 405.909 1374.6 405.956 1374.56 405.996C1374.53 406.037 1374.49 406.071 1374.44 406.096L1374.01 406.329C1373.97 406.354 1373.92 406.37 1373.86 406.375C1373.81 406.381 1373.76 406.376 1373.71 406.361C1373.66 406.346 1373.61 406.321 1373.57 406.288C1373.53 406.255 1373.5 406.214 1373.47 406.168L1372.4 404.237C1372.37 404.191 1372.36 404.141 1372.35 404.088C1372.35 404.036 1372.35 403.984 1372.37 403.933C1372.38 403.883 1372.41 403.836 1372.44 403.796C1372.47 403.755 1372.51 403.721 1372.56 403.696L1372.99 403.463C1373.09 403.412 1373.19 403.401 1373.3 403.431C1373.4 403.461 1373.48 403.53 1373.53 403.623L1374.61 405.555Z" fill="#203C61"/>
<path d="M1374.31 405.709C1374.34 405.755 1374.35 405.806 1374.36 405.858C1374.36 405.91 1374.36 405.962 1374.34 406.013C1374.33 406.063 1374.3 406.11 1374.27 406.15C1374.24 406.191 1374.2 406.225 1374.15 406.249L1373.72 406.483C1373.63 406.533 1373.52 406.545 1373.41 406.515C1373.31 406.485 1373.23 406.415 1373.18 406.322L1372.1 404.391C1372.05 404.298 1372.04 404.189 1372.07 404.087C1372.1 403.986 1372.17 403.9 1372.27 403.85L1372.7 403.616C1372.79 403.566 1372.9 403.555 1373 403.585C1373.1 403.615 1373.19 403.684 1373.24 403.777L1374.31 405.709Z" fill="#112944"/>
<path d="M1370.11 405.705V403.542L1372.26 404.198L1371.87 404.897L1371.9 406.131L1371.35 406.559L1370.11 405.705Z" fill="#FF8A54"/>
<path d="M1373.19 401.108L1369.59 400.8C1369.59 400.8 1369.21 403.61 1369.59 404.431C1369.68 404.602 1369.8 404.759 1369.93 404.896C1369.93 404.896 1369.95 404.385 1370.09 404.325C1370.17 404.286 1370.38 404.41 1370.42 404.493C1370.56 404.763 1370.48 405.282 1370.83 405.639C1371.02 405.772 1371.23 405.883 1371.45 405.969C1371.7 406.048 1371.97 406.048 1372.22 405.969C1372.59 405.77 1373.03 404.587 1373.15 404.182C1373.17 403.832 1373.16 403.48 1373.11 403.131C1373.12 402.959 1373.29 402.771 1373.29 402.599C1373.27 401.818 1373.19 401.108 1373.19 401.108Z" fill="#FFA969"/>
<path d="M1367.95 409.934C1367.23 409.933 1367.2 412.797 1367.2 412.797L1366.67 419.303L1366.8 421.228L1367.07 421.274C1367.55 418.866 1367.9 416.436 1368.13 413.993C1368.15 412.976 1368.96 409.935 1367.95 409.934Z" fill="#231F20"/>
<path d="M1374.96 409.687C1375.08 410.369 1375.26 411.04 1375.5 411.693C1376.02 413.004 1377.26 413.36 1377.11 413.503C1376.41 414.139 1374.39 412.837 1374.39 412.837L1373.92 407.899L1374.96 409.687Z" fill="#231F20"/>
<path d="M1369.5 406.255L1370.11 405.704L1371.35 406.558L1371.9 406.131L1372.12 406.717L1371.91 410.264L1369.5 406.255Z" fill="white"/>
<path d="M1370.81 407.9C1370.81 407.9 1371.31 407.103 1371.35 407.169C1371.39 407.234 1372.06 407.8 1372.06 407.8L1371.67 408.37L1372.01 408.7L1371.91 410.265L1370.98 408.715L1371.17 408.304L1370.81 407.9Z" fill="#DD625B"/>
<path d="M1373.15 400.629C1372.65 400.256 1372.05 400.039 1371.43 400.005C1370.81 399.97 1370.19 400.12 1369.65 400.436C1368.19 401.788 1369.11 403.197 1369.42 404.013C1369.57 404.412 1369.79 405.108 1369.99 404.955C1370.08 404.836 1370.15 404.699 1370.19 404.553C1370.23 404.407 1370.24 404.255 1370.21 404.105C1370.06 404.093 1369.92 404.03 1369.82 403.927C1369.71 403.824 1369.64 403.687 1369.61 403.539C1369.55 403.388 1369.55 403.22 1369.62 403.07C1369.68 402.919 1369.79 402.798 1369.94 402.731C1370.03 402.709 1370.18 402.966 1370.26 402.92C1370.34 402.87 1370.31 402.555 1370.33 402.488C1370.46 402.18 1370.58 401.804 1370.91 401.724C1371.25 401.639 1372.01 402.046 1372.36 402.029C1372.64 402.015 1373.05 401.541 1373.25 401.809C1373.38 401.987 1373.33 400.837 1373.15 400.629Z" fill="#942415"/>
<path d="M1364.9 419.303L1364.98 419.993L1366.71 419.914L1366.67 419.303H1364.9Z" fill="white"/>
<path d="M1361.84 422.131L1367.94 423.355L1367.67 430.671L1361.42 428.939L1361.84 422.131Z" fill="#6D5548"/>
<path d="M1369.94 423.274L1369.78 430.344L1367.67 430.671L1367.94 423.355L1369.94 423.274Z" fill="#403023"/>
<path d="M1361.84 422.133L1363.9 422.051L1369.94 423.275L1367.94 423.356L1361.84 422.133Z" fill="#403023"/>
<path d="M1364.29 422.381L1364.67 421.137L1367.46 421.579L1367.38 422.97L1366.71 422.822L1366.74 422.052L1364.9 421.759L1364.68 422.43L1364.29 422.381Z" fill="#403023"/>
<path d="M1375.52 407.07L1375.33 406.801L1374.31 407.632L1374.54 407.991L1375.52 407.07Z" fill="white"/>
<path d="M1364.98 419.992L1364.9 421.228V421.855L1366.71 422.132L1366.89 421.228L1366.71 419.914L1364.98 419.992Z" fill="#FFA969"/>
<path d="M1369.61 406.097L1371.91 410.264L1372.12 406.717L1373.21 407.432L1372.78 408.134L1373.29 408.847L1372.06 411.86L1369.5 409.363L1369.82 408.595L1368.85 408.484L1368.46 406.642L1369.61 406.097Z" fill="#231F20"/>
<path d="M1367.94 418.411L1369.94 417.709L1370.14 418.187L1368.08 418.856L1367.94 418.411Z" fill="#231F20"/>
<path d="M1373.21 417.709L1372.93 417.999L1374.36 418.856L1374.39 418.411L1373.21 417.709Z" fill="#231F20"/>
<path d="M1372.26 413.173C1372.26 413.355 1372.17 413.503 1372.06 413.503C1371.96 413.503 1371.87 413.355 1371.87 413.173C1371.87 412.992 1371.96 412.844 1372.06 412.844C1372.17 412.844 1372.26 412.992 1372.26 413.173Z" fill="#231F20"/>
<path d="M1372.25 415.079C1372.25 415.26 1372.17 415.407 1372.06 415.407C1371.95 415.407 1371.86 415.26 1371.86 415.079C1371.86 414.896 1371.95 414.749 1372.06 414.749C1372.17 414.749 1372.25 414.896 1372.25 415.079Z" fill="#231F20"/>
<path d="M1372.25 416.789C1372.25 416.971 1372.17 417.118 1372.06 417.118C1371.95 417.118 1371.86 416.971 1371.86 416.789C1371.86 416.607 1371.95 416.46 1372.06 416.46C1372.17 416.46 1372.25 416.607 1372.25 416.789Z" fill="#231F20"/>
<path d="M1372.25 418.449C1372.25 418.631 1372.17 418.778 1372.06 418.778C1371.95 418.778 1371.86 418.631 1371.86 418.449C1371.86 418.267 1371.95 418.12 1372.06 418.12C1372.17 418.12 1372.25 418.267 1372.25 418.449Z" fill="#231F20"/>
<path d="M1373.85 403.985C1374.01 404.079 1374.08 404.234 1374.02 404.332C1373.96 404.43 1373.79 404.434 1373.64 404.339C1373.48 404.246 1373.41 404.091 1373.47 403.993C1373.53 403.895 1373.7 403.892 1373.85 403.985Z" fill="#FFA969"/>
<path d="M1374.15 404.358C1374.31 404.452 1374.38 404.606 1374.32 404.705C1374.26 404.803 1374.09 404.806 1373.94 404.713C1373.78 404.619 1373.71 404.463 1373.77 404.366C1373.83 404.268 1374 404.264 1374.15 404.358Z" fill="#FFA969"/>
<path d="M1374.42 404.757C1374.57 404.851 1374.65 405.006 1374.59 405.104C1374.53 405.202 1374.36 405.206 1374.2 405.112C1374.05 405.018 1373.98 404.863 1374.03 404.765C1374.09 404.667 1374.27 404.664 1374.42 404.757Z" fill="#FFA969"/>
<path d="M1374.63 405.119C1374.78 405.213 1374.86 405.368 1374.8 405.465C1374.74 405.564 1374.57 405.567 1374.41 405.473C1374.26 405.38 1374.18 405.225 1374.24 405.126C1374.3 405.028 1374.48 405.025 1374.63 405.119Z" fill="#FFA969"/>
<g style="mix-blend-mode:multiply" opacity="0.4">
<path d="M674.316 32.7286L675.882 32.4311L674.283 32.2208L676.153 32.4315L677.866 32.0933L677.584 32.0613C677.742 32.0239 677.881 31.9896 677.965 31.9659C678.749 31.7605 679.51 31.4792 680.239 31.126C680.731 30.7654 680.967 29.9169 680.095 29.6437C678.857 29.4803 677.612 29.3854 676.364 29.3594L675.651 29.2081L675.839 29.0585C676.225 29.0013 676.576 28.9392 676.751 28.8929C676.859 28.8631 676.966 28.8278 677.07 28.7872C677.366 28.7873 677.66 28.742 677.942 28.6528C678.163 28.5746 678.151 28.5058 677.935 28.4905C678.331 28.4013 678.71 28.252 679.06 28.0478C679.428 27.768 678.674 27.6651 676.054 27.6587C674.869 27.561 673.676 27.7209 672.558 28.1276C672.399 28.2014 672.266 28.3226 672.178 28.4745C672.148 28.4735 672.123 28.4708 672.089 28.4717C671.86 28.4615 671.633 28.5188 671.436 28.6365C671.363 28.7204 671.537 28.7821 671.825 28.7745L671.834 28.7737C671.788 28.8122 671.757 28.8464 671.758 28.8718C671.76 28.9371 672.006 29.0276 672.311 29.0989L671.981 29.2789L671.042 29.4437C671.042 29.4437 667.446 29.6496 666.565 29.8091C665.532 30.0894 664.54 30.5018 663.613 31.0361C663.308 31.1467 662.685 31.3679 662.476 31.4802C662.202 31.6568 661.95 31.8667 661.726 32.1052L661.291 32.123L661.522 32.5146L661.932 32.4769L661.926 32.4775L662.135 32.6992C662.135 32.6992 659.757 34.0669 658.693 34.566C658.359 35.1744 658.153 35.8451 658.089 36.5364C658.405 36.4925 658.719 36.4314 659.029 36.3535C659.204 36.2799 658.731 36.1461 658.954 36.0738C659.064 36.0385 659.589 36.0056 659.731 35.9719C660.816 35.6041 661.847 35.0947 662.799 34.4567C663.653 34.0882 666.552 33.0355 666.552 33.0355L668.919 33.0416C668.493 33.7126 668.011 34.3473 667.479 34.939C667.201 35.1981 666.055 35.7386 666.177 35.9808C666.2 36.0249 666.56 36.0937 666.472 36.1409C666.385 36.1883 665.682 36.251 665.593 36.2983C665.499 36.3477 665.872 36.4665 665.872 36.4665L665.926 36.467C665.729 36.5514 665.411 36.6975 665.433 36.7543C665.716 36.9449 666.05 37.0463 666.392 37.0457C667.064 37.0736 667.738 37.0555 668.408 36.9915C668.65 36.9552 668.546 36.8471 668.579 36.8002C668.616 36.7024 668.619 36.595 668.587 36.4955L668.764 36.4974C669.097 36.4456 669.425 36.3663 669.745 36.2606C669.761 36.2212 669.202 36.1954 669.213 36.1558C669.518 36.0507 669.831 35.9714 670.149 35.9188C670.238 35.8951 670.998 35.0668 671.338 34.7814C671.972 34.2507 674.32 32.7859 674.32 32.7859L674.315 32.7286H674.316ZM665.335 31.4315L667.274 30.7983C667.191 30.8893 667.1 30.9718 667.001 31.0447C666.714 31.2156 665.471 31.7266 665.471 31.7266L665.144 31.9733H665.144L664.469 32.1445L664.015 32.2524L664.252 32.0032L665.335 31.4315ZM674.263 32.0041C674.493 31.7925 674.739 31.601 675.001 31.4318C675.379 31.2289 677.024 30.6299 677.024 30.6299C677.024 30.6299 677.227 31.056 677.082 31.2137C676.693 31.4684 676.282 31.6869 675.853 31.8663V31.8663L674.279 32.2183L674.275 32.1696H674.275L674.263 32.0041Z" fill="#939598"/>
</g>
<path d="M657.478 34.8496C657.275 35.3843 657.103 35.9305 656.963 36.4854C656.947 36.5942 656.886 36.848 656.963 36.9258C657.245 37.0595 657.553 37.1288 657.865 37.1288C658.177 37.1288 658.486 37.0595 658.768 36.9258C659.072 36.6464 659.29 36.2864 659.398 35.8876C659.433 35.5426 659.433 35.1947 659.398 34.8496H657.478Z" fill="#443122"/>
<path d="M664.79 34.5977C664.725 35.0595 664.725 35.528 664.79 35.9898C665.007 36.4699 665.37 36.8692 665.828 37.1304C666.054 37.1856 666.288 37.1931 666.517 37.1525C666.745 37.1119 666.963 37.0241 667.155 36.8947C667.277 36.7499 667.067 36.3247 667.03 36.1395C666.949 35.7306 666.52 34.5977 666.52 34.5977H664.79V34.5977Z" fill="#443122"/>
<path d="M658.485 17.1954L657.321 20.0271C657.321 20.0271 657.421 25.4454 657.321 27.4249C657.297 27.891 657.155 28.8152 657.132 29.2811C657.079 30.3182 656.78 32.4571 657.132 33.4341C657.2 33.6238 657.647 33.8623 657.636 34.0634C657.625 34.2413 657.163 34.3914 657.132 34.5672C657.107 34.7124 657.384 35.1013 657.384 35.1013L659.303 35.3535C659.529 35.0919 659.71 34.794 659.838 34.4722C659.865 34.18 659.366 33.6581 659.429 33.3712C659.459 33.2299 659.781 33.0954 659.838 32.9622C660.423 31.5778 659.902 28.4509 660.027 26.9532C660.148 25.4899 660.813 21.3092 660.813 21.3092H662.461C662.461 21.3092 663.627 26.8662 663.888 28.8091C664.026 29.8326 663.923 31.9766 664.317 32.9308C664.389 33.1042 664.726 33.3724 664.726 33.5597C664.726 33.7476 664.319 34.0016 664.317 34.1894C664.315 34.3834 664.726 34.8499 664.726 34.8499L666.771 34.9441C666.771 34.9441 667.212 34.2466 667.149 34.0007C667.108 33.8436 666.688 33.7476 666.645 33.5914C666.579 33.349 666.96 32.7421 666.991 32.6478C667.023 32.5532 666.491 29.2767 666.362 28.1489C666.122 26.0478 665.878 20.2474 665.878 20.2474L664.84 17.1641L658.485 17.1954Z" fill="#5E4735"/>
<path d="M658.229 17.8156L658.479 17.1328L664.84 17.1642L665.06 17.8156C664.012 18.1883 662.915 18.4076 661.805 18.467C660.592 18.386 659.393 18.1675 658.229 17.8156V17.8156Z" fill="#443122"/>
<path d="M659.774 6.435V5.491L662.147 5.33398L662.228 6.12L660.966 6.90298L659.774 6.435Z" fill="#FFC083"/>
<path d="M659.898 5.50458C660.229 5.74432 660.631 5.86607 661.04 5.85037C661.448 5.83467 661.84 5.68242 662.152 5.41797C662.152 5.41797 662.141 6.59997 661.234 6.68997C660.051 6.80667 659.718 5.35888 659.898 5.50458Z" fill="#FF8A54"/>
<path d="M659.1 1.73438C658.975 2.76331 658.975 3.80365 659.1 4.83258C659.37 5.38086 659.803 5.83259 660.339 6.12628C660.709 6.24018 661.105 6.24018 661.475 6.12628C661.964 5.82746 662.352 5.38882 662.589 4.8671C662.75 3.83116 662.803 2.78133 662.749 1.73438H659.1Z" fill="#FFA969"/>
<path d="M659.38 2.21434C659.864 2.05834 660.372 1.9866 660.88 2.00225C661.413 1.95326 661.949 1.96306 662.479 2.03145C662.831 2.21275 662.743 3.67025 662.743 3.67025C663.037 2.98996 663.162 2.24887 663.109 1.50975C663.006 0.400255 662.352 0.00426146 660.527 0.00426146C660.278 -0.0133545 660.028 0.0237842 659.795 0.113087C659.561 0.20239 659.35 0.341688 659.177 0.521199C659.003 0.70071 658.87 0.916083 658.789 1.15221C658.707 1.38834 658.678 1.63949 658.703 1.88805C658.721 2.4922 658.818 3.09139 658.992 3.67025C658.992 3.67025 658.995 2.40614 659.38 2.21434Z" fill="#403023"/>
<path d="M659.265 3.79068C659.321 4.12198 659.212 4.41609 659.023 4.44839C658.832 4.48039 658.633 4.23927 658.576 3.90847C658.52 3.57767 658.628 3.28327 658.818 3.25097C659.008 3.21847 659.208 3.46048 659.265 3.79068Z" fill="#FFA969"/>
<path d="M662.419 3.79068C662.362 4.12198 662.471 4.41609 662.662 4.44839C662.852 4.48039 663.051 4.23927 663.108 3.90847C663.163 3.57767 663.055 3.28327 662.865 3.25097C662.675 3.21847 662.476 3.46048 662.419 3.79068Z" fill="#FFA969"/>
<path d="M667.861 13.64C667.741 12.2129 666.82 8.8638 665.866 7.7948C665.267 7.1222 662.796 6.6875 662.796 6.6875L659.335 7.09628C659.335 7.09628 657.106 7.94391 656.698 8.58121C656.039 9.61251 656.401 12.3276 656.22 13.4515C656.112 14.034 656.039 14.6223 656 15.2135C655.999 15.9977 656.377 18.3283 656.377 18.3283L656.849 19.0516L657.596 18.5991C657.46 17.9399 657.357 17.2739 657.29 16.604C657.269 15.828 657.863 13.4715 657.909 12.6966C657.961 11.8328 657.452 10.2145 657.668 10.0538C658.085 9.742 658.76 11.2211 658.926 11.7148C659.247 12.6703 658.926 14.7397 658.926 15.7484V17.3423C659.745 17.5954 660.589 17.7572 661.443 17.8248C662.458 17.906 663.477 17.7503 664.421 17.3699C664.421 17.3699 664.248 15.4003 664.243 14.7415C664.225 13.7302 664.277 12.7188 664.4 11.7148C664.507 11.1235 664.778 9.42459 665.124 9.42459C665.565 9.42459 665.5 11.1564 665.69 11.7148C665.998 12.3195 666.271 12.9413 666.508 13.5773C666.536 14.6809 666.463 15.7847 666.288 16.8747L665.619 18.1743L666.603 18.6893C666.883 18.1312 667.135 17.5592 667.358 16.9756C667.677 15.8918 667.846 14.7696 667.861 13.64Z" fill="#E3EFFD"/>
<path d="M658.926 15.7491C658.926 14.7404 659.247 12.671 658.926 11.7155C658.76 11.2218 658.085 9.74268 657.667 10.0545C657.452 10.2152 657.961 11.8335 657.909 12.6973C657.863 13.4722 657.269 15.8287 657.29 16.6047C657.357 17.2746 657.459 17.9405 657.596 18.5998L657.888 18.4232L657.919 14.9938L658.454 12.4768C658.454 12.4768 658.572 13.2064 658.58 13.4522C658.6 14.1303 658.391 16.1579 658.391 16.1579L658.485 17.1962C658.485 17.1962 658.649 17.2578 658.926 17.343V15.7491Z" fill="#CBDDEF"/>
<path d="M666.508 13.5765C666.271 12.9406 665.998 12.3187 665.69 11.714C665.5 11.1556 665.565 9.42383 665.123 9.42383C664.777 9.42383 664.507 11.1227 664.4 11.714C664.277 12.718 664.225 13.7294 664.243 14.7407C664.247 15.3995 664.421 17.3691 664.421 17.3691C664.565 17.3106 664.706 17.2418 664.84 17.1634C664.84 17.1634 664.618 15.4709 664.62 14.8982C664.622 14.0922 664.998 11.714 664.998 11.714C665.311 12.4632 665.574 13.2326 665.784 14.0171C665.836 14.9501 665.826 15.8856 665.753 16.8171L665.312 18.0129L665.619 18.1735L666.288 16.8739C666.462 15.7839 666.536 14.6801 666.508 13.5765V13.5765Z" fill="#CBDDEF"/>
<path d="M656 17.7628L657.898 17.2578L658.076 18.3918L656.66 19.3038L656 17.7628Z" fill="white"/>
<path d="M665.124 18.0125L665.766 16.6035L667.452 17.4775L666.615 18.9455L665.124 18.0125Z" fill="white"/>
<path d="M659.775 6.4361L659.335 7.09708L660.09 8.41809L660.971 7.2851L662.418 8.00909L662.947 6.73709L662.229 6.12109L660.967 6.90408L659.775 6.4361Z" fill="white"/>
<path d="M660.782 8.41815L660.247 10.2112V16.2841L661.141 17.1331L662.355 16.1261L661.935 10.1172L661.301 8.19815L661.713 7.65714L660.971 7.28516L660.456 7.94815L660.782 8.41815Z" fill="#DD625B"/>
<path d="M665.127 18.0156L664.495 18.2809L663.708 18.8317C663.708 18.8317 663.883 19.1341 663.988 19.1544C664.162 19.1882 664.621 18.8317 664.621 18.8317L665.803 20.0216L666.508 18.8317L665.127 18.0156Z" fill="#FFC083"/>
<path d="M658.076 18.2812L658.926 18.832C658.926 18.832 658.892 19.1112 658.818 19.1548C658.656 19.2508 658.076 19.0191 658.076 19.0191L657.321 20.0278L656.893 19.1548L658.076 18.2812Z" fill="#FFC083"/>
<path d="M659.57 18.2793L659.67 17.4453L659.948 17.5123V18.4113L659.57 18.2793Z" fill="#5E4735"/>
<path d="M663.16 18.4661L663.005 17.6175L663.282 17.5176C663.394 17.8106 663.49 18.1091 663.571 18.412C663.538 18.412 663.16 18.4661 663.16 18.4661Z" fill="#5E4735"/>
</svg>
