<svg width="1440" height="800" viewBox="0 0 1440 800" fill="none" xmlns="http://www.w3.org/2000/svg">
<line x1="1360.5" y1="2.18557e-08" x2="1360.5" y2="800" stroke="#7A40B4" stroke-opacity="0.08"/>
<line x1="1280.5" y1="2.18557e-08" x2="1280.5" y2="800" stroke="#7A40B4" stroke-opacity="0.08"/>
<line x1="1200.5" y1="2.18557e-08" x2="1200.5" y2="800" stroke="#7A40B4" stroke-opacity="0.08"/>
<line x1="1120.5" y1="2.18557e-08" x2="1120.5" y2="800" stroke="#7A40B4" stroke-opacity="0.08"/>
<line x1="1040.5" y1="2.18557e-08" x2="1040.5" y2="800" stroke="#7A40B4" stroke-opacity="0.08"/>
<line x1="960.5" y1="2.18557e-08" x2="960.5" y2="800" stroke="#7A40B4" stroke-opacity="0.08"/>
<line x1="880.5" y1="2.18557e-08" x2="880.5" y2="800" stroke="#7A40B4" stroke-opacity="0.08"/>
<line x1="800.5" y1="2.18557e-08" x2="800.5" y2="800" stroke="#7A40B4" stroke-opacity="0.08"/>
<line x1="720.5" y1="2.18557e-08" x2="720.5" y2="800" stroke="#7A40B4" stroke-opacity="0.08"/>
<line x1="640.5" y1="2.18557e-08" x2="640.5" y2="800" stroke="#7A40B4" stroke-opacity="0.08"/>
<line x1="560.5" y1="2.18557e-08" x2="560.5" y2="800" stroke="#7A40B4" stroke-opacity="0.08"/>
<line x1="480.5" y1="2.18557e-08" x2="480.5" y2="800" stroke="#7A40B4" stroke-opacity="0.08"/>
<line x1="400.5" y1="2.18557e-08" x2="400.5" y2="800" stroke="#7A40B4" stroke-opacity="0.08"/>
<line x1="320.5" y1="2.18557e-08" x2="320.5" y2="800" stroke="#7A40B4" stroke-opacity="0.08"/>
<line x1="240.5" y1="2.18557e-08" x2="240.5" y2="800" stroke="#7A40B4" stroke-opacity="0.08"/>
<line x1="160.5" y1="2.18557e-08" x2="160.5" y2="800" stroke="#7A40B4" stroke-opacity="0.08"/>
<line x1="80.5" y1="2.18557e-08" x2="80.5" y2="800" stroke="#7A40B4" stroke-opacity="0.08"/>
<line x1="-4.37114e-08" y1="719.5" x2="1440" y2="719.5" stroke="#7A40B4" stroke-opacity="0.08"/>
<line x1="-4.37114e-08" y1="639.5" x2="1440" y2="639.5" stroke="#7A40B4" stroke-opacity="0.08"/>
<line x1="-4.37114e-08" y1="559.5" x2="1440" y2="559.5" stroke="#7A40B4" stroke-opacity="0.08"/>
<line x1="-4.37114e-08" y1="479.5" x2="1440" y2="479.5" stroke="#7A40B4" stroke-opacity="0.08"/>
<line x1="-4.37114e-08" y1="399.5" x2="1440" y2="399.5" stroke="#7A40B4" stroke-opacity="0.08"/>
<line x1="-4.37114e-08" y1="319.5" x2="1440" y2="319.5" stroke="#7A40B4" stroke-opacity="0.08"/>
<line x1="-4.37114e-08" y1="239.5" x2="1440" y2="239.5" stroke="#7A40B4" stroke-opacity="0.08"/>
<line x1="-4.37114e-08" y1="159.5" x2="1440" y2="159.5" stroke="#7A40B4" stroke-opacity="0.08"/>
<line x1="-4.37114e-08" y1="79.5" x2="1440" y2="79.4999" stroke="#7A40B4" stroke-opacity="0.08"/>
</svg>
